<svg width="65" height="65" xmlns="http://www.w3.org/2000/svg"><path d="M63.519 19.833a3.351 3.351 0 01.5.486 5.1 5.1 0 01.27.37c.134.223.173.3.214.387a3.719 3.719 0 01.289.908c.047.308.058.459.058.61v19.032c0 .15-.01.3-.033.478-.047.258-.064.34-.087.428l-.062.197a2.97 2.97 0 01-.086.24 4.837 4.837 0 01-.208.424 4.49 4.49 0 01-.23.347 2.952 2.952 0 01-.309.36 2.564 2.564 0 01-.144.14 3.928 3.928 0 01-.386.307c.013-.006-28.581 19.058-28.581 19.058a3.541 3.541 0 01-3.928 0L2.25 44.575a4.38 4.38 0 01-.41-.323c-.047-.042-.15-.145-.15-.145a3.15 3.15 0 01-.306-.355 4.175 4.175 0 01-.253-.384 4.07 4.07 0 01-.197-.406 3.472 3.472 0 01-.087-.245 3.82 3.82 0 01-.178-1.091V22.593c0-.154.011-.308.032-.459.055-.309.067-.369.093-.465.088-.273.11-.337.141-.414.025-.06.044-.103.08-.177.042-.089.08-.163.123-.238a3.498 3.498 0 011.078-1.17L30.796.616a3.54 3.54 0 013.928 0l28.546 19.03c.216.16.216.16.248.187zm-1.233 23.34l.004-.003-.004.003zm-.001-22.128a.206.206 0 00.005.004l-.005-.004zM36.3 20.64l10.78 7.212 7.853-5.253L36.3 10.177v10.462zm-25.715 1.959l7.853 5.253 10.78-7.212V10.177l-18.633 12.42zm-2.835 12.4l4.32-2.888-4.32-2.89V35zm22.325 19.788v.857-.857zm-.857-11.205l-10.78-7.21-7.853 5.25L29.22 54.043V43.58zM40.713 32.11l-7.953-5.32-7.954 5.32 7.954 5.32 7.953-5.32zm14.22 9.511l-7.851-5.25L36.3 43.58v10.462L54.933 41.62zm2.835-12.4l-4.318 2.888L57.768 35v-5.78z" fill="#272727"/></svg>