<svg width="67" height="65" xmlns="http://www.w3.org/2000/svg"><path d="M33.07.017C14.665.017.585 13.991.585 32.397c0 14.718 9.263 27.312 22.494 31.744 1.699.305 2.296-.743 2.296-1.606 0-.822-.04-5.36-.04-8.148 0 0-9.29 1.99-11.24-3.954 0 0-1.513-3.862-3.69-4.857 0 0-3.038-2.084.213-2.044 0 0 3.304.265 5.122 3.424 2.907 5.122 7.777 3.65 9.675 2.773.305-2.123 1.168-3.596 2.123-4.472-7.418-.823-14.903-1.898-14.903-14.664 0-3.65 1.009-5.48 3.132-7.817-.345-.862-1.473-4.419.345-9.01 2.774-.863 9.157 3.583 9.157 3.583a31.18 31.18 0 018.334-1.128c2.826 0 5.68.385 8.334 1.128 0 0 6.383-4.46 9.156-3.583 1.819 4.605.69 8.148.346 9.01 2.123 2.35 3.423 4.18 3.423 7.817 0 12.806-7.816 13.828-15.234 14.664 1.22 1.048 2.256 3.039 2.256 6.158 0 4.472-.04 10.006-.04 11.094 0 .863.61 1.91 2.296 1.606 13.27-4.406 22.268-17 22.268-31.717 0-18.407-14.93-32.38-33.336-32.38z"/></svg>