<svg width="43" height="66" xmlns="http://www.w3.org/2000/svg"><path d="M33.279 2.124h9.372v34.142l.109-.154v6.653c0 3.191-.382 6.198-1.123 8.958-.76 2.826-1.959 5.204-3.643 7.183-1.682 2.027-3.878 3.555-6.618 4.643-2.668 1.016-5.827 1.527-9.461 1.527-2.266 0-4.495-.272-6.73-.81-2.232-.543-4.257-1.383-6.087-2.54a15.918 15.918 0 01-4.612-4.593c-1.256-1.93-1.981-4.188-2.176-6.737l-.173-2.276h9.332l.295 1.768c.21 1.257.61 2.268 1.203 3.086.571.789 1.306 1.444 2.183 1.99.97.55 2.015.954 3.132 1.202 1.2.267 2.434.4 3.708.4 4.177 0 7.02-1.128 8.682-3.264 1.703-2.22 2.627-5.47 2.71-9.816a17.243 17.243 0 01-2.136 1.706c-2.69 1.822-5.808 2.729-9.331 2.729-3.64 0-6.833-.612-9.544-1.84a18.091 18.091 0 01-6.706-5.18c-1.754-2.181-3.017-4.737-3.81-7.674C1.097 30.408.72 27.41.72 24.232c0-3.094.456-6.044 1.37-8.86.925-2.83 2.276-5.321 4.054-7.466 1.802-2.168 4.039-3.884 6.685-5.131C15.487 1.525 18.516.9 21.836.9c1.759 0 3.433.249 5.063.748a16.54 16.54 0 014.34 2.105 17.82 17.82 0 012.04 1.61v-3.24zm-6.74 36.136c1.4-.787 2.575-1.832 3.586-3.18 1.004-1.337 1.752-2.88 2.245-4.641.522-1.868.785-3.741.785-5.636 0-1.947-.216-3.852-.656-5.715-.434-1.834-1.128-3.488-2.084-4.97a10.963 10.963 0 00-3.512-3.413c-1.387-.829-3.078-1.25-5.146-1.25-2.089 0-3.823.416-5.204 1.221-1.486.866-2.71 1.983-3.64 3.33-.979 1.419-1.702 3.052-2.159 4.872a26.01 26.01 0 00-.696 5.925c0 1.97.247 3.84.748 5.635.508 1.816 1.233 3.344 2.221 4.66.95 1.295 2.16 2.344 3.64 3.151 1.386.76 3.076 1.155 5.093 1.166 1.866-.01 3.435-.397 4.779-1.155z"/></svg>