<svg width="65" height="53" xmlns="http://www.w3.org/2000/svg"><path d="M57.664 13.189c.04.57.04 1.142.04 1.713 0 17.413-13.253 37.477-37.477 37.477-7.463 0-14.395-2.161-20.227-5.913 1.06.122 2.08.163 3.18.163A26.38 26.38 0 0019.535 41c-5.791-.122-10.644-3.915-12.316-9.135a16.6 16.6 0 002.488.204c1.182 0 2.365-.163 3.466-.448C7.137 30.398 2.61 25.097 2.61 18.694v-.163a13.267 13.267 0 005.954 1.672 13.163 13.163 0 01-5.872-10.97c0-2.447.652-4.69 1.794-6.647a37.44 37.44 0 0027.16 13.784 14.867 14.867 0 01-.327-3.018C31.32 6.093 37.192.18 44.491.18a13.14 13.14 0 019.625 4.16 25.931 25.931 0 008.36-3.181 13.136 13.136 0 01-5.791 7.259c2.65-.286 5.22-1.02 7.585-2.04a28.318 28.318 0 01-6.606 6.811z"/></svg>