<?xml version="1.0" encoding="UTF-8"?>
<svg width="43px" height="66px" viewBox="0 0 43 66" version="1.1" xmlns="http://www.w3.org/2000/svg" xmlns:xlink="http://www.w3.org/1999/xlink">
    <!-- Generator: Sketch 53.2 (72643) - https://sketchapp.com -->
    <title>goodreads</title>
    <desc>Created with Sketch.</desc>
    <g id="Page-1" stroke="none" stroke-width="1" fill="none" fill-rule="evenodd">
        <g id="portrait" transform="translate(-210.000000, -789.000000)" fill="#000000" fill-rule="nonzero">
            <path d="M243.278935,791.123734 L252.651147,791.123734 L252.651147,825.266111 L252.760002,825.112202 L252.760002,831.765025 C252.760002,834.956078 252.377887,837.962943 251.636563,840.722516 C250.87718,843.549315 249.677973,845.926864 247.993523,847.905984 C246.311708,849.932936 244.116456,851.461115 241.375838,852.548525 C238.708361,853.564781 235.549087,854.076028 231.914545,854.076028 C229.648824,854.076028 227.419697,853.803671 225.184166,853.265443 C222.953136,852.723284 220.92776,851.882818 219.097936,850.725313 C217.23964,849.503808 215.700688,847.978803 214.48592,846.132862 C213.229799,844.203678 212.504517,841.944621 212.310155,839.396132 L212.136584,837.120255 L221.469298,837.120255 L221.76383,838.887575 C221.973454,840.145415 222.374628,841.155587 222.967178,841.973931 C223.538494,842.762949 224.27311,843.418389 225.149667,843.964484 C226.12033,844.514567 227.164952,844.9182 228.281876,845.166424 C229.481393,845.433003 230.716398,845.566527 231.989618,845.566527 C236.166907,845.566527 239.010488,844.438284 240.671613,842.302473 C242.374821,840.082057 243.299157,836.83265 243.381724,832.48631 C242.722871,833.104923 242.01078,833.673705 241.246032,834.191798 C238.555689,836.014422 235.437851,836.920711 231.914545,836.920711 C228.274573,836.920711 225.082201,836.30914 222.370801,835.080448 C219.703922,833.871929 217.476734,832.143081 215.665211,829.900073 C213.911188,827.719913 212.648351,825.163786 211.854799,822.227421 C211.096888,819.408108 210.720001,816.408786 210.720001,813.232027 C210.720001,810.137753 211.175872,807.18755 212.089735,804.372334 C213.01502,801.54281 214.366061,799.050869 216.144126,796.906209 C217.94555,794.737591 220.182595,793.022434 222.828555,791.774963 C225.487405,790.525634 228.515807,789.899963 231.835719,789.899963 C233.594958,789.899963 235.269142,790.148602 236.898879,790.647809 C238.460225,791.141568 239.885773,791.836308 241.238525,792.752755 C241.960122,793.241615 242.638389,793.77759 243.278935,794.363747 L243.278935,791.123734 Z M236.538559,827.259885 C237.938772,826.472596 239.113694,825.427622 240.125198,824.07994 C241.12896,822.742572 241.876668,821.200718 242.369704,819.438806 C242.891534,817.570518 243.155065,815.697608 243.155065,813.80262 C243.155065,811.856407 242.938929,809.950805 242.498588,808.087689 C242.065198,806.253981 241.370678,804.600241 240.415428,803.117846 C239.517259,801.727131 238.331907,800.581997 236.902718,799.705204 C235.516402,798.876367 233.824509,798.454511 231.756893,798.454511 C229.668398,798.454511 227.933907,798.871442 226.552976,799.676043 C225.067239,800.54171 223.843829,801.658749 222.912665,803.005931 C221.934128,804.424913 221.211097,806.057603 220.753996,807.878365 C220.2923,809.860251 220.058431,811.830098 220.058431,813.80262 C220.058431,815.772856 220.304529,817.642494 220.80598,819.437821 C221.314219,821.254061 222.039097,822.782053 223.027001,824.098503 C223.976595,825.392929 225.186969,826.442154 226.666945,827.249191 C228.052799,828.00952 229.743303,828.404179 231.759856,828.414746 C233.625624,828.4043 235.19477,828.018431 236.538559,827.259885 Z" id="goodreads"></path>
        </g>
    </g>
</svg>