<?xml version="1.0" encoding="UTF-8"?>
<svg width="65px" height="53px" viewBox="0 0 65 53" version="1.1" xmlns="http://www.w3.org/2000/svg" xmlns:xlink="http://www.w3.org/1999/xlink">
    <!-- Generator: Sketch 53.2 (72643) - https://sketchapp.com -->
    <title>twitter</title>
    <desc>Created with Sketch.</desc>
    <g id="Page-1" stroke="none" stroke-width="1" fill="none" fill-rule="evenodd">
        <g id="portrait" transform="translate(0.000000, -795.000000)" fill="#000000" fill-rule="nonzero">
            <path d="M57.663563,808.188958 C57.7043434,808.759884 57.7043434,809.33081 57.7043434,809.901737 C57.7043434,827.314991 44.4506956,847.378975 20.2271055,847.378975 C12.7642823,847.378975 5.83160503,845.217611 0,841.465809 C1.06029182,841.58815 2.07980319,841.628931 3.18087547,841.628931 C9.33872413,841.628931 15.0072073,839.549127 19.5338378,836.001228 C13.7430132,835.878886 8.89013913,832.086304 7.21814049,826.866406 C8.03374958,826.988747 8.84935867,827.070308 9.70574822,827.070308 C10.8883814,827.070308 12.0710146,826.907186 13.1720869,826.621723 C7.13657958,825.39831 2.6099491,820.096851 2.6099491,813.694319 L2.6099491,813.531197 C4.36350866,814.509928 6.40253139,815.121635 8.56389549,815.203196 C5.01599593,812.83793 2.69151001,808.800665 2.69151001,804.233254 C2.69151001,801.786426 3.34399729,799.543501 4.48585002,797.58604 C10.9699423,805.579009 20.716471,810.798907 31.6456329,811.369833 C31.4417306,810.391102 31.3193892,809.371591 31.3193892,808.35208 C31.3193892,801.093159 37.1917747,795.179993 44.4914761,795.179993 C48.2840584,795.179993 51.7096166,796.77043 54.1156634,799.339599 C57.0926366,798.768673 59.9472684,797.6676 62.4756566,796.158724 C61.4969257,799.217258 59.4171225,801.786426 56.6848321,803.417645 C59.3355616,803.132181 61.9047303,802.398133 64.2699966,801.378622 C62.4756566,803.988571 60.2327316,806.313057 57.663563,808.188958 L57.663563,808.188958 Z" id="twitter"></path>
        </g>
    </g>
</svg>