<?xml version="1.0" encoding="UTF-8"?><!DOCTYPE svg PUBLIC "-//W3C//DTD SVG 1.1//EN" "http://www.w3.org/Graphics/SVG/1.1/DTD/svg11.dtd"><svg xmlns="http://www.w3.org/2000/svg" xmlns:xlink="http://www.w3.org/1999/xlink"><symbol id="codepen" viewBox="0 0 65 65"><path d="M63.519 19.833a3.351 3.351 0 01.5.486c.16.207.207.274.27.37.134.223.173.3.214.387a3.719 3.719 0 01.289.908c.047.308.058.459.058.61v19.032c0 .15-.01.3-.033.478-.047.258-.064.34-.087.428l-.062.197c-.04.123-.06.177-.086.24a4.837 4.837 0 01-.208.424 4.49 4.49 0 01-.23.347 2.952 2.952 0 01-.309.36 2.564 2.564 0 01-.144.14 3.928 3.928 0 01-.386.307c.013-.006-28.581 19.058-28.581 19.058a3.541 3.541 0 01-3.928 0L2.25 44.575a4.38 4.38 0 01-.41-.323c-.047-.042-.15-.145-.15-.145a3.15 3.15 0 01-.306-.355 4.175 4.175 0 01-.253-.384 4.07 4.07 0 01-.197-.406 3.472 3.472 0 01-.087-.245 3.82 3.82 0 01-.178-1.091V22.593c0-.154.011-.308.032-.459.055-.309.067-.369.093-.465.088-.273.11-.337.141-.414.025-.06.044-.103.08-.177.042-.089.08-.163.123-.238a3.498 3.498 0 011.078-1.17L30.796.616a3.54 3.54 0 013.928 0L63.27 19.646c.216.16.216.16.248.187zm-1.233 23.34l.004-.003-.004.003zm-.001-22.128a.206.206 0 00.005.004l-.005-.004zM36.3 20.64l10.78 7.212 7.853-5.253L36.3 10.177v10.462zm-25.715 1.959l7.853 5.253 10.78-7.212V10.177l-18.633 12.42zm-2.835 12.4l4.32-2.888-4.32-2.89V35zm22.325 19.788v.857-.857zm-.857-11.205l-10.78-7.21-7.853 5.25L29.22 54.043V43.58zM40.713 32.11l-7.953-5.32-7.954 5.32 7.954 5.32 7.953-5.32zm14.22 9.511l-7.851-5.25L36.3 43.58v10.462L54.933 41.62zm2.835-12.4l-4.318 2.888L57.768 35V29.22z" fill-rule="nonzero"/></symbol><symbol id="email" viewBox="0 0 65 48"><path d="M64.36 7.51L32.303 27.794.08 7.528V3.82C.08 2.164 1.423.82 3.073.82h58.294a3.002 3.002 0 012.993 3v3.69zm0 5.433v31.709c0 1.657-1.343 3-2.993 3H3.073a3.002 3.002 0 01-2.993-3v-31.7l31.005 19.5c.749.472 1.702.47 2.45-.003L64.36 12.943z" fill-rule="evenodd"/></symbol><symbol id="github" viewBox="0 0 67 65"><path d="M33.07.017C14.665.017.585 13.991.585 32.397c0 14.718 9.263 27.312 22.494 31.744 1.699.305 2.296-.743 2.296-1.606 0-.822-.04-5.36-.04-8.148 0 0-9.29 1.99-11.24-3.954 0 0-1.513-3.862-3.69-4.857 0 0-3.038-2.084.213-2.044 0 0 3.304.265 5.122 3.424 2.907 5.122 7.777 3.65 9.675 2.773.305-2.123 1.168-3.596 2.123-4.472-7.418-.823-14.903-1.898-14.903-14.664 0-3.65 1.009-5.48 3.132-7.817-.345-.862-1.473-4.419.345-9.01 2.774-.863 9.157 3.583 9.157 3.583a31.18 31.18 0 018.334-1.128c2.826 0 5.68.385 8.334 1.128 0 0 6.383-4.46 9.156-3.583 1.819 4.605.69 8.148.346 9.01 2.123 2.35 3.423 4.18 3.423 7.817 0 12.806-7.816 13.828-15.234 14.664 1.22 1.048 2.256 3.039 2.256 6.158 0 4.472-.04 10.006-.04 11.094 0 .863.61 1.91 2.296 1.606 13.27-4.406 22.268-17 22.268-31.717 0-18.407-14.93-32.38-33.336-32.38z" fill-rule="nonzero"/></symbol><symbol id="goodreads" viewBox="0 0 43 66"><path d="M33.279 2.124h9.372v34.142l.109-.154v6.653c0 3.191-.382 6.198-1.123 8.958-.76 2.826-1.959 5.204-3.643 7.183-1.682 2.027-3.878 3.555-6.618 4.643-2.668 1.016-5.827 1.527-9.461 1.527-2.266 0-4.495-.272-6.73-.81-2.232-.543-4.257-1.383-6.087-2.54a15.918 15.918 0 01-4.612-4.593c-1.256-1.93-1.981-4.188-2.176-6.737l-.173-2.276h9.332l.295 1.768c.21 1.257.61 2.268 1.203 3.086.571.789 1.306 1.444 2.183 1.99.97.55 2.015.954 3.132 1.202 1.2.267 2.434.4 3.708.4 4.177 0 7.02-1.128 8.682-3.264 1.703-2.22 2.627-5.47 2.71-9.816a17.243 17.243 0 01-2.136 1.706c-2.69 1.822-5.808 2.729-9.331 2.729-3.64 0-6.833-.612-9.544-1.84a18.091 18.091 0 01-6.706-5.18c-1.754-2.181-3.017-4.737-3.81-7.674C1.097 30.408.72 27.41.72 24.232c0-3.094.456-6.044 1.37-8.86.925-2.83 2.276-5.321 4.054-7.466 1.802-2.168 4.039-3.884 6.685-5.131C15.487 1.525 18.516.9 21.836.9c1.759 0 3.433.249 5.063.748a16.54 16.54 0 014.34 2.105 17.82 17.82 0 012.04 1.61v-3.24zm-6.74 36.136c1.4-.787 2.575-1.832 3.586-3.18 1.004-1.337 1.752-2.88 2.245-4.641.522-1.868.785-3.741.785-5.636 0-1.947-.216-3.852-.656-5.715-.434-1.834-1.128-3.488-2.084-4.97a10.963 10.963 0 00-3.512-3.413c-1.387-.829-3.078-1.25-5.146-1.25-2.089 0-3.823.416-5.204 1.221-1.486.866-2.71 1.983-3.64 3.33-.979 1.419-1.702 3.052-2.159 4.872a26.01 26.01 0 00-.696 5.925c0 1.97.247 3.84.748 5.635.508 1.816 1.233 3.344 2.221 4.66.95 1.295 2.16 2.344 3.64 3.151 1.386.76 3.076 1.155 5.093 1.166 1.866-.01 3.435-.397 4.779-1.155z" fill-rule="nonzero"/></symbol><symbol id="linkedin" viewBox="0 0 63 64"><path d="M14.112 63.058H1.19V21.453h12.923v41.605zm-6.468-47.28C3.512 15.777.16 12.354.16 8.223A7.486 7.486 0 017.644.74a7.486 7.486 0 017.484 7.484c0 4.131-3.353 7.553-7.484 7.553zm54.835 47.28H49.584V42.805c0-4.827-.098-11.017-6.72-11.017-6.718 0-7.747 5.244-7.747 10.67v20.6H22.208V21.453h12.394v5.675h.18c1.726-3.269 5.94-6.719 12.228-6.719 13.076 0 15.482 8.61 15.482 19.795v22.854h-.013z" fill-rule="nonzero"/></symbol><symbol id="twitter" viewBox="0 0 65 53"><path d="M57.664 13.189c.04.57.04 1.142.04 1.713 0 17.413-13.253 37.477-37.477 37.477-7.463 0-14.395-2.161-20.227-5.913 1.06.122 2.08.163 3.18.163A26.38 26.38 0 0019.535 41c-5.791-.122-10.644-3.915-12.316-9.135a16.6 16.6 0 002.488.204c1.182 0 2.365-.163 3.466-.448C7.137 30.398 2.61 25.097 2.61 18.694v-.163a13.267 13.267 0 005.954 1.672 13.163 13.163 0 01-5.872-10.97c0-2.447.652-4.69 1.794-6.647a37.44 37.44 0 0027.16 13.784 14.867 14.867 0 01-.327-3.018C31.32 6.093 37.192.18 44.491.18a13.14 13.14 0 019.625 4.16 25.931 25.931 0 008.36-3.181 13.136 13.136 0 01-5.791 7.259c2.65-.286 5.22-1.02 7.585-2.04a28.318 28.318 0 01-6.606 6.811z" fill-rule="nonzero"/></symbol></svg>