<svg width="1296" height="446" xmlns="http://www.w3.org/2000/svg"><g fill-rule="evenodd"><path d="M0 176.094V1.624h34.934V146.44h35.95v29.654H0zm75.962 0L92.82 1.624h59.104l16.655 174.47h-33.107l-2.437-28.232h-21.123l-2.031 28.232H75.96zm38.59-56.058h15.843l-7.718-88.758h-1.625l-6.5 88.758zm64.588 56.058V1.624h35.95l16.046 83.478V1.625h33.715v174.469H230.73l-17.467-87.336v87.336H179.14zM280.287 1.624h48.137c12.457 0 21.8 3.454 28.028 10.36 6.23 6.905 9.411 17.128 9.546 30.668l.407 81.65c.135 17.196-2.844 30.127-8.937 38.793s-16.18 12.999-30.263 12.999h-46.918V1.624zm41.231 143.597c6.364 0 9.546-3.114 9.546-9.343V45.902c0-3.927-.305-6.872-.914-8.835-.61-1.963-1.726-3.284-3.351-3.96-1.625-.678-4.13-1.016-7.515-1.016h-3.86v113.13h6.094zm68.447 19.6c-7.312-8.598-10.968-20.683-10.968-36.254V45.496c0-15.03 3.656-26.37 10.968-34.02C397.277 3.826 407.974 0 422.055 0c14.083 0 24.78 3.825 32.092 11.476 7.312 7.65 10.968 18.99 10.968 34.02v83.07c0 15.708-3.656 27.826-10.968 36.357-7.312 8.53-18.009 12.795-32.091 12.795s-24.78-4.299-32.09-12.897zm38.387-23.256c1.083-2.708 1.625-6.499 1.625-11.374V44.887c0-3.792-.508-6.872-1.523-9.242-1.016-2.37-3.08-3.554-6.195-3.554-5.822 0-8.734 4.4-8.734 13.202v85.102c0 5.01.61 8.8 1.828 11.374 1.22 2.572 3.453 3.859 6.703 3.859 3.114 0 5.213-1.354 6.296-4.063zm50.777 34.529V1.624h35.95l16.045 83.478V1.625h33.716v174.469h-34.122l-17.467-87.336v87.336h-34.122zm156.203-10.154c-7.041-7.854-10.562-20.514-10.562-37.982v-17.06h34.325v21.732c0 8.666 2.776 12.999 8.328 12.999 3.114 0 5.28-.914 6.5-2.742 1.218-1.828 1.827-4.909 1.827-9.242 0-5.687-.677-10.392-2.03-14.116-1.355-3.723-3.081-6.838-5.18-9.343-2.099-2.505-5.856-6.398-11.273-11.678l-15.03-15.03C630.592 72.103 624.77 59.51 624.77 45.699c0-14.894 3.419-26.234 10.257-34.02C641.865 3.893 651.851 0 664.985 0c15.708 0 27.014 4.164 33.92 12.491 6.905 8.328 10.358 21.36 10.358 39.099H673.72l-.203-11.984c0-2.302-.643-4.13-1.93-5.484-1.286-1.354-3.08-2.03-5.382-2.03-2.708 0-4.74.744-6.093 2.233-1.354 1.49-2.031 3.52-2.031 6.094 0 5.687 3.25 11.577 9.749 17.67l20.31 19.498c4.74 4.604 8.667 8.971 11.781 13.1 3.114 4.13 5.62 9.005 7.515 14.625 1.896 5.619 2.844 12.288 2.844 20.006 0 17.196-3.149 30.23-9.445 39.098-6.296 8.87-16.689 13.304-31.177 13.304-15.843 0-27.284-3.927-34.325-11.78zm96.578-.204c-7.65-7.989-11.476-18.956-11.476-32.903V52.402c0-17.332 3.453-30.399 10.359-39.2C737.698 4.401 748.53 0 763.29 0c12.864 0 23.222 3.52 31.075 10.562 7.854 7.04 11.78 17.196 11.78 30.466v30.06h-34.73V45.293c0-5.01-.61-8.463-1.829-10.358-1.218-1.896-3.317-2.844-6.296-2.844-3.114 0-5.247 1.083-6.398 3.25-1.15 2.166-1.726 5.348-1.726 9.546v87.54c0 4.603.677 7.955 2.03 10.054 1.355 2.098 3.386 3.148 6.094 3.148 5.416 0 8.124-4.4 8.124-13.202v-31.482h35.138v32.903c0 29.248-14.691 43.872-44.075 43.872-12.728 0-22.917-3.995-30.567-11.984zm86.22 10.359V1.625h34.73v62.354h16.452V1.625h34.732v174.47h-34.732V96.883h-16.451v79.212h-34.732zM919.48 1.625h53.62c8.531 0 15.132 1.93 19.804 5.788 4.671 3.86 7.82 9.276 9.444 16.25 1.625 6.973 2.438 15.875 2.438 26.708 0 9.885-1.287 17.603-3.86 23.154-2.572 5.552-7.04 9.41-13.404 11.577 5.28 1.084 9.106 3.724 11.475 7.922 2.37 4.197 3.555 9.884 3.555 17.06l-.407 66.01h-34.122v-68.243c0-4.875-.948-7.99-2.843-9.343-1.896-1.355-5.349-2.032-10.359-2.032v79.619h-35.34V1.625zm43.872 64.588c4.874 0 7.312-5.28 7.312-15.842 0-4.604-.204-8.057-.61-10.359-.406-2.302-1.15-3.893-2.234-4.773-1.083-.88-2.64-1.32-4.671-1.32h-8.125v32.294h8.328zm62.557 98.61c-7.312-8.599-10.968-20.684-10.968-36.255V45.496c0-15.03 3.656-26.37 10.968-34.02C1033.221 3.826 1043.918 0 1058 0s24.78 3.825 32.091 11.476c7.312 7.65 10.968 18.99 10.968 34.02v83.072c0 15.707-3.656 27.825-10.968 36.356-7.312 8.53-18.009 12.796-32.09 12.796-14.083 0-24.78-4.3-32.092-12.898zm38.387-23.256c1.084-2.709 1.625-6.5 1.625-11.375V44.887c0-3.791-.507-6.872-1.523-9.241-1.015-2.37-3.08-3.555-6.195-3.555-5.822 0-8.733 4.4-8.733 13.202v85.103c0 5.01.609 8.8 1.828 11.374 1.218 2.572 3.452 3.859 6.702 3.859 3.114 0 5.213-1.354 6.296-4.062zm50.778-139.942h46.105c13.947 0 23.9 4.502 29.857 13.507 5.958 9.004 8.937 22.172 8.937 39.504 0 17.332-2.64 30.399-7.921 39.2-5.281 8.801-14.76 13.202-28.436 13.202H1149.4v69.057h-34.325V1.625zm36.356 73.931c4.198 0 7.278-.778 9.241-2.335 1.964-1.558 3.25-3.792 3.86-6.703.609-2.911.913-7.075.913-12.491 0-7.312-.812-12.593-2.437-15.843-1.625-3.25-4.874-4.874-9.749-4.874h-3.86v42.246h2.032zm59.51-73.931h46.106c13.947 0 23.9 4.502 29.857 13.507 5.958 9.004 8.937 22.172 8.937 39.504 0 17.332-2.64 30.399-7.921 39.2-5.281 8.801-14.76 13.202-28.435 13.202h-14.218v69.057h-34.325V1.625zm36.357 73.931c4.198 0 7.278-.778 9.242-2.335 1.963-1.558 3.25-3.792 3.859-6.703.609-2.911.914-7.075.914-12.491 0-7.312-.813-12.593-2.438-15.843-1.625-3.25-4.874-4.874-9.749-4.874h-3.859v42.246h2.031zm-754.39 237.049l2.897-10.409h-5.612v-13.214h16.473v12.762l-4.435 10.86zm41.022-88.157h21.45c5.552 0 9.715 1.539 12.49 4.616 2.776 3.078 4.194 7.633 4.255 13.667l.18 36.385c.061 7.663-1.266 13.426-3.982 17.288-2.715 3.861-7.21 5.792-13.486 5.792H533.93v-77.748zm18.373 63.99c2.836 0 4.254-1.387 4.254-4.163V244.18c0-1.75-.136-3.062-.407-3.937-.272-.875-.77-1.463-1.494-1.765-.724-.301-1.84-.452-3.349-.452h-1.72v50.414h2.716zm26.248 13.758v-77.748h31.135v15.025H594.39v15.115h14.663v14.663H594.39v17.83h16.292v15.115H578.55zm44.44 0l-9.594-77.838h14.844l5.702 52.948 5.069-52.948h14.843l-9.594 77.838h-21.27zm35.3 0v-77.748h31.135v15.025h-15.296v15.115h14.662v14.663H674.13v17.83h16.291v15.115h-32.13zm37.29 0v-77.748h15.567v64.534h16.02v13.214H695.58zm40.186-5.023c-3.259-3.832-4.888-9.217-4.888-16.156v-37.019c0-6.697 1.63-11.75 4.888-15.16s8.025-5.114 14.3-5.114c6.276 0 11.043 1.705 14.301 5.114 3.258 3.41 4.888 8.463 4.888 15.16v37.019c0 7-1.63 12.4-4.888 16.201-3.258 3.802-8.025 5.702-14.3 5.702-6.276 0-11.043-1.915-14.301-5.747zm17.106-10.363c.483-1.207.724-2.897.724-5.069v-38.014c0-1.69-.226-3.062-.678-4.118-.453-1.056-1.373-1.584-2.761-1.584-2.595 0-3.892 1.96-3.892 5.883v37.924c0 2.232.272 3.922.815 5.068.543 1.147 1.538 1.72 2.986 1.72 1.388 0 2.324-.604 2.806-1.81zm22.628-62.362h20.546c6.215 0 10.65 2.006 13.304 6.02 2.655 4.012 3.983 9.88 3.983 17.603 0 7.724-1.177 13.547-3.53 17.469-2.353 3.922-6.577 5.883-12.671 5.883h-6.336v30.773H775.5v-77.748zm16.201 32.946c1.87 0 3.243-.347 4.118-1.041.875-.694 1.448-1.69 1.72-2.987.271-1.297.407-3.153.407-5.566 0-3.259-.362-5.612-1.086-7.06-.724-1.448-2.172-2.172-4.344-2.172h-1.72v18.826h.905zm26.52 44.802v-77.748h31.135v15.025H834.06v15.115h14.662v14.663H834.06v17.83h16.292v15.115H818.22zm37.29-77.748h23.894c3.802 0 6.743.86 8.825 2.58 2.082 1.72 3.485 4.133 4.209 7.24.724 3.108 1.086 7.075 1.086 11.903 0 4.404-.573 7.844-1.72 10.318-1.146 2.474-3.138 4.193-5.974 5.159 2.354.482 4.058 1.66 5.114 3.53 1.056 1.87 1.584 4.404 1.584 7.603l-.18 29.415h-15.207v-30.411c0-2.172-.422-3.56-1.267-4.164-.844-.603-2.383-.905-4.616-.905v35.48h-15.748v-77.748zm19.55 28.782c2.172 0 3.258-2.353 3.258-7.06 0-2.051-.09-3.59-.271-4.615-.181-1.026-.513-1.735-.996-2.127-.483-.393-1.177-.589-2.082-.589h-3.62v14.391h3.71zm46.522 44.893c-2.414-3.318-3.62-7.633-3.62-12.943 0-5.913.844-10.665 2.534-14.255 1.69-3.59 4.344-6.743 7.965-9.458-2.957-5.793-4.435-10.801-4.435-15.025 0-4.405 1.433-7.86 4.299-10.363 2.866-2.504 6.562-3.756 11.087-3.756 4.466 0 8.131 1.191 10.997 3.575 2.866 2.383 4.3 5.717 4.3 10.001 0 6.275-3.47 12.159-10.41 17.65l2.807 6.607c1.69-4.465 4.224-7.935 7.603-10.409l6.154 9.594c-3.56 2.776-6.456 7.362-8.689 13.758l7.875 19.097h-15.025l-1.63-4.254c-1.266 1.509-2.88 2.746-4.841 3.711-1.962.966-4.088 1.448-6.381 1.448-4.647 0-8.176-1.659-10.59-4.978zm19.46-45.798c.603-.664 1.146-1.614 1.629-2.85.482-1.238.724-2.43.724-3.576 0-1.81-.875-2.715-2.625-2.715-.724 0-1.297.256-1.72.77-.422.512-.633 1.16-.633 1.945 0 1.569.633 3.982 1.9 7.24l.725-.814zm-3.53 38.15a6.461 6.461 0 001.538-3.032l-5.34-12.852-.543.814c-.483.724-.875 1.87-1.176 3.44a24.41 24.41 0 00-.453 4.616v.452c0 2.354.181 4.254.543 5.702.362 1.449 1.207 2.173 2.534 2.173 1.147 0 2.112-.438 2.897-1.313zm49.237-66.027h21.451c5.551 0 9.715 1.539 12.49 4.616 2.776 3.078 4.194 7.633 4.254 13.667l.181 36.385c.06 7.663-1.267 13.426-3.982 17.288-2.715 3.861-7.21 5.792-13.486 5.792H986.75v-77.748zm18.374 63.99c2.836 0 4.254-1.387 4.254-4.163V244.18c0-1.75-.136-3.062-.408-3.937-.271-.875-.769-1.463-1.493-1.765-.724-.301-1.84-.452-3.349-.452h-1.72v50.414h2.716zm26.248 13.758v-77.748h31.135v15.025h-15.296v15.115h14.662v14.663h-14.662v17.83h16.292v15.115h-32.131zm40.457-4.525c-3.137-3.5-4.706-9.142-4.706-16.926v-7.602h15.296v9.684c0 3.862 1.237 5.793 3.711 5.793 1.388 0 2.353-.408 2.896-1.222.543-.815.815-2.187.815-4.118 0-2.535-.302-4.631-.905-6.29-.604-1.66-1.373-3.048-2.308-4.164-.935-1.117-2.61-2.851-5.023-5.205l-6.698-6.697c-5.19-5.069-7.784-10.68-7.784-16.835 0-6.638 1.524-11.691 4.57-15.16 3.048-3.47 7.498-5.205 13.351-5.205 7 0 12.038 1.856 15.115 5.566 3.077 3.711 4.616 9.519 4.616 17.424h-15.84l-.09-5.34c0-1.026-.286-1.84-.86-2.444-.573-.604-1.372-.905-2.398-.905-1.207 0-2.112.332-2.715.995-.604.664-.905 1.57-.905 2.716 0 2.534 1.448 5.159 4.344 7.874l9.051 8.689c2.112 2.051 3.862 3.997 5.25 5.838 1.388 1.84 2.504 4.012 3.349 6.517.844 2.504 1.267 5.475 1.267 8.915 0 7.663-1.403 13.47-4.209 17.423-2.806 3.952-7.437 5.928-13.893 5.928-7.06 0-12.159-1.75-15.296-5.25zm37.834 4.525v-77.748h15.024v77.748h-15.024zm24.754-5.204c-2.745-3.952-4.118-9.941-4.118-17.966v-33.489c0-7.18 1.599-12.611 4.797-16.292 3.198-3.68 7.965-5.52 14.3-5.52 5.13 0 9.112 1.025 11.948 3.076 2.836 2.052 4.797 5.039 5.883 8.96 1.086 3.923 1.63 8.961 1.63 15.116h-15.206v-6.97c0-1.87-.257-3.318-.77-4.344-.513-1.025-1.433-1.538-2.76-1.538-2.957 0-4.435 1.93-4.435 5.792v37.652c0 2.354.301 4.134.905 5.34.603 1.207 1.66 1.81 3.168 1.81 1.508 0 2.564-.603 3.167-1.81.604-1.206.906-2.986.906-5.34v-11.132h-4.164V256.94h19.007v45.255h-6.245l-2.625-6.516c-2.775 4.827-7.06 7.24-12.852 7.24-5.612 0-9.79-1.976-12.536-5.928zm40.413 5.204v-77.748h16.02l7.15 37.2v-37.2h15.025v77.748h-15.206l-7.783-38.919v38.92h-15.206zm45.074 0v-77.748h31.135v15.025h-15.296v15.115h14.663v14.663h-14.663v17.83h16.292v15.115h-32.131zm37.29-77.748h23.895c3.801 0 6.743.86 8.824 2.58 2.082 1.72 3.485 4.133 4.21 7.24.723 3.108 1.085 7.075 1.085 11.903 0 4.404-.573 7.844-1.72 10.318-1.146 2.474-3.137 4.193-5.973 5.159 2.353.482 4.058 1.66 5.114 3.53 1.056 1.87 1.584 4.404 1.584 7.603l-.181 29.415h-15.206v-30.411c0-2.172-.423-3.56-1.267-4.164-.845-.603-2.384-.905-4.616-.905v35.48h-15.749v-77.748zm19.55 28.782c2.172 0 3.259-2.353 3.259-7.06 0-2.051-.091-3.59-.272-4.615-.181-1.026-.513-1.735-.996-2.127-.482-.393-1.176-.589-2.081-.589h-3.62v14.391h3.71zM.925 302.196v-77.748h31.136v15.025H16.764v15.115h14.663v14.663H16.764v17.83h16.292v15.115H.926zm37.29 0v-77.748h16.02l7.15 37.2v-37.2h15.026v77.748H61.205l-7.784-38.919v38.92H38.215zm51.772 0v-62.814h-9.232v-14.934h34.032v14.934h-9.232v62.814H89.987zm29.144-77.748h23.895c3.801 0 6.743.86 8.825 2.58 2.081 1.72 3.484 4.133 4.208 7.24.724 3.108 1.086 7.075 1.086 11.903 0 4.404-.573 7.844-1.72 10.318-1.146 2.474-3.137 4.193-5.973 5.159 2.353.482 4.058 1.66 5.114 3.53 1.056 1.87 1.584 4.404 1.584 7.603l-.181 29.415h-15.206v-30.411c0-2.172-.422-3.56-1.267-4.164-.845-.603-2.383-.905-4.616-.905v35.48h-15.749v-77.748zm19.55 28.782c2.173 0 3.259-2.353 3.259-7.06 0-2.051-.09-3.59-.272-4.615-.18-1.026-.513-1.735-.995-2.127-.483-.393-1.177-.589-2.082-.589h-3.62v14.391h3.71zm23.624 48.966v-77.748h31.135v15.025h-15.296v15.115h14.662v14.663h-14.662v17.83h16.292v15.115h-32.131zm37.29-77.748h20.545c6.215 0 10.65 2.006 13.305 6.02 2.655 4.012 3.983 9.88 3.983 17.603 0 7.724-1.177 13.547-3.53 17.469-2.353 3.922-6.577 5.883-12.671 5.883h-6.336v30.773h-15.296v-77.748zm16.201 32.946c1.87 0 3.243-.347 4.118-1.041.875-.694 1.448-1.69 1.72-2.987.271-1.297.407-3.153.407-5.566 0-3.259-.362-5.612-1.086-7.06-.724-1.448-2.172-2.172-4.344-2.172h-1.72v18.826h.905zm26.52-32.946h23.894c3.801 0 6.743.86 8.825 2.58 2.081 1.72 3.484 4.133 4.208 7.24.725 3.108 1.087 7.075 1.087 11.903 0 4.404-.574 7.844-1.72 10.318-1.147 2.474-3.138 4.193-5.974 5.159 2.354.482 4.058 1.66 5.114 3.53 1.056 1.87 1.584 4.404 1.584 7.603l-.181 29.415h-15.206v-30.411c0-2.172-.422-3.56-1.267-4.164-.845-.603-2.383-.905-4.616-.905v35.48h-15.749v-77.748zm19.55 28.782c2.172 0 3.258-2.353 3.258-7.06 0-2.051-.09-3.59-.272-4.615-.18-1.026-.513-1.735-.995-2.127-.483-.393-1.177-.589-2.082-.589h-3.62v14.391h3.71zm23.623 48.966v-77.748h31.135v15.025h-15.296v15.115h14.663v14.663h-14.663v17.83h16.292v15.115h-32.131zm37.29 0v-77.748h16.02l7.15 37.2v-37.2h15.025v77.748h-15.206l-7.784-38.919v38.92H322.78zm45.074 0v-77.748h31.135v15.025h-15.296v15.115h14.663v14.663h-14.663v17.83h16.292v15.115h-32.131zm41.046-4.706c-3.107-3.62-4.661-8.99-4.661-16.111v-56.93h15.115v56.296c0 2.474.241 4.405.724 5.793s1.509 2.082 3.077 2.082c1.57 0 2.595-.68 3.078-2.037.482-1.357.724-3.303.724-5.838v-56.297h15.115v56.931c0 7.12-1.554 12.49-4.661 16.11-3.108 3.621-7.86 5.431-14.256 5.431s-11.147-1.81-14.255-5.43zm39.146-73.042h23.894c3.802 0 6.743.86 8.825 2.58 2.082 1.72 3.485 4.133 4.209 7.24.724 3.108 1.086 7.075 1.086 11.903 0 4.404-.573 7.844-1.72 10.318-1.146 2.474-3.138 4.193-5.974 5.159 2.354.482 4.058 1.66 5.114 3.53 1.056 1.87 1.584 4.404 1.584 7.603l-.18 29.415h-15.206v-30.411c0-2.172-.423-3.56-1.268-4.164-.844-.603-2.383-.905-4.616-.905v35.48h-15.748v-77.748zm19.55 28.782c2.172 0 3.258-2.353 3.258-7.06 0-2.051-.09-3.59-.271-4.615-.181-1.026-.513-1.735-.996-2.127-.483-.393-1.177-.589-2.082-.589h-3.62v14.391h3.71zm-52.929 172.887v-75.415h15.54l6.935 36.083v-36.083h14.574v75.415h-14.75l-7.55-37.751v37.75h-14.75zm47.847-4.873c-3.16-3.716-4.74-8.94-4.74-15.67v-35.908c0-6.497 1.58-11.399 4.74-14.706 3.16-3.307 7.784-4.96 13.871-4.96 6.087 0 10.711 1.653 13.872 4.96 3.16 3.307 4.74 8.209 4.74 14.706v35.907c0 6.79-1.58 12.028-4.74 15.715-3.16 3.688-7.785 5.531-13.872 5.531s-10.71-1.858-13.87-5.575zm16.593-10.052c.468-1.17.702-2.81.702-4.916v-36.874c0-1.638-.22-2.97-.658-3.994-.439-1.025-1.332-1.537-2.678-1.537-2.517 0-3.775 1.903-3.775 5.707v36.785c0 2.166.264 3.805.79 4.917.527 1.112 1.493 1.668 2.897 1.668 1.347 0 2.254-.585 2.722-1.756zm28.445 14.925v-60.929h-8.955v-14.486h33.01v14.486h-8.954v60.929h-15.1zm28.27 0v-75.415h30.2v14.574h-14.837v14.662h14.223v14.222h-14.223v17.295h15.803v14.662h-31.166zm39.243-4.39c-3.043-3.394-4.565-8.867-4.565-16.417v-7.375h14.837v9.394c0 3.746 1.2 5.619 3.6 5.619 1.346 0 2.282-.395 2.809-1.185.527-.79.79-2.122.79-3.995 0-2.458-.293-4.492-.878-6.102-.585-1.61-1.331-2.955-2.239-4.038-.907-1.083-2.53-2.766-4.872-5.048l-6.497-6.497c-5.033-4.916-7.55-10.36-7.55-16.33 0-6.438 1.478-11.34 4.434-14.705 2.955-3.365 7.272-5.048 12.95-5.048 6.788 0 11.676 1.8 14.66 5.4 2.986 3.599 4.478 9.232 4.478 16.9h-15.364l-.088-5.18c0-.995-.278-1.785-.834-2.37-.556-.586-1.331-.879-2.326-.879-1.17 0-2.049.322-2.634.966-.585.644-.878 1.522-.878 2.634 0 2.458 1.405 5.004 4.214 7.638l8.78 8.428c2.048 1.99 3.745 3.878 5.092 5.663 1.346 1.785 2.428 3.892 3.248 6.32.82 2.43 1.229 5.312 1.229 8.649 0 7.433-1.36 13.066-4.082 16.9-2.722 3.833-7.214 5.75-13.477 5.75-6.848 0-11.793-1.697-14.837-5.092zM414.4 437.825h192.794v8.054H414.4v-8.054zm-212.087-87.123h20.455c5.502 0 9.496 1.346 11.984 4.039 2.487 2.692 3.731 7.082 3.731 13.168v3.337c0 7.198-2.575 11.5-7.726 12.905 3.16.82 5.385 2.721 6.672 5.706 1.288 2.985 1.932 6.936 1.932 11.852 0 8.019-1.2 14.09-3.6 18.217-2.4 4.126-6.73 6.19-12.993 6.19h-20.455v-75.414zm17.822 28.357c1.287 0 2.165-.483 2.633-1.449.468-.965.703-2.326.703-4.082v-7.55c0-2.458-1.083-3.687-3.249-3.687h-3.16v16.768h3.073zm4.301 28.181v-9.394c0-2.282-.336-4.009-1.01-5.18-.672-1.17-1.858-1.755-3.555-1.755h-2.81v21.86l1.493.088c3.922 0 5.882-1.873 5.882-5.619zm24.055 14.003c-3.16-3.717-4.74-8.94-4.74-15.671v-35.907c0-6.496 1.58-11.398 4.74-14.705 3.16-3.307 7.784-4.96 13.871-4.96 6.087 0 10.71 1.653 13.871 4.96 3.16 3.307 4.741 8.209 4.741 14.705v35.907c0 6.79-1.58 12.027-4.74 15.715-3.161 3.687-7.785 5.53-13.872 5.53s-10.71-1.858-13.87-5.574zm16.593-10.052c.468-1.17.702-2.81.702-4.917v-36.872c0-1.639-.22-2.97-.658-3.995-.44-1.024-1.332-1.536-2.678-1.536-2.517 0-3.775 1.902-3.775 5.707v36.784c0 2.166.263 3.804.79 4.916.527 1.113 1.493 1.669 2.897 1.669 1.346 0 2.254-.586 2.722-1.756zm26.074 10.052c-3.16-3.717-4.74-8.94-4.74-15.671v-35.907c0-6.496 1.58-11.398 4.74-14.705 3.16-3.307 7.784-4.96 13.87-4.96 6.088 0 10.711 1.653 13.872 4.96 3.16 3.307 4.74 8.209 4.74 14.705v35.907c0 6.79-1.58 12.027-4.74 15.715-3.16 3.687-7.784 5.53-13.871 5.53-6.087 0-10.71-1.858-13.871-5.574zm16.592-10.052c.469-1.17.703-2.81.703-4.917v-36.872c0-1.639-.22-2.97-.659-3.995-.439-1.024-1.331-1.536-2.677-1.536-2.517 0-3.775 1.902-3.775 5.707v36.784c0 2.166.263 3.804.79 4.916.527 1.113 1.492 1.669 2.897 1.669 1.346 0 2.253-.586 2.721-1.756zm21.948 14.924v-75.413h14.925v30.2l7.023-30.2h15.188l-8.428 34.502 10.184 40.911h-15.627l-8.252-36.521v36.521h-15.013zm-127.518 11.73h166.277v8.054H202.18v-8.054zM0 350.702h20.456c5.502 0 9.496 1.346 11.984 4.039 2.487 2.692 3.73 7.082 3.73 13.169v3.336c0 7.2-2.574 11.5-7.725 12.906 3.16.819 5.385 2.721 6.672 5.706 1.288 2.985 1.932 6.936 1.932 11.852 0 8.019-1.2 14.091-3.6 18.217-2.4 4.127-6.73 6.19-12.993 6.19H0v-75.415zm17.822 28.358c1.288 0 2.166-.483 2.634-1.449.468-.966.702-2.326.702-4.082v-7.55c0-2.459-1.083-3.688-3.248-3.688h-3.16v16.769h3.072zm4.302 28.181v-9.394c0-2.282-.337-4.009-1.01-5.18-.673-1.17-1.858-1.755-3.555-1.755h-2.81v21.86l1.493.088c3.921 0 5.882-1.873 5.882-5.619zm19.929 18.876v-75.415h15.1V413.3h15.54v12.818h-30.64zm38.98-4.873c-3.16-3.716-4.74-8.94-4.74-15.67v-35.908c0-6.497 1.58-11.399 4.74-14.706 3.16-3.307 7.785-4.96 13.872-4.96s10.71 1.653 13.871 4.96c3.16 3.307 4.74 8.209 4.74 14.706v35.907c0 6.79-1.58 12.028-4.74 15.715-3.16 3.688-7.784 5.531-13.871 5.531-6.087 0-10.711-1.858-13.872-5.575zm16.593-10.052c.468-1.17.703-2.81.703-4.916v-36.874c0-1.638-.22-2.97-.659-3.994-.439-1.025-1.331-1.537-2.678-1.537-2.516 0-3.775 1.903-3.775 5.707v36.785c0 2.166.264 3.805.79 4.917.527 1.112 1.493 1.668 2.898 1.668 1.346 0 2.253-.585 2.721-1.756zm25.329 9.877c-2.663-3.834-3.995-9.643-3.995-17.427v-32.484c0-6.965 1.551-12.232 4.653-15.803 3.102-3.57 7.726-5.355 13.871-5.355 4.975 0 8.838.995 11.59 2.985 2.75 1.99 4.652 4.887 5.706 8.692 1.053 3.804 1.58 8.691 1.58 14.661h-14.75v-6.76c0-1.814-.248-3.22-.746-4.214-.497-.995-1.39-1.493-2.677-1.493-2.868 0-4.302 1.873-4.302 5.62v36.521c0 2.283.293 4.01.878 5.18s1.61 1.756 3.073 1.756c1.463 0 2.487-.585 3.072-1.756.586-1.17.878-2.897.878-5.18v-10.798h-4.038V382.22h18.436v43.897h-6.057l-2.546-6.321c-2.693 4.682-6.848 7.023-12.467 7.023-5.443 0-9.496-1.917-12.16-5.75zM0 437.844h156.36v8.054H0v-8.054zm1059.43-69.241l-36.435 23.056-36.625-23.035v-4.629a3 3 0 013-2.995h67.06c1.657 0 3 1.342 3 2.995v4.608zm0 6.175v36.456a3 3 0 01-3 2.995h-67.06c-1.657 0-3-1.342-3-2.995V374.79l35.24 22.164a2.61 2.61 0 002.784-.004l35.036-22.17z"/><path d="M718.821 372.786c.046.65.046 1.298.046 1.947 0 19.792-15.064 42.597-42.597 42.597-8.482 0-16.362-2.457-22.99-6.721 1.205.139 2.364.185 3.615.185 7 0 13.442-2.364 18.587-6.396-6.582-.14-12.097-4.45-13.998-10.383.927.14 1.854.232 2.828.232 1.344 0 2.688-.186 3.94-.51-6.86-1.39-12.005-7.416-12.005-14.693v-.186a15.08 15.08 0 006.767 1.9 14.961 14.961 0 01-6.675-12.468c0-2.781.742-5.33 2.04-7.555a42.555 42.555 0 0030.87 15.667 16.898 16.898 0 01-.371-3.43c0-8.251 6.675-14.972 14.972-14.972 4.31 0 8.204 1.808 10.939 4.728a29.474 29.474 0 009.502-3.616c-1.113 3.477-3.477 6.397-6.582 8.251 3.012-.324 5.933-1.159 8.621-2.318a32.186 32.186 0 01-7.509 7.741zM809.062 351c-20.92 0-36.922 15.882-36.922 36.801 0 16.727 10.528 31.04 25.565 36.078 1.93.346 2.61-.845 2.61-1.825 0-.936-.046-6.094-.046-9.261 0 0-10.558 2.262-12.775-4.495 0 0-1.72-4.389-4.193-5.52 0 0-3.454-2.368.241-2.323 0 0 3.756.302 5.822 3.892 3.303 5.822 8.839 4.147 10.995 3.152.347-2.413 1.328-4.087 2.414-5.083-8.432-.935-16.938-2.157-16.938-16.666 0-4.148 1.146-6.229 3.56-8.884-.393-.98-1.675-5.022.392-10.24 3.152-.98 10.406 4.072 10.406 4.072a35.436 35.436 0 019.472-1.282c3.213 0 6.456.437 9.472 1.282 0 0 7.255-5.068 10.407-4.073 2.066 5.234.784 9.261.392 10.241 2.413 2.67 3.891 4.751 3.891 8.884 0 14.555-8.883 15.716-17.314 16.666 1.387 1.192 2.564 3.454 2.564 6.998 0 5.083-.046 11.373-.046 12.61 0 .98.694 2.171 2.61 1.824 15.082-5.007 25.308-19.32 25.308-36.047 0-20.92-16.968-36.801-37.887-36.801zm120.712 2.39h10.652v38.805l.124-.175v7.56c0 3.627-.434 7.045-1.277 10.181-.863 3.213-2.226 5.915-4.14 8.164-1.912 2.304-4.407 4.04-7.522 5.277-3.031 1.155-6.622 1.736-10.753 1.736-2.575 0-5.108-.31-7.649-.922-2.536-.616-4.837-1.57-6.917-2.886a18.091 18.091 0 01-5.242-5.22c-1.428-2.192-2.252-4.76-2.473-7.656l-.197-2.587h10.607l.335 2.009c.238 1.43.694 2.577 1.367 3.507.65.897 1.485 1.642 2.48 2.263a12.829 12.829 0 003.56 1.366 19.36 19.36 0 004.215.454c4.747 0 7.98-1.282 9.867-3.71 1.936-2.523 2.986-6.216 3.08-11.156a19.597 19.597 0 01-2.427 1.939c-3.058 2.071-6.601 3.101-10.606 3.101-4.137 0-7.765-.695-10.846-2.091a20.561 20.561 0 01-7.622-5.888c-1.993-2.478-3.428-5.383-4.33-8.72-.862-3.204-1.29-6.613-1.29-10.224 0-3.516.518-6.87 1.557-10.069 1.051-3.216 2.587-6.048 4.608-8.485 2.047-2.465 4.59-4.414 7.597-5.832 3.022-1.42 6.464-2.131 10.237-2.131 2 0 3.902.283 5.754.85a18.799 18.799 0 014.932 2.392c.82.556 1.591 1.165 2.32 1.831v-3.682zm-7.66 41.07c1.591-.894 2.926-2.082 4.076-3.614 1.14-1.52 1.99-3.272 2.551-5.274.593-2.124.893-4.252.893-6.406 0-2.212-.246-4.378-.746-6.495-.493-2.084-1.282-3.964-2.368-5.649a12.46 12.46 0 00-3.992-3.878c-1.576-.942-3.499-1.422-5.849-1.422-2.373 0-4.345.474-5.914 1.389-1.689.984-3.08 2.253-4.138 3.784-1.112 1.613-1.933 3.469-2.453 5.538a29.562 29.562 0 00-.79 6.733c0 2.24.28 4.364.85 6.405.577 2.064 1.4 3.8 2.523 5.296 1.08 1.472 2.455 2.664 4.137 3.581 1.575.864 3.497 1.313 5.789 1.325 2.12-.012 3.903-.45 5.43-1.313zm317.742 21.364h-14.686V368.54h14.686v47.284zm-7.35-53.735c-4.696 0-8.506-3.889-8.506-8.584a8.508 8.508 0 018.505-8.505 8.508 8.508 0 018.505 8.505c0 4.695-3.81 8.584-8.505 8.584zm62.318 53.735h-14.655v-23.018c0-5.485-.11-12.52-7.635-12.52-7.636 0-8.806 5.96-8.806 12.125v23.413h-14.67V368.54h14.085v6.45h.206c1.96-3.715 6.75-7.636 13.896-7.636 14.86 0 17.595 9.786 17.595 22.496v25.974h-.016zm-118.157-42.307a3.808 3.808 0 01.568.552c.183.236.236.312.307.422.153.253.197.34.244.44a3.997 3.997 0 01.328 1.031c.054.35.066.521.066.692v21.631c0 .17-.012.34-.038.544a5.922 5.922 0 01-.099.486l-.07.224a4.36 4.36 0 01-.097.272c-.134.29-.178.377-.237.482a5.29 5.29 0 01-.261.394 3.354 3.354 0 01-.351.41c-.083.084-.12.121-.164.16a4.469 4.469 0 01-.439.348c.015-.008-32.482 21.659-32.482 21.659a4.025 4.025 0 01-4.464 0l-32.441-21.628a4.978 4.978 0 01-.465-.367 5.014 5.014 0 01-.376-.388 3.64 3.64 0 01-.305-.413 4.746 4.746 0 01-.126-.203 4.628 4.628 0 01-.224-.461 3.938 3.938 0 01-.098-.28 3.9 3.9 0 01-.13-.505 4.34 4.34 0 01-.073-.734v-21.63c0-.176.013-.35.036-.522a6 6 0 01.106-.529c.1-.31.125-.383.16-.47a2.99 2.99 0 01.091-.202c.048-.1.09-.185.14-.27.16-.259.218-.342.281-.427a3.977 3.977 0 01.945-.902c-.02.01 32.479-21.657 32.479-21.657a4.023 4.023 0 014.464 0l32.444 21.63c.245.182.245.182.281.211zm-1.4 26.526l.004-.004-.005.004zm-.002-25.148a.23.23 0 00.005.004l-.005-.004zm-29.531-.462l12.252 8.196 8.924-5.97-21.176-14.116v11.89zm-29.225 2.226l8.925 5.97 12.252-8.196v-11.89l-21.177 14.116zm-3.221 14.094l4.908-3.283-4.908-3.283v6.566zm25.371 22.489v.973-.973zm-.973-12.736l-12.252-8.194-8.924 5.968 21.176 14.116v-11.89zm13.063-13.036l-9.04-6.046-9.038 6.046 9.039 6.046 9.039-6.046zm16.16 10.81l-8.923-5.968-12.252 8.194v11.89l21.176-14.116zm3.223-14.093l-4.908 3.282 4.908 3.284v-6.566z" fill-rule="nonzero"/></g></svg>