<svg width="565" height="855" xmlns="http://www.w3.org/2000/svg"><g fill="none" fill-rule="evenodd"><path d="M0 176.094V1.624h34.934V146.44h35.95v29.654H0zm75.962 0L92.82 1.624h59.104l16.655 174.47h-33.107l-2.437-28.232h-21.123l-2.031 28.232H75.96zm38.59-56.058h15.843l-7.718-88.758h-1.625l-6.5 88.758zm64.588 56.058V1.624h35.95l16.046 83.478V1.625h33.715v174.469H230.73l-17.467-87.336v87.336H179.14zM280.287 1.624h48.137c12.457 0 21.8 3.454 28.028 10.36 6.23 6.905 9.411 17.128 9.546 30.668l.407 81.65c.135 17.196-2.844 30.127-8.937 38.793s-16.18 12.999-30.263 12.999h-46.918V1.624zm41.231 143.597c6.364 0 9.546-3.114 9.546-9.343V45.902c0-3.927-.305-6.872-.914-8.835-.61-1.963-1.726-3.284-3.351-3.96-1.625-.678-4.13-1.016-7.515-1.016h-3.86v113.13h6.094zm68.447 19.6c-7.312-8.598-10.968-20.683-10.968-36.254V45.496c0-15.03 3.656-26.37 10.968-34.02C397.277 3.826 407.974 0 422.055 0c14.083 0 24.78 3.825 32.092 11.476 7.312 7.65 10.968 18.99 10.968 34.02v83.07c0 15.708-3.656 27.826-10.968 36.357-7.312 8.53-18.009 12.795-32.091 12.795s-24.78-4.299-32.09-12.897zm38.387-23.256c1.083-2.708 1.625-6.499 1.625-11.374V44.887c0-3.792-.508-6.872-1.523-9.242-1.016-2.37-3.08-3.554-6.195-3.554-5.822 0-8.734 4.4-8.734 13.202v85.102c0 5.01.61 8.8 1.828 11.374 1.22 2.572 3.453 3.859 6.703 3.859 3.114 0 5.213-1.354 6.296-4.063zm50.777 34.529V1.624h35.95l16.045 83.478V1.625h33.716v174.469h-34.122l-17.467-87.336v87.336h-34.122zM8.89 362.394C2.963 355.784 0 345.127 0 330.424v-14.36h28.892v18.293c0 7.294 2.337 10.94 7.01 10.94 2.62 0 4.444-.768 5.47-2.307 1.026-1.539 1.539-4.132 1.539-7.779 0-4.787-.57-8.747-1.71-11.881-1.14-3.135-2.593-5.756-4.36-7.865-1.766-2.108-4.929-5.385-9.487-9.83l-12.651-12.65C4.9 283.41 0 272.81 0 261.184c0-12.536 2.878-22.081 8.633-28.635 5.756-6.553 14.162-9.83 25.217-9.83 13.22 0 22.738 3.505 28.55 10.514 5.813 7.01 8.72 17.98 8.72 32.91H41.2l-.17-10.087c0-1.937-.542-3.476-1.625-4.616-1.083-1.14-2.593-1.71-4.53-1.71-2.28 0-3.99.627-5.13 1.881-1.139 1.254-1.709 2.963-1.709 5.129 0 4.787 2.736 9.745 8.206 14.873l17.096 16.413c3.99 3.875 7.295 7.55 9.916 11.026 2.621 3.477 4.73 7.58 6.325 12.31 1.596 4.73 2.394 10.342 2.394 16.839 0 14.475-2.65 25.444-7.95 32.91-5.3 7.465-14.047 11.198-26.242 11.198-13.335 0-22.965-3.306-28.892-9.916zm81.291-.171c-6.44-6.725-9.66-15.956-9.66-27.696v-67.7c0-14.588 2.907-25.586 8.72-32.995 5.812-7.408 14.93-11.112 27.353-11.112 10.828 0 19.547 2.963 26.157 8.89 6.61 5.927 9.916 14.474 9.916 25.644v25.302h-29.234v-21.712c0-4.217-.513-7.123-1.539-8.719-1.026-1.596-2.792-2.393-5.3-2.393-2.621 0-4.416.911-5.385 2.735-.969 1.824-1.453 4.502-1.453 8.035v73.684c0 3.875.57 6.695 1.71 8.462 1.14 1.767 2.849 2.65 5.128 2.65 4.56 0 6.839-3.704 6.839-11.112v-26.5h29.576v27.696c0 24.619-12.366 36.928-37.099 36.928-10.713 0-19.29-3.363-25.729-10.087zm72.572 8.719V224.088h29.234v52.484h13.848v-52.484h29.234v146.854h-29.234v-66.674h-13.848v66.674h-29.234zm85.31-146.854h45.132c7.18 0 12.737 1.624 16.669 4.872 3.932 3.248 6.582 7.807 7.95 13.677 1.367 5.87 2.051 13.363 2.051 22.48 0 8.321-1.083 14.817-3.248 19.49-2.166 4.673-5.927 7.921-11.283 9.745 4.445.912 7.664 3.134 9.659 6.667 1.994 3.534 2.992 8.32 2.992 14.361l-.342 55.562H288.92v-57.443c0-4.103-.797-6.724-2.393-7.864-1.596-1.14-4.502-1.71-8.719-1.71v67.017h-29.747V224.088zm36.926 54.365c4.103 0 6.155-4.445 6.155-13.335 0-3.875-.171-6.781-.513-8.719-.342-1.938-.969-3.277-1.88-4.018-.912-.74-2.223-1.11-3.933-1.11h-6.838v27.182h7.01zm52.656 83c-6.155-7.237-9.232-17.409-9.232-30.516v-69.922c0-12.651 3.077-22.196 9.232-28.636 6.154-6.44 15.158-9.659 27.011-9.659 11.854 0 20.857 3.22 27.012 9.66 6.155 6.439 9.232 15.984 9.232 28.635v69.922c0 13.221-3.077 23.422-9.232 30.602-6.155 7.18-15.158 10.77-27.012 10.77-11.853 0-20.857-3.618-27.011-10.855zm32.311-19.574c.912-2.28 1.368-5.471 1.368-9.574v-71.803c0-3.191-.428-5.784-1.282-7.779-.855-1.994-2.593-2.991-5.215-2.991-4.9 0-7.35 3.704-7.35 11.112v71.632c0 4.217.512 7.408 1.538 9.574 1.026 2.165 2.906 3.248 5.641 3.248 2.622 0 4.388-1.14 5.3-3.42zm42.74-117.791h38.808c11.74 0 20.116 3.79 25.13 11.368 5.016 7.58 7.523 18.663 7.523 33.252 0 14.589-2.222 25.587-6.667 32.995-4.445 7.409-12.423 11.113-23.935 11.113h-11.967v58.126h-28.892V224.088zm30.602 62.229c3.533 0 6.126-.655 7.778-1.966 1.653-1.31 2.736-3.191 3.249-5.642.513-2.45.769-5.955.769-10.514 0-6.154-.684-10.6-2.051-13.335-1.368-2.735-4.104-4.103-8.207-4.103h-3.248v35.56h1.71zm50.09-62.23h38.809c11.739 0 20.116 3.79 25.13 11.37 5.016 7.579 7.523 18.662 7.523 33.251 0 14.589-2.222 25.587-6.667 32.995-4.445 7.409-12.423 11.113-23.935 11.113h-11.967v58.126H493.39V224.088zm30.603 62.23c3.533 0 6.126-.655 7.778-1.966 1.653-1.31 2.736-3.191 3.249-5.642.512-2.45.769-5.955.769-10.514 0-6.154-.684-10.6-2.052-13.335-1.367-2.735-4.103-4.103-8.206-4.103h-3.248v35.56h1.71z" fill="#000"/><path d="M0 554.235h15.916c4.12 0 7.208 1.137 9.268 3.412 2.06 2.275 3.112 5.642 3.156 10.102l.135 26.893c.044 5.664-.94 9.923-2.955 12.777-2.015 2.855-5.35 4.282-10.007 4.282H0v-57.466zm13.633 47.297c2.104 0 3.156-1.025 3.156-3.077v-29.636c0-1.293-.1-2.263-.302-2.91-.201-.647-.57-1.082-1.108-1.305-.537-.223-1.366-.334-2.485-.334h-1.276v37.262h2.015zm19.476 10.169v-57.466H56.21v11.105H44.86v11.172h10.88v10.838H44.86v13.179h12.09V611.7H33.11zm32.974 0l-7.119-57.533h11.014l4.23 39.136 3.762-39.136h11.013l-7.118 57.533H66.083zm26.191 0v-57.466h23.102v11.105h-11.35v11.172h10.88v10.838h-10.88v13.179h12.089V611.7h-23.84zm27.669 0v-57.466h11.551v47.699h11.887v9.767h-23.438zm29.818-3.713c-2.418-2.832-3.627-6.812-3.627-11.941v-27.362c0-4.95 1.21-8.685 3.627-11.205 2.417-2.52 5.954-3.78 10.61-3.78 4.657 0 8.194 1.26 10.611 3.78 2.418 2.52 3.627 6.255 3.627 11.205v27.362c0 5.173-1.209 9.165-3.627 11.975-2.417 2.81-5.954 4.214-10.61 4.214-4.657 0-8.194-1.416-10.611-4.248zm12.692-7.66c.359-.892.538-2.14.538-3.746v-28.097c0-1.25-.168-2.264-.504-3.044-.336-.78-1.018-1.171-2.048-1.171-1.925 0-2.888 1.45-2.888 4.348v28.03c0 1.651.201 2.9.604 3.747.403.847 1.142 1.271 2.217 1.271 1.03 0 1.723-.446 2.081-1.338zm16.79-46.093h15.245c4.611 0 7.902 1.483 9.872 4.449 1.97 2.966 2.955 7.303 2.955 13.012 0 5.708-.873 10.012-2.62 12.911-1.746 2.899-4.88 4.348-9.402 4.348h-4.7v22.746h-11.35v-57.466zm12.021 24.351c1.388 0 2.406-.256 3.056-.77.649-.512 1.074-1.248 1.276-2.207.201-.959.302-2.33.302-4.114 0-2.408-.269-4.148-.806-5.218-.537-1.07-1.612-1.606-3.224-1.606h-1.276v13.915h.672zm19.677 33.115v-57.466h23.102v11.105h-11.35v11.172h10.88v10.838h-10.88v13.179h12.089V611.7h-23.84zm27.669-57.466h17.73c2.82 0 5.003.636 6.547 1.907 1.545 1.27 2.586 3.055 3.123 5.352.537 2.297.806 5.229.806 8.797 0 3.256-.425 5.798-1.276 7.626-.85 1.829-2.328 3.1-4.432 3.813 1.746.357 3.01 1.227 3.794 2.61.783 1.382 1.175 3.255 1.175 5.619l-.134 21.742H254.66v-22.478c0-1.606-.313-2.631-.94-3.077-.627-.446-1.768-.67-3.425-.67v26.225H238.61v-57.466zm14.506 21.274c1.612 0 2.417-1.74 2.417-5.218 0-1.517-.067-2.654-.201-3.412s-.38-1.282-.739-1.572c-.358-.29-.873-.435-1.544-.435h-2.687v10.637h2.754zm34.519 33.181c-1.791-2.452-2.687-5.641-2.687-9.566 0-4.37.627-7.883 1.88-10.536 1.254-2.654 3.224-4.984 5.91-6.991-2.193-4.282-3.29-7.984-3.29-11.105 0-3.256 1.063-5.81 3.19-7.66 2.127-1.851 4.869-2.777 8.227-2.777 3.313 0 6.033.881 8.16 2.643 2.126 1.762 3.19 4.226 3.19 7.392 0 4.638-2.575 8.987-7.724 13.045l2.082 4.884c1.254-3.3 3.134-5.865 5.641-7.693l4.567 7.09c-2.642 2.052-4.79 5.442-6.447 10.17l5.843 14.115h-11.149l-1.208-3.144c-.94 1.115-2.138 2.029-3.593 2.743-1.455.713-3.034 1.07-4.735 1.07-3.447 0-6.066-1.227-7.857-3.68zm14.439-33.85c.447-.49.85-1.193 1.208-2.107.359-.915.538-1.795.538-2.643 0-1.338-.65-2.007-1.948-2.007-.537 0-.963.19-1.276.569-.313.379-.47.858-.47 1.438 0 1.16.47 2.944 1.41 5.352l.538-.602zm-2.62 28.198a4.769 4.769 0 001.142-2.242l-3.962-9.5-.403.603c-.358.535-.65 1.383-.873 2.542a17.975 17.975 0 00-.336 3.412v.334c0 1.74.134 3.145.403 4.215.269 1.07.895 1.606 1.88 1.606.851 0 1.567-.324 2.15-.97zm36.534-48.803h15.916c4.12 0 7.208 1.137 9.268 3.412 2.06 2.275 3.112 5.642 3.156 10.102l.135 26.893c.044 5.664-.94 9.923-2.955 12.777-2.015 2.855-5.35 4.282-10.007 4.282h-15.513v-57.466zm13.633 47.297c2.104 0 3.156-1.025 3.156-3.077v-29.636c0-1.293-.1-2.263-.302-2.91-.201-.647-.57-1.082-1.108-1.305-.537-.223-1.366-.334-2.485-.334h-1.276v37.262h2.015zm19.475 10.169v-57.466H392.2v11.105h-11.35v11.172h10.88v10.838h-10.88v13.179h12.088V611.7h-23.84zm30.02-3.345c-2.328-2.587-3.492-6.757-3.492-12.51v-5.62h11.35v7.159c0 2.854.917 4.281 2.753 4.281 1.03 0 1.746-.3 2.149-.903.403-.602.604-1.617.604-3.044 0-1.873-.224-3.423-.671-4.65-.448-1.226-1.019-2.252-1.713-3.077-.694-.825-1.936-2.107-3.727-3.846l-4.97-4.95c-3.85-3.747-5.775-7.895-5.775-12.444 0-4.906 1.13-8.64 3.391-11.205 2.261-2.565 5.563-3.847 9.906-3.847 5.193 0 8.932 1.371 11.215 4.114 2.283 2.743 3.425 7.036 3.425 12.878h-11.752l-.068-3.947c0-.758-.212-1.36-.638-1.806-.425-.446-1.018-.669-1.78-.669-.895 0-1.566.245-2.014.736-.448.49-.672 1.16-.672 2.007 0 1.873 1.075 3.813 3.224 5.82l6.716 6.422c1.567 1.517 2.865 2.955 3.895 4.315 1.03 1.36 1.858 2.966 2.485 4.817.626 1.85.94 4.047.94 6.59 0 5.663-1.041 9.956-3.123 12.877-2.082 2.922-5.518 4.382-10.309 4.382-5.238 0-9.021-1.293-11.35-3.88zm28.072 3.345v-57.466h11.148v57.466h-11.148zm18.367-3.847c-2.037-2.921-3.056-7.347-3.056-13.28v-24.751c0-5.308 1.187-9.322 3.56-12.042 2.373-2.72 5.91-4.081 10.61-4.081 3.806 0 6.761.758 8.865 2.275 2.105 1.516 3.56 3.724 4.366 6.622.805 2.9 1.208 6.623 1.208 11.173h-11.282v-5.152c0-1.382-.19-2.453-.57-3.21-.381-.759-1.064-1.138-2.05-1.138-2.193 0-3.29 1.427-3.29 4.281v27.83c0 1.74.224 3.055.672 3.947.447.892 1.23 1.338 2.35 1.338s1.903-.446 2.35-1.338c.448-.892.672-2.207.672-3.947v-8.228h-3.089v-9.901h14.103V611.7h-4.634l-1.947-4.817c-2.06 3.568-5.239 5.352-9.537 5.352-4.163 0-7.264-1.46-9.3-4.382zm29.986 3.847v-57.466h11.887l5.305 27.495v-27.495h11.148v57.466H492.6l-5.776-28.766V611.7h-11.282zm33.444 0v-57.466h23.102v11.105h-11.35v11.172h10.88v10.838h-10.88v13.179h12.089V611.7h-23.84zm27.669-57.466h17.73c2.82 0 5.003.636 6.547 1.907 1.545 1.27 2.586 3.055 3.123 5.352.537 2.297.806 5.229.806 8.797 0 3.256-.425 5.798-1.276 7.626-.85 1.829-2.328 3.1-4.432 3.813 1.746.357 3.01 1.227 3.794 2.61.784 1.382 1.175 3.255 1.175 5.619l-.134 21.742h-11.282v-22.478c0-1.606-.314-2.631-.94-3.077-.627-.446-1.77-.67-3.426-.67v26.225h-11.685v-57.466zm14.506 21.274c1.612 0 2.418-1.74 2.418-5.218 0-1.517-.068-2.654-.202-3.412s-.38-1.282-.739-1.572c-.358-.29-.873-.435-1.544-.435h-2.687v10.637h2.754z" fill="#0E1B23"/><path d="M516.112 846.058H503.19v-41.605h12.923v41.605zm-6.468-47.28c-4.132 0-7.484-3.423-7.484-7.554a7.486 7.486 0 017.484-7.484 7.486 7.486 0 017.484 7.484c0 4.131-3.353 7.553-7.484 7.553zm54.835 47.28h-12.895v-20.253c0-4.827-.098-11.017-6.72-11.017-6.718 0-7.747 5.244-7.747 10.67v20.6h-12.909v-41.605h12.394v5.675h.18c1.726-3.269 5.94-6.719 12.228-6.719 13.076 0 15.482 8.61 15.482 19.795v22.854h-.013z" fill="#000" fill-rule="nonzero"/><path d="M357.36 804.51l-32.057 20.285-32.223-20.267v-3.707a3 3 0 012.993-3.001h58.294a3.002 3.002 0 012.993 3v3.69zm0 5.433v31.709c0 1.657-1.343 3-2.993 3h-58.294a3.002 3.002 0 01-2.993-3v-31.7l31.005 19.5c.749.472 1.702.47 2.45-.003l30.825-19.506z" fill="#000"/><path d="M57.664 808.189c.04.57.04 1.142.04 1.713 0 17.413-13.253 37.477-37.477 37.477-7.463 0-14.395-2.161-20.227-5.913 1.06.122 2.08.163 3.18.163A26.38 26.38 0 0019.535 836c-5.791-.122-10.644-3.915-12.316-9.135a16.6 16.6 0 002.488.204c1.182 0 2.365-.163 3.466-.448-6.035-1.224-10.562-6.525-10.562-12.928v-.163a13.267 13.267 0 005.954 1.672 13.163 13.163 0 01-5.872-10.97c0-2.447.652-4.69 1.794-6.647a37.44 37.44 0 0027.16 13.784 14.867 14.867 0 01-.327-3.018c0-7.259 5.873-13.172 13.172-13.172a13.14 13.14 0 019.625 4.16 25.931 25.931 0 008.36-3.181 13.136 13.136 0 01-5.791 7.259c2.65-.286 5.22-1.02 7.585-2.04a28.318 28.318 0 01-6.606 6.811zm79.406-19.172c-18.406 0-32.486 13.974-32.486 32.38 0 14.718 9.263 27.312 22.494 31.744 1.699.305 2.296-.743 2.296-1.606 0-.822-.04-5.36-.04-8.148 0 0-9.29 1.99-11.24-3.954 0 0-1.513-3.862-3.69-4.857 0 0-3.038-2.084.213-2.044 0 0 3.304.265 5.122 3.424 2.907 5.122 7.777 3.65 9.675 2.773.305-2.123 1.168-3.596 2.123-4.472-7.418-.823-14.903-1.898-14.903-14.664 0-3.65 1.009-5.48 3.132-7.817-.345-.862-1.473-4.419.345-9.01 2.774-.863 9.157 3.583 9.157 3.583a31.18 31.18 0 018.334-1.128c2.826 0 5.68.385 8.334 1.128 0 0 6.383-4.46 9.156-3.583 1.819 4.605.69 8.148.346 9.01 2.123 2.35 3.423 4.18 3.423 7.817 0 12.806-7.816 13.828-15.234 14.664 1.22 1.048 2.256 3.039 2.256 6.158 0 4.472-.04 10.006-.04 11.094 0 .863.61 1.91 2.296 1.606 13.27-4.406 22.268-17 22.268-31.717 0-18.407-14.93-32.38-33.336-32.38zm106.209 2.107h9.372v34.142l.109-.154v6.653c0 3.191-.382 6.198-1.123 8.958-.76 2.826-1.959 5.204-3.643 7.183-1.682 2.027-3.878 3.555-6.618 4.643-2.668 1.016-5.827 1.527-9.461 1.527-2.266 0-4.495-.272-6.73-.81-2.232-.543-4.257-1.383-6.087-2.54a15.918 15.918 0 01-4.612-4.593c-1.256-1.93-1.981-4.188-2.176-6.737l-.173-2.276h9.332l.295 1.768c.21 1.257.61 2.268 1.203 3.086.571.789 1.306 1.444 2.183 1.99.97.55 2.015.954 3.132 1.202 1.2.267 2.434.4 3.708.4 4.177 0 7.02-1.128 8.682-3.264 1.703-2.22 2.627-5.47 2.71-9.816a17.243 17.243 0 01-2.136 1.706c-2.69 1.822-5.808 2.729-9.331 2.729-3.64 0-6.833-.612-9.544-1.84a18.091 18.091 0 01-6.706-5.18c-1.754-2.181-3.017-4.737-3.81-7.674-.758-2.819-1.135-5.818-1.135-8.995 0-3.094.456-6.044 1.37-8.86.925-2.83 2.276-5.321 4.054-7.466 1.802-2.168 4.039-3.884 6.685-5.131 2.658-1.25 5.687-1.875 9.007-1.875 1.759 0 3.433.249 5.063.748a16.54 16.54 0 014.34 2.105 17.82 17.82 0 012.04 1.61v-3.24zm-6.74 36.136c1.4-.787 2.575-1.832 3.586-3.18 1.004-1.337 1.752-2.88 2.245-4.641.522-1.868.785-3.741.785-5.636 0-1.947-.216-3.852-.656-5.715-.434-1.834-1.128-3.488-2.084-4.97a10.963 10.963 0 00-3.512-3.413c-1.387-.829-3.078-1.25-5.146-1.25-2.089 0-3.823.416-5.204 1.221-1.486.866-2.71 1.983-3.64 3.33-.979 1.419-1.702 3.052-2.159 4.872a26.01 26.01 0 00-.696 5.925c0 1.97.247 3.84.748 5.635.508 1.816 1.233 3.344 2.221 4.66.95 1.295 2.16 2.344 3.64 3.151 1.386.76 3.076 1.155 5.093 1.166 1.866-.01 3.435-.397 4.779-1.155z" fill="#000" fill-rule="nonzero"/><path d="M460.519 808.833a3.351 3.351 0 01.5.486 5.1 5.1 0 01.27.37c.134.223.173.3.214.387a3.719 3.719 0 01.289.908c.047.308.058.459.058.61v19.032c0 .15-.01.3-.033.478-.047.258-.064.34-.087.428l-.062.197a2.97 2.97 0 01-.086.24 4.837 4.837 0 01-.208.424 4.49 4.49 0 01-.23.347 2.952 2.952 0 01-.309.36 2.564 2.564 0 01-.144.14 3.928 3.928 0 01-.386.307c.013-.006-28.581 19.058-28.581 19.058a3.541 3.541 0 01-3.928 0l-28.545-19.03a4.38 4.38 0 01-.41-.323c-.047-.042-.15-.145-.15-.145a3.15 3.15 0 01-.306-.355 4.175 4.175 0 01-.253-.384 4.07 4.07 0 01-.197-.406 3.472 3.472 0 01-.087-.245 3.82 3.82 0 01-.178-1.091v-19.033c0-.154.011-.308.032-.459.055-.309.067-.369.093-.465.088-.273.11-.337.141-.414.025-.06.044-.103.08-.177.042-.089.08-.163.123-.238a3.498 3.498 0 011.078-1.17l28.579-19.055a3.54 3.54 0 013.928 0l28.547 19.031c.216.16.216.16.248.187zm-1.233 23.34l.004-.003-.004.003zm-.001-22.128a.206.206 0 00.005.004l-.005-.004zm-25.984-.406l10.78 7.212 7.853-5.253-18.633-12.421v10.462zm-25.715 1.959l7.853 5.253 10.78-7.212v-10.462l-18.633 12.42zm-2.835 12.4l4.32-2.888-4.32-2.89V824zm22.325 19.788v.857-.857zm-.857-11.205l-10.78-7.21-7.853 5.25 18.633 12.422V832.58zm11.494-11.471l-7.953-5.32-7.954 5.32 7.954 5.32 7.953-5.32zm14.22 9.511l-7.851-5.25-10.781 7.21v10.462l18.632-12.422zm2.835-12.4l-4.318 2.888 4.318 2.89v-5.778z" fill="#272727" fill-rule="nonzero"/><path d="M385.217 728.078v-70.056h14.435l6.443 33.52v-33.52h13.538v70.056h-13.701l-7.014-35.069v35.069h-13.701zm44.447-4.527c-2.936-3.452-4.404-8.305-4.404-14.557v-33.356c0-6.035 1.468-10.588 4.404-13.66 2.936-3.072 7.231-4.608 12.885-4.608 5.655 0 9.95 1.536 12.886 4.608 2.936 3.072 4.404 7.625 4.404 13.66v33.356c0 6.307-1.468 11.173-4.404 14.598-2.936 3.425-7.231 5.138-12.886 5.138-5.654 0-9.95-1.726-12.885-5.179zm15.414-9.338c.435-1.087.652-2.61.652-4.567v-34.253c0-1.522-.204-2.759-.612-3.71-.407-.952-1.236-1.427-2.487-1.427-2.338 0-3.507 1.767-3.507 5.3v34.172c0 2.012.245 3.534.734 4.567.49 1.033 1.387 1.55 2.691 1.55 1.251 0 2.094-.544 2.529-1.632zm26.423 13.865v-56.6h-8.318v-13.456h30.664v13.457h-8.318v56.599H471.5zm26.26 0v-70.056h28.055v13.538h-13.782v13.62h13.212v13.212h-13.212v16.066h14.68v13.62h-28.952zM534.217 724c-2.827-3.154-4.24-8.237-4.24-15.25v-6.851h13.782v8.726c0 3.48 1.115 5.22 3.344 5.22 1.25 0 2.12-.368 2.61-1.102.49-.734.734-1.97.734-3.71 0-2.284-.272-4.173-.816-5.668-.543-1.495-1.237-2.746-2.08-3.752-.842-1.006-2.35-2.569-4.526-4.69l-6.035-6.034c-4.675-4.567-7.013-9.624-7.013-15.17 0-5.98 1.372-10.533 4.118-13.66 2.746-3.126 6.756-4.689 12.03-4.689 6.306 0 10.846 1.672 13.619 5.016 2.773 3.343 4.16 8.576 4.16 15.699H549.63l-.081-4.812c0-.924-.259-1.658-.775-2.202-.517-.544-1.237-.815-2.161-.815-1.088 0-1.903.299-2.447.897-.544.598-.815 1.413-.815 2.446 0 2.284 1.304 4.649 3.914 7.096l8.156 7.829c1.903 1.848 3.48 3.602 4.73 5.26 1.25 1.658 2.256 3.616 3.017 5.872.761 2.256 1.142 4.934 1.142 8.033 0 6.905-1.264 12.138-3.792 15.7-2.528 3.56-6.701 5.341-12.519 5.341-6.361 0-10.955-1.577-13.783-4.73zM384.97 738.954h179.093v7.481H384.97v-7.481zm-197.027-80.932h19.003c5.11 0 8.822 1.25 11.132 3.752 2.311 2.501 3.466 6.579 3.466 12.233v3.1c0 6.687-2.392 10.683-7.177 11.988 2.937.761 5.003 2.528 6.199 5.301 1.196 2.773 1.794 6.443 1.794 11.01 0 7.45-1.115 13.09-3.344 16.923-2.229 3.833-6.252 5.75-12.07 5.75h-19.003v-70.057zm16.556 26.343c1.196 0 2.012-.449 2.447-1.346.435-.897.652-2.16.652-3.792v-7.014c0-2.283-1.005-3.425-3.017-3.425h-2.936v15.577h2.854zm3.996 26.18v-8.727c0-2.12-.312-3.724-.937-4.812-.626-1.087-1.727-1.631-3.303-1.631h-2.61v20.307l1.386.082c3.643 0 5.464-1.74 5.464-5.22zm22.347 13.007c-2.936-3.452-4.404-8.305-4.404-14.557v-33.357c0-6.035 1.468-10.588 4.404-13.66 2.936-3.072 7.231-4.608 12.886-4.608 5.654 0 9.95 1.536 12.885 4.608 2.936 3.072 4.404 7.625 4.404 13.66v33.357c0 6.307-1.468 11.173-4.404 14.598-2.936 3.426-7.23 5.138-12.885 5.138-5.655 0-9.95-1.726-12.886-5.179zm15.414-9.338c.435-1.087.652-2.61.652-4.567v-34.253c0-1.523-.204-2.76-.611-3.711-.408-.951-1.237-1.427-2.488-1.427-2.338 0-3.507 1.767-3.507 5.3v34.173c0 2.012.245 3.534.734 4.567.49 1.033 1.387 1.55 2.692 1.55 1.25 0 2.093-.544 2.528-1.632zm24.222 9.338c-2.936-3.452-4.404-8.305-4.404-14.557v-33.357c0-6.035 1.468-10.588 4.404-13.66 2.936-3.072 7.231-4.608 12.886-4.608 5.654 0 9.95 1.536 12.885 4.608 2.936 3.072 4.404 7.625 4.404 13.66v33.357c0 6.307-1.468 11.173-4.404 14.598-2.936 3.426-7.23 5.138-12.885 5.138-5.655 0-9.95-1.726-12.886-5.179zm15.414-9.338c.435-1.087.652-2.61.652-4.567v-34.253c0-1.523-.204-2.76-.611-3.711-.408-.951-1.237-1.427-2.488-1.427-2.338 0-3.507 1.767-3.507 5.3v34.173c0 2.012.245 3.534.734 4.567.49 1.033 1.387 1.55 2.692 1.55 1.25 0 2.093-.544 2.528-1.632zm20.389 13.865v-70.057h13.864v28.056l6.525-28.056h14.109l-7.83 32.052 9.461 38.005h-14.517l-7.666-33.927v33.927H306.28zM187.82 738.975h154.467v7.482H187.82v-7.482zM0 658.022h19.002c5.111 0 8.822 1.25 11.133 3.752 2.31 2.501 3.466 6.579 3.466 12.233v3.1c0 6.687-2.392 10.683-7.177 11.988 2.936.761 5.002 2.528 6.198 5.301 1.196 2.773 1.794 6.443 1.794 11.01 0 7.449-1.114 13.09-3.343 16.923-2.23 3.833-6.253 5.75-12.07 5.75H0v-70.057zm16.556 26.343c1.196 0 2.011-.449 2.446-1.346.435-.897.653-2.161.653-3.792v-7.014c0-2.283-1.006-3.425-3.018-3.425h-2.936v15.577h2.855zm3.996 26.18v-8.727c0-2.12-.313-3.725-.938-4.812-.625-1.088-1.726-1.631-3.303-1.631h-2.61v20.307l1.387.082c3.643 0 5.464-1.74 5.464-5.22zm18.513 17.533v-70.056h14.028v58.15h14.435v11.906H39.065zm36.21-4.526c-2.935-3.452-4.403-8.305-4.403-14.557v-33.357c0-6.035 1.468-10.588 4.404-13.66 2.936-3.072 7.23-4.608 12.885-4.608 5.655 0 9.95 1.536 12.886 4.608 2.936 3.072 4.404 7.625 4.404 13.66v33.357c0 6.306-1.468 11.173-4.404 14.598-2.936 3.425-7.231 5.138-12.886 5.138-5.654 0-9.95-1.726-12.885-5.179zm15.415-9.338c.434-1.087.652-2.61.652-4.567v-34.253c0-1.523-.204-2.76-.612-3.711-.408-.952-1.237-1.427-2.487-1.427-2.338 0-3.507 1.767-3.507 5.3v34.173c0 2.011.245 3.534.734 4.567.49 1.033 1.386 1.55 2.691 1.55 1.25 0 2.094-.545 2.529-1.632zm23.528 9.175c-2.474-3.561-3.71-8.957-3.71-16.189v-30.175c0-6.47 1.44-11.364 4.322-14.68 2.882-3.317 7.177-4.975 12.886-4.975 4.621 0 8.21.924 10.765 2.773 2.555 1.848 4.322 4.54 5.301 8.074.979 3.534 1.468 8.074 1.468 13.62h-13.701v-6.28c0-1.686-.231-2.99-.694-3.915-.462-.924-1.29-1.386-2.487-1.386-2.664 0-3.996 1.74-3.996 5.22v33.926c0 2.12.272 3.725.815 4.812.544 1.087 1.496 1.631 2.855 1.631 1.36 0 2.31-.544 2.854-1.631s.816-2.691.816-4.812v-10.031h-3.752v-12.07h17.127v40.777h-5.627l-2.366-5.872c-2.5 4.35-6.36 6.525-11.58 6.525-5.057 0-8.822-1.78-11.296-5.342zM0 738.973h145.25v7.48H0v-7.48zm0-231.116V417.31h36.26v17.498H18.448v17.603h17.076v17.077H18.447v20.765H37.42v17.604H0zm43.429 0V417.31h18.657l8.328 43.323V417.31H87.91v90.547H70.203l-9.066-45.326v45.326H43.43zm60.294 0v-73.154H92.97V417.31h39.634v17.393h-10.752v73.154h-18.13zm33.942-90.547h27.828c4.427 0 7.853 1.001 10.277 3.004 2.425 2.003 4.059 4.814 4.902 8.433.843 3.619 1.265 8.24 1.265 13.861 0 5.13-.668 9.136-2.003 12.017-1.335 2.881-3.654 4.884-6.957 6.008 2.74.562 4.726 1.933 5.956 4.111 1.23 2.179 1.844 5.13 1.844 8.855l-.21 34.258h-17.71v-35.418c0-2.53-.491-4.146-1.475-4.849-.984-.702-2.776-1.054-5.376-1.054v41.32h-18.341V417.31zm22.768 33.52c2.53 0 3.795-2.74 3.795-8.222 0-2.389-.105-4.181-.316-5.376-.211-1.194-.598-2.02-1.16-2.477-.562-.457-1.37-.685-2.424-.685h-4.217v16.76h4.322zm27.512 57.027V417.31h36.26v17.498h-17.813v17.603h17.076v17.077h-17.076v20.765h18.973v17.604h-37.42zm43.429-90.547h23.928c7.238 0 12.403 2.337 15.495 7.01 3.092 4.673 4.638 11.507 4.638 20.502s-1.37 15.776-4.111 20.344c-2.74 4.568-7.66 6.852-14.757 6.852h-7.379v35.839h-17.814V417.31zm18.868 38.369c2.179 0 3.777-.404 4.796-1.212 1.02-.808 1.687-1.968 2.003-3.479.316-1.51.474-3.671.474-6.482 0-3.795-.421-6.536-1.265-8.222-.843-1.687-2.53-2.53-5.06-2.53h-2.002v21.925h1.054zm30.885-38.369h27.828c4.427 0 7.853 1.001 10.278 3.004 2.424 2.003 4.058 4.814 4.901 8.433.843 3.619 1.265 8.24 1.265 13.861 0 5.13-.668 9.136-2.003 12.017-1.335 2.881-3.654 4.884-6.957 6.008 2.74.562 4.726 1.933 5.956 4.111 1.23 2.179 1.844 5.13 1.844 8.855l-.21 34.258h-17.71v-35.418c0-2.53-.491-4.146-1.475-4.849-.984-.702-2.776-1.054-5.376-1.054v41.32h-18.341V417.31zm22.768 33.52c2.53 0 3.795-2.74 3.795-8.222 0-2.389-.105-4.181-.316-5.376-.21-1.194-.597-2.02-1.16-2.477-.562-.457-1.37-.685-2.424-.685h-4.216v16.76h4.321zm27.512 57.027V417.31h36.261v17.498h-17.814v17.603h17.076v17.077h-17.076v20.765h18.974v17.604h-37.42zm43.429 0V417.31h18.658l8.327 43.323V417.31h17.498v90.547H401.61l-9.065-45.326v45.326h-17.709zm52.494 0V417.31h36.26v17.498h-17.813v17.603h17.076v17.077h-17.076v20.765h18.973v17.604h-37.42zm47.803-5.482c-3.619-4.216-5.428-10.47-5.428-18.762V417.31h17.603v65.565c0 2.88.281 5.13.843 6.746.562 1.616 1.757 2.424 3.584 2.424 1.827 0 3.022-.79 3.584-2.371.562-1.582.843-3.848.843-6.8V417.31h17.604v66.303c0 8.292-1.81 14.546-5.429 18.762-3.619 4.217-9.153 6.325-16.602 6.325s-12.983-2.108-16.602-6.325zm45.59-85.065h27.828c4.427 0 7.853 1.001 10.277 3.004 2.425 2.003 4.058 4.814 4.902 8.433.843 3.619 1.265 8.24 1.265 13.861 0 5.13-.668 9.136-2.003 12.017-1.335 2.881-3.654 4.884-6.957 6.008 2.74.562 4.726 1.933 5.956 4.111 1.23 2.179 1.844 5.13 1.844 8.855l-.21 34.258h-17.71v-35.418c0-2.53-.491-4.146-1.475-4.849-.984-.702-2.776-1.054-5.376-1.054v41.32h-18.341V417.31zm22.768 33.52c2.53 0 3.795-2.74 3.795-8.222 0-2.389-.106-4.181-.316-5.376-.211-1.194-.598-2.02-1.16-2.477-.562-.457-1.37-.685-2.424-.685h-4.217v16.76h4.322z" fill="#000"/></g></svg>