<svg width="512" height="512" viewBox="0 0 512 512" fill="none" xmlns="http://www.w3.org/2000/svg">
<g clip-path="url(#clip0_106_68)">
<path fill-rule="evenodd" clip-rule="evenodd" d="M0 72C0 32.2355 32.2355 0 72 0H440C479.764 0 512 32.2355 512 72V440C512 479.764 479.764 512 440 512H72C32.2355 512 0 479.764 0 440V72ZM55.0651 333.918L63.3878 312.188L63.8393 311.661C63.9906 311.485 64.1797 311.237 64.454 310.863C64.4998 310.801 64.5488 310.734 64.6003 310.663C64.8225 310.359 65.092 309.99 65.3582 309.648C65.6879 309.224 66.1124 308.708 66.6059 308.236C67.0676 307.794 67.8221 307.161 68.8499 306.783L69.2843 306.623L69.7436 306.566C69.7826 306.562 69.8257 306.556 69.8727 306.55C70.3294 306.491 71.1497 306.386 71.9797 306.493C72.3666 306.543 72.7365 306.637 73.0637 306.741C75.4784 306.667 77.4856 308.105 78.7595 309.407C90.501 318.112 106.835 323.818 121.038 324.66L121.085 324.663L121.132 324.667C130.74 325.463 138.078 323.556 142.889 320.116C147.582 316.761 150.246 311.697 150.223 305.123L150.223 305.096L150.223 305.069C150.335 293.947 142.438 284.168 118.391 273.026C87.6291 258.778 56.5316 240.235 55.5188 202.275L55.5168 202.201L55.5176 202.127C55.6737 186.99 61.0104 173.74 70.5478 163.859C79.4057 154.601 91.8614 148.548 106.622 146.19L106.867 121.945L106.867 121.929C106.915 119.304 107.844 116.848 109.679 115.021C111.505 113.202 113.943 112.289 116.507 112.203L116.594 112.2L137.125 112.4C140.11 112.333 142.581 113.502 144.443 115.438C146.189 117.254 147.3 119.631 148.08 121.959L148.297 122.606L147.946 147.353C162.135 150.281 175.416 155.262 187.67 163.511L187.895 163.663L188.098 163.844C189.642 165.221 190.903 167.067 191.568 169.022C192.158 170.755 192.486 173.28 191.162 175.557L182.899 196.493L182.285 197.091C181.665 197.695 180.873 198.428 180.116 199.129L180.112 199.132C179.548 199.655 179.003 200.159 178.563 200.579L178.018 201.099L177.27 201.406C177.065 201.491 176.72 201.633 176.385 201.738C175.947 201.875 175.307 202.025 174.525 201.979C173.775 201.934 173.179 201.724 172.811 201.575C172.503 201.45 172.176 201.29 171.946 201.177L171.942 201.175C171.918 201.168 171.868 201.153 171.783 201.132C171.766 201.127 171.733 201.119 171.688 201.108L171.684 201.107C171.477 201.057 171.027 200.949 170.687 200.846C169.71 200.55 168.521 200.02 167.441 198.902L167.094 198.685C161.149 194.971 149.563 187.734 130.971 186.757L130.928 186.755L130.885 186.752C120.409 185.975 114.038 188.063 110.486 190.898C107.059 193.632 105.712 197.488 106.126 201.771L106.146 201.982L106.144 202.194C106.094 207.398 107.769 211.509 112.871 216.056C118.256 220.855 127.246 225.932 141.64 232.634L141.673 232.649L141.705 232.665C161.409 242.274 176.02 252.56 185.816 264.502C195.695 276.546 200.516 290.078 200.947 305.782L200.948 305.842L200.948 305.903C200.904 321.547 195.182 335.31 185.104 345.764C175.849 355.556 162.895 362.19 147.672 364.914L148.512 389.71L148.511 389.814C148.413 395.169 144.518 399.527 138.867 399.716L138.764 399.72L116.925 399.32C110.687 399.591 107.405 394.317 106.2 389.787L106.065 389.278L106.099 365.345C88.2216 362.526 70.8262 355.163 58.4252 346.027L58.3155 345.946L58.2115 345.858C56.5857 344.48 55.2552 342.608 54.574 340.57C53.9489 338.7 53.738 336.188 55.0651 333.918ZM355 358H224C217.373 358 212 363.373 212 370V389C212 395.627 217.373 401 224 401H355C361.627 401 367 395.627 367 389V370C367 363.373 361.627 358 355 358Z" fill="black"/>
</g>
<defs>
<clipPath id="clip0_106_68">
<rect width="512" height="512" fill="white"/>
</clipPath>
</defs>
</svg>
