<?xml version="1.0" encoding="UTF-8"?>
<svg width="66px" height="94px" viewBox="0 0 66 94" version="1.1" xmlns="http://www.w3.org/2000/svg" xmlns:xlink="http://www.w3.org/1999/xlink">
    <title>chess-com</title>
    <g id="chess-com" stroke="none" stroke-width="1" fill="none" fill-rule="evenodd">
        <path d="M32.8765515,0.000347033209 C34.9673608,0.000347033209 36.942014,0.397080995 38.7424332,1.1332201 L38.5975603,1.07322462 C38.6288206,1.06552778 38.6577775,1.06656311 38.6843551,1.07659402 C44.3760027,3.34163743 48.3833872,8.77774162 48.3833872,15.1198632 C48.3833872,20.1595848 45.8279536,24.5764194 41.9367251,27.3510976 L53.1457861,34.5426104 C53.1457861,36.9775321 52.5650058,38.902819 51.403445,40.9979842 L41.5301789,40.9979842 C41.762491,45.3015666 39.9620719,55.7207663 56.165844,67.7821225 C61.8574916,72.0290789 65.1679396,79.1639657 65.1679396,87.8843828 C65.1679396,88.2807654 64.2967691,94 32.8765515,94 C1.45633391,94 0.585163362,88.2807654 0.585163362,87.8843828 C0.585163362,84.3169394 1.16594372,80.9760004 2.15327034,78.0314439 C2.19172015,77.9233039 2.24293522,77.8235346 2.30629326,77.731637 C3.84342918,73.6488124 6.30250442,70.2374765 9.58725897,67.7821225 C22.0015813,58.5678434 23.862702,50.2985066 24.1393809,44.9959711 C24.117374,44.8770176 24.106768,44.7519288 24.106768,44.6220536 C24.106768,43.1497754 24.106768,41.9606276 24.1648461,40.9979842 L14.2915799,40.9979842 C13.1300192,38.902819 12.5492388,36.9775321 12.5492388,34.5426104 L23.7582998,27.2944715 C19.8670714,24.5764194 17.3116378,20.1029587 17.3116378,15.0632371 C17.3116378,6.73920255 24.2810021,-0.0559276875 32.8765515,0.000347033209 Z" fill="#000000" fill-rule="nonzero"></path>
    </g>
</svg>