<?xml version="1.0" encoding="UTF-8"?>
<svg width="65px" height="65px" viewBox="0 0 65 65" version="1.1" xmlns="http://www.w3.org/2000/svg" xmlns:xlink="http://www.w3.org/1999/xlink">
    <!-- Generator: Sketch 53.2 (72643) - https://sketchapp.com -->
    <title>codepen</title>
    <desc>Created with Sketch.</desc>
    <g id="Page-1" stroke="none" stroke-width="1" fill="none" fill-rule="evenodd">
        <g id="portrait" transform="translate(-397.000000, -789.000000)" fill="#272727" fill-rule="nonzero">
            <path d="M460.518986,808.832887 C460.56092,808.86525 460.625683,808.919757 460.689573,808.977103 C460.733061,809.01629 460.829246,809.113658 460.829246,809.113658 C460.883995,809.167732 460.93831,809.226717 461.018218,809.318837 C461.179939,809.525631 461.226367,809.592716 461.289056,809.689456 C461.423015,809.912018 461.462328,809.989063 461.503073,810.076437 C461.614994,810.331091 461.635355,810.389858 461.67416,810.509212 C461.753319,810.775917 461.770696,810.86154 461.791939,810.983816 C461.839239,811.292021 461.850014,811.442737 461.850014,811.59306 L461.850014,830.62605 C461.850014,830.775805 461.839351,830.925542 461.816527,831.104445 C461.769999,831.361579 461.753221,831.444522 461.729694,831.532279 C461.677392,831.700275 461.667835,831.729384 461.667835,831.729384 C461.627176,831.851701 461.607673,831.906185 461.582352,831.96923 C461.46498,832.224767 461.426338,832.300952 461.373593,832.393113 C461.230014,832.621626 461.181339,832.691796 461.144128,832.739708 C461.105103,832.793969 461.07663,832.829748 461.002465,832.91926 C460.936482,832.994891 460.883138,833.052882 460.835379,833.099576 C460.762394,833.174491 460.729404,833.206992 460.691196,833.240742 C460.629486,833.296635 460.564959,833.351007 460.490588,833.40994 C460.413322,833.470045 460.376818,833.497505 460.304871,833.547023 C460.317921,833.540665 431.723542,852.604777 431.723542,852.604777 C431.137544,852.995004 430.454582,853.200161 429.760115,853.200161 C429.064947,853.200161 428.381483,852.994957 427.795712,852.60453 L399.250862,833.574543 C399.128497,833.487267 399.089599,833.457328 399.029258,833.409326 C398.956922,833.352848 398.888826,833.295468 398.841628,833.251574 C398.794316,833.210334 398.691406,833.106873 398.691406,833.106873 C398.633499,833.049683 398.576428,832.987145 398.511001,832.9107 C398.457912,832.848203 398.417643,832.798031 398.38489,832.752248 C398.330362,832.679265 398.280222,832.606914 398.242619,832.546989 C398.209553,832.49665 398.177744,832.445804 398.131753,832.367942 C398.092391,832.296752 398.056123,832.225248 398.018374,832.14604 C397.974743,832.055966 397.957133,832.017834 397.934939,831.962472 C397.903613,831.884157 397.883578,831.825847 397.848348,831.71707 C397.769232,831.453476 397.757078,831.393796 397.734752,831.272031 C397.681059,830.934334 397.670013,830.78016 397.670013,830.62605 L397.670013,811.59306 C397.670013,811.439296 397.681156,811.285237 397.701617,811.134195 C397.757078,810.825111 397.769232,810.765431 397.794865,810.66912 C397.882515,810.395852 397.904651,810.331823 397.936189,810.254943 C397.96054,810.19475 397.980461,810.151696 398.016031,810.078181 C398.058105,809.989291 398.095842,809.915334 398.138957,809.840215 C398.280014,809.61246 398.330773,809.539216 398.386682,809.464673 C398.427096,809.410972 398.468081,809.359356 398.51177,809.307707 C398.572492,809.236426 398.631817,809.171559 398.68599,809.117955 C398.760949,809.041587 398.795767,809.00775 398.828534,808.979187 C398.892747,808.92086 398.959926,808.86432 399.001647,808.832685 C399.095725,808.757313 399.131595,808.729675 399.217344,808.670559 C399.200999,808.679284 427.795713,789.61478 427.795713,789.61478 C428.985356,788.821685 430.534065,788.821685 431.723707,789.614779 L460.271065,808.646289 C460.486882,808.806871 460.486882,808.806871 460.518986,808.832887 Z M459.286337,832.172958 L459.290409,832.169735 C459.289479,832.170446 459.288079,832.171566 459.286337,832.172958 Z M459.284886,810.045355 C459.286703,810.046828 459.288019,810.047894 459.28964,810.049135 C459.289293,810.048856 459.284886,810.045355 459.284886,810.045355 Z M433.300629,809.63896 L444.081564,816.850646 L451.933625,811.597755 L433.300629,799.176653 L433.300629,809.63896 Z M407.585847,811.597728 L415.438633,816.850651 L426.218994,809.638973 L426.218994,799.176645 L407.585847,811.597728 Z M404.751043,823.998745 L409.07014,821.109688 L404.751043,818.22089 L404.751043,823.998745 Z M427.07561,843.786404 L427.075408,844.642818 L427.07561,843.786404 Z M426.219196,832.580587 L415.438809,825.370202 L407.586191,830.621493 L426.219196,843.04278 L426.219196,832.580587 Z M437.713127,821.109667 L429.759897,815.789797 L421.80616,821.109667 L429.759897,826.429706 L437.713127,821.109667 Z M451.933478,830.621462 L444.081589,825.370207 L433.300629,832.5806 L433.300629,843.042645 L451.933478,830.621462 Z M454.768378,818.220822 L450.450131,821.109486 L454.768378,823.998409 L454.768378,818.220822 Z" id="codepen"></path>
        </g>
    </g>
</svg>