<?xml version="1.0" encoding="UTF-8"?>
<svg width="89px" height="66px" viewBox="0 0 89 66" version="1.1" xmlns="http://www.w3.org/2000/svg" xmlns:xlink="http://www.w3.org/1999/xlink">
    <title>email</title>
    <g id="email" stroke="none" stroke-width="1" fill="none" fill-rule="evenodd">
        <path d="M9.13301677,0 C4.57832927,0 0.883016771,3.6953125 0.883016771,8.25 C0.883016771,10.8453125 2.10332927,13.2859375 4.18301677,14.85 L41.5830168,42.9 C43.5423918,44.3609375 46.2236418,44.3609375 48.1830168,42.9 L85.5830168,14.85 C87.6627043,13.2859375 88.8830168,10.8453125 88.8830168,8.25 C88.8830168,3.6953125 85.1877043,0 80.6330168,0 L9.13301677,0 Z M0.883016771,19.25 L0.883016771,55 C0.883016771,61.0671875 5.81582927,66 11.8830168,66 L77.8830168,66 C83.9502043,66 88.8830168,61.0671875 88.8830168,55 L88.8830168,19.25 L51.4830168,47.3 C47.5642668,50.2390625 42.2017668,50.2390625 38.2830168,47.3 L0.883016771,19.25 Z" fill="#000000" fill-rule="nonzero"></path>
    </g>
</svg>