<svg width="93" height="93" viewBox="0 0 93 93" fill="none" xmlns="http://www.w3.org/2000/svg">
<path d="M90.71 42.408L50.591 2.29099C48.281 -0.0200107 44.534 -0.0200107 42.222 2.29099L33.892 10.623L44.459 21.19C46.915 20.36 49.731 20.917 51.688 22.875C53.657 24.845 54.209 27.685 53.358 30.15L63.544 40.335C66.009 39.485 68.851 40.035 70.819 42.006C73.569 44.756 73.569 49.212 70.819 51.964C68.067 54.715 63.611 54.715 60.858 51.964C58.79 49.894 58.278 46.854 59.327 44.306L49.827 34.807V59.804C50.497 60.136 51.13 60.578 51.688 61.136C54.438 63.886 54.438 68.342 51.688 71.095C48.938 73.844 44.479 73.844 41.731 71.095C38.981 68.341 38.981 63.885 41.731 61.136C42.411 60.457 43.198 59.943 44.038 59.599V34.369C43.198 34.025 42.413 33.516 41.731 32.832C39.648 30.75 39.147 27.692 40.215 25.134L29.798 14.715L2.288 42.222C-0.0230014 44.535 -0.0230014 48.282 2.288 50.593L42.409 90.711C44.719 93.022 48.465 93.022 50.778 90.711L90.71 50.779C93.021 48.468 93.021 44.719 90.71 42.408Z" fill="black"/>
</svg>
