<?xml version="1.0" encoding="UTF-8"?>
<svg width="96px" height="92px" viewBox="0 0 96 92" version="1.1" xmlns="http://www.w3.org/2000/svg" xmlns:xlink="http://www.w3.org/1999/xlink">
    <title>github</title>
    <g id="github" stroke="none" stroke-width="1" fill="none" fill-rule="evenodd">
        <path d="M32.5603088,74.0782655 C32.5603088,74.4587393 32.1227638,74.7631185 31.5710767,74.7631185 C30.9432948,74.8201895 30.5057498,74.5158104 30.5057498,74.0782655 C30.5057498,73.6977916 30.9432948,73.3934125 31.4949819,73.3934125 C32.0656927,73.3363414 32.5603088,73.6407205 32.5603088,74.0782655 Z M26.6439399,73.2221992 C26.510774,73.6026731 26.8912479,74.0402181 27.4619587,74.1543602 C27.9565748,74.3445972 28.5272856,74.1543602 28.6414278,73.7738864 C28.7555699,73.3934125 28.3941197,72.9558675 27.8234089,72.7846543 C27.3287929,72.6514884 26.7771057,72.8417253 26.6439399,73.2221992 Z M35.0524127,72.8987964 C34.5007256,73.0319623 34.1202517,73.3934125 34.1773228,73.8309574 C34.2343939,74.2114313 34.7290099,74.4587393 35.2997208,74.3255735 C35.8514079,74.1924076 36.2318818,73.8309574 36.1748107,73.4504836 C36.1177396,73.0890334 35.6040999,72.8417253 35.0524127,72.8987964 Z M47.5700036,4.26325641e-14 C21.1841396,4.26325641e-14 1,20.0319501 1,46.417814 C1,67.5150909 14.2785386,85.5685768 33.2451618,91.9224907 C35.6801946,92.3600356 36.5362609,90.8571638 36.5362609,89.6206237 C36.5362609,88.4411546 36.4791898,81.9350512 36.4791898,77.9400754 C36.4791898,77.9400754 23.1626038,80.7936295 20.3661208,72.2710145 C20.3661208,72.2710145 18.1974196,66.7351195 15.0775338,65.3083424 C15.0775338,65.3083424 10.7211078,62.3216224 15.3819129,62.3786935 C15.3819129,62.3786935 20.1188127,62.7591674 22.7250588,67.2868066 C26.8912479,74.6299526 33.8729437,72.5183225 36.593332,71.2627587 C37.0308769,68.2189676 38.2674171,66.1073376 39.637123,64.8517737 C29.002878,63.6723047 18.2735144,62.1313855 18.2735144,43.8305916 C18.2735144,38.5990757 19.7193152,35.9738059 22.7631062,32.6256357 C22.2684902,31.3890955 20.6514762,26.2907455 23.2577223,19.7085473 C27.2336744,18.4720071 36.3840713,24.8449447 36.3840713,24.8449447 C40.1888102,23.7796178 44.2789044,23.2279307 48.3309513,23.2279307 C52.3829982,23.2279307 56.4730925,23.7796178 60.2778313,24.8449447 C60.2778313,24.8449447 69.4282283,18.4529834 73.4041804,19.7085473 C76.0104265,26.3097692 74.3934125,31.3890955 73.8987964,32.6256357 C76.9425875,35.9928295 78.8069095,38.6180994 78.8069095,43.8305916 C78.8069095,62.1884565 67.6019536,63.653281 56.9677085,64.8517737 C58.7178884,66.3546456 60.2017365,69.2081997 60.2017365,73.6787679 C60.2017365,80.0897528 60.1446655,88.0226334 60.1446655,89.5825763 C60.1446655,90.8191164 61.0197554,92.3219883 63.4357646,91.8844433 C82.4594588,85.5685768 95.3575235,67.5150909 95.3575235,46.417814 C95.3575235,20.0319501 73.9558675,4.26325641e-14 47.5700036,4.26325641e-14 Z M19.4910308,65.6127215 C19.2437228,65.8029585 19.3007939,66.2405034 19.6241967,66.6019536 C19.9285758,66.9063327 20.3661208,67.0394986 20.6134288,66.7921906 C20.8607368,66.6019536 20.8036657,66.1644086 20.4802629,65.8029585 C20.1758838,65.4985793 19.7383388,65.3654135 19.4910308,65.6127215 Z M17.4364718,64.0718023 C17.303306,64.3191103 17.4935429,64.6234894 17.8740168,64.8137264 C18.1783959,65.0039633 18.5588698,64.9468922 18.6920357,64.6805605 C18.8252015,64.4332525 18.6349646,64.1288734 18.2544907,63.9386364 C17.8740168,63.8244943 17.5696377,63.8815653 17.4364718,64.0718023 Z M23.6001488,70.8442374 C23.2957697,71.0915455 23.4099118,71.6622563 23.8474568,72.0237065 C24.2850018,72.4612514 24.8366889,72.5183225 25.0839969,72.2139434 C25.331305,71.9666354 25.2171628,71.3959246 24.8366889,71.0344744 C24.4181676,70.5969294 23.8474568,70.5398583 23.6001488,70.8442374 Z M21.4314476,68.0477544 C21.1270685,68.2379913 21.1270685,68.7326074 21.4314476,69.1701523 C21.7358267,69.6076973 22.2494665,69.7979343 22.4967745,69.6076973 C22.8011536,69.3603893 22.8011536,68.8657732 22.4967745,68.4282283 C22.2304428,67.9906833 21.7358267,67.8004464 21.4314476,68.0477544 Z" fill="#000000" fill-rule="nonzero"></path>
    </g>
</svg>