<?xml version="1.0" encoding="UTF-8"?>
<svg width="67px" height="65px" viewBox="0 0 67 65" version="1.1" xmlns="http://www.w3.org/2000/svg" xmlns:xlink="http://www.w3.org/1999/xlink">
    <!-- Generator: Sketch 53.2 (72643) - https://sketchapp.com -->
    <title>github</title>
    <desc>Created with Sketch.</desc>
    <g id="Page-1" stroke="none" stroke-width="1" fill="none" fill-rule="evenodd">
        <g id="portrait" transform="translate(-104.000000, -789.000000)" fill="#000000" fill-rule="nonzero">
            <path d="M137.070877,789.017226 C118.664419,789.017226 104.584208,802.991271 104.584208,821.39773 C104.584208,836.114935 113.847155,848.708827 127.078041,853.141241 C128.776691,853.446467 129.373872,852.398081 129.373872,851.535486 C129.373872,850.712703 129.33406,846.174124 129.33406,843.387277 C129.33406,843.387277 120.044571,845.377882 118.093779,839.432609 C118.093779,839.432609 116.580919,835.570836 114.404524,834.575534 C114.404524,834.575534 111.365534,832.492034 114.616856,832.531846 C114.616856,832.531846 117.921259,832.79726 119.739345,835.955686 C122.645628,841.078176 127.515974,839.605128 129.413684,838.729262 C129.71891,836.60595 130.581506,835.132903 131.536996,834.257037 C124.118676,833.434253 116.634002,832.359327 116.634002,819.592915 C116.634002,815.943473 117.642575,814.112117 119.765887,811.776474 C119.420848,810.913878 118.292839,807.357331 120.110925,802.76567 C122.884501,801.903074 129.267707,806.348758 129.267707,806.348758 C131.921846,805.605599 134.775046,805.220749 137.601705,805.220749 C140.428364,805.220749 143.281564,805.605599 145.935704,806.348758 C145.935704,806.348758 152.31891,801.889803 155.092486,802.76567 C156.910571,807.370602 155.782562,810.913878 155.437524,811.776474 C157.560835,814.125387 158.861364,815.956744 158.861364,819.592915 C158.861364,832.399139 151.044923,833.420983 143.626602,834.257037 C144.847506,835.305422 145.882621,837.296027 145.882621,840.414641 C145.882621,844.886866 145.842809,850.420747 145.842809,851.508945 C145.842809,852.37154 146.453261,853.419925 148.13864,853.114699 C161.409338,848.708827 170.406871,836.114935 170.406871,821.39773 C170.406871,802.991271 155.477336,789.017226 137.070877,789.017226 Z" id="github"></path>
        </g>
    </g>
</svg>