<?xml version="1.0" encoding="UTF-8"?>
<svg width="63px" height="64px" viewBox="0 0 63 64" version="1.1" xmlns="http://www.w3.org/2000/svg" xmlns:xlink="http://www.w3.org/1999/xlink">
    <!-- Generator: Sketch 53.2 (72643) - https://sketchapp.com -->
    <title>linkedin</title>
    <desc>Created with Sketch.</desc>
    <g id="Page-1" stroke="none" stroke-width="1" fill="none" fill-rule="evenodd">
        <g id="portrait" transform="translate(-502.000000, -783.000000)" fill="#000000" fill-rule="nonzero">
            <path d="M516.112115,846.058494 L503.189372,846.058494 L503.189372,804.452546 L516.112115,804.452546 L516.112115,846.058494 L516.112115,846.058494 Z M509.643788,798.777111 C505.512405,798.777111 502.160004,795.355158 502.160004,791.223775 C502.160004,787.092392 505.512405,783.73999 509.643788,783.73999 C513.775171,783.73999 517.127573,787.092392 517.127573,791.223775 C517.127573,795.355158 513.775171,798.777111 509.643788,798.777111 Z M564.478507,846.058494 L551.583585,846.058494 L551.583585,825.80498 C551.583585,820.978078 551.486212,814.787959 544.864871,814.787959 C538.146157,814.787959 537.116789,820.032172 537.116789,825.457221 L537.116789,846.058494 L524.207956,846.058494 L524.207956,804.452546 L536.602105,804.452546 L536.602105,810.127982 L536.78294,810.127982 C538.507827,806.859042 542.722673,803.409268 549.010164,803.409268 C562.085922,803.409268 564.492418,812.019793 564.492418,823.203739 L564.492418,846.058494 L564.478507,846.058494 Z" id="linkedin"></path>
        </g>
    </g>
</svg>