<?xml version="1.0" encoding="UTF-8"?>
<svg width="79px" height="78px" viewBox="0 0 79 78" version="1.1" xmlns="http://www.w3.org/2000/svg" xmlns:xlink="http://www.w3.org/1999/xlink">
    <title>linked-in</title>
    <g id="linked-in" stroke="none" stroke-width="1" fill="none" fill-rule="evenodd">
        <path d="M72.4540496,0 L5.57949606,0 C2.51521034,0 0.0254781979,2.52455357 0.0254781979,5.62366071 L0.0254781979,72.3763393 C0.0254781979,75.4754464 2.51521034,78 5.57949606,78 L72.4540496,78 C75.5183353,78 78.0254782,75.4754464 78.0254782,72.3763393 L78.0254782,5.62366071 C78.0254782,2.52455357 75.5183353,0 72.4540496,0 Z M23.5995853,66.8571429 L12.0388711,66.8571429 L12.0388711,29.6330357 L23.6169961,29.6330357 L23.6169961,66.8571429 L23.5995853,66.8571429 Z M17.8192282,24.5491071 C14.1107461,24.5491071 11.1161032,21.5370536 11.1161032,17.8459821 C11.1161032,14.1549107 14.1107461,11.1428571 17.8192282,11.1428571 C21.5102996,11.1428571 24.5223532,14.1549107 24.5223532,17.8459821 C24.5223532,21.5544643 21.5277103,24.5491071 17.8192282,24.5491071 L17.8192282,24.5491071 Z M66.9348532,66.8571429 L55.3741389,66.8571429 L55.3741389,48.75 C55.3741389,44.4321429 55.2870853,38.878125 49.3674425,38.878125 C43.3433353,38.878125 42.4205675,43.5790179 42.4205675,48.4366071 L42.4205675,66.8571429 L30.8598532,66.8571429 L30.8598532,29.6330357 L41.9504782,29.6330357 L41.9504782,34.7169643 L42.1071746,34.7169643 C43.6567282,31.7919643 47.4348532,28.7102679 53.0585139,28.7102679 C64.7585139,28.7102679 66.9348532,36.4232143 66.9348532,46.4517857 L66.9348532,66.8571429 L66.9348532,66.8571429 Z" id="linkedin" fill="#000000" fill-rule="nonzero"></path>
    </g>
</svg>