<svg width="617" height="615" viewBox="0 0 617 615" fill="none" xmlns="http://www.w3.org/2000/svg">
<g clip-path="url(#clip0_109_123)">
<path opacity="0.987" fill-rule="evenodd" clip-rule="evenodd" d="M349.409 1.00943C402.519 0.521167 455.701 0.451362 508.953 0.800055C479.414 17.3143 449.821 33.7155 420.178 50.0032C396.519 33.7766 372.931 17.4454 349.409 1.00943Z" fill="black"/>
<path opacity="0.996" fill-rule="evenodd" clip-rule="evenodd" d="M315.491 10.2218C316.393 10.1682 317.231 10.3776 318.003 10.8499C346.757 30.9499 375.511 51.0499 404.266 71.1499C404.5 71.4535 404.638 71.8024 404.684 72.1968C390.111 118.708 375.455 165.189 360.716 211.641C306.062 262.596 251.345 313.474 196.566 364.275C151.74 374.33 106.934 384.45 62.1469 394.634C46.3696 357.982 30.8759 321.202 15.6656 284.294C37.8757 245.467 60.2788 206.733 82.875 168.091C84.0111 166.586 85.1978 165.121 86.4344 163.694C127.252 125.63 168.15 87.6629 209.128 49.7937C244.573 36.4632 280.028 23.2726 315.491 10.2218Z" fill="black"/>
<path opacity="0.991" fill-rule="evenodd" clip-rule="evenodd" d="M543.291 11.4781C584.462 27.7558 608.402 57.9058 615.106 101.928C617.929 121.398 617.51 140.8 613.85 160.134C612.355 169.274 610.542 178.348 608.406 187.353C553.42 147.513 498.497 107.593 443.628 67.5906C476.224 49.2687 508.886 31.053 541.616 12.9438C542.281 12.5465 542.843 12.058 543.291 11.4781Z" fill="black"/>
<path opacity="0.989" fill-rule="evenodd" clip-rule="evenodd" d="M427.297 88.5281C479.109 125.753 530.757 163.231 582.234 200.962C518.304 202.701 454.377 204.027 390.447 204.941C402.817 166.151 415.103 127.346 427.297 88.5281Z" fill="black"/>
<path opacity="0.993" fill-rule="evenodd" clip-rule="evenodd" d="M588.934 227.134C591.602 226.996 594.253 227.136 596.891 227.553C585.086 258.838 570.501 288.709 553.131 317.166C525.724 360.71 494.247 401.188 458.703 438.603C435.923 369.849 413.311 301.035 390.866 232.159C456.953 230.375 522.973 228.7 588.934 227.134Z" fill="black"/>
<path opacity="0.992" fill-rule="evenodd" clip-rule="evenodd" d="M366.159 242.209C389.091 311.028 411.774 379.983 434.206 449.072C434.533 449.675 434.462 450.236 433.997 450.747C365.291 424.194 296.616 397.603 227.972 370.975C273.991 327.956 320.053 285.034 366.159 242.209Z" fill="black"/>
<path opacity="0.99" fill-rule="evenodd" clip-rule="evenodd" d="M605.684 274.034C606.141 274.085 606.417 274.364 606.522 274.872C598.947 373.138 591.338 471.404 583.7 569.672C583.105 567.754 582.268 565.941 581.188 564.228C579.454 562.495 577.708 560.748 575.953 558.994C540.502 528.01 505.327 496.742 470.428 465.194C492.651 441.024 513.936 416.108 534.288 390.447C558.29 359.494 579.366 326.552 597.519 291.622C600.362 285.796 603.084 279.934 605.684 274.034Z" fill="black"/>
<path opacity="0.985" fill-rule="evenodd" clip-rule="evenodd" d="M0.590631 317.166C13.5224 347.786 26.5037 378.425 39.5344 409.081C26.5699 431.17 13.6586 453.293 0.800006 475.453C0.590631 422.691 0.520825 369.928 0.590631 317.166Z" fill="black"/>
<path opacity="0.989" fill-rule="evenodd" clip-rule="evenodd" d="M184.422 393.797C184.997 393.73 185.555 393.801 186.097 394.006C168.821 462.2 151.513 530.389 134.172 598.566C113.071 539.032 92.1331 479.427 71.3594 419.759C109.052 410.961 146.74 402.31 184.422 393.797Z" fill="black"/>
<path opacity="0.994" fill-rule="evenodd" clip-rule="evenodd" d="M212.897 393.797C282.663 420.379 352.315 447.25 421.853 474.406C391.062 502.697 358.121 528.098 323.028 550.619C293.14 569.157 261.525 584.161 228.181 595.634C205.282 603.298 181.902 608.808 158.041 612.175C176.489 539.43 194.775 466.634 212.897 393.797Z" fill="black"/>
<path opacity="0.988" fill-rule="evenodd" clip-rule="evenodd" d="M50.4219 441.953C50.8389 441.916 51.1878 442.058 51.4687 442.372C71.2894 499.041 91.1105 555.715 110.931 612.384C111.211 612.941 111.211 613.503 110.931 614.059C88.5872 611.777 67.9989 604.587 49.1656 592.494C27.9166 576.615 13.8883 555.749 7.08124 529.891C6.17598 526.691 5.4781 523.484 4.98749 520.259C20.3535 494.272 35.4985 468.171 50.4219 441.953Z" fill="black"/>
<path opacity="0.989" fill-rule="evenodd" clip-rule="evenodd" d="M450.747 483.409C488.07 516.336 525.339 549.346 562.553 582.444C566.707 585.199 571.171 585.898 575.953 584.537C573.139 585.668 570.208 586.229 567.159 586.212C469.854 592.85 372.567 599.407 275.291 605.894C313.811 588.114 349.824 566.481 383.328 540.987C399.488 528.505 415.258 515.523 430.647 502.044C437.431 495.888 444.131 489.678 450.747 483.409Z" fill="black"/>
</g>
<defs>
<clipPath id="clip0_109_123">
<rect width="617" height="615" fill="white"/>
</clipPath>
</defs>
</svg>
