<svg width="44" height="94" viewBox="0 0 44 94" fill="none" xmlns="http://www.w3.org/2000/svg">
<rect width="3318" height="387" transform="translate(-2156 -62)" fill="white"/>
<path d="M1.20006 41.08V19.32C1.20006 8.696 7.21606 0.119995 20.4001 0.119995C33.5841 0.119995 39.6001 8.696 39.6001 19.32V26.616C39.6001 28.024 38.7041 29.048 37.2961 29.048L27.0561 29.944C25.3921 30.072 24.2401 29.048 24.2401 27.384V18.04C24.2401 15.864 22.5761 14.2 20.4001 14.2C18.2241 14.2 16.5601 15.864 16.5601 18.04V42.36C16.5601 44.536 18.2241 46.2 20.4001 46.2H23.6001V40.056C23.6001 38.52 24.6241 37.496 26.1601 37.496H36.4001C37.9361 37.496 38.9601 38.52 38.9601 40.056V46.2H41.2641C42.5441 46.2 43.4401 47.096 43.4401 48.376V57.976C43.4401 59.384 42.5441 60.28 41.2641 60.28H38.9601V88.44C38.9601 89.976 37.9361 91 36.4001 91H28.3361C27.0561 91 26.0321 90.104 25.7761 88.824L25.1361 85.112C23.2161 89.464 19.6321 93.56 12.8481 93.56C1.84006 93.56 0.560059 84.984 0.560059 74.36V66.04C0.560059 57.976 3.88806 54.52 11.0561 53.24C4.40006 51.96 1.20006 48.76 1.20006 41.08ZM23.6001 60.28H20.4001C17.9681 60.28 15.9201 62.328 15.9201 64.76V75.64C15.9201 77.816 17.5841 79.48 19.7601 79.48C21.9361 79.48 23.6001 77.816 23.6001 75.64V60.28Z" fill="black"/>
</svg>
