<svg width="64" height="96" viewBox="0 0 64 96" fill="none" xmlns="http://www.w3.org/2000/svg">
<rect width="3318" height="387" transform="translate(-318 -241)" fill="white"/>
<path d="M31.9859 96C63.1636 96 64 90.159 64 89.7831C64 81.8602 61.1447 73.9084 55.0591 69.2819C42.4265 59.5952 40.8402 50.9494 40.6095 45.5132C40.6095 44.0675 40.6095 42.853 40.5807 41.8988H50.3868C51.5405 39.759 52.1173 37.7928 52.1173 35.3349L41.0133 27.9904C44.8781 25.1855 47.3873 20.6169 47.3873 15.4699C47.3873 6.91084 40.4941 0 32.0147 0C23.5353 0 16.6133 6.91084 16.6133 15.4699C16.6133 20.6169 19.1226 25.1855 22.9873 27.9904L11.8833 35.3349C11.8833 37.7928 12.4602 39.759 13.6138 41.8988H23.42C23.3911 42.853 23.3911 44.0675 23.3911 45.5132C23.1604 50.9494 21.5741 59.5952 8.9415 69.2819C2.88478 73.8795 0.000622493 81.8602 0.000622493 89.7831C-0.028219 90.159 0.808187 96 31.9859 96Z" fill="black"/>
</svg>
