<svg width="300" height="94" viewBox="0 0 300 94" fill="none" xmlns="http://www.w3.org/2000/svg">
<path d="M3.12006 91C1.58406 91 0.560059 89.976 0.560059 88.44V3.96C0.560059 2.424 1.58406 1.39999 3.12006 1.39999H21.0401C34.2241 1.39999 38.9601 9.976 38.9601 20.6V71.8C38.9601 82.424 34.2241 91 21.0401 91H3.12006ZM19.7601 15.48H15.9201V76.92H19.7601C21.9361 76.92 23.6001 75.256 23.6001 73.08V19.32C23.6001 17.144 21.9361 15.48 19.7601 15.48Z" fill="black"/>
<path d="M46.6201 91C45.0841 91 44.0601 89.976 44.0601 88.44V3.96C44.0601 2.424 45.0841 1.39999 46.6201 1.39999H68.6361C70.0441 1.39999 71.0681 2.296 71.1961 3.70399L71.9641 12.664C72.0921 14.328 71.0681 15.48 69.4041 15.48H59.4201V39.16H68.3801C69.9161 39.16 70.9401 40.184 70.9401 41.72V50.68C70.9401 52.216 69.9161 53.24 68.3801 53.24H59.4201V76.92H69.4041C71.0681 76.92 72.0921 78.072 71.9641 79.736L71.1961 88.696C71.0681 90.104 70.0441 91 68.6361 91H46.6201Z" fill="black"/>
<path d="M93.9801 0.119995C107.164 0.119995 113.18 8.696 113.18 19.32V30.712C113.18 32.12 112.284 33.144 110.876 33.144L100.636 34.04C98.9721 34.168 97.8201 33.144 97.8201 31.48V18.04C97.8201 15.864 96.1561 14.2 93.9801 14.2C91.8041 14.2 90.1401 15.864 90.1401 18.04C90.1401 37.752 114.46 52.472 114.46 72.44C114.46 83.448 108.188 92.28 94.6201 92.28C81.0521 92.28 74.7801 83.448 74.7801 72.44V58.872C74.7801 57.464 75.6761 56.44 77.0841 56.312L87.3241 55.544C88.9881 55.416 90.1401 56.44 90.1401 58.104V73.72C90.1401 76.152 92.1881 78.2 94.6201 78.2C97.0521 78.2 99.1001 76.152 99.1001 73.72C99.1001 55.288 74.7801 43.64 74.7801 19.32C74.7801 8.696 80.7961 0.119995 93.9801 0.119995Z" fill="black"/>
<path d="M120.87 91C119.334 91 118.31 89.976 118.31 88.44V3.96C118.31 2.424 119.334 1.39999 120.87 1.39999H131.11C132.646 1.39999 133.67 2.424 133.67 3.96V88.44C133.67 89.976 132.646 91 131.11 91H120.87Z" fill="black"/>
<path d="M176.57 19.32V28.408C176.57 29.816 175.674 30.84 174.266 30.84L164.026 31.736C162.362 31.864 161.21 30.84 161.21 29.176V18.04C161.21 15.864 159.546 14.2 157.37 14.2C155.194 14.2 153.53 15.864 153.53 18.04V74.36C153.53 76.536 155.194 78.2 157.37 78.2C159.546 78.2 161.21 76.536 161.21 74.36V50.68H159.29C158.138 50.68 157.498 49.912 157.498 48.76L158.394 38.904C158.522 37.496 159.546 36.6 160.954 36.6H174.01C175.546 36.6 176.57 37.624 176.57 39.16V88.44C176.57 89.976 175.546 91 174.01 91H165.946C164.666 91 163.642 90.104 163.386 88.824L162.746 84.088C160.698 88.312 157.114 92.28 150.458 92.28C139.45 92.28 138.17 83.704 138.17 73.08V19.32C138.17 8.696 144.186 0.119995 157.37 0.119995C170.554 0.119995 176.57 8.696 176.57 19.32Z" fill="black"/>
<path d="M209.333 91C208.181 91 207.157 90.232 206.901 88.952L197.045 39.8V88.44C197.045 89.976 196.021 91 194.485 91H184.245C182.709 91 181.685 89.976 181.685 88.44V3.96C181.685 2.424 182.709 1.39999 184.245 1.39999H194.997C196.149 1.39999 197.173 2.168 197.429 3.448L207.285 52.6V3.96C207.285 2.424 208.309 1.39999 209.845 1.39999H220.085C221.621 1.39999 222.645 2.424 222.645 3.96V88.44C222.645 89.976 221.621 91 220.085 91H209.333Z" fill="black"/>
<path d="M230.37 91C228.834 91 227.81 89.976 227.81 88.44V3.96C227.81 2.424 228.834 1.39999 230.37 1.39999H252.386C253.794 1.39999 254.818 2.296 254.946 3.70399L255.714 12.664C255.842 14.328 254.818 15.48 253.154 15.48H243.17V39.16H252.13C253.666 39.16 254.69 40.184 254.69 41.72V50.68C254.69 52.216 253.666 53.24 252.13 53.24H243.17V76.92H253.154C254.818 76.92 255.842 78.072 255.714 79.736L254.946 88.696C254.818 90.104 253.794 91 252.386 91H230.37Z" fill="black"/>
<path d="M262.37 91C260.834 91 259.81 89.976 259.81 88.44V3.96C259.81 2.424 260.834 1.39999 262.37 1.39999H281.57C294.754 1.39999 298.21 9.976 298.21 20.6V34.808C298.21 41.848 296.162 46.968 290.786 49.528C293.602 51.064 295.01 54.008 295.65 59.128L299.106 88.184C299.362 89.848 298.338 91 296.546 91H286.434C285.026 91 284.002 90.104 283.874 88.696L280.29 57.848C280.034 55.672 278.626 54.008 276.45 54.008H275.17V88.44C275.17 89.976 274.146 91 272.61 91H262.37ZM279.01 15.48H275.17V39.928H279.01C281.186 39.928 282.85 38.264 282.85 36.088V19.32C282.85 17.144 281.186 15.48 279.01 15.48Z" fill="black"/>
</svg>
