<svg width="337" height="94" viewBox="0 0 337 94" fill="none" xmlns="http://www.w3.org/2000/svg">
<rect width="3318" height="387" transform="translate(-1766 -62)" fill="white"/>
<path d="M3.12006 91C1.58406 91 0.560059 89.976 0.560059 88.44V3.96C0.560059 2.424 1.58406 1.39999 3.12006 1.39999H21.0401C34.2241 1.39999 38.9601 9.976 38.9601 20.6V71.8C38.9601 82.424 34.2241 91 21.0401 91H3.12006ZM19.7601 15.48H15.9201V76.92H19.7601C21.9361 76.92 23.6001 75.256 23.6001 73.08V19.32C23.6001 17.144 21.9361 15.48 19.7601 15.48Z" fill="black"/>
<path d="M46.6201 91C45.0841 91 44.0601 89.976 44.0601 88.44V3.96C44.0601 2.424 45.0841 1.39999 46.6201 1.39999H68.6361C70.0441 1.39999 71.0681 2.296 71.1961 3.70399L71.9641 12.664C72.0921 14.328 71.0681 15.48 69.4041 15.48H59.4201V39.16H68.3801C69.9161 39.16 70.9401 40.184 70.9401 41.72V50.68C70.9401 52.216 69.9161 53.24 68.3801 53.24H59.4201V76.92H69.4041C71.0681 76.92 72.0921 78.072 71.9641 79.736L71.1961 88.696C71.0681 90.104 70.0441 91 68.6361 91H46.6201Z" fill="black"/>
<path d="M86.0441 91C84.6361 91 83.6121 90.104 83.4841 88.696L73.8841 4.216C73.6281 2.55199 74.6521 1.39999 76.3161 1.39999H86.4281C87.9641 1.39999 88.9881 2.296 88.9881 3.83199L93.9801 73.08L98.9721 3.83199C99.1001 2.296 99.9961 1.39999 101.532 1.39999H111.644C113.308 1.39999 114.332 2.55199 114.204 4.216L104.476 88.696C104.348 90.104 103.324 91 101.916 91H86.0441Z" fill="black"/>
<path d="M119.62 91C118.084 91 117.06 89.976 117.06 88.44V3.96C117.06 2.424 118.084 1.39999 119.62 1.39999H141.636C143.044 1.39999 144.068 2.296 144.196 3.70399L144.964 12.664C145.092 14.328 144.068 15.48 142.404 15.48H132.42V39.16H141.38C142.916 39.16 143.94 40.184 143.94 41.72V50.68C143.94 52.216 142.916 53.24 141.38 53.24H132.42V76.92H142.404C144.068 76.92 145.092 78.072 144.964 79.736L144.196 88.696C144.068 90.104 143.044 91 141.636 91H119.62Z" fill="black"/>
<path d="M151.62 91C150.084 91 149.06 89.976 149.06 88.44V3.96C149.06 2.424 150.084 1.39999 151.62 1.39999H161.86C163.396 1.39999 164.42 2.424 164.42 3.96V76.92H174.404C176.068 76.92 177.092 78.072 176.964 79.736L176.196 88.696C176.068 90.104 175.044 91 173.636 91H151.62Z" fill="black"/>
<path d="M198.37 0.119995C211.554 0.119995 217.57 8.696 217.57 19.32V73.08C217.57 83.704 211.554 92.28 198.37 92.28C185.186 92.28 179.17 83.704 179.17 73.08V19.32C179.17 8.696 185.186 0.119995 198.37 0.119995ZM202.21 74.36V18.04C202.21 15.864 200.546 14.2 198.37 14.2C196.194 14.2 194.53 15.864 194.53 18.04V74.36C194.53 76.536 196.194 78.2 198.37 78.2C200.546 78.2 202.21 76.536 202.21 74.36Z" fill="black"/>
<path d="M224.62 91C223.084 91 222.06 89.976 222.06 88.44V3.96C222.06 2.424 223.084 1.39999 224.62 1.39999H243.82C257.004 1.39999 260.46 9.976 260.46 20.6V50.168C260.46 60.792 257.004 69.368 243.82 69.368H237.42V88.44C237.42 89.976 236.396 91 234.86 91H224.62ZM241.26 15.48H237.42V55.288H241.26C243.436 55.288 245.1 53.624 245.1 51.448V19.32C245.1 17.144 243.436 15.48 241.26 15.48Z" fill="black"/>
<path d="M267.495 91C265.959 91 264.935 89.976 264.935 88.44V3.96C264.935 2.424 265.959 1.39999 267.495 1.39999H289.511C290.919 1.39999 291.943 2.296 292.071 3.70399L292.839 12.664C292.967 14.328 291.943 15.48 290.279 15.48H280.295V39.16H289.255C290.791 39.16 291.815 40.184 291.815 41.72V50.68C291.815 52.216 290.791 53.24 289.255 53.24H280.295V76.92H290.279C291.943 76.92 292.967 78.072 292.839 79.736L292.071 88.696C291.943 90.104 290.919 91 289.511 91H267.495Z" fill="black"/>
<path d="M299.495 91C297.959 91 296.935 89.976 296.935 88.44V3.96C296.935 2.424 297.959 1.39999 299.495 1.39999H318.695C331.879 1.39999 335.335 9.976 335.335 20.6V34.808C335.335 41.848 333.287 46.968 327.911 49.528C330.727 51.064 332.135 54.008 332.775 59.128L336.231 88.184C336.487 89.848 335.463 91 333.671 91H323.559C322.151 91 321.127 90.104 320.999 88.696L317.415 57.848C317.159 55.672 315.751 54.008 313.575 54.008H312.295V88.44C312.295 89.976 311.271 91 309.735 91H299.495ZM316.135 15.48H312.295V39.928H316.135C318.311 39.928 319.975 38.264 319.975 36.088V19.32C319.975 17.144 318.311 15.48 316.135 15.48Z" fill="black"/>
</svg>
