<svg width="92" height="96" viewBox="0 0 92 96" fill="none" xmlns="http://www.w3.org/2000/svg">
<rect width="3318" height="387" transform="translate(-432 -241)" fill="white"/>
<path d="M0 33.9474L38.8913 62.5439C43.1204 65.6536 48.8796 65.6536 53.1087 62.5439L92 33.9474V76C92 79.3137 89.3137 82 86 82H6C2.68628 82 0 79.3137 0 76V33.9474Z" fill="black"/>
<path d="M0 23.4644C0 25.3729 0.90802 27.1676 2.44565 28.2983L42.4457 57.7101C44.5602 59.2649 47.4398 59.2649 49.5543 57.7101L89.5543 28.2983C91.092 27.1676 92 25.3729 92 23.4644V20C92 16.6863 89.3137 14 86 14H6C2.68628 14 0 16.6863 0 20V23.4644Z" fill="black"/>
</svg>
