<svg width="487" height="103" viewBox="0 0 487 103" fill="none" xmlns="http://www.w3.org/2000/svg">
<rect width="3318" height="387" transform="translate(-702 -62)" fill="white"/>
<path d="M3.12 91C1.584 91 0.559998 89.976 0.559998 88.44V3.96003C0.559998 2.42403 1.584 1.40002 3.12 1.40002H25.136C26.544 1.40002 27.568 2.29603 27.696 3.70403L28.464 12.664C28.592 14.328 27.568 15.48 25.904 15.48H15.92V39.16H24.88C26.416 39.16 27.44 40.184 27.44 41.72V50.68C27.44 52.216 26.416 53.24 24.88 53.24H15.92V76.92H25.904C27.568 76.92 28.592 78.072 28.464 79.736L27.696 88.696C27.568 90.104 26.544 91 25.136 91H3.12Z" fill="black"/>
<path d="M60.208 91C59.056 91 58.032 90.232 57.776 88.952L47.92 39.8V88.44C47.92 89.976 46.896 91 45.36 91H35.12C33.584 91 32.56 89.976 32.56 88.44V3.96003C32.56 2.42403 33.584 1.40002 35.12 1.40002H45.872C47.024 1.40002 48.048 2.16803 48.304 3.44803L58.16 52.6V3.96003C58.16 2.42403 59.184 1.40002 60.72 1.40002H70.96C72.496 1.40002 73.52 2.42403 73.52 3.96003V88.44C73.52 89.976 72.496 91 70.96 91H60.208Z" fill="black"/>
<path d="M88.925 91C87.389 91 86.365 89.976 86.365 88.44V15.48H78.941C77.277 15.48 76.253 14.328 76.381 12.664L77.149 3.70403C77.277 2.29603 78.301 1.40002 79.709 1.40002H108.381C109.789 1.40002 110.813 2.29603 110.941 3.70403L111.709 12.664C111.837 14.328 110.813 15.48 109.149 15.48H101.725V88.44C101.725 89.976 100.701 91 99.165 91H88.925Z" fill="black"/>
<path d="M117.12 91C115.584 91 114.56 89.976 114.56 88.44V3.96003C114.56 2.42403 115.584 1.40002 117.12 1.40002H136.32C149.504 1.40002 152.96 9.97603 152.96 20.6V34.808C152.96 41.848 150.912 46.968 145.536 49.528C148.352 51.064 149.76 54.008 150.4 59.128L153.856 88.184C154.112 89.848 153.088 91 151.296 91H141.184C139.776 91 138.752 90.104 138.624 88.696L135.04 57.848C134.784 55.672 133.376 54.008 131.2 54.008H129.92V88.44C129.92 89.976 128.896 91 127.36 91H117.12ZM133.76 15.48H129.92V39.928H133.76C135.936 39.928 137.6 38.264 137.6 36.088V19.32C137.6 17.144 135.936 15.48 133.76 15.48Z" fill="black"/>
<path d="M160.62 91C159.084 91 158.06 89.976 158.06 88.44V3.96003C158.06 2.42403 159.084 1.40002 160.62 1.40002H182.636C184.044 1.40002 185.068 2.29603 185.196 3.70403L185.964 12.664C186.092 14.328 185.068 15.48 183.404 15.48H173.42V39.16H182.38C183.916 39.16 184.94 40.184 184.94 41.72V50.68C184.94 52.216 183.916 53.24 182.38 53.24H173.42V76.92H183.404C185.068 76.92 186.092 78.072 185.964 79.736L185.196 88.696C185.068 90.104 184.044 91 182.636 91H160.62Z" fill="black"/>
<path d="M192.62 91C191.084 91 190.06 89.976 190.06 88.44V3.96003C190.06 2.42403 191.084 1.40002 192.62 1.40002H211.82C225.004 1.40002 228.46 9.97603 228.46 20.6V50.168C228.46 60.792 225.004 69.368 211.82 69.368H205.42V88.44C205.42 89.976 204.396 91 202.86 91H192.62ZM209.26 15.48H205.42V55.288H209.26C211.436 55.288 213.1 53.624 213.1 51.448V19.32C213.1 17.144 211.436 15.48 209.26 15.48Z" fill="black"/>
<path d="M235.495 91C233.959 91 232.935 89.976 232.935 88.44V3.96003C232.935 2.42403 233.959 1.40002 235.495 1.40002H254.695C267.879 1.40002 271.335 9.97603 271.335 20.6V34.808C271.335 41.848 269.287 46.968 263.911 49.528C266.727 51.064 268.135 54.008 268.775 59.128L272.231 88.184C272.487 89.848 271.463 91 269.671 91H259.559C258.151 91 257.127 90.104 256.999 88.696L253.415 57.848C253.159 55.672 251.751 54.008 249.575 54.008H248.295V88.44C248.295 89.976 247.271 91 245.735 91H235.495ZM252.135 15.48H248.295V39.928H252.135C254.311 39.928 255.975 38.264 255.975 36.088V19.32C255.975 17.144 254.311 15.48 252.135 15.48Z" fill="black"/>
<path d="M278.995 91C277.459 91 276.435 89.976 276.435 88.44V3.96003C276.435 2.42403 277.459 1.40002 278.995 1.40002H301.011C302.419 1.40002 303.443 2.29603 303.571 3.70403L304.339 12.664C304.467 14.328 303.443 15.48 301.779 15.48H291.795V39.16H300.755C302.291 39.16 303.315 40.184 303.315 41.72V50.68C303.315 52.216 302.291 53.24 300.755 53.24H291.795V76.92H301.779C303.443 76.92 304.467 78.072 304.339 79.736L303.571 88.696C303.443 90.104 302.419 91 301.011 91H278.995Z" fill="black"/>
<path d="M336.083 91C334.931 91 333.907 90.232 333.651 88.952L323.795 39.8V88.44C323.795 89.976 322.771 91 321.235 91H310.995C309.459 91 308.435 89.976 308.435 88.44V3.96003C308.435 2.42403 309.459 1.40002 310.995 1.40002H321.747C322.899 1.40002 323.923 2.16803 324.179 3.44803L334.035 52.6V3.96003C334.035 2.42403 335.059 1.40002 336.595 1.40002H346.835C348.371 1.40002 349.395 2.42403 349.395 3.96003V88.44C349.395 89.976 348.371 91 346.835 91H336.083Z" fill="black"/>
<path d="M357.12 91C355.584 91 354.56 89.976 354.56 88.44V3.96003C354.56 2.42403 355.584 1.40002 357.12 1.40002H379.136C380.544 1.40002 381.568 2.29603 381.696 3.70403L382.464 12.664C382.592 14.328 381.568 15.48 379.904 15.48H369.92V39.16H378.88C380.416 39.16 381.44 40.184 381.44 41.72V50.68C381.44 52.216 380.416 53.24 378.88 53.24H369.92V76.92H379.904C381.568 76.92 382.592 78.072 382.464 79.736L381.696 88.696C381.568 90.104 380.544 91 379.136 91H357.12Z" fill="black"/>
<path d="M409.6 74.36V3.96003C409.6 2.42403 410.624 1.40002 412.16 1.40002H422.4C423.936 1.40002 424.96 2.42403 424.96 3.96003V73.08C424.96 83.704 418.944 92.28 405.76 92.28C392.576 92.28 386.56 83.704 386.56 73.08V3.96003C386.56 2.42403 387.584 1.40002 389.12 1.40002H399.36C400.896 1.40002 401.92 2.42403 401.92 3.96003V74.36C401.92 76.536 403.584 78.2 405.76 78.2C407.936 78.2 409.6 76.536 409.6 74.36Z" fill="black"/>
<path d="M432.62 91C431.084 91 430.06 89.976 430.06 88.44V3.96003C430.06 2.42403 431.084 1.40002 432.62 1.40002H451.82C465.004 1.40002 468.46 9.97603 468.46 20.6V34.808C468.46 41.848 466.412 46.968 461.036 49.528C463.852 51.064 465.26 54.008 465.9 59.128L469.356 88.184C469.612 89.848 468.588 91 466.796 91H456.684C455.276 91 454.252 90.104 454.124 88.696L450.54 57.848C450.284 55.672 448.876 54.008 446.7 54.008H445.42V88.44C445.42 89.976 444.396 91 442.86 91H432.62ZM449.26 15.48H445.42V39.928H449.26C451.436 39.928 453.1 38.264 453.1 36.088V19.32C453.1 17.144 451.436 15.48 449.26 15.48Z" fill="black"/>
<path d="M474.84 91C473.304 91 472.28 89.976 472.28 88.44V79.48C472.28 77.944 473.304 76.92 474.84 76.92H483.8C485.336 76.92 486.36 77.944 486.36 79.48V90.488C486.36 90.744 486.36 91.128 486.232 91.512L482.648 100.472C482.136 101.752 480.984 102.392 479.832 102.136L478.424 101.88C476.632 101.496 475.992 100.088 476.632 98.424L479.448 91H474.84Z" fill="black"/>
</svg>
