<svg width="82" height="96" viewBox="0 0 82 96" fill="none" xmlns="http://www.w3.org/2000/svg">
<path d="M14.2103 5.10865C17.629 4.62092 22.422 5.73449 28.6154 9.27805L29.7909 9.97295L30.4824 10.4046L32.1983 10.0463C38.7408 8.78379 45.4533 8.66696 52.036 9.70103L54.0068 10.0463L55.7183 10.4046L56.4141 9.97295C62.4 6.34738 67.1628 4.92305 70.7716 5.01801L71.4804 5.05254L72.1157 5.12591L72.4442 5.18634L72.6603 5.23382L73.2826 5.43668C74.3016 5.85731 75.121 6.65096 75.5733 7.65518C77.3418 11.5902 77.9375 15.9508 77.2891 20.2152L77.086 21.3676L76.8871 22.2135L77.4187 22.9171C79.8995 26.3484 81.4381 30.3754 81.8703 34.6009L81.9698 35.8742L82 37.0481C82 53.6869 74.8299 62.44 61.9289 65.88L60.87 66.1433L60.2995 66.2685L60.36 66.9634L60.3946 67.641L60.4119 69.2164L60.4033 70.1357L60.3903 86.6839C60.3901 87.741 60.0015 88.7614 59.2981 89.5514C58.5946 90.3414 57.6253 90.8461 56.574 90.9698L56.0683 91H30.1367C29.0781 90.9999 28.0564 90.6117 27.2653 89.9092C26.4742 89.2067 25.9689 88.2388 25.845 87.1888L25.8147 86.6839V83.5158C17.9575 84.638 12.7193 81.6858 8.05157 75.4101L5.73933 72.1039C4.52918 70.3947 3.77284 69.6049 3.1937 69.3243L2.98625 69.2423C1.91618 68.895 1.0239 68.1447 0.499046 67.1508C-0.0258095 66.1569 -0.14186 64.9978 0.175558 63.9198C0.492976 62.8418 1.21884 61.9299 2.19887 61.378C3.17891 60.826 4.33586 60.6775 5.42383 60.9639C8.19851 61.7754 10.0656 63.4155 12.2093 66.3116L14.5345 69.6307C17.8192 74.2879 20.4123 75.928 25.8104 74.7713L25.8147 71.8449L25.737 71.1198C25.6093 69.9388 25.579 68.7493 25.6462 67.5633L25.7197 66.7648L25.8018 66.2469L25.335 66.1433C12.4729 63.0788 5.00892 55.0379 4.26554 39.6465L4.22233 38.3085L4.20504 37.0481C4.21004 32.3719 5.57323 27.7976 8.12936 23.8796L8.7863 22.9214L9.31357 22.2179L9.11909 21.3719C8.33991 17.5804 8.5558 13.6522 9.74577 9.96863L10.178 8.75148L10.6361 7.65949C11.0873 6.65607 11.9051 5.86254 12.9224 5.44099L13.5448 5.23813L14.2103 5.10865Z" fill="black"/>
</svg>
