<?xml version="1.0" encoding="UTF-8"?>
<svg width="1298px" height="466px" viewBox="0 0 1298 466" version="1.1" xmlns="http://www.w3.org/2000/svg" xmlns:xlink="http://www.w3.org/1999/xlink">
    <title>landscape (2024)</title>
    <g id="landscape-(2024)" stroke="none" stroke-width="1" fill="none" fill-rule="evenodd">
        <path d="M1218.13302,363.113208 C1213.57833,363.113208 1209.88302,366.80852 1209.88302,371.363208 C1209.88302,373.95852 1211.10333,376.399145 1213.18302,377.963208 L1250.58302,406.013208 C1252.54239,407.474145 1255.22364,407.474145 1257.18302,406.013208 L1294.58302,377.963208 C1296.6627,376.399145 1297.88302,373.95852 1297.88302,371.363208 C1297.88302,366.80852 1294.1877,363.113208 1289.63302,363.113208 L1218.13302,363.113208 Z M1209.88302,382.363208 L1209.88302,418.113208 C1209.88302,424.180395 1214.81583,429.113208 1220.88302,429.113208 L1286.88302,429.113208 C1292.9502,429.113208 1297.88302,424.180395 1297.88302,418.113208 L1297.88302,382.363208 L1260.48302,410.413208 C1256.56427,413.35227 1251.20177,413.35227 1247.28302,410.413208 L1209.88302,382.363208 Z" id="email" fill="#000000" fill-rule="nonzero"></path>
        <path d="M1121.45405,357.113208 L1054.5795,357.113208 C1051.51521,357.113208 1049.02548,359.637761 1049.02548,362.736868 L1049.02548,429.489547 C1049.02548,432.588654 1051.51521,435.113208 1054.5795,435.113208 L1121.45405,435.113208 C1124.51834,435.113208 1127.02548,432.588654 1127.02548,429.489547 L1127.02548,362.736868 C1127.02548,359.637761 1124.51834,357.113208 1121.45405,357.113208 Z M1072.59959,423.97035 L1061.03887,423.97035 L1061.03887,386.746243 L1072.617,386.746243 L1072.617,423.97035 L1072.59959,423.97035 Z M1066.81923,381.662315 C1063.11075,381.662315 1060.1161,378.650261 1060.1161,374.95919 C1060.1161,371.268118 1063.11075,368.256065 1066.81923,368.256065 C1070.5103,368.256065 1073.52235,371.268118 1073.52235,374.95919 C1073.52235,378.667672 1070.52771,381.662315 1066.81923,381.662315 L1066.81923,381.662315 Z M1115.93485,423.97035 L1104.37414,423.97035 L1104.37414,405.863208 C1104.37414,401.54535 1104.28709,395.991333 1098.36744,395.991333 C1092.34334,395.991333 1091.42057,400.692225 1091.42057,405.549815 L1091.42057,423.97035 L1079.85985,423.97035 L1079.85985,386.746243 L1090.95048,386.746243 L1090.95048,391.830172 L1091.10717,391.830172 C1092.65673,388.905172 1096.43485,385.823475 1102.05851,385.823475 C1113.75851,385.823475 1115.93485,393.536422 1115.93485,403.564993 L1115.93485,423.97035 L1115.93485,423.97035 Z" id="linkedin" fill="#000000" fill-rule="nonzero"></path>
        <path d="M933.876551,349.113555 C935.967361,349.113555 937.942014,349.510289 939.742433,350.246428 L939.59756,350.186432 C939.628821,350.178735 939.657777,350.179771 939.684355,350.189802 C945.376003,352.454845 949.383387,357.890949 949.383387,364.233071 C949.383387,369.272792 946.827954,373.689627 942.936725,376.464305 L954.145786,383.655818 C954.145786,386.09074 953.565006,388.016027 952.403445,390.111192 L942.530179,390.111192 C942.762491,394.414774 940.962072,404.833974 957.165844,416.89533 C962.857492,421.142286 966.16794,428.277173 966.16794,436.99759 C966.16794,437.393973 965.296769,443.113208 933.876551,443.113208 C902.456334,443.113208 901.585163,437.393973 901.585163,436.99759 C901.585163,433.430147 902.165944,430.089208 903.15327,427.144651 C903.19172,427.036511 903.242935,426.936742 903.306293,426.844845 C904.843429,422.76202 907.302504,419.350684 910.587259,416.89533 C923.001581,407.681051 924.862702,399.411714 925.139381,394.109179 C925.117374,393.990225 925.106768,393.865136 925.106768,393.735261 C925.106768,392.262983 925.106768,391.073835 925.164846,390.111192 L915.29158,390.111192 C914.130019,388.016027 913.549239,386.09074 913.549239,383.655818 L924.7583,376.407679 C920.867071,373.689627 918.311638,369.216166 918.311638,364.176445 C918.311638,355.85241 925.281002,349.05728 933.876551,349.113555 Z" id="chess-com" fill="#000000" fill-rule="nonzero"></path>
        <path d="M754.565253,424.80187 C754.565253,425.190615 754.118196,425.501611 753.554516,425.501611 C752.913087,425.559923 752.46603,425.248927 752.46603,424.80187 C752.46603,424.413125 752.913087,424.102129 753.476767,424.102129 C754.059885,424.043817 754.565253,424.354813 754.565253,424.80187 Z M748.520268,423.927194 C748.384207,424.315939 748.772952,424.762996 749.356069,424.879619 C749.861438,425.073992 750.444556,424.879619 750.561179,424.490874 C750.677803,424.102129 750.308495,423.655072 749.725377,423.480137 C749.220009,423.344076 748.656328,423.538449 748.520268,423.927194 Z M757.111533,423.59676 C756.547853,423.732821 756.159108,424.102129 756.21742,424.549186 C756.275731,424.937931 756.7811,425.190615 757.364218,425.054554 C757.927898,424.918494 758.316643,424.549186 758.258331,424.160441 C758.200019,423.791133 757.675214,423.538449 757.111533,423.59676 Z M769.901246,349.113208 C742.941776,349.113208 722.318851,369.580635 722.318851,396.540104 C722.318851,418.096018 735.886053,436.541971 755.264994,443.034013 C757.752963,443.48107 758.627639,441.945527 758.627639,440.682106 C758.627639,439.476996 758.569327,432.829456 758.569327,428.747632 C758.569327,428.747632 744.96325,431.66322 742.105974,422.955331 C742.105974,422.955331 739.890127,417.29909 736.702418,415.841297 C736.702418,415.841297 732.251287,412.789648 737.013414,412.84796 C737.013414,412.84796 741.85329,413.236705 744.516193,417.862771 C748.772952,425.36555 755.906424,423.208015 758.685951,421.925157 C759.133008,418.815196 760.396429,416.657661 761.795911,415.374802 C750.930487,414.169693 739.967876,412.595275 739.967876,393.896638 C739.967876,388.551394 741.445108,385.869053 744.555068,382.448096 C744.049699,381.184675 742.397533,375.975491 745.060437,369.250201 C749.122822,367.98678 758.472141,374.49826 758.472141,374.49826 C762.359592,373.409774 766.538601,372.846093 770.678736,372.846093 C774.818871,372.846093 778.99788,373.409774 782.885331,374.49826 C782.885331,374.49826 792.234649,367.967343 796.297035,369.250201 C798.959939,375.994928 797.307772,381.184675 796.802404,382.448096 C799.912364,385.88849 801.817215,388.570831 801.817215,393.896638 C801.817215,412.653587 790.368673,414.150256 779.503249,415.374802 C781.291476,416.910345 782.807582,419.825933 782.807582,424.393688 C782.807582,430.944042 782.74927,439.049376 782.74927,440.643231 C782.74927,441.906653 783.643383,443.442196 786.111915,442.995139 C805.549167,436.541971 818.727625,418.096018 818.727625,396.540104 C818.727625,369.580635 796.860715,349.113208 769.901246,349.113208 Z M741.21186,416.152293 C740.959176,416.346665 741.017488,416.793722 741.347921,417.16303 C741.658917,417.474026 742.105974,417.610087 742.358658,417.357402 C742.611343,417.16303 742.553031,416.715973 742.222598,416.346665 C741.911602,416.035669 741.464545,415.899608 741.21186,416.152293 Z M739.112637,414.577875 C738.976576,414.830559 739.170949,415.141555 739.559694,415.335928 C739.87069,415.5303 740.259435,415.471989 740.395496,415.199867 C740.531557,414.947183 740.337184,414.636187 739.948439,414.441814 C739.559694,414.325191 739.248698,414.383503 739.112637,414.577875 Z M745.410307,421.497537 C745.099311,421.750221 745.215935,422.333339 745.662991,422.702647 C746.110048,423.149704 746.673729,423.208015 746.926413,422.897019 C747.179097,422.644335 747.062474,422.061217 746.673729,421.69191 C746.246109,421.244853 745.662991,421.186541 745.410307,421.497537 Z M743.19446,418.640261 C742.883464,418.834633 742.883464,419.340002 743.19446,419.787059 C743.505456,420.234116 744.030262,420.428488 744.282946,420.234116 C744.593942,419.981431 744.593942,419.476063 744.282946,419.029006 C744.010825,418.581949 743.505456,418.387577 743.19446,418.640261 Z" id="github" fill="#000000" fill-rule="nonzero"></path>
        <path d="M403.461312,442.622642 L403.461312,350.226415 L422.604789,350.226415 L431.149052,394.434621 L431.149052,350.226415 L449.102822,350.226415 L449.102822,442.622642 L430.932742,442.622642 L421.631392,396.370747 L421.631392,442.622642 L403.461312,442.622642 Z M462.708108,435.836528 C458.832866,431.31243 456.895274,424.953852 456.895274,416.760604 L456.895274,373.051623 C456.895274,365.143357 458.832866,359.176624 462.708108,355.151245 C466.58335,351.125867 472.2526,349.113208 479.716029,349.113208 C487.179458,349.113208 492.848708,351.125867 496.72395,355.151245 C500.599192,359.176624 502.536784,365.143357 502.536784,373.051623 L502.536784,416.760604 C502.536784,425.025098 500.599192,431.401487 496.72395,435.889962 C492.848708,440.378438 487.179458,442.622642 479.716029,442.622642 C472.2526,442.622642 466.58335,440.360626 462.708108,435.836528 Z M482.732684,423.773787 C483.319068,422.339953 483.612256,420.332615 483.612256,417.751713 L483.612256,372.586155 C483.612256,370.578786 483.337392,368.947824 482.787657,367.693219 C482.237923,366.438614 481.120145,365.811321 479.434291,365.811321 C476.282478,365.811321 474.706595,368.141267 474.706595,372.801229 L474.706595,417.85925 C474.706595,420.511844 475.036431,422.519182 475.696113,423.881324 C476.355795,425.243467 477.565193,425.924528 479.324345,425.924528 C481.010199,425.924528 482.1463,425.207622 482.732684,423.773787 Z M517.861152,442.622642 L517.861152,367.974235 L506.989614,367.974235 L506.989614,350.226415 L547.065086,350.226415 L547.065086,367.974235 L536.193548,367.974235 L536.193548,442.622642 L517.861152,442.622642 Z M552.631123,442.622642 L552.631123,350.226415 L589.307392,350.226415 L589.307392,368.081798 L571.289109,368.081798 L571.289109,386.044743 L588.561073,386.044743 L588.561073,403.469875 L571.289109,403.469875 L571.289109,424.659696 L590.48018,424.659696 L590.48018,442.622642 L552.631123,442.622642 Z M599.457234,436.424302 C595.698928,432.292055 593.819803,425.630687 593.819803,416.44 L593.819803,407.463094 L612.141454,407.463094 L612.141454,418.897962 C612.141454,423.457683 613.623071,425.737509 616.586351,425.737509 C618.248679,425.737509 619.405064,425.256609 620.05554,424.294792 C620.706016,423.332976 621.031249,421.712162 621.031249,419.432302 C621.031249,416.439985 620.669879,413.964236 619.947128,412.004981 C619.224376,410.045726 618.302882,408.407101 617.182618,407.089057 C616.062354,405.771012 614.056749,403.722731 611.165745,400.944151 L603.143246,393.035925 C596.927586,387.051291 593.819803,380.425546 593.819803,373.158491 C593.819803,365.32147 595.644722,359.354737 599.294616,355.258113 C602.944509,351.161489 608.274719,349.113208 615.285406,349.113208 C623.66932,349.113208 629.704201,351.303978 633.390233,355.685585 C637.076264,360.067192 638.919251,366.924482 638.919251,376.25766 L619.947128,376.25766 L619.838715,369.952453 C619.838715,368.741277 619.495414,367.779475 618.8088,367.067019 C618.122187,366.354562 617.164556,365.99834 615.935879,365.99834 C614.490376,365.99834 613.406266,366.390185 612.683514,367.173887 C611.960763,367.957589 611.599393,369.026257 611.599393,370.379925 C611.599393,373.372241 613.33397,376.47138 616.803176,379.677434 L627.644389,389.936755 C630.174018,392.359106 632.269965,394.656744 633.932293,396.829736 C635.594621,399.002728 636.931691,401.567532 637.943542,404.524226 C638.955394,407.48092 639.461312,410.989716 639.461312,415.050717 C639.461312,424.098913 637.780941,430.956203 634.420148,435.622792 C631.059355,440.289382 625.512323,442.622642 617.778885,442.622642 C609.322696,442.622642 603.21554,440.556549 599.457234,436.424302 Z M403.461312,455.981132 L639.461312,455.981132 L639.461312,466 L403.461312,466 Z" id="notes" fill="#000000"></path>
        <path d="M0.103773585,455.981132 L320.603774,455.981132 L320.603774,466 L0.103773585,466 Z M32.4755175,441.777796 L36.8896655,397.053814 L41.514011,441.777796 L63.6898498,441.777796 L73.7793309,348.844845 L55.4921464,348.844845 L50.5525045,407.508771 L45.6128627,348.844845 L28.3766657,348.844845 L23.174277,407.508771 L18.0769871,348.844845 L0,348.844845 L9.93183301,441.777796 L32.4755175,441.777796 Z M98.0045956,441.777796 L98.0045956,399.377137 C100.4569,399.377137 102.234821,399.702755 103.338358,400.353989 C104.441895,401.005224 104.993663,402.686114 104.993663,405.396658 L104.993663,405.396658 L104.993663,441.777796 L123.228298,441.777796 L123.228298,406.611123 C123.228298,402.950128 122.641497,399.966769 121.467894,397.661046 C120.294291,395.355323 118.253624,393.903246 115.345891,393.304814 C118.884216,392.143152 121.29273,390.04864 122.571431,387.021279 C123.850133,383.993918 124.489484,379.945702 124.489484,374.876632 C124.489484,369.631553 124.077847,365.064109 123.254573,361.174302 C122.4313,357.284495 120.811027,354.257133 118.393755,352.092218 C115.976484,349.927303 112.403126,348.844845 107.673682,348.844845 L107.673682,348.844845 L79.297016,348.844845 L79.297016,441.777796 L98.0045956,441.777796 Z M102.576392,383.272279 L98.1096944,383.272279 L98.1096944,366.058562 L102.418744,366.058562 C103.960192,366.058562 105.01118,366.621792 105.571706,367.748252 C106.132233,368.874712 106.412497,371.250839 106.412497,374.876632 C106.412497,380.47373 105.133795,383.272279 102.576392,383.272279 L102.576392,383.272279 Z M147.611211,441.777796 L147.611211,348.844845 L129.744422,348.844845 L129.744422,441.777796 L147.611211,441.777796 Z M181.400463,441.777796 L181.400463,366.692196 L192.383284,366.692196 L192.383284,348.844845 L151.920261,348.844845 L151.920261,366.692196 L162.903081,366.692196 L162.903081,441.777796 L181.400463,441.777796 Z M214.559123,441.777796 L214.559123,348.844845 L196.692333,348.844845 L196.692333,441.777796 L214.559123,441.777796 Z M239.993023,441.777796 L239.993023,395.311321 L249.241714,441.777796 L267.318701,441.777796 L267.318701,348.844845 L249.451912,348.844845 L249.451912,393.357617 L240.938912,348.844845 L221.916036,348.844845 L221.916036,441.777796 L239.993023,441.777796 Z M294.59183,442.622642 C301.528348,442.622642 306.608122,439.736088 309.83115,433.96298 L309.83115,433.96298 L312.984113,441.777796 L320.393576,441.777796 L320.393576,387.654913 L297.797342,387.654913 L297.797342,403.706968 L302.736984,403.706968 L302.736984,416.960474 C302.736984,419.530211 302.41293,421.598321 301.76482,423.164805 C301.116711,424.731288 299.811735,425.51453 297.849892,425.51453 C295.958114,425.51453 294.688171,424.731288 294.040061,423.164805 C293.391952,421.598321 293.067898,419.565413 293.067898,417.06608 L293.067898,417.06608 L293.067898,372.02528 C293.067898,370.300388 293.409469,368.716304 294.092611,367.273027 C294.775753,365.82975 296.185828,365.108112 298.322836,365.108112 C300.039449,365.108112 301.169261,365.785748 301.712271,367.14102 C302.255281,368.496292 302.526787,370.177182 302.526787,372.183689 L302.526787,372.183689 L302.526787,380.420927 L320.603774,380.420927 C320.603774,373.486158 319.973181,367.607445 318.711996,362.784788 C317.450811,357.962131 315.156154,354.292335 311.828027,351.775401 C308.499899,349.258467 303.717906,348 297.482046,348 C282.347824,348 274.780713,356.677262 274.780713,374.031787 L274.780713,374.031787 L274.780713,414.109122 C274.780713,433.118135 281.384419,442.622642 294.59183,442.622642 Z" id="writing" fill="#000000"></path>
        <path d="M534.742255,223.729761 L556.25473,223.729761 C561.821981,223.729761 565.997356,225.280486 568.780981,228.381984 C571.564606,231.483482 572.986655,236.074846 573.047168,242.156214 L573.228708,278.826682 C573.289222,286.55002 571.957942,292.357639 569.234831,296.249715 C566.511719,300.141791 562.003524,302.087799 555.71011,302.087799 L534.742255,302.087799 L534.742255,223.729761 Z M553.168552,288.222349 C556.012691,288.222349 557.434739,286.823655 557.434739,284.026226 L557.434739,243.615735 C557.434739,241.852139 557.298586,240.529461 557.026274,239.647662 C556.753963,238.765864 556.254734,238.17294 555.52857,237.868871 C554.802407,237.564803 553.682923,237.412771 552.170083,237.412771 L550.445454,237.412771 L550.445454,288.222349 L553.168552,288.222349 Z M579.491834,302.087799 L579.491834,223.729761 L610.716692,223.729761 L610.716692,238.872292 L595.376572,238.872292 L595.376572,254.106043 L610.081302,254.106043 L610.081302,268.883694 L595.376572,268.883694 L595.376572,286.854048 L611.715161,286.854048 L611.715161,302.087799 L579.491834,302.087799 Z M624.059872,302.087799 L614.438259,223.63854 L629.324528,223.63854 L635.043034,277.002281 L640.126151,223.63854 L655.01242,223.63854 L645.390807,302.087799 L624.059872,302.087799 Z M659.460147,302.087799 L659.460147,223.729761 L690.685005,223.729761 L690.685005,238.872292 L675.344886,238.872292 L675.344886,254.106043 L690.049616,254.106043 L690.049616,268.883694 L675.344886,268.883694 L675.344886,286.854048 L691.683475,286.854048 L691.683475,302.087799 L659.460147,302.087799 Z M696.857361,302.087799 L696.857361,223.729761 L712.46979,223.729761 L712.46979,288.769669 L728.536069,288.769669 L728.536069,302.087799 L696.857361,302.087799 Z M737.159212,297.025086 C733.891478,293.163417 732.257636,287.735877 732.257636,280.742303 L732.257636,243.433295 C732.257636,236.682977 733.891478,231.589907 737.159212,228.153934 C740.426947,224.717961 745.207449,223 751.500862,223 C757.794276,223 762.574778,224.717961 765.842512,228.153934 C769.110246,231.589907 770.744089,236.682977 770.744089,243.433295 L770.744089,280.742303 C770.744089,287.796691 769.110246,293.239434 765.842512,297.070696 C762.574778,300.901958 757.794276,302.81756 751.500862,302.81756 C745.207449,302.81756 740.426947,300.886754 737.159212,297.025086 Z M754.31473,286.580388 C754.798839,285.364114 755.04089,283.661356 755.04089,281.472064 L755.04089,243.159635 C755.04089,241.456852 754.813967,240.073361 754.360115,239.009122 C753.906263,237.944883 752.983445,237.412771 751.591632,237.412771 C748.989548,237.412771 747.688525,239.389186 747.688525,243.342075 L747.688525,281.563284 C747.688525,283.81339 747.960832,285.516148 748.505455,286.671608 C749.050077,287.827068 750.048536,288.404789 751.500862,288.404789 C752.892675,288.404789 753.830622,287.796661 754.31473,286.580388 Z M777.007214,223.729761 L797.61199,223.729761 C803.84489,223.729761 808.292572,225.751785 810.955171,229.795895 C813.617769,233.840005 814.949048,239.754047 814.949048,247.538198 C814.949048,255.32235 813.76905,261.190782 811.40902,265.143672 C809.04899,269.096561 804.813102,271.072976 798.701229,271.072976 L792.347334,271.072976 L792.347334,302.087799 L777.007214,302.087799 L777.007214,223.729761 Z M793.255033,256.933865 C795.130954,256.933865 796.507618,256.584192 797.385065,255.884835 C798.262512,255.185477 798.837383,254.182067 799.109694,252.874572 C799.382005,251.567078 799.518159,249.697086 799.518159,247.264538 C799.518159,243.980599 799.155082,241.608901 798.428919,240.149373 C797.702756,238.689844 796.250452,237.960091 794.071962,237.960091 L792.347334,237.960091 L792.347334,256.933865 L793.255033,256.933865 Z M819.850624,302.087799 L819.850624,223.729761 L851.075482,223.729761 L851.075482,238.872292 L835.735363,238.872292 L835.735363,254.106043 L850.440093,254.106043 L850.440093,268.883694 L835.735363,268.883694 L835.735363,286.854048 L852.073952,286.854048 L852.073952,302.087799 L819.850624,302.087799 Z M857.247838,223.729761 L881.211101,223.729761 C885.023457,223.729761 887.973451,224.596343 890.06117,226.329532 C892.148889,228.062722 893.555809,230.495233 894.281972,233.627138 C895.008135,236.759043 895.371211,240.757482 895.371211,245.622577 C895.371211,250.061976 894.796341,253.528304 893.646582,256.021665 C892.496824,258.515026 890.499905,260.24819 887.655766,261.221209 C890.015797,261.707718 891.72528,262.893567 892.784268,264.778791 C893.843256,266.664016 894.372742,269.218152 894.372742,272.441277 L894.191202,302.087799 L878.941853,302.087799 L878.941853,271.437856 C878.941853,269.248564 878.518264,267.84987 877.671074,267.241733 C876.823883,266.633596 875.28081,266.329532 873.041807,266.329532 L873.041807,302.087799 L857.247838,302.087799 L857.247838,223.729761 Z M876.854144,252.737742 C879.032633,252.737742 880.121862,250.366044 880.121862,245.622577 C880.121862,243.554912 880.031093,242.004186 879.849552,240.970353 C879.668011,239.936521 879.335191,239.221971 878.851083,238.826682 C878.366974,238.431393 877.671078,238.233751 876.763374,238.233751 L873.132577,238.233751 L873.132577,252.737742 L876.854144,252.737742 Z M923.509891,297.982896 C921.089347,294.638144 919.879094,290.290031 919.879094,284.938426 C919.879094,278.978686 920.726271,274.18968 922.420652,270.571266 C924.115033,266.952852 926.777591,263.775384 930.408406,261.038769 C927.44324,255.200655 925.960679,250.153195 925.960679,245.896237 C925.960679,241.456838 927.397856,237.975307 930.272251,235.451539 C933.146647,232.927771 936.853049,231.665906 941.391569,231.665906 C945.869575,231.665906 949.54572,232.866959 952.420116,235.269099 C955.294512,237.67124 956.731688,241.031145 956.731688,245.348917 C956.731688,251.67354 953.252208,257.602785 946.293145,263.13683 L949.107013,269.795895 C950.801394,265.295683 953.342927,261.798948 956.731688,259.305587 L962.904043,268.974914 C959.333741,271.772344 956.429133,276.394114 954.19013,282.840365 L962.087114,302.087799 L947.019305,302.087799 L945.385446,297.800456 C944.11466,299.320798 942.495946,300.56746 940.529254,301.540479 C938.562562,302.513498 936.42949,303 934.129974,303 C929.470427,303 925.930435,301.327649 923.509891,297.982896 Z M943.025427,251.825542 C943.630563,251.156591 944.175178,250.19879 944.659286,248.952109 C945.143395,247.705429 945.385446,246.504377 945.385446,245.348917 C945.385446,243.524506 944.508012,242.612315 942.753118,242.612315 C942.026955,242.612315 941.452084,242.870769 941.028489,243.387685 C940.604894,243.904602 940.393099,244.558339 940.393099,245.348917 C940.393099,246.930073 941.028483,249.362583 942.299268,252.646522 L943.025427,251.825542 Z M939.4854,290.2748 C940.272077,289.393002 940.786434,288.374388 941.028489,287.218928 L935.673063,274.265678 L935.128443,275.086659 C934.644334,275.816423 934.251002,276.971866 933.948434,278.553022 C933.645866,280.134177 933.494584,281.684903 933.494584,283.205245 L933.494584,283.661345 C933.494584,286.033079 933.676122,287.948681 934.039204,289.40821 C934.402285,290.867738 935.249463,291.597491 936.580762,291.597491 C937.73052,291.597491 938.698723,291.156599 939.4854,290.2748 Z M988.864245,223.729761 L1010.37672,223.729761 C1015.94397,223.729761 1020.11935,225.280486 1022.90297,228.381984 C1025.6866,231.483482 1027.10864,236.074846 1027.16916,242.156214 L1027.3507,278.826682 C1027.41121,286.55002 1026.07993,292.357639 1023.35682,296.249715 C1020.63371,300.141791 1016.12551,302.087799 1009.8321,302.087799 L988.864245,302.087799 L988.864245,223.729761 Z M1007.29054,288.222349 C1010.13468,288.222349 1011.55673,286.823655 1011.55673,284.026226 L1011.55673,243.615735 C1011.55673,241.852139 1011.42058,240.529461 1011.14826,239.647662 C1010.87595,238.765864 1010.37672,238.17294 1009.65056,237.868871 C1008.9244,237.564803 1007.80491,237.412771 1006.29207,237.412771 L1004.56744,237.412771 L1004.56744,288.222349 L1007.29054,288.222349 Z M1033.61382,302.087799 L1033.61382,223.729761 L1064.83868,223.729761 L1064.83868,238.872292 L1049.49856,238.872292 L1049.49856,254.106043 L1064.20329,254.106043 L1064.20329,268.883694 L1049.49856,268.883694 L1049.49856,286.854048 L1065.83715,286.854048 L1065.83715,302.087799 L1033.61382,302.087799 Z M1074.18799,297.526796 C1071.04128,293.999602 1069.46795,288.313608 1069.46795,280.468643 L1069.46795,272.806157 L1084.80807,272.806157 L1084.80807,282.566705 C1084.80807,286.45878 1086.04858,288.404789 1088.52963,288.404789 C1089.92145,288.404789 1090.88965,287.994303 1091.43427,287.173318 C1091.9789,286.352333 1092.2512,284.968843 1092.2512,283.022805 C1092.2512,280.46863 1091.94864,278.355387 1091.3435,276.68301 C1090.73837,275.010634 1089.96683,273.61194 1089.02887,272.486887 C1088.09091,271.361834 1086.41168,269.613467 1083.99114,267.241733 L1077.27416,260.491448 C1072.06999,255.383099 1069.46795,249.727511 1069.46795,243.524515 C1069.46795,236.83501 1070.99589,231.741941 1074.05183,228.245154 C1077.10777,224.748367 1081.57058,223 1087.4404,223 C1094.45997,223 1099.51278,224.869993 1102.59898,228.610034 C1105.68517,232.350076 1107.22824,238.203305 1107.22824,246.169897 L1091.3435,246.169897 L1091.25273,240.787913 C1091.25273,239.754081 1090.9653,238.933108 1090.39042,238.324971 C1089.81554,237.716835 1089.01375,237.412771 1087.98502,237.412771 C1086.77474,237.412771 1085.86705,237.747241 1085.26192,238.416192 C1084.65678,239.085142 1084.35422,239.997334 1084.35422,241.152794 C1084.35422,243.706968 1085.80652,246.352324 1088.71117,249.08894 L1097.78817,257.846066 C1099.90614,259.913731 1101.66101,261.874943 1103.05282,263.729761 C1104.44464,265.584578 1105.56412,267.773838 1106.41131,270.297605 C1107.2585,272.821373 1107.68209,275.816402 1107.68209,279.282782 C1107.68209,287.00612 1106.27517,292.859349 1103.46129,296.842645 C1100.64741,300.825942 1096.00306,302.81756 1089.5281,302.81756 C1082.44801,302.81756 1077.33469,301.05399 1074.18799,297.526796 Z M1112.12982,302.087799 L1112.12982,223.729761 L1127.19763,223.729761 L1127.19763,302.087799 L1112.12982,302.087799 Z M1136.9554,296.842645 C1134.20203,292.859349 1132.82536,286.823682 1132.82536,278.735462 L1132.82536,244.984036 C1132.82536,237.747208 1134.42895,232.274059 1137.63617,228.564424 C1140.84339,224.85479 1145.62389,223 1151.97782,223 C1157.12148,223 1161.11531,224.033817 1163.95945,226.101482 C1166.80359,228.169148 1168.77025,231.17938 1169.8595,235.132269 C1170.94874,239.085158 1171.49336,244.163025 1171.49336,250.366021 L1156.24401,250.366021 L1156.24401,243.342075 C1156.24401,241.456851 1155.98683,239.997345 1155.47246,238.963512 C1154.9581,237.929679 1154.03528,237.412771 1152.70398,237.412771 C1149.73881,237.412771 1148.25625,239.358779 1148.25625,243.250855 L1148.25625,281.198404 C1148.25625,283.570137 1148.55882,285.364114 1149.16395,286.580388 C1149.76909,287.796661 1150.82806,288.404789 1152.3409,288.404789 C1153.85374,288.404789 1154.91271,287.796661 1155.51785,286.580388 C1156.12298,285.364114 1156.42555,283.570137 1156.42555,281.198404 L1156.42555,269.978335 L1152.25013,269.978335 L1152.25013,256.477765 L1171.31182,256.477765 L1171.31182,302.087799 L1165.04869,302.087799 L1162.41636,295.519954 C1159.63274,300.385049 1155.33634,302.81756 1149.52703,302.81756 C1143.89927,302.81756 1139.70876,300.825942 1136.9554,296.842645 Z M1177.48417,302.087799 L1177.48417,223.729761 L1193.55045,223.729761 L1200.72128,261.221209 L1200.72128,223.729761 L1215.78909,223.729761 L1215.78909,302.087799 L1200.53974,302.087799 L1192.73352,262.86317 L1192.73352,302.087799 L1177.48417,302.087799 Z M1222.6876,302.087799 L1222.6876,223.729761 L1253.91246,223.729761 L1253.91246,238.872292 L1238.57234,238.872292 L1238.57234,254.106043 L1253.27707,254.106043 L1253.27707,268.883694 L1238.57234,268.883694 L1238.57234,286.854048 L1254.91093,286.854048 L1254.91093,302.087799 L1222.6876,302.087799 Z M1260.08481,223.729761 L1284.04808,223.729761 C1287.86043,223.729761 1290.81043,224.596343 1292.89815,226.329532 C1294.98586,228.062722 1296.39278,230.495233 1297.11895,233.627138 C1297.84511,236.759043 1298.20819,240.757482 1298.20819,245.622577 C1298.20819,250.061976 1297.63332,253.528304 1296.48356,256.021665 C1295.3338,258.515026 1293.33688,260.24819 1290.49274,261.221209 C1292.85277,261.707718 1294.56226,262.893567 1295.62124,264.778791 C1296.68023,266.664016 1297.20972,269.218152 1297.20972,272.441277 L1297.02818,302.087799 L1281.77883,302.087799 L1281.77883,271.437856 C1281.77883,269.248564 1281.35524,267.84987 1280.50805,267.241733 C1279.66086,266.633596 1278.11779,266.329532 1275.87878,266.329532 L1275.87878,302.087799 L1260.08481,302.087799 L1260.08481,223.729761 Z M1279.69112,252.737742 C1281.86961,252.737742 1282.95884,250.366044 1282.95884,245.622577 C1282.95884,243.554912 1282.86807,242.004186 1282.68653,240.970353 C1282.50499,239.936521 1282.17217,239.221971 1281.68806,238.826682 C1281.20395,238.431393 1280.50805,238.233751 1279.60035,238.233751 L1275.96955,238.233751 L1275.96955,252.737742 L1279.69112,252.737742 Z" id="developer-and-designer" fill="#000000"></path>
        <polygon id="comma" fill="#000000" points="494.907415 312.503111 497.803735 302.09446 492.192115 302.09446 492.192115 288.88 508.664935 288.88 508.664935 301.64191 504.229945 312.503111"></polygon>
        <path d="M0.208187236,302.087799 L0.208187236,223.729761 L31.4330452,223.729761 L31.4330452,238.872292 L16.092926,238.872292 L16.092926,254.106043 L30.7976557,254.106043 L30.7976557,268.883694 L16.092926,268.883694 L16.092926,286.854048 L32.4315145,286.854048 L32.4315145,302.087799 L0.208187236,302.087799 Z M37.6054009,302.087799 L37.6054009,223.729761 L53.6716796,223.729761 L60.8425045,261.221209 L60.8425045,223.729761 L75.9103139,223.729761 L75.9103139,302.087799 L60.6609646,302.087799 L52.8547501,262.86317 L52.8547501,302.087799 L37.6054009,302.087799 Z M89.5258043,302.087799 L89.5258043,238.781072 L80.2672708,238.781072 L80.2672708,223.729761 L114.396767,223.729761 L114.396767,238.781072 L105.138233,238.781072 L105.138233,302.087799 L89.5258043,302.087799 Z M118.753724,223.729761 L142.716987,223.729761 C146.529343,223.729761 149.479337,224.596343 151.567056,226.329532 C153.654775,228.062722 155.061695,230.495233 155.787858,233.627138 C156.514021,236.759043 156.877097,240.757482 156.877097,245.622577 C156.877097,250.061976 156.302226,253.528304 155.152468,256.021665 C154.00271,258.515026 152.005791,260.24819 149.161652,261.221209 C151.521682,261.707718 153.231166,262.893567 154.290154,264.778791 C155.349142,266.664016 155.878628,269.218152 155.878628,272.441277 L155.697088,302.087799 L140.447738,302.087799 L140.447738,271.437856 C140.447738,269.248564 140.02415,267.84987 139.176959,267.241733 C138.329769,266.633596 136.786696,266.329532 134.547693,266.329532 L134.547693,302.087799 L118.753724,302.087799 L118.753724,223.729761 Z M138.36003,252.737742 C140.538519,252.737742 141.627748,250.366044 141.627748,245.622577 C141.627748,243.554912 141.536979,242.004186 141.355438,240.970353 C141.173897,239.936521 140.841077,239.221971 140.356969,238.826682 C139.87286,238.431393 139.176964,238.233751 138.26926,238.233751 L134.638463,238.233751 L134.638463,252.737742 L138.36003,252.737742 Z M162.050983,302.087799 L162.050983,223.729761 L193.275841,223.729761 L193.275841,238.872292 L177.935722,238.872292 L177.935722,254.106043 L192.640452,254.106043 L192.640452,268.883694 L177.935722,268.883694 L177.935722,286.854048 L194.274311,286.854048 L194.274311,302.087799 L162.050983,302.087799 Z M199.448197,223.729761 L220.052972,223.729761 C226.285872,223.729761 230.733555,225.751785 233.396153,229.795895 C236.058751,233.840005 237.39003,239.754047 237.39003,247.538198 C237.39003,255.32235 236.210033,261.190782 233.850003,265.143672 C231.489972,269.096561 227.254085,271.072976 221.142212,271.072976 L214.788316,271.072976 L214.788316,302.087799 L199.448197,302.087799 L199.448197,223.729761 Z M215.696015,256.933865 C217.571937,256.933865 218.9486,256.584192 219.826048,255.884835 C220.703495,255.185477 221.278365,254.182067 221.550676,252.874572 C221.822987,251.567078 221.959141,249.697086 221.959141,247.264538 C221.959141,243.980599 221.596065,241.608901 220.869902,240.149373 C220.143739,238.689844 218.691434,237.960091 216.512945,237.960091 L214.788316,237.960091 L214.788316,256.933865 L215.696015,256.933865 Z M242.291607,223.729761 L266.25487,223.729761 C270.067226,223.729761 273.01722,224.596343 275.104939,226.329532 C277.192658,228.062722 278.599577,230.495233 279.325741,233.627138 C280.051904,236.759043 280.41498,240.757482 280.41498,245.622577 C280.41498,250.061976 279.840109,253.528304 278.690351,256.021665 C277.540593,258.515026 275.543674,260.24819 272.699535,261.221209 C275.059565,261.707718 276.769049,262.893567 277.828037,264.778791 C278.887025,266.664016 279.416511,269.218152 279.416511,272.441277 L279.234971,302.087799 L263.985621,302.087799 L263.985621,271.437856 C263.985621,269.248564 263.562033,267.84987 262.714842,267.241733 C261.867652,266.633596 260.324579,266.329532 258.085576,266.329532 L258.085576,302.087799 L242.291607,302.087799 L242.291607,223.729761 Z M261.897913,252.737742 C264.076402,252.737742 265.165631,250.366044 265.165631,245.622577 C265.165631,243.554912 265.074862,242.004186 264.893321,240.970353 C264.71178,239.936521 264.37896,239.221971 263.894851,238.826682 C263.410743,238.431393 262.714847,238.233751 261.807143,238.233751 L258.176345,238.233751 L258.176345,252.737742 L261.897913,252.737742 Z M285.588866,302.087799 L285.588866,223.729761 L316.813724,223.729761 L316.813724,238.872292 L301.473605,238.872292 L301.473605,254.106043 L316.178335,254.106043 L316.178335,268.883694 L301.473605,268.883694 L301.473605,286.854048 L317.812193,286.854048 L317.812193,302.087799 L285.588866,302.087799 Z M322.98608,302.087799 L322.98608,223.729761 L339.052359,223.729761 L346.223183,261.221209 L346.223183,223.729761 L361.290993,223.729761 L361.290993,302.087799 L346.041644,302.087799 L338.235429,262.86317 L338.235429,302.087799 L322.98608,302.087799 Z M368.189508,302.087799 L368.189508,223.729761 L399.414366,223.729761 L399.414366,238.872292 L384.074247,238.872292 L384.074247,254.106043 L398.778976,254.106043 L398.778976,268.883694 L384.074247,268.883694 L384.074247,286.854048 L400.412835,286.854048 L400.412835,302.087799 L368.189508,302.087799 Z M409.353674,297.344356 C406.237224,293.695535 404.679022,288.283198 404.679022,281.107184 L404.679022,223.729761 L419.837602,223.729761 L419.837602,280.468643 C419.837602,282.962004 420.079652,284.908013 420.563761,286.306727 C421.04787,287.705442 422.076585,288.404789 423.649939,288.404789 C425.223292,288.404789 426.252008,287.720645 426.736117,286.352338 C427.220225,284.98403 427.462276,283.022818 427.462276,280.468643 L427.462276,223.729761 L442.620856,223.729761 L442.620856,281.107184 C442.620856,288.283198 441.062654,293.695535 437.946204,297.344356 C434.829754,300.993177 430.06438,302.81756 423.649939,302.81756 C417.235498,302.81756 412.470124,300.993177 409.353674,297.344356 Z M448.611671,223.729761 L472.574934,223.729761 C476.387291,223.729761 479.337284,224.596343 481.425003,226.329532 C483.512722,228.062722 484.919642,230.495233 485.645805,233.627138 C486.371968,236.759043 486.735044,240.757482 486.735044,245.622577 C486.735044,250.061976 486.160174,253.528304 485.010416,256.021665 C483.860657,258.515026 481.863739,260.24819 479.0196,261.221209 C481.37963,261.707718 483.089113,262.893567 484.148101,264.778791 C485.207089,266.664016 485.736575,269.218152 485.736575,272.441277 L485.555035,302.087799 L470.305686,302.087799 L470.305686,271.437856 C470.305686,269.248564 469.882097,267.84987 469.034907,267.241733 C468.187717,266.633596 466.644643,266.329532 464.40564,266.329532 L464.40564,302.087799 L448.611671,302.087799 L448.611671,223.729761 Z M468.217978,252.737742 C470.396467,252.737742 471.485695,250.366044 471.485695,245.622577 C471.485695,243.554912 471.394926,242.004186 471.213385,240.970353 C471.031845,239.936521 470.699025,239.221971 470.214916,238.826682 C469.730807,238.431393 469.034911,238.233751 468.127208,238.233751 L464.49641,238.233751 L464.49641,252.737742 L468.217978,252.737742 Z" id="entrepreneur" fill="#000000"></path>
        <path d="M0,176.371225 L0,1.62741615 L34.9894473,1.62741615 L34.9894473,146.670881 L70.9960296,146.670881 L70.9960296,176.371225 L0,176.371225 Z M76.0817051,176.371225 L92.9661477,1.62741615 L152.16341,1.62741615 L168.844426,176.371225 L135.685822,176.371225 L133.244697,148.09487 L112.088287,148.09487 L110.054017,176.371225 L76.0817051,176.371225 Z M114.732839,120.225368 L130.600146,120.225368 L122.869919,31.3277609 L121.242503,31.3277609 L114.732839,120.225368 Z M179.422631,176.371225 L179.422631,1.62741615 L215.429213,1.62741615 L231.499948,85.235921 L231.499948,1.62741615 L265.268833,1.62741615 L265.268833,176.371225 L231.093094,176.371225 L213.59837,88.8976073 L213.59837,176.371225 L179.422631,176.371225 Z M280.729286,1.62741615 L328.94149,1.62741615 C341.418409,1.62741615 350.775959,5.08564089 357.014418,12.0021941 C363.252878,18.9187474 366.43987,29.1578049 366.575488,42.719674 L366.982342,124.497336 C367.117961,141.720909 364.134395,154.6723 358.031553,163.351896 C351.928712,172.031492 341.825271,176.371225 327.720928,176.371225 L280.729286,176.371225 L280.729286,1.62741615 Z M322.024971,145.450319 C328.39905,145.450319 331.586041,142.331136 331.586041,136.092676 L331.586041,45.9745063 C331.586041,42.0415643 331.280904,39.091902 330.670619,37.125431 C330.060335,35.15896 328.941498,33.8366976 327.314074,33.1586041 C325.686649,32.4805106 323.177741,32.141469 319.787274,32.141469 L315.922161,32.141469 L315.922161,145.450319 L322.024971,145.450319 Z M390.579877,165.081026 C383.256467,156.469239 379.594818,144.365452 379.594818,128.769303 L379.594818,45.5676523 C379.594818,30.5139776 383.256467,19.1560826 390.579877,11.4936266 C397.903286,3.83117055 408.617002,0 422.721346,0 C436.825689,0 447.539405,3.83117055 454.862815,11.4936266 C462.186224,19.1560826 465.847874,30.5139776 465.847874,45.5676523 L465.847874,128.769303 C465.847874,144.501071 462.186224,156.638762 454.862815,165.182739 C447.539405,173.726717 436.825689,177.998642 422.721346,177.998642 C408.617002,177.998642 397.903286,173.692813 390.579877,165.081026 Z M429.027583,141.788632 C430.112533,139.076258 430.654999,135.278992 430.654999,130.396719 L430.654999,44.9573712 C430.654999,41.1600479 430.146437,38.0747689 429.129297,35.7014418 C428.112156,33.3281148 426.044002,32.141469 422.924773,32.141469 C417.093169,32.141469 414.177411,36.5490103 414.177411,45.3642252 L414.177411,130.600146 C414.177411,135.618038 414.787686,139.415304 416.008254,141.992059 C417.228822,144.568814 419.466497,145.857173 422.721346,145.857173 C425.840575,145.857173 427.942634,144.501006 429.027583,141.788632 Z M479.884338,176.371225 L479.884338,1.62741615 L515.89092,1.62741615 L531.961655,85.235921 L531.961655,1.62741615 L565.73054,1.62741615 L565.73054,176.371225 L531.554801,176.371225 L514.060077,88.8976073 L514.060077,176.371225 L479.884338,176.371225 Z" id="landon" fill="#000000"></path>
        <path d="M636.333302,166.201143 C629.281077,158.335199 625.755017,145.654945 625.755017,128.16 L625.755017,111.072 L660.134445,111.072 L660.134445,132.838857 C660.134445,141.51852 662.914608,145.858286 668.475017,145.858286 C671.59427,145.858286 673.764154,144.942866 674.984731,143.112 C676.205309,141.281134 676.815588,138.195831 676.815588,133.856 C676.815588,128.159972 676.1375,123.447257 674.781302,119.717714 C673.425105,115.988172 671.69598,112.868965 669.593874,110.36 C667.491768,107.851035 663.728377,103.952026 658.303588,98.6628571 L643.249874,83.6091429 C631.586578,72.2170859 625.755017,59.6046406 625.755017,45.7714286 C625.755017,30.8532587 629.179363,19.4952771 636.02816,11.6971429 C642.876956,3.89900863 652.878761,0 666.033874,0 C681.765762,0 693.089839,4.17024401 700.006445,12.5108571 C706.923051,20.8514703 710.381302,33.9046731 710.381302,51.6708571 L674.781302,51.6708571 L674.577874,39.6685714 C674.577874,37.3630361 673.93369,35.5321973 672.645302,34.176 C671.356915,32.8198027 669.559981,32.1417143 667.254445,32.1417143 C664.542051,32.1417143 662.507785,32.8876116 661.151588,34.3794286 C659.795391,35.8712456 659.117302,37.9055109 659.117302,40.4822857 C659.117302,46.1783142 662.372127,52.0776838 668.881874,58.1805714 L689.224731,77.7097143 C693.971421,82.320785 697.904335,86.6944555 701.023588,90.8308571 C704.142842,94.9672588 706.651769,99.8494957 708.550445,105.477714 C710.449122,111.105933 711.398445,117.785104 711.398445,125.515429 C711.398445,142.739134 708.245334,155.792337 701.939017,164.675429 C695.6327,173.558521 685.224042,178 670.712731,178 C654.845223,178 643.385528,174.067087 636.333302,166.201143 Z M733.063588,165.997714 C725.401074,157.99615 721.569874,147.011117 721.569874,133.042286 L721.569874,52.4845714 C721.569874,35.1252465 725.028125,22.0381393 731.944731,13.2228571 C738.861337,4.40757497 749.710752,0 764.493302,0 C777.377176,0 787.75193,3.52605998 795.617874,10.5782857 C803.483818,17.6305115 807.416731,27.8018383 807.416731,41.0925714 L807.416731,71.2 L772.630445,71.2 L772.630445,45.3645714 C772.630445,40.3466416 772.020166,36.8883904 770.799588,34.9897143 C769.579011,33.0910381 767.476936,32.1417143 764.493302,32.1417143 C761.374049,32.1417143 759.23807,33.2266558 758.085302,35.3965714 C756.932535,37.566487 756.35616,40.7535028 756.35616,44.9577143 L756.35616,132.635429 C756.35616,137.246499 757.034248,140.603037 758.390445,142.705143 C759.746643,144.807249 761.780908,145.858286 764.493302,145.858286 C769.918092,145.858286 772.630445,141.450711 772.630445,132.635429 L772.630445,101.104 L807.823588,101.104 L807.823588,134.059429 C807.823588,163.353289 793.109069,178 763.679588,178 C750.931334,178 740.726103,173.999278 733.063588,165.997714 Z M819.419017,176.372571 L819.419017,1.62742857 L854.205302,1.62742857 L854.205302,64.08 L870.683017,64.08 L870.683017,1.62742857 L905.469302,1.62742857 L905.469302,176.372571 L870.683017,176.372571 L870.683017,97.0354286 L854.205302,97.0354286 L854.205302,176.372571 L819.419017,176.372571 Z M920.929874,1.62742857 L974.635017,1.62742857 C983.179059,1.62742857 989.790422,3.55998067 994.469302,7.42514286 C999.148183,11.290305 1002.30129,16.7150127 1003.92873,23.6994286 C1005.55617,30.6838444 1006.36987,39.6007077 1006.36987,50.4502857 C1006.36987,60.3505257 1005.08151,68.0807341 1002.50473,73.6411429 C999.927956,79.2015516 995.452572,83.0666558 989.078445,85.2365714 C994.367615,86.3215292 998.198814,88.9660742 1000.57216,93.1702857 C1002.9455,97.3744972 1004.13216,103.07044 1004.13216,110.258286 L1003.7253,176.372571 L969.549302,176.372571 L969.549302,108.020571 C969.549302,103.138261 968.599979,100.019054 966.701302,98.6628571 C964.802626,97.3066599 961.344375,96.6285714 956.326445,96.6285714 L956.326445,176.372571 L920.929874,176.372571 L920.929874,1.62742857 Z M964.870445,66.3177143 C969.752755,66.3177143 972.193874,61.0286243 972.193874,50.4502857 C972.193874,45.839215 971.990447,42.3809639 971.583588,40.0754286 C971.176729,37.7698932 970.430832,36.1763854 969.345874,35.2948571 C968.260916,34.4133289 966.701313,33.9725714 964.667017,33.9725714 L956.529874,33.9725714 L956.529874,66.3177143 L964.870445,66.3177143 Z M1027.52645,165.082286 C1020.20298,156.470433 1016.5413,144.366554 1016.5413,128.770286 L1016.5413,45.568 C1016.5413,30.5142104 1020.20298,19.1562288 1027.52645,11.4937143 C1034.84991,3.83119978 1045.56371,0 1059.66816,0 C1073.77261,0 1084.48641,3.83119978 1091.80987,11.4937143 C1099.13334,19.1562288 1102.79502,30.5142104 1102.79502,45.568 L1102.79502,128.770286 C1102.79502,144.502174 1099.13334,156.639957 1091.80987,165.184 C1084.48641,173.728043 1073.77261,178 1059.66816,178 C1045.56371,178 1034.84991,173.694138 1027.52645,165.082286 Z M1065.97445,141.789714 C1067.0594,139.07732 1067.60187,135.280024 1067.60187,130.397714 L1067.60187,44.9577143 C1067.60187,41.160362 1067.09331,38.0750595 1066.07616,35.7017143 C1065.05901,33.3283691 1062.99084,32.1417143 1059.87159,32.1417143 C1054.03994,32.1417143 1051.12416,36.5492893 1051.12416,45.3645714 L1051.12416,130.601143 C1051.12416,135.619073 1051.73444,139.416368 1052.95502,141.993143 C1054.17559,144.569918 1056.41329,145.858286 1059.66816,145.858286 C1062.78741,145.858286 1064.88949,144.502109 1065.97445,141.789714 Z M1116.83159,1.62742857 L1163.00987,1.62742857 C1176.97871,1.62742857 1186.94661,6.13671681 1192.91387,15.1554286 C1198.88114,24.1741403 1201.86473,37.3629608 1201.86473,54.7222857 C1201.86473,72.0816106 1199.22019,85.1687178 1193.93102,93.984 C1188.64185,102.799282 1179.14861,107.206857 1165.45102,107.206857 L1151.21102,107.206857 L1151.21102,176.372571 L1116.83159,176.372571 L1116.83159,1.62742857 Z M1153.2453,75.6754286 C1157.44951,75.6754286 1160.53482,74.8956268 1162.5013,73.336 C1164.46779,71.7763732 1165.75616,69.5386812 1166.36645,66.6228571 C1166.97673,63.707033 1167.28187,59.536789 1167.28187,54.112 C1167.28187,46.7885348 1166.46817,41.4994448 1164.84073,38.2445714 C1163.21329,34.989698 1159.95847,33.3622857 1155.07616,33.3622857 L1151.21102,33.3622857 L1151.21102,75.6754286 L1153.2453,75.6754286 Z M1212.84987,1.62742857 L1259.02816,1.62742857 C1272.99699,1.62742857 1282.96489,6.13671681 1288.93216,15.1554286 C1294.89943,24.1741403 1297.88302,37.3629608 1297.88302,54.7222857 C1297.88302,72.0816106 1295.23847,85.1687178 1289.9493,93.984 C1284.66013,102.799282 1275.16689,107.206857 1261.4693,107.206857 L1247.2293,107.206857 L1247.2293,176.372571 L1212.84987,176.372571 L1212.84987,1.62742857 Z M1249.26359,75.6754286 C1253.4678,75.6754286 1256.5531,74.8956268 1258.51959,73.336 C1260.48607,71.7763732 1261.77444,69.5386812 1262.38473,66.6228571 C1262.99502,63.707033 1263.30016,59.536789 1263.30016,54.112 C1263.30016,46.7885348 1262.48645,41.4994448 1260.85902,38.2445714 C1259.23158,34.989698 1255.97676,33.3622857 1251.09445,33.3622857 L1247.2293,33.3622857 L1247.2293,75.6754286 L1249.26359,75.6754286 Z" id="schropp" fill="#000000"></path>
    </g>
</svg>