<?xml version="1.0" encoding="UTF-8"?>
<svg width="1298px" height="456px" viewBox="0 0 1298 456" version="1.1" xmlns="http://www.w3.org/2000/svg" xmlns:xlink="http://www.w3.org/1999/xlink">
    <title>landscape</title>
    <g id="landscape" stroke="none" stroke-width="1" fill="none" fill-rule="evenodd">
        <path d="M2,176.093601 L2,1.62485445 L36.9343706,1.62485445 L36.9343706,146.440007 L72.8842752,146.440007 L72.8842752,176.093601 L2,176.093601 Z M77.9619454,176.093601 L94.8198102,1.62485445 L153.923891,1.62485445 L170.578649,176.093601 L137.472239,176.093601 L135.034958,147.861755 L113.91185,147.861755 L111.880782,176.093601 L77.9619454,176.093601 Z M116.552238,120.036122 L132.394569,120.036122 L124.676511,31.2784481 L123.051656,31.2784481 L116.552238,120.036122 Z M181.140203,176.093601 L181.140203,1.62485445 L217.090107,1.62485445 L233.135545,85.1017516 L233.135545,1.62485445 L266.851275,1.62485445 L266.851275,176.093601 L232.729331,176.093601 L215.262146,88.7576741 L215.262146,176.093601 L181.140203,176.093601 Z M282.287392,1.62485445 L330.423705,1.62485445 C342.880985,1.62485445 352.223804,5.07763562 358.452444,11.9833015 C364.681084,18.8889675 367.863059,29.1119078 367.998464,42.6524292 L368.404678,124.301365 C368.540083,141.497827 365.561213,154.428831 359.467978,163.094765 C353.374744,171.760699 343.287206,176.093601 329.205064,176.093601 L282.287392,176.093601 L282.287392,1.62485445 Z M323.518074,145.221366 C329.882119,145.221366 333.064093,142.107093 333.064093,135.878453 L333.064093,45.9021381 C333.064093,41.9753869 332.759436,39.0303677 332.150113,37.0669921 C331.540789,35.1036164 330.423713,33.7834354 328.79885,33.1064093 C327.173988,32.4293833 324.669029,32.0908753 321.283899,32.0908753 L317.424869,32.0908753 L317.424869,145.221366 L323.518074,145.221366 Z M391.965067,164.821173 C384.653186,156.222942 380.9973,144.138208 380.9973,128.566608 L380.9973,45.4959245 C380.9973,30.4659457 384.653186,19.1259291 391.965067,11.4755345 C399.276949,3.82513992 409.9738,0 424.055942,0 C438.138085,0 448.834936,3.82513992 456.146818,11.4755345 C463.458699,19.1259291 467.114585,30.4659457 467.114585,45.4959245 L467.114585,128.566608 C467.114585,144.273613 463.458699,156.392198 456.146818,164.922726 C448.834936,173.453255 438.138085,177.718455 424.055942,177.718455 C409.9738,177.718455 399.276949,173.419404 391.965067,164.821173 Z M430.352253,141.565444 C431.435495,138.857339 431.977108,135.06605 431.977108,130.191463 L431.977108,44.8866041 C431.977108,41.0952581 431.469346,38.0148357 430.453807,35.6452444 C429.438268,33.2756532 427.373369,32.0908753 424.259049,32.0908753 C418.436625,32.0908753 415.525457,36.4914788 415.525457,45.2928177 L415.525457,130.394569 C415.525457,135.404562 416.134771,139.195851 417.353418,141.76855 C418.572065,144.341249 420.806217,145.62758 424.055942,145.62758 C427.170262,145.62758 429.269012,144.273548 430.352253,141.565444 Z M481.128955,176.093601 L481.128955,1.62485445 L517.078859,1.62485445 L533.124297,85.1017516 L533.124297,1.62485445 L566.840027,1.62485445 L566.840027,176.093601 L532.718083,176.093601 L515.250898,88.7576741 L515.250898,176.093601 L481.128955,176.093601 Z" id="landon" fill="#000000"></path>
        <path d="M637.331654,165.939527 C630.290529,158.085964 626.77002,145.42567 626.77002,127.958264 L626.77002,110.897162 L661.095332,110.897162 L661.095332,132.629756 C661.095332,141.295756 663.871118,145.628691 669.422774,145.628691 C672.537118,145.628691 674.703585,144.714713 675.922242,142.886728 C677.140898,141.058744 677.750217,137.978298 677.750217,133.645298 C677.750217,127.958236 677.073196,123.252939 675.719133,119.529267 C674.365071,115.805596 672.638667,112.691299 670.53987,110.186283 C668.441073,107.681267 664.683606,103.788396 659.267356,98.5075525 L644.237338,83.4775342 C632.592401,72.1034094 626.77002,59.5108173 626.77002,45.69938 C626.77002,30.8046928 630.188976,19.4645897 637.026991,11.6787305 C643.865007,3.89287122 653.851068,0 666.985474,0 C682.692599,0 693.998851,4.16367966 700.904569,12.4911639 C707.810288,20.8186481 711.263096,33.8513039 711.263096,51.5895224 L675.719133,51.5895224 L675.516025,39.6061294 C675.516025,37.3042232 674.872855,35.4762662 673.586496,34.1222038 C672.300136,32.7681413 670.50603,32.0911202 668.204124,32.0911202 C665.495999,32.0911202 663.464936,32.8358434 662.110873,34.3253121 C660.756811,35.8147808 660.07979,37.8458441 660.07979,40.4185628 C660.07979,46.1056252 663.329491,51.9957086 669.828991,58.0889897 L690.139827,77.5873919 C694.879045,82.1912043 698.805767,86.5579903 701.920111,90.6878808 C705.034455,94.8177714 707.539433,99.6923232 709.43512,105.311682 C711.330808,110.931042 712.278637,117.599699 712.278637,125.317855 C712.278637,142.514449 709.130489,155.547105 702.834099,164.416214 C696.537708,173.285323 686.145435,177.719811 671.656966,177.719811 C655.814435,177.719811 644.372779,173.793089 637.331654,165.939527 Z M733.909677,165.736418 C726.259224,157.74745 722.434055,146.779708 722.434055,132.832865 L722.434055,52.4019558 C722.434055,35.0699561 725.886863,22.0034492 732.792581,13.2020431 C739.6983,4.40063703 750.530637,0 765.289918,0 C778.153512,0 788.511934,3.52050963 796.365497,10.5616345 C804.219059,17.6027594 808.145781,27.7580756 808.145781,41.0278879 L808.145781,71.0879245 L773.414252,71.0879245 L773.414252,45.2931633 C773.414252,40.2831322 772.804933,36.8303247 771.586277,34.9346372 C770.367621,33.0389497 768.268856,32.0911202 765.289918,32.0911202 C762.175574,32.0911202 760.042958,33.1743539 758.892005,35.3408539 C757.741052,37.5073539 757.165584,40.6893529 757.165584,44.8869466 L757.165584,132.426648 C757.165584,137.03046 757.842605,140.381715 759.196667,142.480512 C760.55073,144.579308 762.581793,145.628691 765.289918,145.628691 C770.706168,145.628691 773.414252,141.228054 773.414252,132.426648 L773.414252,100.944853 L808.551998,100.944853 L808.551998,133.848406 C808.551998,163.096156 793.86064,177.719811 764.477485,177.719811 C751.749297,177.719811 741.56013,173.725387 733.909677,165.736418 Z M820.129174,176.094944 L820.129174,1.62486685 L854.860703,1.62486685 L854.860703,63.9791321 L871.31248,63.9791321 L871.31248,1.62486685 L906.044009,1.62486685 L906.044009,176.094944 L871.31248,176.094944 L871.31248,96.8826857 L854.860703,96.8826857 L854.860703,176.094944 L820.129174,176.094944 Z M921.480244,1.62486685 L975.10085,1.62486685 C983.631443,1.62486685 990.232399,3.55437693 994.903914,7.41345498 C999.57543,11.272533 1002.72358,16.6887017 1004.34845,23.6621234 C1005.97333,30.6355452 1006.78575,39.5383724 1006.78575,50.3708722 C1006.78575,60.2555283 1005.49941,67.9735686 1002.92669,73.5252248 C1000.35398,79.0768809 995.885636,82.9359011 989.521543,85.102401 C994.802387,86.185651 998.627556,88.8260333 1000.99716,93.0236269 C1003.36677,97.2212206 1004.55156,102.908198 1004.55156,110.084729 L1004.14534,176.094944 L970.023141,176.094944 L970.023141,107.850537 C970.023141,102.975912 969.075311,99.861615 967.179624,98.5075525 C965.283936,97.1534901 961.831129,96.476469 956.821098,96.476469 L956.821098,176.094944 L921.480244,176.094944 L921.480244,1.62486685 Z M965.351649,66.213324 C970.226273,66.213324 972.663549,60.9325595 972.663549,50.3708722 C972.663549,45.7670598 972.460443,42.3142523 972.054224,40.0123461 C971.648006,37.7104399 970.903282,36.1194403 969.820032,35.2392997 C968.736782,34.3591591 967.179634,33.9190954 965.14854,33.9190954 L957.024206,33.9190954 L957.024206,66.213324 L965.351649,66.213324 Z M1027.90902,164.822431 C1020.59708,156.224134 1016.94117,144.139308 1016.94117,128.567589 L1016.94117,45.4962717 C1016.94117,30.4661782 1020.59708,19.1260751 1027.90902,11.4756221 C1035.22096,3.82516911 1045.91789,0 1060.00014,0 C1074.08239,0 1084.77933,3.82516911 1092.09126,11.4756221 C1099.4032,19.1260751 1103.05911,30.4661782 1103.05911,45.4962717 L1103.05911,128.567589 C1103.05911,144.274714 1099.4032,156.393391 1092.09126,164.923985 C1084.77933,173.454578 1074.08239,177.719811 1060.00014,177.719811 C1045.91789,177.719811 1035.22096,173.420727 1027.90902,164.822431 Z M1066.2965,141.566524 C1067.37975,138.858399 1067.92137,135.067081 1067.92137,130.192456 L1067.92137,44.8869466 C1067.92137,41.0955717 1067.4136,38.0151258 1066.39806,35.6455164 C1065.38251,33.2759071 1063.31759,32.0911202 1060.20325,32.0911202 C1054.38078,32.0911202 1051.46959,36.4917572 1051.46959,45.2931633 L1051.46959,130.395564 C1051.46959,135.405596 1052.07891,139.196914 1053.29757,141.769632 C1054.51622,144.342351 1056.75039,145.628691 1060.00014,145.628691 C1063.11449,145.628691 1065.21325,144.274649 1066.2965,141.566524 Z M1117.07359,1.62486685 L1163.17919,1.62486685 C1177.12603,1.62486685 1187.07824,6.12705704 1193.03612,15.1315725 C1198.99399,24.136088 1201.97288,37.304148 1201.97288,54.6361477 C1201.97288,71.9681474 1199.3325,85.0346543 1194.05166,93.8360603 C1188.77081,102.637466 1179.29252,107.038103 1165.61649,107.038103 L1151.3989,107.038103 L1151.3989,176.094944 L1117.07359,176.094944 L1117.07359,1.62486685 Z M1153.42999,75.5563083 C1157.62758,75.5563083 1160.70803,74.7777341 1162.67142,73.2205622 C1164.63481,71.6633904 1165.92115,69.4292208 1166.53047,66.5179865 C1167.1398,63.6067522 1167.44446,59.4430725 1167.44446,54.0268226 C1167.44446,46.7148853 1166.63204,41.4341208 1165.00716,38.1843709 C1163.38229,34.9346209 1160.13259,33.3097703 1155.25796,33.3097703 L1151.3989,33.3097703 L1151.3989,75.5563083 L1153.42999,75.5563083 Z M1212.94073,1.62486685 L1259.04633,1.62486685 C1272.99317,1.62486685 1282.94538,6.12705704 1288.90326,15.1315725 C1294.86113,24.136088 1297.84003,37.304148 1297.84003,54.6361477 C1297.84003,71.9681474 1295.19964,85.0346543 1289.9188,93.8360603 C1284.63796,102.637466 1275.15966,107.038103 1261.48363,107.038103 L1247.26605,107.038103 L1247.26605,176.094944 L1212.94073,176.094944 L1212.94073,1.62486685 Z M1249.29713,75.5563083 C1253.49472,75.5563083 1256.57517,74.7777341 1258.53856,73.2205622 C1260.50195,71.6633904 1261.78829,69.4292208 1262.39762,66.5179865 C1263.00695,63.6067522 1263.31161,59.4430725 1263.31161,54.0268226 C1263.31161,46.7148853 1262.49918,41.4341208 1260.87431,38.1843709 C1259.24943,34.9346209 1255.99973,33.3097703 1251.12511,33.3097703 L1247.26605,33.3097703 L1247.26605,75.5563083 L1249.29713,75.5563083 Z" id="schropp" fill="#000000"></path>
        <polygon id="comma" fill="#000000" points="494.907415 312.604902 497.803735 302.196252 492.192115 302.196252 492.192115 288.981792 508.664935 288.981792 508.664935 301.743702 504.229945 312.604902"></polygon>
        <path d="M535.928559,224.44816 L557.37943,224.44816 C562.930738,224.44816 567.094156,225.986815 569.86981,229.06417 C572.645464,232.141526 574.06344,236.69715 574.12378,242.73118 L574.3048,279.116201 C574.36514,286.77942 573.037674,292.541832 570.32236,296.403612 C567.607046,300.265391 563.111761,302.196252 556.83637,302.196252 L535.928559,302.196252 L535.928559,224.44816 Z M554.30209,288.438732 C557.138084,288.438732 558.55606,287.050925 558.55606,284.275271 L558.55606,244.17934 C558.55606,242.429472 558.420296,241.11709 558.148765,240.242155 C557.877233,239.367221 557.379433,238.778912 556.65535,238.47721 C555.931266,238.175509 554.814987,238.02466 553.30648,238.02466 L551.58679,238.02466 L551.58679,288.438732 L554.30209,288.438732 Z M580.54999,302.196252 L580.54999,224.44816 L611.685431,224.44816 L611.685431,239.47282 L596.389241,239.47282 L596.389241,254.587991 L611.051861,254.587991 L611.051861,269.250611 L596.389241,269.250611 L596.389241,287.081082 L612.681041,287.081082 L612.681041,302.196252 L580.54999,302.196252 Z M624.990401,302.196252 L615.396341,224.35765 L630.239981,224.35765 L635.942112,277.306001 L641.010672,224.35765 L655.854312,224.35765 L646.260252,302.196252 L624.990401,302.196252 Z M660.289302,302.196252 L660.289302,224.44816 L691.424743,224.44816 L691.424743,239.47282 L676.128553,239.47282 L676.128553,254.587991 L690.791173,254.587991 L690.791173,269.250611 L676.128553,269.250611 L676.128553,287.081082 L692.420353,287.081082 L692.420353,302.196252 L660.289302,302.196252 Z M697.579423,302.196252 L697.579423,224.44816 L713.147143,224.44816 L713.147143,288.981792 L729.167414,288.981792 L729.167414,302.196252 L697.579423,302.196252 Z M737.765864,297.172947 C734.507488,293.341338 732.878324,287.956046 732.878324,281.016911 L732.878324,243.99832 C732.878324,237.300547 734.507488,232.247122 737.765864,228.837895 C741.02424,225.428668 745.791053,223.72408 752.066444,223.72408 C758.341836,223.72408 763.108648,225.428668 766.367025,228.837895 C769.625401,232.247122 771.254565,237.300547 771.254565,243.99832 L771.254565,281.016911 C771.254565,288.016387 769.625401,293.416763 766.367025,297.218202 C763.108648,301.019641 758.341836,302.920332 752.066444,302.920332 C745.791053,302.920332 741.02424,301.004556 737.765864,297.172947 Z M754.872254,286.809552 C755.354977,285.602745 755.596334,283.913242 755.596334,281.740991 L755.596334,243.72679 C755.596334,242.037262 755.370062,240.664541 754.917509,239.608585 C754.464957,238.55263 753.544781,238.02466 752.156954,238.02466 C749.562321,238.02466 748.265024,239.985691 748.265024,243.90781 L748.265024,281.831501 C748.265024,284.064093 748.536552,285.753596 749.079614,286.900062 C749.622677,288.046527 750.618277,288.619752 752.066444,288.619752 C753.454271,288.619752 754.389532,288.016358 754.872254,286.809552 Z M777.499755,224.44816 L798.045525,224.44816 C804.260577,224.44816 808.695522,226.454445 811.350496,230.467075 C814.005469,234.479705 815.332936,240.347712 815.332936,248.071271 C815.332936,255.794829 814.156318,261.617581 811.803046,265.539701 C809.449774,269.461821 805.226016,271.422851 799.131645,271.422851 L792.795945,271.422851 L792.795945,302.196252 L777.499755,302.196252 L777.499755,224.44816 Z M793.701045,257.393801 C795.571595,257.393801 796.944316,257.046849 797.81925,256.352936 C798.694185,255.659022 799.267409,254.663422 799.53894,253.366106 C799.810472,252.068789 799.946235,250.213353 799.946235,247.799741 C799.946235,244.541364 799.584199,242.188128 798.860115,240.73996 C798.136032,239.291793 796.687886,238.56772 794.515635,238.56772 L792.795945,238.56772 L792.795945,257.393801 L793.701045,257.393801 Z M820.220476,302.196252 L820.220476,224.44816 L851.355917,224.44816 L851.355917,239.47282 L836.059726,239.47282 L836.059726,254.587991 L850.722347,254.587991 L850.722347,269.250611 L836.059726,269.250611 L836.059726,287.081082 L852.351527,287.081082 L852.351527,302.196252 L820.220476,302.196252 Z M857.510597,224.44816 L881.405237,224.44816 C885.206677,224.44816 888.148222,225.307996 890.229963,227.027695 C892.311703,228.747394 893.714594,231.16097 894.438678,234.268495 C895.162761,237.376021 895.524798,241.343336 895.524798,246.170561 C895.524798,250.575403 894.951573,254.014748 893.805108,256.488701 C892.658642,258.962653 890.667442,260.682326 887.831448,261.647771 C890.184719,262.130493 891.889307,263.307112 892.945263,265.177661 C894.001218,267.04821 894.529188,269.582465 894.529188,272.780501 L894.348168,302.196252 L879.142487,302.196252 L879.142487,271.784891 C879.142487,269.61264 878.720112,268.224834 877.875347,267.621431 C877.030583,267.018028 875.491928,266.716331 873.259337,266.716331 L873.259337,302.196252 L857.510597,302.196252 L857.510597,224.44816 Z M877.060757,253.230341 C879.233008,253.230341 880.319117,250.877104 880.319117,246.170561 C880.319117,244.11899 880.228608,242.580336 880.047587,241.55455 C879.866566,240.528765 879.5347,239.819777 879.051977,239.427565 C878.569255,239.035353 877.875352,238.83925 876.970247,238.83925 L873.349847,238.83925 L873.349847,253.230341 L877.060757,253.230341 Z M923.582898,298.123302 C921.169286,294.804585 919.962498,290.490318 919.962498,285.180371 C919.962498,279.267022 920.80725,274.515294 922.496778,270.925046 C924.186307,267.334798 926.84124,264.182065 930.461659,261.466751 C927.504984,255.674082 926.026668,250.665912 926.026668,246.442091 C926.026668,242.037248 927.459729,238.582818 930.325894,236.078695 C933.192058,233.574573 936.887846,232.32253 941.413369,232.32253 C945.878551,232.32253 949.54417,233.514233 952.410334,235.897675 C955.276498,238.281117 956.709559,241.614869 956.709559,245.899031 C956.709559,252.174422 953.240044,258.057513 946.300909,263.548481 L949.106719,270.155711 C950.796248,265.690529 953.330502,262.221013 956.709559,259.747061 L962.864239,269.341121 C959.304161,272.116775 956.40787,276.702569 954.175279,283.098641 L962.049649,302.196252 L947.024989,302.196252 L945.395809,297.942282 C944.128663,299.450789 942.514584,300.687747 940.553524,301.653192 C938.592464,302.618637 936.4655,303.101352 934.172569,303.101352 C929.526365,303.101352 925.996511,301.442018 923.582898,298.123302 Z M943.042549,252.325241 C943.645952,251.661497 944.189006,250.711152 944.671729,249.474176 C945.154451,248.237199 945.395809,247.045496 945.395809,245.899031 C945.395809,244.088821 944.520888,243.18373 942.771019,243.18373 C942.046935,243.18373 941.473711,243.440173 941.051329,243.953065 C940.628947,244.465958 940.417759,245.114607 940.417759,245.899031 C940.417759,247.467878 941.051322,249.881454 942.318469,253.139831 L943.042549,252.325241 Z M939.512659,290.475207 C940.297083,289.600272 940.809968,288.589587 941.051329,287.443122 L935.711239,274.590701 L935.168179,275.405291 C934.685456,276.129375 934.29325,277.275823 933.991549,278.844671 C933.689847,280.413519 933.538999,281.952174 933.538999,283.460681 L933.538999,283.913231 C933.538999,286.266503 933.720017,288.167194 934.082059,289.615362 C934.4441,291.063529 935.288852,291.787602 936.616339,291.787602 C937.762804,291.787602 938.728235,291.350141 939.512659,290.475207 Z M988.7501,224.44816 L1010.20097,224.44816 C1015.75228,224.44816 1019.9157,225.986815 1022.69135,229.06417 C1025.467,232.141526 1026.88498,236.69715 1026.94532,242.73118 L1027.12634,279.116201 C1027.18668,286.77942 1025.85921,292.541832 1023.1439,296.403612 C1020.42859,300.265391 1015.9333,302.196252 1009.65791,302.196252 L988.7501,302.196252 L988.7501,224.44816 Z M1007.12363,288.438732 C1009.95962,288.438732 1011.3776,287.050925 1011.3776,284.275271 L1011.3776,244.17934 C1011.3776,242.429472 1011.24184,241.11709 1010.97031,240.242155 C1010.69877,239.367221 1010.20097,238.778912 1009.47689,238.47721 C1008.75281,238.175509 1007.63653,238.02466 1006.12802,238.02466 L1004.40833,238.02466 L1004.40833,288.438732 L1007.12363,288.438732 Z M1033.37153,302.196252 L1033.37153,224.44816 L1064.50697,224.44816 L1064.50697,239.47282 L1049.21078,239.47282 L1049.21078,254.587991 L1063.8734,254.587991 L1063.8734,269.250611 L1049.21078,269.250611 L1049.21078,287.081082 L1065.50258,287.081082 L1065.50258,302.196252 L1033.37153,302.196252 Z M1073.8295,297.670752 C1070.69181,294.171014 1069.12298,288.52928 1069.12298,280.745381 L1069.12298,273.142541 L1084.41917,273.142541 L1084.41917,282.827111 C1084.41917,286.688891 1085.65613,288.619752 1088.13008,288.619752 C1089.51791,288.619752 1090.48334,288.212461 1091.0264,287.397867 C1091.56947,286.583272 1091.84099,285.210551 1091.84099,283.279661 C1091.84099,280.745369 1091.5393,278.648575 1090.93589,276.989216 C1090.33249,275.329858 1089.56316,273.942052 1088.62789,272.825756 C1087.69261,271.709461 1086.01819,269.974703 1083.60458,267.621431 L1076.90684,260.923691 C1071.71758,255.855105 1069.12298,250.243541 1069.12298,244.08883 C1069.12298,237.451397 1070.64655,232.397973 1073.69374,228.928405 C1076.74092,225.458838 1081.19095,223.72408 1087.04396,223.72408 C1094.04344,223.72408 1099.08178,225.579517 1102.15913,229.290445 C1105.23649,233.001374 1106.77514,238.809041 1106.77514,246.713621 L1090.93589,246.713621 L1090.84538,241.37353 C1090.84538,240.347745 1090.55877,239.533163 1089.98554,238.92976 C1089.4123,238.326357 1088.61281,238.02466 1087.58702,238.02466 C1086.38022,238.02466 1085.47513,238.356527 1084.87172,239.02027 C1084.26832,239.684014 1083.96662,240.589105 1083.96662,241.73557 C1083.96662,244.269863 1085.41477,246.894627 1088.3111,249.609941 L1097.3621,258.298901 C1099.47401,260.350471 1101.22386,262.296417 1102.61168,264.136796 C1103.99951,265.977175 1105.11579,268.149394 1105.96055,270.653516 C1106.80532,273.157639 1107.22769,276.129354 1107.22769,279.568751 C1107.22769,287.23197 1105.8248,293.039637 1103.01898,296.991927 C1100.21315,300.944217 1095.5821,302.920332 1089.12569,302.920332 C1082.06588,302.920332 1076.9672,301.170489 1073.8295,297.670752 Z M1111.66268,302.196252 L1111.66268,224.44816 L1126.68734,224.44816 L1126.68734,302.196252 L1111.66268,302.196252 Z M1136.41717,296.991927 C1133.67168,293.039637 1132.29896,287.050952 1132.29896,279.025691 L1132.29896,245.536991 C1132.29896,238.356494 1133.89796,232.925949 1137.09599,229.24519 C1140.29403,225.564432 1145.06084,223.72408 1151.39657,223.72408 C1156.5255,223.72408 1160.5079,224.74985 1163.34389,226.80142 C1166.17989,228.85299 1168.14092,231.839791 1169.22704,235.76191 C1170.31317,239.68403 1170.85622,244.72237 1170.85622,250.877081 L1155.65054,250.877081 L1155.65054,243.90781 C1155.65054,242.037261 1155.3941,240.589116 1154.88121,239.56333 C1154.36832,238.537545 1153.44814,238.02466 1152.12065,238.02466 C1149.16398,238.02466 1147.68566,239.955521 1147.68566,243.8173 L1147.68566,281.469461 C1147.68566,283.822733 1147.98736,285.602745 1148.59076,286.809552 C1149.19417,288.016358 1150.25011,288.619752 1151.75861,288.619752 C1153.26712,288.619752 1154.32306,288.016358 1154.92646,286.809552 C1155.52987,285.602745 1155.83156,283.822733 1155.83156,281.469461 L1155.83156,270.336731 L1151.6681,270.336731 L1151.6681,256.941251 L1170.6752,256.941251 L1170.6752,302.196252 L1164.43001,302.196252 L1161.80522,295.679532 C1159.02957,300.506756 1154.74547,302.920332 1148.9528,302.920332 C1143.34116,302.920332 1139.16265,300.944217 1136.41717,296.991927 Z M1176.82988,302.196252 L1176.82988,224.44816 L1192.85015,224.44816 L1200.00044,261.647771 L1200.00044,224.44816 L1215.02511,224.44816 L1215.02511,302.196252 L1199.81942,302.196252 L1192.03556,263.276951 L1192.03556,302.196252 L1176.82988,302.196252 Z M1221.90387,302.196252 L1221.90387,224.44816 L1253.03931,224.44816 L1253.03931,239.47282 L1237.74312,239.47282 L1237.74312,254.587991 L1252.40574,254.587991 L1252.40574,269.250611 L1237.74312,269.250611 L1237.74312,287.081082 L1254.03492,287.081082 L1254.03492,302.196252 L1221.90387,302.196252 Z M1259.19399,224.44816 L1283.08863,224.44816 C1286.89007,224.44816 1289.83161,225.307996 1291.91335,227.027695 C1293.99509,228.747394 1295.39798,231.16097 1296.12207,234.268495 C1296.84615,237.376021 1297.20819,241.343336 1297.20819,246.170561 C1297.20819,250.575403 1296.63496,254.014748 1295.4885,256.488701 C1294.34203,258.962653 1292.35083,260.682326 1289.51484,261.647771 C1291.86811,262.130493 1293.5727,263.307112 1294.62865,265.177661 C1295.68461,267.04821 1296.21258,269.582465 1296.21258,272.780501 L1296.03156,302.196252 L1280.82588,302.196252 L1280.82588,271.784891 C1280.82588,269.61264 1280.4035,268.224834 1279.55874,267.621431 C1278.71397,267.018028 1277.17532,266.716331 1274.94273,266.716331 L1274.94273,302.196252 L1259.19399,302.196252 L1259.19399,224.44816 Z M1278.74415,253.230341 C1280.9164,253.230341 1282.00251,250.877104 1282.00251,246.170561 C1282.00251,244.11899 1281.912,242.580336 1281.73098,241.55455 C1281.54996,240.528765 1281.21809,239.819777 1280.73537,239.427565 C1280.25264,239.035353 1279.55874,238.83925 1278.65364,238.83925 L1275.03324,238.83925 L1275.03324,253.230341 L1278.74415,253.230341 Z" id="developer-and-designer" fill="#000000"></path>
        <path d="M2.92521336,302.196252 L2.92521336,224.44816 L34.0606541,224.44816 L34.0606541,239.47282 L18.7644637,239.47282 L18.7644637,254.587991 L33.4270841,254.587991 L33.4270841,269.250611 L18.7644637,269.250611 L18.7644637,287.081082 L35.0562641,287.081082 L35.0562641,302.196252 L2.92521336,302.196252 Z M40.2153342,302.196252 L40.2153342,224.44816 L56.2356046,224.44816 L63.3858948,261.647771 L63.3858948,224.44816 L78.4105551,224.44816 L78.4105551,302.196252 L63.2048748,302.196252 L55.4210146,263.276951 L55.4210146,302.196252 L40.2153342,302.196252 Z M91.9870555,302.196252 L91.9870555,239.38231 L82.7550352,239.38231 L82.7550352,224.44816 L116.786796,224.44816 L116.786796,239.38231 L107.554776,239.38231 L107.554776,302.196252 L91.9870555,302.196252 Z M121.131276,224.44816 L145.025917,224.44816 C148.827356,224.44816 151.768901,225.307996 153.850642,227.027695 C155.932382,228.747394 157.335273,231.16097 158.059357,234.268495 C158.783441,237.376021 159.145477,241.343336 159.145477,246.170561 C159.145477,250.575403 158.572253,254.014748 157.425787,256.488701 C156.279321,258.962653 154.288121,260.682326 151.452127,261.647771 C153.805399,262.130493 155.509987,263.307112 156.565942,265.177661 C157.621897,267.04821 158.149867,269.582465 158.149867,272.780501 L157.968847,302.196252 L142.763167,302.196252 L142.763167,271.784891 C142.763167,269.61264 142.340791,268.224834 141.496027,267.621431 C140.651262,267.018028 139.112608,266.716331 136.880017,266.716331 L136.880017,302.196252 L121.131276,302.196252 L121.131276,224.44816 Z M140.681437,253.230341 C142.853688,253.230341 143.939797,250.877104 143.939797,246.170561 C143.939797,244.11899 143.849288,242.580336 143.668267,241.55455 C143.487246,240.528765 143.155379,239.819777 142.672657,239.427565 C142.189934,239.035353 141.496031,238.83925 140.590927,238.83925 L136.970527,238.83925 L136.970527,253.230341 L140.681437,253.230341 Z M164.304547,302.196252 L164.304547,224.44816 L195.439988,224.44816 L195.439988,239.47282 L180.143798,239.47282 L180.143798,254.587991 L194.806418,254.587991 L194.806418,269.250611 L180.143798,269.250611 L180.143798,287.081082 L196.435598,287.081082 L196.435598,302.196252 L164.304547,302.196252 Z M201.594668,224.44816 L222.140439,224.44816 C228.35549,224.44816 232.790436,226.454445 235.445409,230.467075 C238.100382,234.479705 239.427849,240.347712 239.427849,248.071271 C239.427849,255.794829 238.251231,261.617581 235.897959,265.539701 C233.544687,269.461821 229.320929,271.422851 223.226559,271.422851 L216.890858,271.422851 L216.890858,302.196252 L201.594668,302.196252 L201.594668,224.44816 Z M217.795958,257.393801 C219.666508,257.393801 221.039229,257.046849 221.914164,256.352936 C222.789098,255.659022 223.362322,254.663422 223.633854,253.366106 C223.905385,252.068789 224.041149,250.213353 224.041149,247.799741 C224.041149,244.541364 223.679112,242.188128 222.955029,240.73996 C222.230945,239.291793 220.782799,238.56772 218.610548,238.56772 L216.890858,238.56772 L216.890858,257.393801 L217.795958,257.393801 Z M244.315389,224.44816 L268.21003,224.44816 C272.011469,224.44816 274.953014,225.307996 277.034755,227.027695 C279.116495,228.747394 280.519386,231.16097 281.24347,234.268495 C281.967554,237.376021 282.32959,241.343336 282.32959,246.170561 C282.32959,250.575403 281.756366,254.014748 280.6099,256.488701 C279.463434,258.962653 277.472234,260.682326 274.63624,261.647771 C276.989512,262.130493 278.6941,263.307112 279.750055,265.177661 C280.80601,267.04821 281.33398,269.582465 281.33398,272.780501 L281.15296,302.196252 L265.94728,302.196252 L265.94728,271.784891 C265.94728,269.61264 265.524904,268.224834 264.68014,267.621431 C263.835375,267.018028 262.296721,266.716331 260.064129,266.716331 L260.064129,302.196252 L244.315389,302.196252 L244.315389,224.44816 Z M263.86555,253.230341 C266.0378,253.230341 267.12391,250.877104 267.12391,246.170561 C267.12391,244.11899 267.0334,242.580336 266.85238,241.55455 C266.671359,240.528765 266.339492,239.819777 265.85677,239.427565 C265.374047,239.035353 264.680144,238.83925 263.77504,238.83925 L260.154639,238.83925 L260.154639,253.230341 L263.86555,253.230341 Z M287.48866,302.196252 L287.48866,224.44816 L318.624101,224.44816 L318.624101,239.47282 L303.32791,239.47282 L303.32791,254.587991 L317.990531,254.587991 L317.990531,269.250611 L303.32791,269.250611 L303.32791,287.081082 L319.619711,287.081082 L319.619711,302.196252 L287.48866,302.196252 Z M324.778781,302.196252 L324.778781,224.44816 L340.799051,224.44816 L347.949341,261.647771 L347.949341,224.44816 L362.974002,224.44816 L362.974002,302.196252 L347.768321,302.196252 L339.984461,263.276951 L339.984461,302.196252 L324.778781,302.196252 Z M369.852762,302.196252 L369.852762,224.44816 L400.988203,224.44816 L400.988203,239.47282 L385.692012,239.47282 L385.692012,254.587991 L400.354633,254.587991 L400.354633,269.250611 L385.692012,269.250611 L385.692012,287.081082 L401.983813,287.081082 L401.983813,302.196252 L369.852762,302.196252 Z M410.899048,297.489732 C407.791522,293.869314 406.237783,288.499107 406.237783,281.378951 L406.237783,224.44816 L421.352953,224.44816 L421.352953,280.745381 C421.352953,283.219334 421.594311,285.150195 422.077033,286.538021 C422.559756,287.925848 423.585525,288.619752 425.154373,288.619752 C426.723221,288.619752 427.748991,287.940933 428.231713,286.583277 C428.714436,285.22562 428.955793,283.279674 428.955793,280.745381 L428.955793,224.44816 L444.070964,224.44816 L444.070964,281.378951 C444.070964,288.499107 442.517224,293.869314 439.409699,297.489732 C436.302173,301.11015 431.550445,302.920332 425.154373,302.920332 C418.758301,302.920332 414.006574,301.11015 410.899048,297.489732 Z M450.044624,224.44816 L473.939264,224.44816 C477.740704,224.44816 480.682249,225.307996 482.76399,227.027695 C484.84573,228.747394 486.248621,231.16097 486.972705,234.268495 C487.696788,237.376021 488.058825,241.343336 488.058825,246.170561 C488.058825,250.575403 487.485601,254.014748 486.339135,256.488701 C485.192669,258.962653 483.201469,260.682326 480.365475,261.647771 C482.718746,262.130493 484.423334,263.307112 485.47929,265.177661 C486.535245,267.04821 487.063215,269.582465 487.063215,272.780501 L486.882195,302.196252 L471.676514,302.196252 L471.676514,271.784891 C471.676514,269.61264 471.254139,268.224834 470.409374,267.621431 C469.56461,267.018028 468.025955,266.716331 465.793364,266.716331 L465.793364,302.196252 L450.044624,302.196252 L450.044624,224.44816 Z M469.594784,253.230341 C471.767035,253.230341 472.853144,250.877104 472.853144,246.170561 C472.853144,244.11899 472.762635,242.580336 472.581614,241.55455 C472.400594,240.528765 472.068727,239.819777 471.586004,239.427565 C471.103282,239.035353 470.409379,238.83925 469.504274,238.83925 L465.883874,238.83925 L465.883874,253.230341 L469.594784,253.230341 Z" id="entrepreneur" fill="#000000"></path>
        <path d="M363.839844,433 L363.839844,350 L381.036526,350 L388.711882,389.712456 L388.711882,350 L404.839844,350 L404.839844,433 L388.517569,433 L380.162119,391.451688 L380.162119,433 L363.839844,433 Z M417.061542,426.904 C413.580392,422.83998 411.839844,417.128037 411.839844,409.768 L411.839844,370.504 C411.839844,363.399964 413.580392,358.040018 417.061542,354.424 C420.542691,350.807982 425.635408,349 432.339844,349 C439.04428,349 444.136996,350.807982 447.618146,354.424 C451.099295,358.040018 452.839844,363.399964 452.839844,370.504 L452.839844,409.768 C452.839844,417.192037 451.099295,422.91998 447.618146,426.952 C444.136996,430.98402 439.04428,433 432.339844,433 C425.635408,433 420.542691,430.96802 417.061542,426.904 Z M435.04972,416.067979 C435.576472,414.779958 435.839844,412.976756 435.839844,410.658318 L435.839844,370.085868 C435.839844,368.282639 435.592933,366.817537 435.099103,365.690519 C434.605273,364.563501 433.601168,364 432.086757,364 C429.255467,364 427.839844,366.093002 427.839844,370.27907 L427.839844,410.754919 C427.839844,413.137758 428.136137,414.94096 428.728733,416.16458 C429.321328,417.388199 430.407737,418 431.987992,418 C433.502403,418 434.522969,417.355999 435.04972,416.067979 Z M466.605801,433 L466.605801,365.942957 L456.839844,365.942957 L456.839844,350 L492.839844,350 L492.839844,365.942957 L483.073886,365.942957 L483.073886,433 L466.605801,433 Z M497.839844,433 L497.839844,350 L530.786323,350 L530.786323,366.039581 L514.600407,366.039581 L514.600407,382.175786 L530.1159,382.175786 L530.1159,397.828871 L514.600407,397.828871 L514.600407,416.863795 L531.839844,416.863795 L531.839844,433 L497.839844,433 Z M575.839844,445 L575.839844,454 L363.839844,454 L363.839844,445 L575.839844,445 Z M554.122504,349 C561.653816,349 567.074982,350.96798 570.386162,354.904 C573.697342,358.84002 575.352908,364.999958 575.352908,373.384 L558.310153,373.384 L558.212765,367.72 C558.212765,366.631995 557.904376,365.768003 557.287587,365.128 C556.670799,364.487997 555.810554,364.168 554.706827,364.168 C553.408325,364.168 552.434463,364.519996 551.785212,365.224 C551.135961,365.928004 550.81134,366.887994 550.81134,368.104 C550.81134,370.792013 552.369519,373.575986 555.485925,376.456 L565.224642,385.672 C567.497021,387.848011 569.37982,389.91199 570.873098,391.864 C572.366375,393.81601 573.567472,396.119987 574.476423,398.776 C575.385375,401.432013 575.839844,404.583982 575.839844,408.232 C575.839844,416.360041 574.330358,422.519979 571.31134,426.712 C568.292323,430.904021 563.309396,433 556.362409,433 C548.766172,433 543.280082,431.144019 539.903977,427.432 C536.527871,423.719981 534.839844,417.736041 534.839844,409.48 L534.839844,401.416 L551.298276,401.416 L551.298276,411.688 C551.298276,415.78402 552.629221,417.832 555.29115,417.832 C556.784428,417.832 557.823214,417.400004 558.40754,416.536 C558.991866,415.671996 559.284024,414.21601 559.284024,412.168 C559.284024,409.479987 558.959404,407.256009 558.310153,405.496 C557.660901,403.735991 556.833119,402.264006 555.82678,401.08 C554.82044,399.895994 553.018796,398.056012 550.421791,395.56 L543.215141,388.456 C537.631581,383.079973 534.839844,377.128033 534.839844,370.6 C534.839844,363.559965 536.479178,358.200018 539.757896,354.52 C543.036614,350.839982 547.824769,349 554.122504,349 Z" id="notes" fill="#000000"></path>
        <path d="M287.839844,445 L287.839844,454 L1.83984375,454 L1.83984375,445 L287.839844,445 Z M267.069478,348 C272.671183,348 276.966872,349.130487 279.956546,351.391462 C282.94622,353.652437 285.007521,356.949033 286.14045,361.28125 C287.273379,365.613467 287.839844,370.894345 287.839844,377.123884 L287.839844,377.123884 L271.601194,377.123884 L271.601194,369.72433 L271.596865,369.313571 C271.562229,367.691306 271.319778,366.318274 270.869511,365.194475 C270.381722,363.977028 269.366807,363.368304 267.824764,363.368304 C265.905079,363.368304 264.638401,364.016555 264.024731,365.313058 C263.411062,366.609561 263.104227,368.032552 263.104227,369.582031 L263.104227,369.582031 L263.104227,410.042411 L263.108108,410.485857 C263.144334,412.529202 263.43414,414.207558 263.977526,415.520926 C264.559726,416.928106 265.700522,417.631696 267.399916,417.631696 C269.16225,417.631696 270.334517,416.928106 270.916716,415.520926 C271.498916,414.113746 271.790016,412.255952 271.790016,409.947545 L271.790016,409.947545 L271.790016,398.041853 L267.35271,398.041853 L267.35271,383.62221 L287.651022,383.62221 L287.651022,432.241071 L280.995064,432.241071 L278.162742,425.220982 L277.971555,425.555524 C275.068291,430.518508 270.568833,433 264.473183,433 C252.608898,433 246.676756,424.462054 246.676756,407.386161 L246.676756,407.386161 L246.676756,371.384487 L246.678795,370.919135 C246.813387,355.639712 253.610281,348 267.069478,348 Z M16.0784932,348.758929 L20.6574146,401.457031 L25.3307469,348.758929 L40.8141103,348.758929 L45.2514156,401.457031 L49.688721,348.758929 L66.1161919,348.758929 L57.0527597,432.241071 L37.1320909,432.241071 L32.9780178,392.06529 L29.0127662,432.241071 L8.76165985,432.241071 L-0.16015625,348.758929 L16.0784932,348.758929 Z M96.5636595,348.758929 L97.0148803,348.762649 C101.040102,348.829624 104.099661,349.800761 106.193556,351.67606 C108.365004,353.620815 109.820503,356.340309 110.560054,359.834542 C111.299604,363.328776 111.66938,367.431734 111.66938,372.143415 C111.66938,376.696987 111.095048,380.333519 109.946384,383.053013 C108.79772,385.772507 106.63414,387.654018 103.455644,388.697545 C106.067675,389.235119 107.900817,390.539528 108.955071,392.61077 C110.009324,394.682013 110.536451,397.361979 110.536451,400.65067 L110.536451,400.65067 L110.536451,432.241071 L94.1561853,432.241071 L94.1561853,399.55971 L94.1533744,399.24736 C94.1121478,396.995262 93.6174283,395.589427 92.669216,395.029855 C91.6779031,394.444847 90.0807879,394.152344 87.8778703,394.152344 L87.8778703,394.152344 L87.8778703,432.241071 L71.0727564,432.241071 L71.0727564,348.758929 L96.5636595,348.758929 Z M132.439745,348.758929 L132.439745,432.241071 L116.389918,432.241071 L116.389918,348.758929 L132.439745,348.758929 Z M172.658726,348.758929 L172.658726,364.791295 L162.792802,364.791295 L162.792802,432.241071 L146.17651,432.241071 L146.17651,364.791295 L136.310586,364.791295 L136.310586,348.758929 L172.658726,348.758929 Z M192.579395,348.758929 L192.579395,432.241071 L176.529567,432.241071 L176.529567,348.758929 L192.579395,348.758929 Z M216.276493,348.758929 L223.923764,388.744978 L223.923764,348.758929 L239.973592,348.758929 L239.973592,432.241071 L223.734943,432.241071 L215.426797,390.5 L215.426797,432.241071 L199.188147,432.241071 L199.188147,348.758929 L216.276493,348.758929 Z M91.8431219,364.222098 L87.9722811,364.222098 L87.9722811,379.685268 L91.984738,379.685268 C94.2820663,379.685268 95.4307305,377.171317 95.4307305,372.143415 C95.4307305,368.886347 95.1789685,366.75186 94.6754445,365.739955 C94.1719205,364.728051 93.2278129,364.222098 91.8431219,364.222098 L91.8431219,364.222098 Z" id="writing" fill="#000000"></path>
        <path d="M929.84,382.23 L968.563484,406.559746 C969.50019,407.148266 970.692111,407.14663 971.627195,406.555542 L1009.839,382.4 L1009.83984,422.003802 C1009.83984,423.658556 1008.5015,425 1006.84976,425 L932.829931,425 C931.178551,425 929.839844,423.651688 929.839844,422.003802 L929.84,382.23 Z M1006.84976,367 C1008.50114,367 1009.83984,368.348312 1009.83984,369.996198 L1009.839,375.612 L970.08734,400.741232 L929.84,375.454 L929.839844,369.996198 C929.839844,368.341444 931.178188,367 932.829931,367 L1006.84976,367 Z" id="email" fill="#000000"></path>
        <path d="M712.673858,379.448438 C712.725254,380.170313 712.725254,380.892188 712.725254,381.614063 C712.725254,403.63125 696.021574,429 665.492386,429 C656.086929,429 647.349619,426.267188 640,421.523438 C641.336294,421.678125 642.621193,421.729688 644.008883,421.729688 C651.76967,421.729688 658.913706,419.1 664.618655,414.614063 C657.320431,414.459375 651.204315,409.664063 649.097081,403.064063 C650.125,403.21875 651.152919,403.321875 652.232234,403.321875 C653.722716,403.321875 655.213198,403.115625 656.600888,402.754688 C648.994289,401.207813 643.28934,394.504688 643.28934,386.409375 L643.28934,386.203125 C645.499365,387.440625 648.069162,388.214063 650.793147,388.317188 C646.321701,385.326563 643.392132,380.221875 643.392132,374.446875 C643.392132,371.353125 644.214467,368.517188 645.653553,366.042188 C653.825508,376.148438 666.109137,382.748438 679.883249,383.470313 C679.626269,382.232813 679.472081,380.94375 679.472081,379.654688 C679.472081,370.476563 686.873096,363 696.07297,363 C700.852792,363 705.170051,365.010938 708.202411,368.259375 C711.954315,367.5375 715.55203,366.145312 718.738579,364.2375 C717.505076,368.104688 714.883883,371.353125 711.440355,373.415625 C714.781091,373.054688 718.019036,372.126563 721,370.8375 C718.738579,374.1375 715.911802,377.076563 712.673858,379.448438 L712.673858,379.448438 Z" id="twitter" fill="#000000" fill-rule="nonzero"></path>
        <path d="M824.470968,356 C801.540726,356 784,373.419087 784,396.363317 C784,414.708775 795.539516,430.407458 812.022177,435.932601 C814.138306,436.313074 814.882258,435.006229 814.882258,433.930977 C814.882258,432.905352 814.832661,427.247871 814.832661,423.773979 C814.832661,423.773979 803.260081,426.25533 800.829839,418.84436 C800.829839,418.84436 798.945161,414.030539 796.233871,412.789863 C796.233871,412.789863 792.447984,410.192715 796.498387,410.242342 C796.498387,410.242342 800.614919,410.573189 802.879839,414.510267 C806.500403,420.895611 812.567742,419.059411 814.931855,417.967616 C815.312097,415.320841 816.386694,413.484641 817.577016,412.392847 C808.335484,411.367221 799.01129,410.027292 799.01129,394.113558 C799.01129,389.564414 800.267742,387.28157 802.912903,384.370118 C802.483065,383.294866 801.077823,378.861518 803.342742,373.137867 C806.797984,372.062615 814.75,377.6043 814.75,377.6043 C818.056452,376.677929 821.610887,376.198201 825.132258,376.198201 C828.653629,376.198201 832.208065,376.677929 835.514516,377.6043 C835.514516,377.6043 843.466532,372.046073 846.921774,373.137867 C849.186694,378.87806 847.781452,383.294866 847.351613,384.370118 C849.996774,387.298113 851.616935,389.580956 851.616935,394.113558 C851.616935,410.076919 841.879435,411.350679 832.637903,412.392847 C834.158871,413.699692 835.448387,416.181043 835.448387,420.068494 C835.448387,425.643263 835.39879,432.54142 835.39879,433.897892 C835.39879,434.973145 836.159274,436.27999 838.258871,435.899516 C854.791129,430.407458 866,414.708775 866,396.363317 C866,373.419087 847.40121,356 824.470968,356 Z" id="github" fill="#000000" fill-rule="nonzero"></path>
        <path d="M1233.83984,435 L1217.83984,435 L1217.83984,383 L1233.83984,383 L1233.83984,435 L1233.83984,435 Z M1225.83984,376 C1220.87144,376 1216.83984,371.676226 1216.83984,366.456059 C1216.83984,361.235893 1220.87144,357 1225.83984,357 C1230.80825,357 1234.83984,361.235893 1234.83984,366.456059 C1234.83984,371.676226 1230.80825,376 1225.83984,376 Z M1293.82258,435 L1277.81774,435 L1277.81774,409.83105 C1277.81774,403.832681 1277.69689,396.140248 1269.47866,396.140248 C1261.13957,396.140248 1259.86194,402.657208 1259.86194,409.398891 L1259.86194,435 L1243.83984,435 L1243.83984,383.296477 L1259.22313,383.296477 L1259.22313,390.349315 L1259.44758,390.349315 C1261.58846,386.287019 1266.81982,382 1274.62368,382 C1290.85297,382 1293.83984,392.700261 1293.83984,406.5985 L1293.83984,435 L1293.82258,435 Z" id="linkedin" fill="#000000" fill-rule="nonzero"></path>
        <path d="M1151.18073,380.696623 C1151.233,380.736963 1151.31372,380.804906 1151.39336,380.876387 C1151.44757,380.925233 1151.56746,381.046601 1151.56746,381.046601 C1151.63571,381.114005 1151.70341,381.187529 1151.80301,381.302355 C1152.0046,381.560122 1152.06247,381.643742 1152.14061,381.764328 C1152.30759,382.04175 1152.3566,382.137786 1152.40738,382.246697 C1152.54689,382.56412 1152.57227,382.637372 1152.62064,382.786146 C1152.71931,383.118592 1152.74097,383.225319 1152.76745,383.377736 C1152.82641,383.76191 1152.83984,383.949776 1152.83984,384.137152 L1152.83984,407.861589 C1152.83984,408.048258 1152.82655,408.234904 1152.7981,408.457904 C1152.74011,408.77842 1152.71919,408.881807 1152.68987,408.991196 C1152.62467,409.200601 1152.61276,409.236885 1152.61276,409.236885 C1152.56208,409.389351 1152.53777,409.457265 1152.5062,409.535851 C1152.3599,409.854375 1152.31173,409.949339 1152.24599,410.064217 C1152.06702,410.349056 1152.00634,410.436522 1151.95996,410.496244 C1151.91132,410.56388 1151.87583,410.608478 1151.78338,410.720054 C1151.70113,410.814327 1151.63464,410.886613 1151.57511,410.944815 C1151.48413,411.038196 1151.44301,411.078709 1151.39538,411.120777 C1151.31846,411.190448 1151.23803,411.258222 1151.14533,411.331681 C1151.04902,411.406602 1151.00351,411.440831 1150.91383,411.502555 C1150.9301,411.494629 1115.28737,435.257859 1115.28737,435.257859 C1114.55693,435.744274 1113.70562,436 1112.83997,436 C1111.97345,436 1111.12151,435.744215 1110.39135,435.257552 L1074.81036,411.536857 C1074.65784,411.428069 1074.60935,411.39075 1074.53413,411.330916 C1074.44397,411.260517 1074.35909,411.188994 1074.30025,411.134279 C1074.24128,411.082874 1074.113,410.953912 1074.113,410.953912 C1074.04082,410.882624 1073.96968,410.804672 1073.88813,410.709383 C1073.82195,410.631482 1073.77176,410.568942 1073.73093,410.511875 C1073.66296,410.420902 1073.60046,410.330718 1073.55359,410.256022 C1073.51238,410.193274 1073.47273,410.129896 1073.4154,410.032842 C1073.36634,409.944103 1073.32113,409.854975 1073.27407,409.756243 C1073.21969,409.643966 1073.19774,409.596435 1073.17007,409.527427 C1073.13102,409.429808 1073.10605,409.357125 1073.06214,409.221535 C1072.96352,408.892968 1072.94837,408.818578 1072.92054,408.666799 C1072.85361,408.245863 1072.83984,408.053686 1072.83984,407.861589 L1072.83984,384.137152 C1072.83984,383.945486 1072.85373,383.753454 1072.87924,383.565181 C1072.94837,383.179911 1072.96352,383.105521 1072.99547,382.98547 C1073.10473,382.644844 1073.13232,382.565032 1073.17163,382.469203 C1073.20198,382.394172 1073.22681,382.340505 1073.27115,382.24887 C1073.3236,382.13807 1073.37064,382.045883 1073.42438,381.952248 C1073.60021,381.668353 1073.66348,381.577056 1073.73317,381.484138 C1073.78354,381.417201 1073.83463,381.352862 1073.88909,381.288482 C1073.96478,381.19963 1074.03873,381.118775 1074.10625,381.051957 C1074.19969,380.956766 1074.24309,380.914589 1074.28393,380.878985 C1074.36397,380.806281 1074.44771,380.735804 1074.49972,380.696371 C1074.61699,380.602421 1074.6617,380.567971 1074.76858,380.494283 C1074.74821,380.505159 1110.39135,356.741439 1110.39135,356.741439 C1111.87424,355.752854 1113.80469,355.752854 1115.28758,356.741439 L1150.87169,380.464031 C1151.14071,380.664194 1151.14071,380.664194 1151.18073,380.696623 Z M1149.83984,410.004207 L1149.8446,410.000443 C1149.84351,410.001275 1149.84188,410.002581 1149.83984,410.004207 Z M1149.83984,382 C1149.84197,382.00172 1149.8435,382.002964 1149.8454,382.004413 C1149.84499,382.004087 1149.83984,382 1149.83984,382 Z M1117.83984,382.023132 L1131.1475,391 L1140.83984,384.461376 L1117.83984,369 L1117.83984,382.023132 Z M1085.83984,384.46134 L1095.533,391 L1108.83984,382.023149 L1108.83984,369 L1085.83984,384.46134 Z M1081.83984,399 L1086.83984,395.499843 L1081.83984,392 L1081.83984,399 Z M1109.84008,424 L1109.83984,425 L1109.84008,424 Z M1108.83984,409.975966 L1095.53287,401 L1085.83984,407.537157 L1108.83984,423 L1108.83984,409.975966 Z M1122.83984,395.499897 L1112.84016,389 L1102.83984,395.499897 L1112.84016,402 L1122.83984,395.499897 Z M1140.83984,407.537164 L1131.14764,401 L1117.83984,409.976047 L1117.83984,423 L1140.83984,407.537164 Z M1143.83984,392 L1138.83984,395.499843 L1143.83984,399 L1143.83984,392 Z" id="codepen" fill="#000000" fill-rule="nonzero"></path>
    </g>
</svg>