<?xml version="1.0" encoding="UTF-8"?>
<svg width="1298px" height="453px" viewBox="0 0 1298 453" version="1.1" xmlns="http://www.w3.org/2000/svg" xmlns:xlink="http://www.w3.org/1999/xlink">
    <title>landscape (2024-02)</title>
    <g id="landscape-(2024-02)" stroke="none" stroke-width="1" fill="none" fill-rule="evenodd">
        <path d="M1227.95691,361.409174 C1223.9566,361.409174 1220.71107,364.654705 1220.71107,368.655011 C1220.71107,370.934431 1221.78285,373.077991 1223.6094,374.451681 L1256.4572,399.087528 C1258.17809,400.370645 1260.53298,400.370645 1262.25387,399.087528 L1295.10167,374.451681 C1296.92822,373.077991 1298,370.934431 1298,368.655011 C1298,364.654705 1294.75447,361.409174 1290.75416,361.409174 L1227.95691,361.409174 Z M1220.71107,378.316128 L1220.71107,409.714757 C1220.71107,415.043466 1225.04347,419.375873 1230.37218,419.375873 L1288.33888,419.375873 C1293.66759,419.375873 1298,415.043466 1298,409.714757 L1298,378.316128 L1265.1522,402.951975 C1261.71043,405.533305 1257.00064,405.533305 1253.55886,402.951975 L1220.71107,378.316128 Z" id="email" fill="#000000" fill-rule="nonzero"></path>
        <path d="M1142.83534,356.139474 L1084.10053,356.139474 C1081.40922,356.139474 1079.22253,358.356747 1079.22253,361.078641 L1079.22253,419.706406 C1079.22253,422.4283 1081.40922,424.645573 1084.10053,424.645573 L1142.83534,424.645573 C1145.52665,424.645573 1147.72863,422.4283 1147.72863,419.706406 L1147.72863,361.078641 C1147.72863,358.356747 1145.52665,356.139474 1142.83534,356.139474 Z M1099.92728,414.858987 L1089.77369,414.858987 L1089.77369,382.165675 L1099.94257,382.165675 L1099.94257,414.858987 L1099.92728,414.858987 Z M1094.85049,377.700545 C1091.59339,377.700545 1088.96324,375.055109 1088.96324,371.813303 C1088.96324,368.571496 1091.59339,365.92606 1094.85049,365.92606 C1098.09229,365.92606 1100.73773,368.571496 1100.73773,371.813303 C1100.73773,375.070401 1098.10758,377.700545 1094.85049,377.700545 L1094.85049,377.700545 Z M1137.98792,414.858987 L1127.83434,414.858987 L1127.83434,398.955786 C1127.83434,395.163484 1127.75788,390.285483 1122.55876,390.285483 C1117.26788,390.285483 1116.45743,394.414199 1116.45743,398.680538 L1116.45743,414.858987 L1106.30385,414.858987 L1106.30385,382.165675 L1116.04456,382.165675 L1116.04456,386.630805 L1116.18218,386.630805 C1117.54313,384.061826 1120.8614,381.355223 1125.80056,381.355223 C1136.07648,381.355223 1137.98792,388.129376 1137.98792,396.937303 L1137.98792,414.858987 L1137.98792,414.858987 Z" id="linkedin" fill="#000000" fill-rule="nonzero"></path>
        <path d="M977.879107,349.113512 C979.71543,349.113512 981.449735,349.461957 983.031013,350.108496 L982.903442,350.055885 C982.931024,350.049036 982.956568,350.049917 982.980005,350.058762 C987.978884,352.048112 991.498503,356.822552 991.498503,362.392731 C991.498503,366.819035 989.254108,370.698267 985.836507,373.13522 L995.681238,379.451406 C995.681238,381.589957 995.171148,383.280905 994.150969,385.121053 L985.479444,385.121053 C985.68348,388.900818 984.102202,398.051827 998.333705,408.645115 C1003.33258,412.375146 1006.2401,418.641598 1006.2401,426.300595 C1006.2401,426.648731 1005.47496,431.671839 977.879107,431.671839 C950.283255,431.671839 949.51812,426.648731 949.51812,426.300595 C949.51812,423.167369 950.02821,420.233078 950.895362,417.646923 C950.92939,417.55122 950.974801,417.462982 951.031036,417.38176 C952.380259,413.797095 954.539871,410.801383 957.42451,408.645115 C968.331106,400.549915 969.963384,393.285146 970.205617,388.628186 C970.185823,388.525029 970.176753,388.416568 970.176753,388.304013 C970.176753,387.010935 970.176753,385.966527 970.227762,385.121053 L961.556237,385.121053 C960.536058,383.280905 960.025968,381.589957 960.025968,379.451406 L969.870699,373.085487 C966.453098,370.698267 964.208703,366.769301 964.208703,362.342997 C964.208703,355.032137 970.32978,349.064087 977.879107,349.113512 Z" id="chess-com" fill="#000000" fill-rule="nonzero"></path>
        <path d="M820.182942,415.589297 C820.182942,415.930726 819.7903,416.203868 819.295229,416.203868 C818.731872,416.255082 818.339229,415.98194 818.339229,415.589297 C818.339229,415.247869 818.731872,414.974726 819.226943,414.974726 C819.739085,414.923512 820.182942,415.196655 820.182942,415.589297 Z M814.873732,414.821084 C814.754232,415.162512 815.095661,415.555154 815.607803,415.657583 C816.05166,415.828297 816.563802,415.657583 816.666231,415.316155 C816.768659,414.974726 816.444302,414.582084 815.93216,414.428441 C815.488303,414.308941 814.993232,414.479655 814.873732,414.821084 Z M822.419298,414.53087 C821.924227,414.650369 821.582798,414.974726 821.634013,415.367369 C821.685227,415.708797 822.129084,415.930726 822.641226,415.811226 C823.136297,415.691726 823.477725,415.367369 823.426511,415.025941 C823.375297,414.701584 822.914369,414.479655 822.419298,414.53087 Z M833.652289,349.113208 C809.974236,349.113208 791.861465,367.089407 791.861465,390.76746 C791.861465,409.699659 803.777313,425.900432 820.797513,431.602284 C822.982654,431.994927 823.750868,430.646285 823.750868,429.536643 C823.750868,428.478215 823.699654,422.639792 823.699654,419.054794 C823.699654,419.054794 811.749663,421.615507 809.240165,413.967513 C809.240165,413.967513 807.294024,408.999731 804.494312,407.719375 C804.494312,407.719375 800.584958,405.039163 804.767455,405.090377 C804.767455,405.090377 809.018237,405.431805 811.357021,409.494802 C815.095661,416.084368 821.36087,414.189441 823.802082,413.062728 C824.194725,410.331301 825.304367,408.436374 826.533509,407.309661 C816.990588,406.251233 807.36231,404.868449 807.36231,388.445748 C807.36231,383.751108 808.659737,381.395253 811.391164,378.390684 C810.947307,377.281042 809.496237,372.705903 811.83502,366.799193 C815.402946,365.689551 823.614297,371.408475 823.614297,371.408475 C827.02858,370.452476 830.698934,369.957405 834.335145,369.957405 C837.971357,369.957405 841.641711,370.452476 845.055994,371.408475 C845.055994,371.408475 853.267344,365.67248 856.83527,366.799193 C859.174054,372.722974 857.722984,377.281042 857.279127,378.390684 C860.010553,381.412325 861.683552,383.76818 861.683552,388.445748 C861.683552,404.919663 851.628489,406.234162 842.085568,407.309661 C843.656138,408.658303 844.987708,411.219015 844.987708,415.230798 C844.987708,420.983864 844.936494,428.102644 844.936494,429.5025 C844.936494,430.612142 845.721779,431.960784 847.889849,431.568142 C864.961264,425.900432 876.535683,409.699659 876.535683,390.76746 C876.535683,367.089407 857.330341,349.113208 833.652289,349.113208 Z M808.45488,407.992518 C808.232952,408.163232 808.284166,408.555874 808.57438,408.880231 C808.847523,409.153374 809.240165,409.272874 809.462094,409.050945 C809.684022,408.880231 809.632808,408.487589 809.342594,408.163232 C809.069451,407.890089 808.676809,407.770589 808.45488,407.992518 Z M806.611167,406.609733 C806.491667,406.831661 806.662382,407.104804 807.00381,407.275518 C807.276953,407.446232 807.618381,407.395018 807.737881,407.156018 C807.857381,406.93409 807.686667,406.660947 807.345238,406.490233 C807.00381,406.387805 806.730667,406.439019 806.611167,406.609733 Z M812.142306,412.687157 C811.869163,412.909085 811.971592,413.421228 812.364234,413.745584 C812.756877,414.138227 813.251948,414.189441 813.473876,413.916299 C813.695805,413.69437 813.593376,413.182228 813.251948,412.857871 C812.876377,412.465228 812.364234,412.414014 812.142306,412.687157 Z M810.196165,410.177659 C809.923022,410.348373 809.923022,410.79223 810.196165,411.184872 C810.469307,411.577515 810.930235,411.748229 811.152164,411.577515 C811.425306,411.355586 811.425306,410.91173 811.152164,410.519087 C810.913164,410.126444 810.469307,409.95573 810.196165,410.177659 Z" id="github" fill="#000000" fill-rule="nonzero"></path>
        <path d="M8.56374457,429.58522 L0,349.838181 L15.5869213,349.838181 L19.9820707,400.178499 L24.4678416,349.838181 L39.3297899,349.838181 L43.5890068,400.178499 L47.8482236,349.838181 L63.6163883,349.838181 L54.9167112,429.58522 L35.7955461,429.58522 L31.8081941,391.206957 L28.0020854,429.58522 L8.56374457,429.58522 Z M68.3740241,429.58522 L68.3740241,349.838181 L92.8418658,349.838181 C96.9198394,349.838181 100.000975,350.767052 102.085273,352.624796 C104.16957,354.482539 105.566654,357.08036 106.276523,360.418257 C106.986393,363.756154 107.341327,367.675539 107.341327,372.176414 C107.341327,376.526252 106.790046,380.000082 105.687483,382.597902 C104.584919,385.195722 102.508174,386.993051 99.4572452,387.989889 C101.964444,388.503412 103.724014,389.749459 104.735955,391.728032 C105.747897,393.706604 106.253868,396.266665 106.253868,399.408215 L106.253868,429.58522 L90.5310141,429.58522 L90.5310141,398.366067 C90.5310141,396.040111 90.0552505,394.597717 89.1037233,394.038883 C88.1521961,393.48005 86.6191801,393.200633 84.5046753,393.200633 L84.5046753,429.58522 L68.3740241,429.58522 Z M84.5952969,379.380834 L88.4467164,379.380834 C90.6518429,379.380834 91.7544061,376.979361 91.7544061,372.176414 C91.7544061,369.065071 91.5127484,367.026084 91.0294331,366.059453 C90.5461177,365.092823 89.6399013,364.609507 88.310784,364.609507 L84.5952969,364.609507 L84.5952969,379.380834 Z M111.872409,429.58522 L111.872409,349.838181 L127.278087,349.838181 L127.278087,429.58522 L111.872409,429.58522 Z M140.463535,429.58522 L140.463535,365.153237 L130.993574,365.153237 L130.993574,349.838181 L165.882904,349.838181 L165.882904,365.153237 L156.412943,365.153237 L156.412943,429.58522 L140.463535,429.58522 Z M169.598391,429.58522 L169.598391,349.838181 L185.004069,349.838181 L185.004069,429.58522 L169.598391,429.58522 Z M191.347584,429.58522 L191.347584,349.838181 L207.7501,349.838181 L215.090452,388.0352 L215.090452,349.838181 L230.49613,349.838181 L230.49613,429.58522 L214.909209,429.58522 L206.934505,389.7117 L206.934505,429.58522 L191.347584,429.58522 Z M254.012445,430.310193 C242.624326,430.310193 236.930267,422.154246 236.930267,405.842351 L236.930267,371.451441 C236.930267,356.559285 243.455024,349.113208 256.50454,349.113208 C261.881424,349.113208 266.004708,350.193115 268.874393,352.352931 C271.744078,354.512747 273.722651,357.661849 274.81011,361.800237 C275.89757,365.938625 276.4413,370.983229 276.4413,376.93405 L260.854378,376.93405 L260.854378,369.865562 C260.854378,368.143751 260.620272,366.701357 260.152061,365.538379 C259.683849,364.375401 258.709666,363.793913 257.229513,363.793913 C255.386873,363.793913 254.171033,364.41316 253.581992,365.651656 C252.992951,366.890152 252.698431,368.249476 252.698431,369.72963 L252.698431,408.379757 C252.698431,410.524469 252.977848,412.268936 253.536681,413.613157 C254.095515,414.957378 255.190526,415.629488 256.821716,415.629488 C258.513319,415.629488 259.638538,414.957378 260.197371,413.613157 C260.756205,412.268936 261.035622,410.494262 261.035622,408.289136 L261.035622,396.91612 L256.776405,396.91612 L256.776405,383.141632 L276.260056,383.141632 L276.260056,429.58522 L269.871231,429.58522 L267.152582,422.879219 C264.373519,427.833202 259.993473,430.310193 254.012445,430.310193 Z M0,441.420827 L276.43797,441.420827 L276.43797,452.750639 L0,452.750639 Z" id="writing" fill="#000000" fill-rule="nonzero"></path>
        <path d="M349.423737,429.58522 L349.423737,349.838181 L365.826253,349.838181 L373.166605,388.0352 L373.166605,349.838181 L388.572283,349.838181 L388.572283,429.58522 L372.985362,429.58522 L365.010658,389.7117 L365.010658,429.58522 L349.423737,429.58522 Z M414.671314,430.310193 C408.297593,430.310193 403.42668,428.384483 400.058576,424.533064 C396.690472,420.681644 395.00642,415.115966 395.00642,407.836027 L395.00642,369.956184 C395.00642,363.129354 396.675368,357.948817 400.013265,354.414573 C403.351162,350.880329 408.237178,349.113208 414.671314,349.113208 C421.105451,349.113208 425.991467,350.880329 429.329364,354.414573 C432.667261,357.948817 434.336209,363.129354 434.336209,369.956184 L434.336209,407.836027 C434.336209,415.115966 432.652157,420.681644 429.284053,424.533064 C425.915949,428.384483 421.045036,430.310193 414.671314,430.310193 Z M414.807247,415.629488 C417.223824,415.629488 418.432112,413.288429 418.432112,408.606311 L418.432112,369.684319 C418.432112,365.757381 417.254031,363.793913 414.897869,363.793913 C412.239634,363.793913 410.910517,365.802692 410.910517,369.820251 L410.910517,408.696933 C410.910517,411.173924 411.212589,412.948598 411.816733,414.020954 C412.420877,415.09331 413.417715,415.629488 414.807247,415.629488 Z M447.612279,429.58522 L447.612279,365.153237 L438.142318,365.153237 L438.142318,349.838181 L473.031648,349.838181 L473.031648,365.153237 L463.561687,365.153237 L463.561687,429.58522 L447.612279,429.58522 Z M477.472108,429.58522 L477.472108,349.838181 L509.370924,349.838181 L509.370924,365.243859 L493.693381,365.243859 L493.693381,380.785469 L508.736572,380.785469 L508.736572,395.78335 L493.693381,395.78335 L493.693381,414.04361 L510.413073,414.04361 L510.413073,429.58522 L477.472108,429.58522 Z M534.609049,430.310193 C527.329111,430.310193 522.080608,428.49776 518.86354,424.872895 C515.646472,421.24803 514.037938,415.478452 514.037938,407.564163 L514.037938,399.770702 L529.806103,399.770702 L529.806103,409.739082 C529.806103,411.581722 530.085519,413.024116 530.644353,414.066265 C531.203186,415.108414 532.177369,415.629488 533.5669,415.629488 C535.016847,415.629488 536.021236,415.206587 536.58007,414.360785 C537.138903,413.514983 537.41832,412.125452 537.41832,410.19219 C537.41832,407.745406 537.176662,405.698867 536.693347,404.052574 C536.210032,402.406281 535.371781,400.835506 534.178597,399.340249 C532.985412,397.844992 531.331567,396.100526 529.217062,394.10685 L522.057953,387.310227 C516.711276,382.265623 514.037938,376.496045 514.037938,370.001495 C514.037938,363.204872 515.616265,358.024335 518.772918,354.459884 C521.929572,350.895433 526.498413,349.113208 532.479441,349.113208 C539.789586,349.113208 544.977675,351.061573 548.043707,354.958303 C551.109739,358.855033 552.642755,364.775647 552.642755,372.720144 L536.421482,372.720144 L536.421482,367.237535 C536.421482,366.150075 536.111858,365.304273 535.49261,364.700129 C534.873362,364.095985 534.035112,363.793913 532.97786,363.793913 C531.709157,363.793913 530.780285,364.148847 530.191245,364.858717 C529.602204,365.568586 529.307684,366.482354 529.307684,367.600021 C529.307684,368.717688 529.609756,369.925977 530.2139,371.224887 C530.818044,372.523797 532.011229,374.019054 533.793455,375.710658 L542.991551,384.546267 C544.834191,386.298285 546.525794,388.148477 548.066362,390.096842 C549.60693,392.045207 550.845426,394.310748 551.781849,396.893465 C552.718273,399.476182 553.186485,402.625283 553.186485,406.34077 C553.186485,413.832159 551.804505,419.69991 549.040545,423.944023 C546.276585,428.188136 541.466086,430.310193 534.609049,430.310193 Z M349.423737,441.420827 L553.190405,441.420827 L553.190405,452.750639 L349.423737,452.750639 Z" id="notes" fill="#000000" fill-rule="nonzero"></path>
        <path d="M635.642803,429.58522 L635.642803,365.153237 L626.172842,365.153237 L626.172842,349.838181 L661.062171,349.838181 L661.062171,365.153237 L651.59221,365.153237 L651.59221,429.58522 L635.642803,429.58522 Z M664.777658,429.58522 L664.777658,349.838181 L680.183336,349.838181 L680.183336,429.58522 L664.777658,429.58522 Z M686.526851,429.58522 L686.526851,349.838181 L702.476259,349.838181 L702.476259,415.991975 L718.878775,415.991975 L718.878775,429.58522 L686.526851,429.58522 Z M626.172842,441.420827 L718.879028,441.420827 L718.879028,452.750639 L626.172842,452.750639 Z" id="til" fill="#000000" fill-rule="nonzero"></path>
        <path d="M534.742255,223.729761 L556.25473,223.729761 C561.821981,223.729761 565.997356,225.280486 568.780981,228.381984 C571.564606,231.483482 572.986655,236.074846 573.047168,242.156214 L573.228708,278.826682 C573.289222,286.55002 571.957942,292.357639 569.234831,296.249715 C566.511719,300.141791 562.003524,302.087799 555.71011,302.087799 L534.742255,302.087799 L534.742255,223.729761 Z M553.168552,288.222349 C556.012691,288.222349 557.434739,286.823655 557.434739,284.026226 L557.434739,243.615735 C557.434739,241.852139 557.298586,240.529461 557.026274,239.647662 C556.753963,238.765864 556.254734,238.17294 555.52857,237.868871 C554.802407,237.564803 553.682923,237.412771 552.170083,237.412771 L550.445454,237.412771 L550.445454,288.222349 L553.168552,288.222349 Z M579.491834,302.087799 L579.491834,223.729761 L610.716692,223.729761 L610.716692,238.872292 L595.376572,238.872292 L595.376572,254.106043 L610.081302,254.106043 L610.081302,268.883694 L595.376572,268.883694 L595.376572,286.854048 L611.715161,286.854048 L611.715161,302.087799 L579.491834,302.087799 Z M624.059872,302.087799 L614.438259,223.63854 L629.324528,223.63854 L635.043034,277.002281 L640.126151,223.63854 L655.01242,223.63854 L645.390807,302.087799 L624.059872,302.087799 Z M659.460147,302.087799 L659.460147,223.729761 L690.685005,223.729761 L690.685005,238.872292 L675.344886,238.872292 L675.344886,254.106043 L690.049616,254.106043 L690.049616,268.883694 L675.344886,268.883694 L675.344886,286.854048 L691.683475,286.854048 L691.683475,302.087799 L659.460147,302.087799 Z M696.857361,302.087799 L696.857361,223.729761 L712.46979,223.729761 L712.46979,288.769669 L728.536069,288.769669 L728.536069,302.087799 L696.857361,302.087799 Z M737.159212,297.025086 C733.891478,293.163417 732.257636,287.735877 732.257636,280.742303 L732.257636,243.433295 C732.257636,236.682977 733.891478,231.589907 737.159212,228.153934 C740.426947,224.717961 745.207449,223 751.500862,223 C757.794276,223 762.574778,224.717961 765.842512,228.153934 C769.110246,231.589907 770.744089,236.682977 770.744089,243.433295 L770.744089,280.742303 C770.744089,287.796691 769.110246,293.239434 765.842512,297.070696 C762.574778,300.901958 757.794276,302.81756 751.500862,302.81756 C745.207449,302.81756 740.426947,300.886754 737.159212,297.025086 Z M754.31473,286.580388 C754.798839,285.364114 755.04089,283.661356 755.04089,281.472064 L755.04089,243.159635 C755.04089,241.456852 754.813967,240.073361 754.360115,239.009122 C753.906263,237.944883 752.983445,237.412771 751.591632,237.412771 C748.989548,237.412771 747.688525,239.389186 747.688525,243.342075 L747.688525,281.563284 C747.688525,283.81339 747.960832,285.516148 748.505455,286.671608 C749.050077,287.827068 750.048536,288.404789 751.500862,288.404789 C752.892675,288.404789 753.830622,287.796661 754.31473,286.580388 Z M777.007214,223.729761 L797.61199,223.729761 C803.84489,223.729761 808.292572,225.751785 810.955171,229.795895 C813.617769,233.840005 814.949048,239.754047 814.949048,247.538198 C814.949048,255.32235 813.76905,261.190782 811.40902,265.143672 C809.04899,269.096561 804.813102,271.072976 798.701229,271.072976 L792.347334,271.072976 L792.347334,302.087799 L777.007214,302.087799 L777.007214,223.729761 Z M793.255033,256.933865 C795.130954,256.933865 796.507618,256.584192 797.385065,255.884835 C798.262512,255.185477 798.837383,254.182067 799.109694,252.874572 C799.382005,251.567078 799.518159,249.697086 799.518159,247.264538 C799.518159,243.980599 799.155082,241.608901 798.428919,240.149373 C797.702756,238.689844 796.250452,237.960091 794.071962,237.960091 L792.347334,237.960091 L792.347334,256.933865 L793.255033,256.933865 Z M819.850624,302.087799 L819.850624,223.729761 L851.075482,223.729761 L851.075482,238.872292 L835.735363,238.872292 L835.735363,254.106043 L850.440093,254.106043 L850.440093,268.883694 L835.735363,268.883694 L835.735363,286.854048 L852.073952,286.854048 L852.073952,302.087799 L819.850624,302.087799 Z M857.247838,223.729761 L881.211101,223.729761 C885.023457,223.729761 887.973451,224.596343 890.06117,226.329532 C892.148889,228.062722 893.555809,230.495233 894.281972,233.627138 C895.008135,236.759043 895.371211,240.757482 895.371211,245.622577 C895.371211,250.061976 894.796341,253.528304 893.646582,256.021665 C892.496824,258.515026 890.499905,260.24819 887.655766,261.221209 C890.015797,261.707718 891.72528,262.893567 892.784268,264.778791 C893.843256,266.664016 894.372742,269.218152 894.372742,272.441277 L894.191202,302.087799 L878.941853,302.087799 L878.941853,271.437856 C878.941853,269.248564 878.518264,267.84987 877.671074,267.241733 C876.823883,266.633596 875.28081,266.329532 873.041807,266.329532 L873.041807,302.087799 L857.247838,302.087799 L857.247838,223.729761 Z M876.854144,252.737742 C879.032633,252.737742 880.121862,250.366044 880.121862,245.622577 C880.121862,243.554912 880.031093,242.004186 879.849552,240.970353 C879.668011,239.936521 879.335191,239.221971 878.851083,238.826682 C878.366974,238.431393 877.671078,238.233751 876.763374,238.233751 L873.132577,238.233751 L873.132577,252.737742 L876.854144,252.737742 Z M923.509891,297.982896 C921.089347,294.638144 919.879094,290.290031 919.879094,284.938426 C919.879094,278.978686 920.726271,274.18968 922.420652,270.571266 C924.115033,266.952852 926.777591,263.775384 930.408406,261.038769 C927.44324,255.200655 925.960679,250.153195 925.960679,245.896237 C925.960679,241.456838 927.397856,237.975307 930.272251,235.451539 C933.146647,232.927771 936.853049,231.665906 941.391569,231.665906 C945.869575,231.665906 949.54572,232.866959 952.420116,235.269099 C955.294512,237.67124 956.731688,241.031145 956.731688,245.348917 C956.731688,251.67354 953.252208,257.602785 946.293145,263.13683 L949.107013,269.795895 C950.801394,265.295683 953.342927,261.798948 956.731688,259.305587 L962.904043,268.974914 C959.333741,271.772344 956.429133,276.394114 954.19013,282.840365 L962.087114,302.087799 L947.019305,302.087799 L945.385446,297.800456 C944.11466,299.320798 942.495946,300.56746 940.529254,301.540479 C938.562562,302.513498 936.42949,303 934.129974,303 C929.470427,303 925.930435,301.327649 923.509891,297.982896 Z M943.025427,251.825542 C943.630563,251.156591 944.175178,250.19879 944.659286,248.952109 C945.143395,247.705429 945.385446,246.504377 945.385446,245.348917 C945.385446,243.524506 944.508012,242.612315 942.753118,242.612315 C942.026955,242.612315 941.452084,242.870769 941.028489,243.387685 C940.604894,243.904602 940.393099,244.558339 940.393099,245.348917 C940.393099,246.930073 941.028483,249.362583 942.299268,252.646522 L943.025427,251.825542 Z M939.4854,290.2748 C940.272077,289.393002 940.786434,288.374388 941.028489,287.218928 L935.673063,274.265678 L935.128443,275.086659 C934.644334,275.816423 934.251002,276.971866 933.948434,278.553022 C933.645866,280.134177 933.494584,281.684903 933.494584,283.205245 L933.494584,283.661345 C933.494584,286.033079 933.676122,287.948681 934.039204,289.40821 C934.402285,290.867738 935.249463,291.597491 936.580762,291.597491 C937.73052,291.597491 938.698723,291.156599 939.4854,290.2748 Z M988.864245,223.729761 L1010.37672,223.729761 C1015.94397,223.729761 1020.11935,225.280486 1022.90297,228.381984 C1025.6866,231.483482 1027.10864,236.074846 1027.16916,242.156214 L1027.3507,278.826682 C1027.41121,286.55002 1026.07993,292.357639 1023.35682,296.249715 C1020.63371,300.141791 1016.12551,302.087799 1009.8321,302.087799 L988.864245,302.087799 L988.864245,223.729761 Z M1007.29054,288.222349 C1010.13468,288.222349 1011.55673,286.823655 1011.55673,284.026226 L1011.55673,243.615735 C1011.55673,241.852139 1011.42058,240.529461 1011.14826,239.647662 C1010.87595,238.765864 1010.37672,238.17294 1009.65056,237.868871 C1008.9244,237.564803 1007.80491,237.412771 1006.29207,237.412771 L1004.56744,237.412771 L1004.56744,288.222349 L1007.29054,288.222349 Z M1033.61382,302.087799 L1033.61382,223.729761 L1064.83868,223.729761 L1064.83868,238.872292 L1049.49856,238.872292 L1049.49856,254.106043 L1064.20329,254.106043 L1064.20329,268.883694 L1049.49856,268.883694 L1049.49856,286.854048 L1065.83715,286.854048 L1065.83715,302.087799 L1033.61382,302.087799 Z M1074.18799,297.526796 C1071.04128,293.999602 1069.46795,288.313608 1069.46795,280.468643 L1069.46795,272.806157 L1084.80807,272.806157 L1084.80807,282.566705 C1084.80807,286.45878 1086.04858,288.404789 1088.52963,288.404789 C1089.92145,288.404789 1090.88965,287.994303 1091.43427,287.173318 C1091.9789,286.352333 1092.2512,284.968843 1092.2512,283.022805 C1092.2512,280.46863 1091.94864,278.355387 1091.3435,276.68301 C1090.73837,275.010634 1089.96683,273.61194 1089.02887,272.486887 C1088.09091,271.361834 1086.41168,269.613467 1083.99114,267.241733 L1077.27416,260.491448 C1072.06999,255.383099 1069.46795,249.727511 1069.46795,243.524515 C1069.46795,236.83501 1070.99589,231.741941 1074.05183,228.245154 C1077.10777,224.748367 1081.57058,223 1087.4404,223 C1094.45997,223 1099.51278,224.869993 1102.59898,228.610034 C1105.68517,232.350076 1107.22824,238.203305 1107.22824,246.169897 L1091.3435,246.169897 L1091.25273,240.787913 C1091.25273,239.754081 1090.9653,238.933108 1090.39042,238.324971 C1089.81554,237.716835 1089.01375,237.412771 1087.98502,237.412771 C1086.77474,237.412771 1085.86705,237.747241 1085.26192,238.416192 C1084.65678,239.085142 1084.35422,239.997334 1084.35422,241.152794 C1084.35422,243.706968 1085.80652,246.352324 1088.71117,249.08894 L1097.78817,257.846066 C1099.90614,259.913731 1101.66101,261.874943 1103.05282,263.729761 C1104.44464,265.584578 1105.56412,267.773838 1106.41131,270.297605 C1107.2585,272.821373 1107.68209,275.816402 1107.68209,279.282782 C1107.68209,287.00612 1106.27517,292.859349 1103.46129,296.842645 C1100.64741,300.825942 1096.00306,302.81756 1089.5281,302.81756 C1082.44801,302.81756 1077.33469,301.05399 1074.18799,297.526796 Z M1112.12982,302.087799 L1112.12982,223.729761 L1127.19763,223.729761 L1127.19763,302.087799 L1112.12982,302.087799 Z M1136.9554,296.842645 C1134.20203,292.859349 1132.82536,286.823682 1132.82536,278.735462 L1132.82536,244.984036 C1132.82536,237.747208 1134.42895,232.274059 1137.63617,228.564424 C1140.84339,224.85479 1145.62389,223 1151.97782,223 C1157.12148,223 1161.11531,224.033817 1163.95945,226.101482 C1166.80359,228.169148 1168.77025,231.17938 1169.8595,235.132269 C1170.94874,239.085158 1171.49336,244.163025 1171.49336,250.366021 L1156.24401,250.366021 L1156.24401,243.342075 C1156.24401,241.456851 1155.98683,239.997345 1155.47246,238.963512 C1154.9581,237.929679 1154.03528,237.412771 1152.70398,237.412771 C1149.73881,237.412771 1148.25625,239.358779 1148.25625,243.250855 L1148.25625,281.198404 C1148.25625,283.570137 1148.55882,285.364114 1149.16395,286.580388 C1149.76909,287.796661 1150.82806,288.404789 1152.3409,288.404789 C1153.85374,288.404789 1154.91271,287.796661 1155.51785,286.580388 C1156.12298,285.364114 1156.42555,283.570137 1156.42555,281.198404 L1156.42555,269.978335 L1152.25013,269.978335 L1152.25013,256.477765 L1171.31182,256.477765 L1171.31182,302.087799 L1165.04869,302.087799 L1162.41636,295.519954 C1159.63274,300.385049 1155.33634,302.81756 1149.52703,302.81756 C1143.89927,302.81756 1139.70876,300.825942 1136.9554,296.842645 Z M1177.48417,302.087799 L1177.48417,223.729761 L1193.55045,223.729761 L1200.72128,261.221209 L1200.72128,223.729761 L1215.78909,223.729761 L1215.78909,302.087799 L1200.53974,302.087799 L1192.73352,262.86317 L1192.73352,302.087799 L1177.48417,302.087799 Z M1222.6876,302.087799 L1222.6876,223.729761 L1253.91246,223.729761 L1253.91246,238.872292 L1238.57234,238.872292 L1238.57234,254.106043 L1253.27707,254.106043 L1253.27707,268.883694 L1238.57234,268.883694 L1238.57234,286.854048 L1254.91093,286.854048 L1254.91093,302.087799 L1222.6876,302.087799 Z M1260.08481,223.729761 L1284.04808,223.729761 C1287.86043,223.729761 1290.81043,224.596343 1292.89815,226.329532 C1294.98586,228.062722 1296.39278,230.495233 1297.11895,233.627138 C1297.84511,236.759043 1298.20819,240.757482 1298.20819,245.622577 C1298.20819,250.061976 1297.63332,253.528304 1296.48356,256.021665 C1295.3338,258.515026 1293.33688,260.24819 1290.49274,261.221209 C1292.85277,261.707718 1294.56226,262.893567 1295.62124,264.778791 C1296.68023,266.664016 1297.20972,269.218152 1297.20972,272.441277 L1297.02818,302.087799 L1281.77883,302.087799 L1281.77883,271.437856 C1281.77883,269.248564 1281.35524,267.84987 1280.50805,267.241733 C1279.66086,266.633596 1278.11779,266.329532 1275.87878,266.329532 L1275.87878,302.087799 L1260.08481,302.087799 L1260.08481,223.729761 Z M1279.69112,252.737742 C1281.86961,252.737742 1282.95884,250.366044 1282.95884,245.622577 C1282.95884,243.554912 1282.86807,242.004186 1282.68653,240.970353 C1282.50499,239.936521 1282.17217,239.221971 1281.68806,238.826682 C1281.20395,238.431393 1280.50805,238.233751 1279.60035,238.233751 L1275.96955,238.233751 L1275.96955,252.737742 L1279.69112,252.737742 Z" id="developer-and-designer" fill="#000000"></path>
        <polygon id="comma" fill="#000000" points="494.907415 312.503111 497.803735 302.09446 492.192115 302.09446 492.192115 288.88 508.664935 288.88 508.664935 301.64191 504.229945 312.503111"></polygon>
        <path d="M0.208187236,302.087799 L0.208187236,223.729761 L31.4330452,223.729761 L31.4330452,238.872292 L16.092926,238.872292 L16.092926,254.106043 L30.7976557,254.106043 L30.7976557,268.883694 L16.092926,268.883694 L16.092926,286.854048 L32.4315145,286.854048 L32.4315145,302.087799 L0.208187236,302.087799 Z M37.6054009,302.087799 L37.6054009,223.729761 L53.6716796,223.729761 L60.8425045,261.221209 L60.8425045,223.729761 L75.9103139,223.729761 L75.9103139,302.087799 L60.6609646,302.087799 L52.8547501,262.86317 L52.8547501,302.087799 L37.6054009,302.087799 Z M89.5258043,302.087799 L89.5258043,238.781072 L80.2672708,238.781072 L80.2672708,223.729761 L114.396767,223.729761 L114.396767,238.781072 L105.138233,238.781072 L105.138233,302.087799 L89.5258043,302.087799 Z M118.753724,223.729761 L142.716987,223.729761 C146.529343,223.729761 149.479337,224.596343 151.567056,226.329532 C153.654775,228.062722 155.061695,230.495233 155.787858,233.627138 C156.514021,236.759043 156.877097,240.757482 156.877097,245.622577 C156.877097,250.061976 156.302226,253.528304 155.152468,256.021665 C154.00271,258.515026 152.005791,260.24819 149.161652,261.221209 C151.521682,261.707718 153.231166,262.893567 154.290154,264.778791 C155.349142,266.664016 155.878628,269.218152 155.878628,272.441277 L155.697088,302.087799 L140.447738,302.087799 L140.447738,271.437856 C140.447738,269.248564 140.02415,267.84987 139.176959,267.241733 C138.329769,266.633596 136.786696,266.329532 134.547693,266.329532 L134.547693,302.087799 L118.753724,302.087799 L118.753724,223.729761 Z M138.36003,252.737742 C140.538519,252.737742 141.627748,250.366044 141.627748,245.622577 C141.627748,243.554912 141.536979,242.004186 141.355438,240.970353 C141.173897,239.936521 140.841077,239.221971 140.356969,238.826682 C139.87286,238.431393 139.176964,238.233751 138.26926,238.233751 L134.638463,238.233751 L134.638463,252.737742 L138.36003,252.737742 Z M162.050983,302.087799 L162.050983,223.729761 L193.275841,223.729761 L193.275841,238.872292 L177.935722,238.872292 L177.935722,254.106043 L192.640452,254.106043 L192.640452,268.883694 L177.935722,268.883694 L177.935722,286.854048 L194.274311,286.854048 L194.274311,302.087799 L162.050983,302.087799 Z M199.448197,223.729761 L220.052972,223.729761 C226.285872,223.729761 230.733555,225.751785 233.396153,229.795895 C236.058751,233.840005 237.39003,239.754047 237.39003,247.538198 C237.39003,255.32235 236.210033,261.190782 233.850003,265.143672 C231.489972,269.096561 227.254085,271.072976 221.142212,271.072976 L214.788316,271.072976 L214.788316,302.087799 L199.448197,302.087799 L199.448197,223.729761 Z M215.696015,256.933865 C217.571937,256.933865 218.9486,256.584192 219.826048,255.884835 C220.703495,255.185477 221.278365,254.182067 221.550676,252.874572 C221.822987,251.567078 221.959141,249.697086 221.959141,247.264538 C221.959141,243.980599 221.596065,241.608901 220.869902,240.149373 C220.143739,238.689844 218.691434,237.960091 216.512945,237.960091 L214.788316,237.960091 L214.788316,256.933865 L215.696015,256.933865 Z M242.291607,223.729761 L266.25487,223.729761 C270.067226,223.729761 273.01722,224.596343 275.104939,226.329532 C277.192658,228.062722 278.599577,230.495233 279.325741,233.627138 C280.051904,236.759043 280.41498,240.757482 280.41498,245.622577 C280.41498,250.061976 279.840109,253.528304 278.690351,256.021665 C277.540593,258.515026 275.543674,260.24819 272.699535,261.221209 C275.059565,261.707718 276.769049,262.893567 277.828037,264.778791 C278.887025,266.664016 279.416511,269.218152 279.416511,272.441277 L279.234971,302.087799 L263.985621,302.087799 L263.985621,271.437856 C263.985621,269.248564 263.562033,267.84987 262.714842,267.241733 C261.867652,266.633596 260.324579,266.329532 258.085576,266.329532 L258.085576,302.087799 L242.291607,302.087799 L242.291607,223.729761 Z M261.897913,252.737742 C264.076402,252.737742 265.165631,250.366044 265.165631,245.622577 C265.165631,243.554912 265.074862,242.004186 264.893321,240.970353 C264.71178,239.936521 264.37896,239.221971 263.894851,238.826682 C263.410743,238.431393 262.714847,238.233751 261.807143,238.233751 L258.176345,238.233751 L258.176345,252.737742 L261.897913,252.737742 Z M285.588866,302.087799 L285.588866,223.729761 L316.813724,223.729761 L316.813724,238.872292 L301.473605,238.872292 L301.473605,254.106043 L316.178335,254.106043 L316.178335,268.883694 L301.473605,268.883694 L301.473605,286.854048 L317.812193,286.854048 L317.812193,302.087799 L285.588866,302.087799 Z M322.98608,302.087799 L322.98608,223.729761 L339.052359,223.729761 L346.223183,261.221209 L346.223183,223.729761 L361.290993,223.729761 L361.290993,302.087799 L346.041644,302.087799 L338.235429,262.86317 L338.235429,302.087799 L322.98608,302.087799 Z M368.189508,302.087799 L368.189508,223.729761 L399.414366,223.729761 L399.414366,238.872292 L384.074247,238.872292 L384.074247,254.106043 L398.778976,254.106043 L398.778976,268.883694 L384.074247,268.883694 L384.074247,286.854048 L400.412835,286.854048 L400.412835,302.087799 L368.189508,302.087799 Z M409.353674,297.344356 C406.237224,293.695535 404.679022,288.283198 404.679022,281.107184 L404.679022,223.729761 L419.837602,223.729761 L419.837602,280.468643 C419.837602,282.962004 420.079652,284.908013 420.563761,286.306727 C421.04787,287.705442 422.076585,288.404789 423.649939,288.404789 C425.223292,288.404789 426.252008,287.720645 426.736117,286.352338 C427.220225,284.98403 427.462276,283.022818 427.462276,280.468643 L427.462276,223.729761 L442.620856,223.729761 L442.620856,281.107184 C442.620856,288.283198 441.062654,293.695535 437.946204,297.344356 C434.829754,300.993177 430.06438,302.81756 423.649939,302.81756 C417.235498,302.81756 412.470124,300.993177 409.353674,297.344356 Z M448.611671,223.729761 L472.574934,223.729761 C476.387291,223.729761 479.337284,224.596343 481.425003,226.329532 C483.512722,228.062722 484.919642,230.495233 485.645805,233.627138 C486.371968,236.759043 486.735044,240.757482 486.735044,245.622577 C486.735044,250.061976 486.160174,253.528304 485.010416,256.021665 C483.860657,258.515026 481.863739,260.24819 479.0196,261.221209 C481.37963,261.707718 483.089113,262.893567 484.148101,264.778791 C485.207089,266.664016 485.736575,269.218152 485.736575,272.441277 L485.555035,302.087799 L470.305686,302.087799 L470.305686,271.437856 C470.305686,269.248564 469.882097,267.84987 469.034907,267.241733 C468.187717,266.633596 466.644643,266.329532 464.40564,266.329532 L464.40564,302.087799 L448.611671,302.087799 L448.611671,223.729761 Z M468.217978,252.737742 C470.396467,252.737742 471.485695,250.366044 471.485695,245.622577 C471.485695,243.554912 471.394926,242.004186 471.213385,240.970353 C471.031845,239.936521 470.699025,239.221971 470.214916,238.826682 C469.730807,238.431393 469.034911,238.233751 468.127208,238.233751 L464.49641,238.233751 L464.49641,252.737742 L468.217978,252.737742 Z" id="entrepreneur" fill="#000000"></path>
        <path d="M0,176.371225 L0,1.62741615 L34.9894473,1.62741615 L34.9894473,146.670881 L70.9960296,146.670881 L70.9960296,176.371225 L0,176.371225 Z M76.0817051,176.371225 L92.9661477,1.62741615 L152.16341,1.62741615 L168.844426,176.371225 L135.685822,176.371225 L133.244697,148.09487 L112.088287,148.09487 L110.054017,176.371225 L76.0817051,176.371225 Z M114.732839,120.225368 L130.600146,120.225368 L122.869919,31.3277609 L121.242503,31.3277609 L114.732839,120.225368 Z M179.422631,176.371225 L179.422631,1.62741615 L215.429213,1.62741615 L231.499948,85.235921 L231.499948,1.62741615 L265.268833,1.62741615 L265.268833,176.371225 L231.093094,176.371225 L213.59837,88.8976073 L213.59837,176.371225 L179.422631,176.371225 Z M280.729286,1.62741615 L328.94149,1.62741615 C341.418409,1.62741615 350.775959,5.08564089 357.014418,12.0021941 C363.252878,18.9187474 366.43987,29.1578049 366.575488,42.719674 L366.982342,124.497336 C367.117961,141.720909 364.134395,154.6723 358.031553,163.351896 C351.928712,172.031492 341.825271,176.371225 327.720928,176.371225 L280.729286,176.371225 L280.729286,1.62741615 Z M322.024971,145.450319 C328.39905,145.450319 331.586041,142.331136 331.586041,136.092676 L331.586041,45.9745063 C331.586041,42.0415643 331.280904,39.091902 330.670619,37.125431 C330.060335,35.15896 328.941498,33.8366976 327.314074,33.1586041 C325.686649,32.4805106 323.177741,32.141469 319.787274,32.141469 L315.922161,32.141469 L315.922161,145.450319 L322.024971,145.450319 Z M390.579877,165.081026 C383.256467,156.469239 379.594818,144.365452 379.594818,128.769303 L379.594818,45.5676523 C379.594818,30.5139776 383.256467,19.1560826 390.579877,11.4936266 C397.903286,3.83117055 408.617002,0 422.721346,0 C436.825689,0 447.539405,3.83117055 454.862815,11.4936266 C462.186224,19.1560826 465.847874,30.5139776 465.847874,45.5676523 L465.847874,128.769303 C465.847874,144.501071 462.186224,156.638762 454.862815,165.182739 C447.539405,173.726717 436.825689,177.998642 422.721346,177.998642 C408.617002,177.998642 397.903286,173.692813 390.579877,165.081026 Z M429.027583,141.788632 C430.112533,139.076258 430.654999,135.278992 430.654999,130.396719 L430.654999,44.9573712 C430.654999,41.1600479 430.146437,38.0747689 429.129297,35.7014418 C428.112156,33.3281148 426.044002,32.141469 422.924773,32.141469 C417.093169,32.141469 414.177411,36.5490103 414.177411,45.3642252 L414.177411,130.600146 C414.177411,135.618038 414.787686,139.415304 416.008254,141.992059 C417.228822,144.568814 419.466497,145.857173 422.721346,145.857173 C425.840575,145.857173 427.942634,144.501006 429.027583,141.788632 Z M479.884338,176.371225 L479.884338,1.62741615 L515.89092,1.62741615 L531.961655,85.235921 L531.961655,1.62741615 L565.73054,1.62741615 L565.73054,176.371225 L531.554801,176.371225 L514.060077,88.8976073 L514.060077,176.371225 L479.884338,176.371225 Z" id="landon" fill="#000000"></path>
        <path d="M636.333302,166.201143 C629.281077,158.335199 625.755017,145.654945 625.755017,128.16 L625.755017,111.072 L660.134445,111.072 L660.134445,132.838857 C660.134445,141.51852 662.914608,145.858286 668.475017,145.858286 C671.59427,145.858286 673.764154,144.942866 674.984731,143.112 C676.205309,141.281134 676.815588,138.195831 676.815588,133.856 C676.815588,128.159972 676.1375,123.447257 674.781302,119.717714 C673.425105,115.988172 671.69598,112.868965 669.593874,110.36 C667.491768,107.851035 663.728377,103.952026 658.303588,98.6628571 L643.249874,83.6091429 C631.586578,72.2170859 625.755017,59.6046406 625.755017,45.7714286 C625.755017,30.8532587 629.179363,19.4952771 636.02816,11.6971429 C642.876956,3.89900863 652.878761,0 666.033874,0 C681.765762,0 693.089839,4.17024401 700.006445,12.5108571 C706.923051,20.8514703 710.381302,33.9046731 710.381302,51.6708571 L674.781302,51.6708571 L674.577874,39.6685714 C674.577874,37.3630361 673.93369,35.5321973 672.645302,34.176 C671.356915,32.8198027 669.559981,32.1417143 667.254445,32.1417143 C664.542051,32.1417143 662.507785,32.8876116 661.151588,34.3794286 C659.795391,35.8712456 659.117302,37.9055109 659.117302,40.4822857 C659.117302,46.1783142 662.372127,52.0776838 668.881874,58.1805714 L689.224731,77.7097143 C693.971421,82.320785 697.904335,86.6944555 701.023588,90.8308571 C704.142842,94.9672588 706.651769,99.8494957 708.550445,105.477714 C710.449122,111.105933 711.398445,117.785104 711.398445,125.515429 C711.398445,142.739134 708.245334,155.792337 701.939017,164.675429 C695.6327,173.558521 685.224042,178 670.712731,178 C654.845223,178 643.385528,174.067087 636.333302,166.201143 Z M733.063588,165.997714 C725.401074,157.99615 721.569874,147.011117 721.569874,133.042286 L721.569874,52.4845714 C721.569874,35.1252465 725.028125,22.0381393 731.944731,13.2228571 C738.861337,4.40757497 749.710752,0 764.493302,0 C777.377176,0 787.75193,3.52605998 795.617874,10.5782857 C803.483818,17.6305115 807.416731,27.8018383 807.416731,41.0925714 L807.416731,71.2 L772.630445,71.2 L772.630445,45.3645714 C772.630445,40.3466416 772.020166,36.8883904 770.799588,34.9897143 C769.579011,33.0910381 767.476936,32.1417143 764.493302,32.1417143 C761.374049,32.1417143 759.23807,33.2266558 758.085302,35.3965714 C756.932535,37.566487 756.35616,40.7535028 756.35616,44.9577143 L756.35616,132.635429 C756.35616,137.246499 757.034248,140.603037 758.390445,142.705143 C759.746643,144.807249 761.780908,145.858286 764.493302,145.858286 C769.918092,145.858286 772.630445,141.450711 772.630445,132.635429 L772.630445,101.104 L807.823588,101.104 L807.823588,134.059429 C807.823588,163.353289 793.109069,178 763.679588,178 C750.931334,178 740.726103,173.999278 733.063588,165.997714 Z M819.419017,176.372571 L819.419017,1.62742857 L854.205302,1.62742857 L854.205302,64.08 L870.683017,64.08 L870.683017,1.62742857 L905.469302,1.62742857 L905.469302,176.372571 L870.683017,176.372571 L870.683017,97.0354286 L854.205302,97.0354286 L854.205302,176.372571 L819.419017,176.372571 Z M920.929874,1.62742857 L974.635017,1.62742857 C983.179059,1.62742857 989.790422,3.55998067 994.469302,7.42514286 C999.148183,11.290305 1002.30129,16.7150127 1003.92873,23.6994286 C1005.55617,30.6838444 1006.36987,39.6007077 1006.36987,50.4502857 C1006.36987,60.3505257 1005.08151,68.0807341 1002.50473,73.6411429 C999.927956,79.2015516 995.452572,83.0666558 989.078445,85.2365714 C994.367615,86.3215292 998.198814,88.9660742 1000.57216,93.1702857 C1002.9455,97.3744972 1004.13216,103.07044 1004.13216,110.258286 L1003.7253,176.372571 L969.549302,176.372571 L969.549302,108.020571 C969.549302,103.138261 968.599979,100.019054 966.701302,98.6628571 C964.802626,97.3066599 961.344375,96.6285714 956.326445,96.6285714 L956.326445,176.372571 L920.929874,176.372571 L920.929874,1.62742857 Z M964.870445,66.3177143 C969.752755,66.3177143 972.193874,61.0286243 972.193874,50.4502857 C972.193874,45.839215 971.990447,42.3809639 971.583588,40.0754286 C971.176729,37.7698932 970.430832,36.1763854 969.345874,35.2948571 C968.260916,34.4133289 966.701313,33.9725714 964.667017,33.9725714 L956.529874,33.9725714 L956.529874,66.3177143 L964.870445,66.3177143 Z M1027.52645,165.082286 C1020.20298,156.470433 1016.5413,144.366554 1016.5413,128.770286 L1016.5413,45.568 C1016.5413,30.5142104 1020.20298,19.1562288 1027.52645,11.4937143 C1034.84991,3.83119978 1045.56371,0 1059.66816,0 C1073.77261,0 1084.48641,3.83119978 1091.80987,11.4937143 C1099.13334,19.1562288 1102.79502,30.5142104 1102.79502,45.568 L1102.79502,128.770286 C1102.79502,144.502174 1099.13334,156.639957 1091.80987,165.184 C1084.48641,173.728043 1073.77261,178 1059.66816,178 C1045.56371,178 1034.84991,173.694138 1027.52645,165.082286 Z M1065.97445,141.789714 C1067.0594,139.07732 1067.60187,135.280024 1067.60187,130.397714 L1067.60187,44.9577143 C1067.60187,41.160362 1067.09331,38.0750595 1066.07616,35.7017143 C1065.05901,33.3283691 1062.99084,32.1417143 1059.87159,32.1417143 C1054.03994,32.1417143 1051.12416,36.5492893 1051.12416,45.3645714 L1051.12416,130.601143 C1051.12416,135.619073 1051.73444,139.416368 1052.95502,141.993143 C1054.17559,144.569918 1056.41329,145.858286 1059.66816,145.858286 C1062.78741,145.858286 1064.88949,144.502109 1065.97445,141.789714 Z M1116.83159,1.62742857 L1163.00987,1.62742857 C1176.97871,1.62742857 1186.94661,6.13671681 1192.91387,15.1554286 C1198.88114,24.1741403 1201.86473,37.3629608 1201.86473,54.7222857 C1201.86473,72.0816106 1199.22019,85.1687178 1193.93102,93.984 C1188.64185,102.799282 1179.14861,107.206857 1165.45102,107.206857 L1151.21102,107.206857 L1151.21102,176.372571 L1116.83159,176.372571 L1116.83159,1.62742857 Z M1153.2453,75.6754286 C1157.44951,75.6754286 1160.53482,74.8956268 1162.5013,73.336 C1164.46779,71.7763732 1165.75616,69.5386812 1166.36645,66.6228571 C1166.97673,63.707033 1167.28187,59.536789 1167.28187,54.112 C1167.28187,46.7885348 1166.46817,41.4994448 1164.84073,38.2445714 C1163.21329,34.989698 1159.95847,33.3622857 1155.07616,33.3622857 L1151.21102,33.3622857 L1151.21102,75.6754286 L1153.2453,75.6754286 Z M1212.84987,1.62742857 L1259.02816,1.62742857 C1272.99699,1.62742857 1282.96489,6.13671681 1288.93216,15.1554286 C1294.89943,24.1741403 1297.88302,37.3629608 1297.88302,54.7222857 C1297.88302,72.0816106 1295.23847,85.1687178 1289.9493,93.984 C1284.66013,102.799282 1275.16689,107.206857 1261.4693,107.206857 L1247.2293,107.206857 L1247.2293,176.372571 L1212.84987,176.372571 L1212.84987,1.62742857 Z M1249.26359,75.6754286 C1253.4678,75.6754286 1256.5531,74.8956268 1258.51959,73.336 C1260.48607,71.7763732 1261.77444,69.5386812 1262.38473,66.6228571 C1262.99502,63.707033 1263.30016,59.536789 1263.30016,54.112 C1263.30016,46.7885348 1262.48645,41.4994448 1260.85902,38.2445714 C1259.23158,34.989698 1255.97676,33.3622857 1251.09445,33.3622857 L1247.2293,33.3622857 L1247.2293,75.6754286 L1249.26359,75.6754286 Z" id="schropp" fill="#000000"></path>
    </g>
</svg>