<?xml version="1.0" encoding="UTF-8"?>
<svg width="1296px" height="446px" viewBox="0 0 1296 446" version="1.1" xmlns="http://www.w3.org/2000/svg" xmlns:xlink="http://www.w3.org/1999/xlink">
    <title>landscape</title>
    <g id="landscape" stroke="none" stroke-width="1" fill="none" fill-rule="evenodd">
        <path d="M-3.83693077e-13,176.093601 L-3.83693077e-13,1.62485445 L34.9343706,1.62485445 L34.9343706,146.440007 L70.8842752,146.440007 L70.8842752,176.093601 L-3.83693077e-13,176.093601 Z M75.9619454,176.093601 L92.8198102,1.62485445 L151.923891,1.62485445 L168.578649,176.093601 L135.472239,176.093601 L133.034958,147.861755 L111.91185,147.861755 L109.880782,176.093601 L75.9619454,176.093601 Z M114.552238,120.036122 L130.394569,120.036122 L122.676511,31.2784481 L121.051656,31.2784481 L114.552238,120.036122 Z M179.140203,176.093601 L179.140203,1.62485445 L215.090107,1.62485445 L231.135545,85.1017516 L231.135545,1.62485445 L264.851275,1.62485445 L264.851275,176.093601 L230.729331,176.093601 L213.262146,88.7576741 L213.262146,176.093601 L179.140203,176.093601 Z M280.287392,1.62485445 L328.423705,1.62485445 C340.880985,1.62485445 350.223804,5.07763562 356.452444,11.9833015 C362.681084,18.8889675 365.863059,29.1119078 365.998464,42.6524292 L366.404678,124.301365 C366.540083,141.497827 363.561213,154.428831 357.467978,163.094765 C351.374744,171.760699 341.287206,176.093601 327.205064,176.093601 L280.287392,176.093601 L280.287392,1.62485445 Z M321.518074,145.221366 C327.882119,145.221366 331.064093,142.107093 331.064093,135.878453 L331.064093,45.9021381 C331.064093,41.9753869 330.759436,39.0303677 330.150113,37.0669921 C329.540789,35.1036164 328.423713,33.7834354 326.79885,33.1064093 C325.173988,32.4293833 322.669029,32.0908753 319.283899,32.0908753 L315.424869,32.0908753 L315.424869,145.221366 L321.518074,145.221366 Z M389.965067,164.821173 C382.653186,156.222942 378.9973,144.138208 378.9973,128.566608 L378.9973,45.4959245 C378.9973,30.4659457 382.653186,19.1259291 389.965067,11.4755345 C397.276949,3.82513992 407.9738,0 422.055942,0 C436.138085,0 446.834936,3.82513992 454.146818,11.4755345 C461.458699,19.1259291 465.114585,30.4659457 465.114585,45.4959245 L465.114585,128.566608 C465.114585,144.273613 461.458699,156.392198 454.146818,164.922726 C446.834936,173.453255 436.138085,177.718455 422.055942,177.718455 C407.9738,177.718455 397.276949,173.419404 389.965067,164.821173 Z M428.352253,141.565444 C429.435495,138.857339 429.977108,135.06605 429.977108,130.191463 L429.977108,44.8866041 C429.977108,41.0952581 429.469346,38.0148357 428.453807,35.6452444 C427.438268,33.2756532 425.373369,32.0908753 422.259049,32.0908753 C416.436625,32.0908753 413.525457,36.4914788 413.525457,45.2928177 L413.525457,130.394569 C413.525457,135.404562 414.134771,139.195851 415.353418,141.76855 C416.572065,144.341249 418.806217,145.62758 422.055942,145.62758 C425.170262,145.62758 427.269012,144.273548 428.352253,141.565444 Z M479.128955,176.093601 L479.128955,1.62485445 L515.078859,1.62485445 L531.124297,85.1017516 L531.124297,1.62485445 L564.840027,1.62485445 L564.840027,176.093601 L530.718083,176.093601 L513.250898,88.7576741 L513.250898,176.093601 L479.128955,176.093601 Z" id="landon" fill="#000000"></path>
        <path d="M635.331654,165.939527 C628.290529,158.085964 624.77002,145.42567 624.77002,127.958264 L624.77002,110.897162 L659.095332,110.897162 L659.095332,132.629756 C659.095332,141.295756 661.871118,145.628691 667.422774,145.628691 C670.537118,145.628691 672.703585,144.714713 673.922242,142.886728 C675.140898,141.058744 675.750217,137.978298 675.750217,133.645298 C675.750217,127.958236 675.073196,123.252939 673.719133,119.529267 C672.365071,115.805596 670.638667,112.691299 668.53987,110.186283 C666.441073,107.681267 662.683606,103.788396 657.267356,98.5075525 L642.237338,83.4775342 C630.592401,72.1034094 624.77002,59.5108173 624.77002,45.69938 C624.77002,30.8046928 628.188976,19.4645897 635.026991,11.6787305 C641.865007,3.89287122 651.851068,0 664.985474,0 C680.692599,0 691.998851,4.16367966 698.904569,12.4911639 C705.810288,20.8186481 709.263096,33.8513039 709.263096,51.5895224 L673.719133,51.5895224 L673.516025,39.6061294 C673.516025,37.3042232 672.872855,35.4762662 671.586496,34.1222038 C670.300136,32.7681413 668.50603,32.0911202 666.204124,32.0911202 C663.495999,32.0911202 661.464936,32.8358434 660.110873,34.3253121 C658.756811,35.8147808 658.07979,37.8458441 658.07979,40.4185628 C658.07979,46.1056252 661.329491,51.9957086 667.828991,58.0889897 L688.139827,77.5873919 C692.879045,82.1912043 696.805767,86.5579903 699.920111,90.6878808 C703.034455,94.8177714 705.539433,99.6923232 707.43512,105.311682 C709.330808,110.931042 710.278637,117.599699 710.278637,125.317855 C710.278637,142.514449 707.130489,155.547105 700.834099,164.416214 C694.537708,173.285323 684.145435,177.719811 669.656966,177.719811 C653.814435,177.719811 642.372779,173.793089 635.331654,165.939527 Z M731.909677,165.736418 C724.259224,157.74745 720.434055,146.779708 720.434055,132.832865 L720.434055,52.4019558 C720.434055,35.0699561 723.886863,22.0034492 730.792581,13.2020431 C737.6983,4.40063703 748.530637,0 763.289918,0 C776.153512,0 786.511934,3.52050963 794.365497,10.5616345 C802.219059,17.6027594 806.145781,27.7580756 806.145781,41.0278879 L806.145781,71.0879245 L771.414252,71.0879245 L771.414252,45.2931633 C771.414252,40.2831322 770.804933,36.8303247 769.586277,34.9346372 C768.367621,33.0389497 766.268856,32.0911202 763.289918,32.0911202 C760.175574,32.0911202 758.042958,33.1743539 756.892005,35.3408539 C755.741052,37.5073539 755.165584,40.6893529 755.165584,44.8869466 L755.165584,132.426648 C755.165584,137.03046 755.842605,140.381715 757.196667,142.480512 C758.55073,144.579308 760.581793,145.628691 763.289918,145.628691 C768.706168,145.628691 771.414252,141.228054 771.414252,132.426648 L771.414252,100.944853 L806.551998,100.944853 L806.551998,133.848406 C806.551998,163.096156 791.86064,177.719811 762.477485,177.719811 C749.749297,177.719811 739.56013,173.725387 731.909677,165.736418 Z M818.129174,176.094944 L818.129174,1.62486685 L852.860703,1.62486685 L852.860703,63.9791321 L869.31248,63.9791321 L869.31248,1.62486685 L904.044009,1.62486685 L904.044009,176.094944 L869.31248,176.094944 L869.31248,96.8826857 L852.860703,96.8826857 L852.860703,176.094944 L818.129174,176.094944 Z M919.480244,1.62486685 L973.10085,1.62486685 C981.631443,1.62486685 988.232399,3.55437693 992.903914,7.41345498 C997.57543,11.272533 1000.72358,16.6887017 1002.34845,23.6621234 C1003.97333,30.6355452 1004.78575,39.5383724 1004.78575,50.3708722 C1004.78575,60.2555283 1003.49941,67.9735686 1000.92669,73.5252248 C998.353976,79.0768809 993.885636,82.9359011 987.521543,85.102401 C992.802387,86.185651 996.627556,88.8260333 998.997165,93.0236269 C1001.36677,97.2212206 1002.55156,102.908198 1002.55156,110.084729 L1002.14534,176.094944 L968.023141,176.094944 L968.023141,107.850537 C968.023141,102.975912 967.075311,99.861615 965.179624,98.5075525 C963.283936,97.1534901 959.831129,96.476469 954.821098,96.476469 L954.821098,176.094944 L919.480244,176.094944 L919.480244,1.62486685 Z M963.351649,66.213324 C968.226273,66.213324 970.663549,60.9325595 970.663549,50.3708722 C970.663549,45.7670598 970.460443,42.3142523 970.054224,40.0123461 C969.648006,37.7104399 968.903282,36.1194403 967.820032,35.2392997 C966.736782,34.3591591 965.179634,33.9190954 963.14854,33.9190954 L955.024206,33.9190954 L955.024206,66.213324 L963.351649,66.213324 Z M1025.90902,164.822431 C1018.59708,156.224134 1014.94117,144.139308 1014.94117,128.567589 L1014.94117,45.4962717 C1014.94117,30.4661782 1018.59708,19.1260751 1025.90902,11.4756221 C1033.22096,3.82516911 1043.91789,0 1058.00014,0 C1072.08239,0 1082.77933,3.82516911 1090.09126,11.4756221 C1097.4032,19.1260751 1101.05911,30.4661782 1101.05911,45.4962717 L1101.05911,128.567589 C1101.05911,144.274714 1097.4032,156.393391 1090.09126,164.923985 C1082.77933,173.454578 1072.08239,177.719811 1058.00014,177.719811 C1043.91789,177.719811 1033.22096,173.420727 1025.90902,164.822431 Z M1064.2965,141.566524 C1065.37975,138.858399 1065.92137,135.067081 1065.92137,130.192456 L1065.92137,44.8869466 C1065.92137,41.0955717 1065.4136,38.0151258 1064.39806,35.6455164 C1063.38251,33.2759071 1061.31759,32.0911202 1058.20325,32.0911202 C1052.38078,32.0911202 1049.46959,36.4917572 1049.46959,45.2931633 L1049.46959,130.395564 C1049.46959,135.405596 1050.07891,139.196914 1051.29757,141.769632 C1052.51622,144.342351 1054.75039,145.628691 1058.00014,145.628691 C1061.11449,145.628691 1063.21325,144.274649 1064.2965,141.566524 Z M1115.07359,1.62486685 L1161.17919,1.62486685 C1175.12603,1.62486685 1185.07824,6.12705704 1191.03612,15.1315725 C1196.99399,24.136088 1199.97288,37.304148 1199.97288,54.6361477 C1199.97288,71.9681474 1197.3325,85.0346543 1192.05166,93.8360603 C1186.77081,102.637466 1177.29252,107.038103 1163.61649,107.038103 L1149.3989,107.038103 L1149.3989,176.094944 L1115.07359,176.094944 L1115.07359,1.62486685 Z M1151.42999,75.5563083 C1155.62758,75.5563083 1158.70803,74.7777341 1160.67142,73.2205622 C1162.63481,71.6633904 1163.92115,69.4292208 1164.53047,66.5179865 C1165.1398,63.6067522 1165.44446,59.4430725 1165.44446,54.0268226 C1165.44446,46.7148853 1164.63204,41.4341208 1163.00716,38.1843709 C1161.38229,34.9346209 1158.13259,33.3097703 1153.25796,33.3097703 L1149.3989,33.3097703 L1149.3989,75.5563083 L1151.42999,75.5563083 Z M1210.94073,1.62486685 L1257.04633,1.62486685 C1270.99317,1.62486685 1280.94538,6.12705704 1286.90326,15.1315725 C1292.86113,24.136088 1295.84003,37.304148 1295.84003,54.6361477 C1295.84003,71.9681474 1293.19964,85.0346543 1287.9188,93.8360603 C1282.63796,102.637466 1273.15966,107.038103 1259.48363,107.038103 L1245.26605,107.038103 L1245.26605,176.094944 L1210.94073,176.094944 L1210.94073,1.62486685 Z M1247.29713,75.5563083 C1251.49472,75.5563083 1254.57517,74.7777341 1256.53856,73.2205622 C1258.50195,71.6633904 1259.78829,69.4292208 1260.39762,66.5179865 C1261.00695,63.6067522 1261.31161,59.4430725 1261.31161,54.0268226 C1261.31161,46.7148853 1260.49918,41.4341208 1258.87431,38.1843709 C1257.24943,34.9346209 1253.99973,33.3097703 1249.12511,33.3097703 L1245.26605,33.3097703 L1245.26605,75.5563083 L1247.29713,75.5563083 Z" id="schropp" fill="#000000"></path>
        <polygon id="comma" fill="#000000" points="492.907415 312.604902 495.803735 302.196252 490.192115 302.196252 490.192115 288.981792 506.664935 288.981792 506.664935 301.743702 502.229945 312.604902"></polygon>
        <path d="M533.928559,224.44816 L555.37943,224.44816 C560.930738,224.44816 565.094156,225.986815 567.86981,229.06417 C570.645464,232.141526 572.06344,236.69715 572.12378,242.73118 L572.3048,279.116201 C572.36514,286.77942 571.037674,292.541832 568.32236,296.403612 C565.607046,300.265391 561.111761,302.196252 554.83637,302.196252 L533.928559,302.196252 L533.928559,224.44816 Z M552.30209,288.438732 C555.138084,288.438732 556.55606,287.050925 556.55606,284.275271 L556.55606,244.17934 C556.55606,242.429472 556.420296,241.11709 556.148765,240.242155 C555.877233,239.367221 555.379433,238.778912 554.65535,238.47721 C553.931266,238.175509 552.814987,238.02466 551.30648,238.02466 L549.58679,238.02466 L549.58679,288.438732 L552.30209,288.438732 Z M578.54999,302.196252 L578.54999,224.44816 L609.685431,224.44816 L609.685431,239.47282 L594.389241,239.47282 L594.389241,254.587991 L609.051861,254.587991 L609.051861,269.250611 L594.389241,269.250611 L594.389241,287.081082 L610.681041,287.081082 L610.681041,302.196252 L578.54999,302.196252 Z M622.990401,302.196252 L613.396341,224.35765 L628.239981,224.35765 L633.942112,277.306001 L639.010672,224.35765 L653.854312,224.35765 L644.260252,302.196252 L622.990401,302.196252 Z M658.289302,302.196252 L658.289302,224.44816 L689.424743,224.44816 L689.424743,239.47282 L674.128553,239.47282 L674.128553,254.587991 L688.791173,254.587991 L688.791173,269.250611 L674.128553,269.250611 L674.128553,287.081082 L690.420353,287.081082 L690.420353,302.196252 L658.289302,302.196252 Z M695.579423,302.196252 L695.579423,224.44816 L711.147143,224.44816 L711.147143,288.981792 L727.167414,288.981792 L727.167414,302.196252 L695.579423,302.196252 Z M735.765864,297.172947 C732.507488,293.341338 730.878324,287.956046 730.878324,281.016911 L730.878324,243.99832 C730.878324,237.300547 732.507488,232.247122 735.765864,228.837895 C739.02424,225.428668 743.791053,223.72408 750.066444,223.72408 C756.341836,223.72408 761.108648,225.428668 764.367025,228.837895 C767.625401,232.247122 769.254565,237.300547 769.254565,243.99832 L769.254565,281.016911 C769.254565,288.016387 767.625401,293.416763 764.367025,297.218202 C761.108648,301.019641 756.341836,302.920332 750.066444,302.920332 C743.791053,302.920332 739.02424,301.004556 735.765864,297.172947 Z M752.872254,286.809552 C753.354977,285.602745 753.596334,283.913242 753.596334,281.740991 L753.596334,243.72679 C753.596334,242.037262 753.370062,240.664541 752.917509,239.608585 C752.464957,238.55263 751.544781,238.02466 750.156954,238.02466 C747.562321,238.02466 746.265024,239.985691 746.265024,243.90781 L746.265024,281.831501 C746.265024,284.064093 746.536552,285.753596 747.079614,286.900062 C747.622677,288.046527 748.618277,288.619752 750.066444,288.619752 C751.454271,288.619752 752.389532,288.016358 752.872254,286.809552 Z M775.499755,224.44816 L796.045525,224.44816 C802.260577,224.44816 806.695522,226.454445 809.350496,230.467075 C812.005469,234.479705 813.332936,240.347712 813.332936,248.071271 C813.332936,255.794829 812.156318,261.617581 809.803046,265.539701 C807.449774,269.461821 803.226016,271.422851 797.131645,271.422851 L790.795945,271.422851 L790.795945,302.196252 L775.499755,302.196252 L775.499755,224.44816 Z M791.701045,257.393801 C793.571595,257.393801 794.944316,257.046849 795.81925,256.352936 C796.694185,255.659022 797.267409,254.663422 797.53894,253.366106 C797.810472,252.068789 797.946235,250.213353 797.946235,247.799741 C797.946235,244.541364 797.584199,242.188128 796.860115,240.73996 C796.136032,239.291793 794.687886,238.56772 792.515635,238.56772 L790.795945,238.56772 L790.795945,257.393801 L791.701045,257.393801 Z M818.220476,302.196252 L818.220476,224.44816 L849.355917,224.44816 L849.355917,239.47282 L834.059726,239.47282 L834.059726,254.587991 L848.722347,254.587991 L848.722347,269.250611 L834.059726,269.250611 L834.059726,287.081082 L850.351527,287.081082 L850.351527,302.196252 L818.220476,302.196252 Z M855.510597,224.44816 L879.405237,224.44816 C883.206677,224.44816 886.148222,225.307996 888.229963,227.027695 C890.311703,228.747394 891.714594,231.16097 892.438678,234.268495 C893.162761,237.376021 893.524798,241.343336 893.524798,246.170561 C893.524798,250.575403 892.951573,254.014748 891.805108,256.488701 C890.658642,258.962653 888.667442,260.682326 885.831448,261.647771 C888.184719,262.130493 889.889307,263.307112 890.945263,265.177661 C892.001218,267.04821 892.529188,269.582465 892.529188,272.780501 L892.348168,302.196252 L877.142487,302.196252 L877.142487,271.784891 C877.142487,269.61264 876.720112,268.224834 875.875347,267.621431 C875.030583,267.018028 873.491928,266.716331 871.259337,266.716331 L871.259337,302.196252 L855.510597,302.196252 L855.510597,224.44816 Z M875.060757,253.230341 C877.233008,253.230341 878.319117,250.877104 878.319117,246.170561 C878.319117,244.11899 878.228608,242.580336 878.047587,241.55455 C877.866566,240.528765 877.5347,239.819777 877.051977,239.427565 C876.569255,239.035353 875.875352,238.83925 874.970247,238.83925 L871.349847,238.83925 L871.349847,253.230341 L875.060757,253.230341 Z M921.582898,298.123302 C919.169286,294.804585 917.962498,290.490318 917.962498,285.180371 C917.962498,279.267022 918.80725,274.515294 920.496778,270.925046 C922.186307,267.334798 924.84124,264.182065 928.461659,261.466751 C925.504984,255.674082 924.026668,250.665912 924.026668,246.442091 C924.026668,242.037248 925.459729,238.582818 928.325894,236.078695 C931.192058,233.574573 934.887846,232.32253 939.413369,232.32253 C943.878551,232.32253 947.54417,233.514233 950.410334,235.897675 C953.276498,238.281117 954.709559,241.614869 954.709559,245.899031 C954.709559,252.174422 951.240044,258.057513 944.300909,263.548481 L947.106719,270.155711 C948.796248,265.690529 951.330502,262.221013 954.709559,259.747061 L960.864239,269.341121 C957.304161,272.116775 954.40787,276.702569 952.175279,283.098641 L960.049649,302.196252 L945.024989,302.196252 L943.395809,297.942282 C942.128663,299.450789 940.514584,300.687747 938.553524,301.653192 C936.592464,302.618637 934.4655,303.101352 932.172569,303.101352 C927.526365,303.101352 923.996511,301.442018 921.582898,298.123302 Z M941.042549,252.325241 C941.645952,251.661497 942.189006,250.711152 942.671729,249.474176 C943.154451,248.237199 943.395809,247.045496 943.395809,245.899031 C943.395809,244.088821 942.520888,243.18373 940.771019,243.18373 C940.046935,243.18373 939.473711,243.440173 939.051329,243.953065 C938.628947,244.465958 938.417759,245.114607 938.417759,245.899031 C938.417759,247.467878 939.051322,249.881454 940.318469,253.139831 L941.042549,252.325241 Z M937.512659,290.475207 C938.297083,289.600272 938.809968,288.589587 939.051329,287.443122 L933.711239,274.590701 L933.168179,275.405291 C932.685456,276.129375 932.29325,277.275823 931.991549,278.844671 C931.689847,280.413519 931.538999,281.952174 931.538999,283.460681 L931.538999,283.913231 C931.538999,286.266503 931.720017,288.167194 932.082059,289.615362 C932.4441,291.063529 933.288852,291.787602 934.616339,291.787602 C935.762804,291.787602 936.728235,291.350141 937.512659,290.475207 Z M986.7501,224.44816 L1008.20097,224.44816 C1013.75228,224.44816 1017.9157,225.986815 1020.69135,229.06417 C1023.467,232.141526 1024.88498,236.69715 1024.94532,242.73118 L1025.12634,279.116201 C1025.18668,286.77942 1023.85921,292.541832 1021.1439,296.403612 C1018.42859,300.265391 1013.9333,302.196252 1007.65791,302.196252 L986.7501,302.196252 L986.7501,224.44816 Z M1005.12363,288.438732 C1007.95962,288.438732 1009.3776,287.050925 1009.3776,284.275271 L1009.3776,244.17934 C1009.3776,242.429472 1009.24184,241.11709 1008.97031,240.242155 C1008.69877,239.367221 1008.20097,238.778912 1007.47689,238.47721 C1006.75281,238.175509 1005.63653,238.02466 1004.12802,238.02466 L1002.40833,238.02466 L1002.40833,288.438732 L1005.12363,288.438732 Z M1031.37153,302.196252 L1031.37153,224.44816 L1062.50697,224.44816 L1062.50697,239.47282 L1047.21078,239.47282 L1047.21078,254.587991 L1061.8734,254.587991 L1061.8734,269.250611 L1047.21078,269.250611 L1047.21078,287.081082 L1063.50258,287.081082 L1063.50258,302.196252 L1031.37153,302.196252 Z M1071.8295,297.670752 C1068.69181,294.171014 1067.12298,288.52928 1067.12298,280.745381 L1067.12298,273.142541 L1082.41917,273.142541 L1082.41917,282.827111 C1082.41917,286.688891 1083.65613,288.619752 1086.13008,288.619752 C1087.51791,288.619752 1088.48334,288.212461 1089.0264,287.397867 C1089.56947,286.583272 1089.84099,285.210551 1089.84099,283.279661 C1089.84099,280.745369 1089.5393,278.648575 1088.93589,276.989216 C1088.33249,275.329858 1087.56316,273.942052 1086.62789,272.825756 C1085.69261,271.709461 1084.01819,269.974703 1081.60458,267.621431 L1074.90684,260.923691 C1069.71758,255.855105 1067.12298,250.243541 1067.12298,244.08883 C1067.12298,237.451397 1068.64655,232.397973 1071.69374,228.928405 C1074.74092,225.458838 1079.19095,223.72408 1085.04396,223.72408 C1092.04344,223.72408 1097.08178,225.579517 1100.15913,229.290445 C1103.23649,233.001374 1104.77514,238.809041 1104.77514,246.713621 L1088.93589,246.713621 L1088.84538,241.37353 C1088.84538,240.347745 1088.55877,239.533163 1087.98554,238.92976 C1087.4123,238.326357 1086.61281,238.02466 1085.58702,238.02466 C1084.38022,238.02466 1083.47513,238.356527 1082.87172,239.02027 C1082.26832,239.684014 1081.96662,240.589105 1081.96662,241.73557 C1081.96662,244.269863 1083.41477,246.894627 1086.3111,249.609941 L1095.3621,258.298901 C1097.47401,260.350471 1099.22386,262.296417 1100.61168,264.136796 C1101.99951,265.977175 1103.11579,268.149394 1103.96055,270.653516 C1104.80532,273.157639 1105.22769,276.129354 1105.22769,279.568751 C1105.22769,287.23197 1103.8248,293.039637 1101.01898,296.991927 C1098.21315,300.944217 1093.5821,302.920332 1087.12569,302.920332 C1080.06588,302.920332 1074.9672,301.170489 1071.8295,297.670752 Z M1109.66268,302.196252 L1109.66268,224.44816 L1124.68734,224.44816 L1124.68734,302.196252 L1109.66268,302.196252 Z M1134.41717,296.991927 C1131.67168,293.039637 1130.29896,287.050952 1130.29896,279.025691 L1130.29896,245.536991 C1130.29896,238.356494 1131.89796,232.925949 1135.09599,229.24519 C1138.29403,225.564432 1143.06084,223.72408 1149.39657,223.72408 C1154.5255,223.72408 1158.5079,224.74985 1161.34389,226.80142 C1164.17989,228.85299 1166.14092,231.839791 1167.22704,235.76191 C1168.31317,239.68403 1168.85622,244.72237 1168.85622,250.877081 L1153.65054,250.877081 L1153.65054,243.90781 C1153.65054,242.037261 1153.3941,240.589116 1152.88121,239.56333 C1152.36832,238.537545 1151.44814,238.02466 1150.12065,238.02466 C1147.16398,238.02466 1145.68566,239.955521 1145.68566,243.8173 L1145.68566,281.469461 C1145.68566,283.822733 1145.98736,285.602745 1146.59076,286.809552 C1147.19417,288.016358 1148.25011,288.619752 1149.75861,288.619752 C1151.26712,288.619752 1152.32306,288.016358 1152.92646,286.809552 C1153.52987,285.602745 1153.83156,283.822733 1153.83156,281.469461 L1153.83156,270.336731 L1149.6681,270.336731 L1149.6681,256.941251 L1168.6752,256.941251 L1168.6752,302.196252 L1162.43001,302.196252 L1159.80522,295.679532 C1157.02957,300.506756 1152.74547,302.920332 1146.9528,302.920332 C1141.34116,302.920332 1137.16265,300.944217 1134.41717,296.991927 Z M1174.82988,302.196252 L1174.82988,224.44816 L1190.85015,224.44816 L1198.00044,261.647771 L1198.00044,224.44816 L1213.02511,224.44816 L1213.02511,302.196252 L1197.81942,302.196252 L1190.03556,263.276951 L1190.03556,302.196252 L1174.82988,302.196252 Z M1219.90387,302.196252 L1219.90387,224.44816 L1251.03931,224.44816 L1251.03931,239.47282 L1235.74312,239.47282 L1235.74312,254.587991 L1250.40574,254.587991 L1250.40574,269.250611 L1235.74312,269.250611 L1235.74312,287.081082 L1252.03492,287.081082 L1252.03492,302.196252 L1219.90387,302.196252 Z M1257.19399,224.44816 L1281.08863,224.44816 C1284.89007,224.44816 1287.83161,225.307996 1289.91335,227.027695 C1291.99509,228.747394 1293.39798,231.16097 1294.12207,234.268495 C1294.84615,237.376021 1295.20819,241.343336 1295.20819,246.170561 C1295.20819,250.575403 1294.63496,254.014748 1293.4885,256.488701 C1292.34203,258.962653 1290.35083,260.682326 1287.51484,261.647771 C1289.86811,262.130493 1291.5727,263.307112 1292.62865,265.177661 C1293.68461,267.04821 1294.21258,269.582465 1294.21258,272.780501 L1294.03156,302.196252 L1278.82588,302.196252 L1278.82588,271.784891 C1278.82588,269.61264 1278.4035,268.224834 1277.55874,267.621431 C1276.71397,267.018028 1275.17532,266.716331 1272.94273,266.716331 L1272.94273,302.196252 L1257.19399,302.196252 L1257.19399,224.44816 Z M1276.74415,253.230341 C1278.9164,253.230341 1280.00251,250.877104 1280.00251,246.170561 C1280.00251,244.11899 1279.912,242.580336 1279.73098,241.55455 C1279.54996,240.528765 1279.21809,239.819777 1278.73537,239.427565 C1278.25264,239.035353 1277.55874,238.83925 1276.65364,238.83925 L1273.03324,238.83925 L1273.03324,253.230341 L1276.74415,253.230341 Z" id="developer-and-designer" fill="#000000"></path>
        <path d="M0.925213355,302.196252 L0.925213355,224.44816 L32.0606541,224.44816 L32.0606541,239.47282 L16.7644637,239.47282 L16.7644637,254.587991 L31.4270841,254.587991 L31.4270841,269.250611 L16.7644637,269.250611 L16.7644637,287.081082 L33.0562641,287.081082 L33.0562641,302.196252 L0.925213355,302.196252 Z M38.2153342,302.196252 L38.2153342,224.44816 L54.2356046,224.44816 L61.3858948,261.647771 L61.3858948,224.44816 L76.4105551,224.44816 L76.4105551,302.196252 L61.2048748,302.196252 L53.4210146,263.276951 L53.4210146,302.196252 L38.2153342,302.196252 Z M89.9870555,302.196252 L89.9870555,239.38231 L80.7550352,239.38231 L80.7550352,224.44816 L114.786796,224.44816 L114.786796,239.38231 L105.554776,239.38231 L105.554776,302.196252 L89.9870555,302.196252 Z M119.131276,224.44816 L143.025917,224.44816 C146.827356,224.44816 149.768901,225.307996 151.850642,227.027695 C153.932382,228.747394 155.335273,231.16097 156.059357,234.268495 C156.783441,237.376021 157.145477,241.343336 157.145477,246.170561 C157.145477,250.575403 156.572253,254.014748 155.425787,256.488701 C154.279321,258.962653 152.288121,260.682326 149.452127,261.647771 C151.805399,262.130493 153.509987,263.307112 154.565942,265.177661 C155.621897,267.04821 156.149867,269.582465 156.149867,272.780501 L155.968847,302.196252 L140.763167,302.196252 L140.763167,271.784891 C140.763167,269.61264 140.340791,268.224834 139.496027,267.621431 C138.651262,267.018028 137.112608,266.716331 134.880017,266.716331 L134.880017,302.196252 L119.131276,302.196252 L119.131276,224.44816 Z M138.681437,253.230341 C140.853688,253.230341 141.939797,250.877104 141.939797,246.170561 C141.939797,244.11899 141.849288,242.580336 141.668267,241.55455 C141.487246,240.528765 141.155379,239.819777 140.672657,239.427565 C140.189934,239.035353 139.496031,238.83925 138.590927,238.83925 L134.970527,238.83925 L134.970527,253.230341 L138.681437,253.230341 Z M162.304547,302.196252 L162.304547,224.44816 L193.439988,224.44816 L193.439988,239.47282 L178.143798,239.47282 L178.143798,254.587991 L192.806418,254.587991 L192.806418,269.250611 L178.143798,269.250611 L178.143798,287.081082 L194.435598,287.081082 L194.435598,302.196252 L162.304547,302.196252 Z M199.594668,224.44816 L220.140439,224.44816 C226.35549,224.44816 230.790436,226.454445 233.445409,230.467075 C236.100382,234.479705 237.427849,240.347712 237.427849,248.071271 C237.427849,255.794829 236.251231,261.617581 233.897959,265.539701 C231.544687,269.461821 227.320929,271.422851 221.226559,271.422851 L214.890858,271.422851 L214.890858,302.196252 L199.594668,302.196252 L199.594668,224.44816 Z M215.795958,257.393801 C217.666508,257.393801 219.039229,257.046849 219.914164,256.352936 C220.789098,255.659022 221.362322,254.663422 221.633854,253.366106 C221.905385,252.068789 222.041149,250.213353 222.041149,247.799741 C222.041149,244.541364 221.679112,242.188128 220.955029,240.73996 C220.230945,239.291793 218.782799,238.56772 216.610548,238.56772 L214.890858,238.56772 L214.890858,257.393801 L215.795958,257.393801 Z M242.315389,224.44816 L266.21003,224.44816 C270.011469,224.44816 272.953014,225.307996 275.034755,227.027695 C277.116495,228.747394 278.519386,231.16097 279.24347,234.268495 C279.967554,237.376021 280.32959,241.343336 280.32959,246.170561 C280.32959,250.575403 279.756366,254.014748 278.6099,256.488701 C277.463434,258.962653 275.472234,260.682326 272.63624,261.647771 C274.989512,262.130493 276.6941,263.307112 277.750055,265.177661 C278.80601,267.04821 279.33398,269.582465 279.33398,272.780501 L279.15296,302.196252 L263.94728,302.196252 L263.94728,271.784891 C263.94728,269.61264 263.524904,268.224834 262.68014,267.621431 C261.835375,267.018028 260.296721,266.716331 258.064129,266.716331 L258.064129,302.196252 L242.315389,302.196252 L242.315389,224.44816 Z M261.86555,253.230341 C264.0378,253.230341 265.12391,250.877104 265.12391,246.170561 C265.12391,244.11899 265.0334,242.580336 264.85238,241.55455 C264.671359,240.528765 264.339492,239.819777 263.85677,239.427565 C263.374047,239.035353 262.680144,238.83925 261.77504,238.83925 L258.154639,238.83925 L258.154639,253.230341 L261.86555,253.230341 Z M285.48866,302.196252 L285.48866,224.44816 L316.624101,224.44816 L316.624101,239.47282 L301.32791,239.47282 L301.32791,254.587991 L315.990531,254.587991 L315.990531,269.250611 L301.32791,269.250611 L301.32791,287.081082 L317.619711,287.081082 L317.619711,302.196252 L285.48866,302.196252 Z M322.778781,302.196252 L322.778781,224.44816 L338.799051,224.44816 L345.949341,261.647771 L345.949341,224.44816 L360.974002,224.44816 L360.974002,302.196252 L345.768321,302.196252 L337.984461,263.276951 L337.984461,302.196252 L322.778781,302.196252 Z M367.852762,302.196252 L367.852762,224.44816 L398.988203,224.44816 L398.988203,239.47282 L383.692012,239.47282 L383.692012,254.587991 L398.354633,254.587991 L398.354633,269.250611 L383.692012,269.250611 L383.692012,287.081082 L399.983813,287.081082 L399.983813,302.196252 L367.852762,302.196252 Z M408.899048,297.489732 C405.791522,293.869314 404.237783,288.499107 404.237783,281.378951 L404.237783,224.44816 L419.352953,224.44816 L419.352953,280.745381 C419.352953,283.219334 419.594311,285.150195 420.077033,286.538021 C420.559756,287.925848 421.585525,288.619752 423.154373,288.619752 C424.723221,288.619752 425.748991,287.940933 426.231713,286.583277 C426.714436,285.22562 426.955793,283.279674 426.955793,280.745381 L426.955793,224.44816 L442.070964,224.44816 L442.070964,281.378951 C442.070964,288.499107 440.517224,293.869314 437.409699,297.489732 C434.302173,301.11015 429.550445,302.920332 423.154373,302.920332 C416.758301,302.920332 412.006574,301.11015 408.899048,297.489732 Z M448.044624,224.44816 L471.939264,224.44816 C475.740704,224.44816 478.682249,225.307996 480.76399,227.027695 C482.84573,228.747394 484.248621,231.16097 484.972705,234.268495 C485.696788,237.376021 486.058825,241.343336 486.058825,246.170561 C486.058825,250.575403 485.485601,254.014748 484.339135,256.488701 C483.192669,258.962653 481.201469,260.682326 478.365475,261.647771 C480.718746,262.130493 482.423334,263.307112 483.47929,265.177661 C484.535245,267.04821 485.063215,269.582465 485.063215,272.780501 L484.882195,302.196252 L469.676514,302.196252 L469.676514,271.784891 C469.676514,269.61264 469.254139,268.224834 468.409374,267.621431 C467.56461,267.018028 466.025955,266.716331 463.793364,266.716331 L463.793364,302.196252 L448.044624,302.196252 L448.044624,224.44816 Z M467.594784,253.230341 C469.767035,253.230341 470.853144,250.877104 470.853144,246.170561 C470.853144,244.11899 470.762635,242.580336 470.581614,241.55455 C470.400594,240.528765 470.068727,239.819777 469.586004,239.427565 C469.103282,239.035353 468.409379,238.83925 467.504274,238.83925 L463.883874,238.83925 L463.883874,253.230341 L467.594784,253.230341 Z" id="entrepreneur" fill="#000000"></path>
        <path d="M515.265699,426.116875 L515.265699,350.702347 L530.80513,350.702347 L537.740809,386.785433 L537.740809,350.702347 L552.314512,350.702347 L552.314512,426.116875 L537.565222,426.116875 L530.01499,388.365714 L530.01499,426.116875 L515.265699,426.116875 Z M563.1131,421.244341 C559.952522,417.527735 558.372257,412.304081 558.372257,405.57322 L558.372257,369.665721 C558.372257,363.168977 559.952522,358.267228 563.1131,354.960327 C566.273678,351.653426 570.897417,350 576.984457,350 C583.071496,350 587.695235,351.653426 590.855813,354.960327 C594.016391,358.267228 595.596657,363.168977 595.596657,369.665721 L595.596657,405.57322 C595.596657,412.36261 594.016391,417.600897 590.855813,421.288238 C587.695235,424.975579 583.071496,426.819222 576.984457,426.819222 C570.897417,426.819222 566.273678,424.960947 563.1131,421.244341 Z M579.706052,411.191997 C580.174286,410.021413 580.408399,408.382619 580.408399,406.275567 L580.408399,369.402341 C580.408399,367.763522 580.188918,366.432002 579.749949,365.407741 C579.31098,364.38348 578.418422,363.871357 577.07225,363.871357 C574.555494,363.871357 573.297134,365.773528 573.297134,369.577927 L573.297134,406.36336 C573.297134,408.528942 573.560512,410.167735 574.087275,411.279791 C574.614038,412.391846 575.579755,412.947865 576.984457,412.947865 C578.330629,412.947865 579.237818,412.362582 579.706052,411.191997 Z M608.151112,426.116875 L608.151112,365.188258 L599.196186,365.188258 L599.196186,350.702347 L632.206503,350.702347 L632.206503,365.188258 L623.251577,365.188258 L623.251577,426.116875 L608.151112,426.116875 Z M636.420586,426.116875 L636.420586,350.702347 L666.621514,350.702347 L666.621514,365.276051 L651.78443,365.276051 L651.78443,379.937548 L666.006961,379.937548 L666.006961,394.160078 L651.78443,394.160078 L651.78443,411.455377 L667.587242,411.455377 L667.587242,426.116875 L636.420586,426.116875 Z M707.794298,437.82507 L707.794298,445.878719 L515,445.878719 L515,437.82507 L707.794298,437.82507 Z M688.48207,350 C695.27146,350 700.158577,351.799747 703.143567,355.399294 C706.128558,358.998841 707.621031,364.632194 707.621031,372.299523 L692.257186,372.299523 L692.169393,367.119712 C692.169393,366.124715 691.891383,365.334583 691.335356,364.749291 C690.779328,364.163998 690.003827,363.871357 689.008831,363.871357 C687.838246,363.871357 686.960321,364.193263 686.375029,364.837084 C685.789736,365.480905 685.497095,366.358831 685.497095,367.470886 C685.497095,369.929113 686.901775,372.475096 689.711178,375.108911 L698.490517,383.537077 C700.53904,385.527071 702.236362,387.41461 703.582534,389.199751 C704.928706,390.984893 706.011481,393.091913 706.83089,395.520876 C707.650299,397.949839 708.059998,400.83236 708.059998,404.168526 C708.059998,411.601737 706.699214,417.23509 703.977605,421.068754 C701.255996,424.902419 696.763945,426.819222 690.501318,426.819222 C683.653399,426.819222 678.707754,425.1219 675.664234,421.727205 C672.620715,418.33251 671.098978,412.86011 671.098978,405.30984 L671.098978,397.935194 L685.936062,397.935194 L685.936062,407.329088 C685.936062,411.074958 687.135893,412.947865 689.535591,412.947865 C690.881763,412.947865 691.818217,412.552799 692.34498,411.762654 C692.871743,410.97251 693.13512,409.64099 693.13512,407.768055 C693.13512,405.309827 692.842478,403.275967 692.257186,401.666414 C691.671894,400.05686 690.925658,398.710708 690.018455,397.627918 C689.111252,396.545127 687.48709,394.862437 685.145921,392.579797 L678.64921,386.083086 C673.615697,381.166631 671.098978,375.723495 671.098978,369.753514 C671.098978,363.3153 672.576818,358.413551 675.532544,355.04812 C678.48827,351.68269 682.804735,350 688.48207,350 Z" id="notes" fill="#000000"></path>
        <path d="M305.132849,350.702332 L325.588275,350.702332 C331.089905,350.702332 335.08438,352.048456 337.571819,354.740743 C340.059258,357.43303 341.302959,361.822562 341.302959,367.909472 L341.302959,371.24555 C341.302959,378.444491 338.727766,382.746233 333.577304,384.150904 C336.737815,384.970296 338.961845,386.872427 340.24946,389.857354 C341.537076,392.842281 342.180874,396.79286 342.180874,401.70921 C342.180874,409.727543 340.981068,415.79973 338.581421,419.925952 C336.181774,424.052175 331.850769,426.115255 325.588275,426.115255 L305.132849,426.115255 L305.132849,350.702332 Z M322.954529,379.058996 C324.242145,379.058996 325.120051,378.576147 325.588275,377.610436 C326.056499,376.644724 326.290607,375.283969 326.290607,373.52813 L326.290607,365.978058 C326.290607,363.519883 325.207856,362.290814 323.042321,362.290814 L319.881826,362.290814 L319.881826,379.058996 L322.954529,379.058996 Z M327.256314,407.240076 L327.256314,397.846383 C327.256314,395.563792 326.919783,393.837242 326.246712,392.666683 C325.57364,391.496123 324.388466,390.910852 322.691155,390.910852 L319.881826,390.910852 L319.881826,412.770943 L321.374282,412.858734 C325.295656,412.858734 327.256314,410.985867 327.256314,407.240076 Z M351.311193,421.242825 C348.150682,417.526299 346.57045,412.302755 346.57045,405.572037 L346.57045,369.665302 C346.57045,363.168697 348.150682,358.267052 351.311193,354.960221 C354.471704,351.653391 359.095345,350 365.182254,350 C371.269164,350 375.892805,351.653391 379.053316,354.960221 C382.213827,358.267052 383.794058,363.168697 383.794058,369.665302 L383.794058,405.572037 C383.794058,412.361283 382.213827,417.599458 379.053316,421.286721 C375.892805,424.973984 371.269164,426.817587 365.182254,426.817587 C359.095345,426.817587 354.471704,424.959352 351.311193,421.242825 Z M367.903792,411.190695 C368.372016,410.020136 368.606124,408.381377 368.606124,406.27437 L368.606124,369.401928 C368.606124,367.763144 368.386647,366.431653 367.947688,365.407413 C367.508728,364.383174 366.616189,363.871061 365.270046,363.871061 C362.753343,363.871061 361.49501,365.773192 361.49501,369.577511 L361.49501,406.362161 C361.49501,408.527696 361.758382,410.166455 362.285134,411.278487 C362.811886,412.390518 363.777583,412.946526 365.182254,412.946526 C366.528398,412.946526 367.435568,412.361255 367.903792,411.190695 Z M393.977876,421.242825 C390.817365,417.526299 389.237133,412.302755 389.237133,405.572037 L389.237133,369.665302 C389.237133,363.168697 390.817365,358.267052 393.977876,354.960221 C397.138387,351.653391 401.762027,350 407.848937,350 C413.935847,350 418.559488,351.653391 421.719999,354.960221 C424.880509,358.267052 426.460741,363.168697 426.460741,369.665302 L426.460741,405.572037 C426.460741,412.361283 424.880509,417.599458 421.719999,421.286721 C418.559488,424.973984 413.935847,426.817587 407.848937,426.817587 C401.762027,426.817587 397.138387,424.959352 393.977876,421.242825 Z M410.570475,411.190695 C411.038698,410.020136 411.272807,408.381377 411.272807,406.27437 L411.272807,369.401928 C411.272807,367.763144 411.05333,366.431653 410.61437,365.407413 C410.175411,364.383174 409.282872,363.871061 407.936729,363.871061 C405.420026,363.871061 404.161693,365.773192 404.161693,369.577511 L404.161693,406.362161 C404.161693,408.527696 404.425065,410.166455 404.951817,411.278487 C405.478569,412.390518 406.444266,412.946526 407.848937,412.946526 C409.195081,412.946526 410.102251,412.361255 410.570475,411.190695 Z M471.277155,437.844925 L471.277155,445.89855 L305,445.89855 L305,437.844925 L471.277155,437.844925 Z M447.442916,350.702332 L447.442916,380.902618 L454.466239,350.702332 L469.654173,350.702332 L461.226186,385.204403 L471.410004,426.115255 L455.783112,426.115255 L447.530708,389.593979 L447.530708,426.115255 L432.518357,426.115255 L432.518357,350.702332 L447.442916,350.702332 Z" id="book" fill="#000000"></path>
        <path d="M260,437.844286 L260,445.897853 L0,445.897853 L0,437.844286 L260,437.844286 Z M241.40625,349.6875 C246.505208,349.6875 250.415365,350.711589 253.136719,352.759766 C255.858073,354.807943 257.734375,357.794271 258.765625,361.71875 C259.796875,365.643229 260.3125,370.427083 260.3125,376.070313 L260.3125,376.070313 L245.53125,376.070313 L245.53125,369.367188 L245.526625,368.964505 C245.492707,367.508242 245.272244,366.274631 244.865234,365.263672 C244.421224,364.160807 243.497396,363.609375 242.09375,363.609375 C240.346354,363.609375 239.193359,364.196615 238.634766,365.371094 C238.076172,366.545573 237.796875,367.834635 237.796875,369.238281 L237.796875,369.238281 L237.796875,405.890625 L237.800931,406.320641 C237.83608,408.158871 238.099702,409.669829 238.591797,410.853516 C239.121745,412.128255 240.160156,412.765625 241.707031,412.765625 C243.311198,412.765625 244.378255,412.128255 244.908203,410.853516 C245.438151,409.578776 245.703125,407.895833 245.703125,405.804688 L245.703125,405.804688 L245.703125,395.019531 L241.664062,395.019531 L241.664062,381.957031 L260.140625,381.957031 L260.140625,426 L254.082031,426 L251.503906,419.640625 L251.321866,419.957298 C248.678903,424.444099 244.585938,426.6875 239.042969,426.6875 C228.24349,426.6875 222.84375,418.953125 222.84375,403.484375 L222.84375,403.484375 L222.84375,370.871094 L222.845764,370.432067 C222.973328,356.602356 229.160156,349.6875 241.40625,349.6875 Z M12.9414062,350.375 L17.109375,398.113281 L21.3632812,350.375 L35.4570312,350.375 L39.4960938,398.113281 L43.5351562,350.375 L58.4882812,350.375 L50.2382812,426 L32.1054688,426 L28.3242188,389.605469 L24.7148438,426 L6.28125,426 L-1.83984375,350.375 L12.9414062,350.375 Z M86.203125,350.375 L86.6289223,350.378625 C90.285451,350.441457 93.0653935,351.321108 94.96875,353.017578 C96.9453125,354.779297 98.2701823,357.242839 98.9433594,360.408203 C99.6165365,363.573568 99.953125,367.290365 99.953125,371.558594 C99.953125,375.683594 99.4303385,378.977865 98.3847656,381.441406 C97.3391927,383.904948 95.3697917,385.609375 92.4765625,386.554688 C94.8541667,387.041667 96.5227865,388.223307 97.4824219,390.099609 C98.4420573,391.975911 98.921875,394.403646 98.921875,397.382813 L98.921875,397.382813 L98.921875,426 L84.0117188,426 L84.0117188,396.394531 L84.0089222,396.098944 C83.969771,394.066184 83.5195312,392.796875 82.6582031,392.291016 C81.7558594,391.761068 80.3020833,391.496094 78.296875,391.496094 L78.296875,391.496094 L78.296875,426 L63,426 L63,350.375 L86.203125,350.375 Z M118.859375,350.375 L118.859375,426 L104.25,426 L104.25,350.375 L118.859375,350.375 Z M155.46875,350.375 L155.46875,364.898438 L146.488281,364.898438 L146.488281,426 L131.363281,426 L131.363281,364.898438 L122.382812,364.898438 L122.382812,350.375 L155.46875,350.375 Z M173.601562,350.375 L173.601562,426 L158.992188,426 L158.992188,350.375 L173.601562,350.375 Z M195.171875,350.375 L202.132812,386.597656 L202.132812,350.375 L216.742188,350.375 L216.742188,426 L201.960938,426 L194.398438,388.1875 L194.398438,426 L179.617188,426 L179.617188,350.375 L195.171875,350.375 Z M81.90625,364.382813 L78.3828125,364.382813 L78.3828125,378.390625 L82.0351562,378.390625 C84.1263021,378.390625 85.171875,376.113281 85.171875,371.558594 C85.171875,368.608073 84.9427083,366.674479 84.484375,365.757813 C84.0260417,364.841146 83.1666667,364.382813 81.90625,364.382813 L81.90625,364.382813 Z" id="writing" fill="#000000"></path>
        <path d="M1062.059,374.779 L1062.06,411.234323 C1062.06,412.888473 1060.71373,414.229427 1059.05975,414.229427 L992.000246,414.229427 C990.343256,414.229427 989,412.887014 989,411.234323 L989,374.788 L1024.23966,396.953111 C1025.09099,397.488566 1026.17428,397.487077 1027.02414,396.949285 L1062.059,374.779 Z M1059.05975,361 C1060.71674,361 1062.06,362.342413 1062.06,363.995104 L1062.059,368.603 L1025.62463,391.659231 L989,368.624 L989,363.995104 C989,362.340954 990.346272,361 992.000246,361 L1059.05975,361 Z" id="email" fill="#000000"></path>
        <path d="M818.541056,372.786136 C818.587408,373.435058 818.587408,374.083979 818.587408,374.7329 C818.587408,394.525002 803.523162,417.329952 775.990356,417.329952 C767.508027,417.329952 759.628268,414.873321 753,410.608981 C754.20514,410.748035 755.363928,410.794387 756.615419,410.794387 C763.614499,410.794387 770.057361,408.430459 775.20238,404.397876 C768.620464,404.258822 763.104632,399.94813 761.20422,394.015135 C762.13125,394.154189 763.058281,394.246892 764.031663,394.246892 C765.375857,394.246892 766.720051,394.061486 767.971543,393.737026 C761.111517,392.34648 755.966498,386.320782 755.966498,379.043592 L755.966498,378.858186 C757.959613,379.970623 760.277189,380.665896 762.73382,380.758599 C758.701238,378.07021 756.059201,373.481409 756.059201,368.290039 C756.059201,365.508947 756.800825,362.959613 758.098668,360.73474 C765.46856,369.819639 776.546575,375.752634 788.968783,376.401555 C788.737026,375.289119 788.597971,374.130331 788.597971,372.971543 C788.597971,364.720971 795.272591,358 803.569514,358 C807.880205,358 811.773733,359.807709 814.508473,362.727856 C817.892135,362.078934 821.136741,360.827443 824.010536,359.112437 C822.898099,362.588801 820.534172,365.508947 817.428619,367.363008 C820.441469,367.038547 823.361615,366.20422 826.050003,365.045432 C824.010536,368.011929 821.461202,370.653966 818.541056,372.786136 L818.541056,372.786136 Z" id="twitter" fill="#000000" fill-rule="nonzero"></path>
        <path d="M906.921915,351 C886.002513,351 870,366.881853 870,387.801255 C870,404.527727 880.527572,418.841002 895.564806,423.878551 C897.495364,424.225448 898.174076,423.033932 898.174076,422.053571 C898.174076,421.118457 898.128828,415.960248 898.128828,412.792927 C898.128828,412.792927 887.571091,415.055299 885.353966,408.298348 C885.353966,408.298348 883.634563,403.909345 881.161036,402.778159 C881.161036,402.778159 877.707148,400.41021 881.402356,400.455457 C881.402356,400.455457 885.157894,400.757107 887.224194,404.346737 C890.527257,410.168575 896.062528,408.49442 898.219323,407.498976 C898.56622,405.085779 899.546581,403.411624 900.63252,402.41618 C892.201413,401.481066 883.694893,400.259385 883.694893,385.750038 C883.694893,381.602355 884.841162,379.520973 887.254359,376.866456 C886.862214,375.886095 885.580203,371.84399 887.646503,366.625451 C890.798742,365.64509 898.053416,370.697721 898.053416,370.697721 C901.069912,369.853102 904.312646,369.41571 907.525214,369.41571 C910.737783,369.41571 913.980516,369.853102 916.997013,370.697721 C916.997013,370.697721 924.251686,365.630007 927.403925,366.625451 C929.470225,371.859072 928.188214,375.886095 927.796069,376.866456 C930.209266,379.536055 931.68735,381.617438 931.68735,385.750038 C931.68735,400.304632 922.803768,401.465983 914.372661,402.41618 C915.760249,403.607696 916.936683,405.870068 916.936683,409.414451 C916.936683,414.497247 916.891435,420.786642 916.891435,422.023406 C916.891435,423.003767 917.585229,424.195283 919.500705,423.848386 C934.583186,418.841002 944.809109,404.527727 944.809109,387.801255 C944.809109,366.881853 927.841317,351 906.921915,351 Z" id="github" fill="#000000" fill-rule="nonzero"></path>
        <path d="M1239.8564,415.824187 L1225.16986,415.824187 L1225.16986,368.539557 L1239.8564,368.539557 L1239.8564,415.824187 L1239.8564,415.824187 Z M1232.50523,362.089497 C1227.80996,362.089497 1224,358.20049 1224,353.505226 C1224,348.809962 1227.80996,345 1232.50523,345 C1237.20049,345 1241.01045,348.809962 1241.01045,353.505226 C1241.01045,358.20049 1237.20049,362.089497 1232.50523,362.089497 Z M1294.82419,415.824187 L1280.16927,415.824187 L1280.16927,392.806326 C1280.16927,387.320614 1280.05861,380.285622 1272.53354,380.285622 C1264.89781,380.285622 1263.72794,386.245604 1263.72794,392.411102 L1263.72794,415.824187 L1249.05722,415.824187 L1249.05722,368.539557 L1263.14301,368.539557 L1263.14301,374.989617 L1263.34853,374.989617 C1265.30884,371.274509 1270.09896,367.353884 1277.24461,367.353884 C1292.10504,367.353884 1294.84,377.139637 1294.84,389.850049 L1294.84,415.824187 L1294.82419,415.824187 Z" id="linkedin" fill="#000000" fill-rule="nonzero"></path>
        <path d="M1178.4273,373.517217 C1178.47496,373.553998 1178.54856,373.615945 1178.62117,373.681118 C1178.6706,373.725654 1178.77991,373.836312 1178.77991,373.836312 C1178.84213,373.897767 1178.90386,373.964803 1178.99467,374.069495 C1179.17847,374.304516 1179.23123,374.380757 1179.30248,374.490701 C1179.45472,374.743641 1179.4994,374.831202 1179.54571,374.930502 C1179.6729,375.219914 1179.69604,375.286701 1179.74015,375.422346 C1179.83011,375.725455 1179.84986,375.822764 1179.874,375.96173 C1179.92776,376.312002 1179.94,376.483289 1179.94,376.65413 L1179.94,398.284955 C1179.94,398.45515 1179.92788,398.625325 1179.90195,398.828647 C1179.84907,399.120877 1179.83,399.215141 1179.80326,399.314876 C1179.74382,399.505802 1179.73296,399.538884 1179.73296,399.538884 C1179.68675,399.677896 1179.66458,399.739817 1179.63581,399.811467 C1179.50242,400.101883 1179.4585,400.188466 1179.39855,400.293207 C1179.23538,400.552909 1179.18006,400.632657 1179.13777,400.687109 C1179.09342,400.748776 1179.06106,400.789438 1178.97677,400.891168 C1178.90178,400.977122 1178.84116,401.043028 1178.78688,401.096095 C1178.70393,401.181235 1178.66644,401.218173 1178.62302,401.256529 C1178.55288,401.320051 1178.47955,401.381844 1178.39503,401.448821 C1178.30721,401.51713 1178.26573,401.548338 1178.18396,401.604615 C1178.19879,401.597389 1145.70153,423.263583 1145.70153,423.263583 C1145.03555,423.707073 1144.25937,423.940232 1143.47012,423.940232 C1142.68006,423.940232 1141.90331,423.707019 1141.23759,423.263303 L1108.79662,401.635891 C1108.65755,401.536703 1108.61335,401.502677 1108.54477,401.448123 C1108.46256,401.383937 1108.38517,401.318725 1108.33153,401.268839 C1108.27776,401.221971 1108.1608,401.104389 1108.1608,401.104389 C1108.09499,401.039392 1108.03013,400.968319 1107.95577,400.881439 C1107.89544,400.810412 1107.84967,400.753392 1107.81245,400.70136 C1107.75048,400.618416 1107.6935,400.53619 1107.65076,400.468086 C1107.61318,400.410875 1107.57703,400.35309 1107.52476,400.2646 C1107.48003,400.183693 1107.43881,400.102429 1107.39591,400.01241 C1107.34632,399.910041 1107.32631,399.866705 1107.30109,399.803787 C1107.26548,399.714782 1107.24271,399.648514 1107.20268,399.524889 C1107.11276,399.225317 1107.09895,399.157492 1107.07357,399.019106 C1107.01255,398.635317 1107,398.460099 1107,398.284955 L1107,376.65413 C1107,376.479378 1107.01266,376.304292 1107.03592,376.132634 C1107.09895,375.781363 1107.11276,375.713537 1107.14189,375.604081 C1107.24151,375.293514 1107.26666,375.220745 1107.30251,375.133372 C1107.33018,375.064963 1107.35282,375.016032 1107.39325,374.932483 C1107.44106,374.831461 1107.48395,374.747409 1107.53295,374.662037 C1107.69326,374.403196 1107.75095,374.319955 1107.81449,374.235237 C1107.86042,374.174207 1107.907,374.115546 1107.95665,374.056847 C1108.02566,373.975836 1108.09308,373.902116 1108.15465,373.841195 C1108.23984,373.754404 1108.27941,373.715949 1108.31665,373.683486 C1108.38963,373.617199 1108.46597,373.552941 1108.51339,373.516988 C1108.62031,373.431329 1108.66108,373.399919 1108.75853,373.332734 C1108.73995,373.34265 1141.23759,351.67601 1141.23759,351.67601 C1142.58961,350.774664 1144.3497,350.774664 1145.70172,351.676009 L1178.14554,373.305151 C1178.39082,373.48765 1178.39082,373.48765 1178.4273,373.517217 Z M1177.02641,400.043002 L1177.03103,400.039339 C1177.02998,400.040148 1177.02839,400.04142 1177.02641,400.043002 Z M1177.02476,374.895178 C1177.02682,374.896851 1177.02832,374.898063 1177.03016,374.899473 C1177.02977,374.899155 1177.02476,374.895178 1177.02476,374.895178 Z M1147.49388,374.433313 L1159.74632,382.62933 L1168.67011,376.659466 L1147.49388,362.542994 L1147.49388,374.433313 Z M1118.26926,376.659435 L1127.19388,382.629336 L1139.44566,374.433328 L1139.44566,362.542984 L1118.26926,376.659435 Z M1115.04753,390.753081 L1119.95614,387.469693 L1115.04753,384.186601 L1115.04753,390.753081 Z M1140.4192,413.241581 L1140.41897,414.214888 L1140.4192,413.241581 Z M1139.44589,400.506268 L1127.19408,392.31173 L1118.26965,398.279776 L1139.44589,412.396459 L1139.44589,400.506268 Z M1152.50864,387.46967 L1143.46987,381.423684 L1134.43052,387.46967 L1143.46987,393.515847 L1152.50864,387.46967 Z M1168.66995,398.279741 L1159.74635,392.311736 L1147.49388,400.506283 L1147.49388,412.396306 L1168.66995,398.279741 Z M1171.89179,384.186523 L1166.98414,387.469464 L1171.89179,390.752699 L1171.89179,384.186523 Z" id="codepen" fill="#000000" fill-rule="nonzero"></path>
    </g>
</svg>