<svg width="246" height="94" viewBox="0 0 246 94" fill="none" xmlns="http://www.w3.org/2000/svg">
<rect width="3318" height="387" transform="translate(-52 -62)" fill="white"/>
<path d="M3.12 91C1.584 91 0.560001 89.976 0.560001 88.44V3.96C0.560001 2.424 1.584 1.39999 3.12 1.39999H13.36C14.896 1.39999 15.92 2.424 15.92 3.96V76.92H25.904C27.568 76.92 28.592 78.072 28.464 79.736L27.696 88.696C27.568 90.104 26.544 91 25.136 91H3.12Z" fill="black"/>
<path d="M38.734 3.70399C38.862 2.296 39.886 1.39999 41.294 1.39999H57.166C58.574 1.39999 59.598 2.296 59.726 3.70399L69.454 88.184C69.582 89.848 68.558 91 66.894 91H56.782C55.246 91 54.35 90.104 54.222 88.568L53.582 80.12H44.878L44.238 88.568C44.238 90.104 43.214 91 41.678 91H31.566C29.902 91 28.878 89.848 29.134 88.184L38.734 3.70399ZM45.902 66.04H52.558L49.23 19.32L45.902 66.04Z" fill="black"/>
<path d="M99.958 91C98.806 91 97.782 90.232 97.526 88.952L87.67 39.8V88.44C87.67 89.976 86.646 91 85.11 91H74.87C73.334 91 72.31 89.976 72.31 88.44V3.96C72.31 2.424 73.334 1.39999 74.87 1.39999H85.622C86.774 1.39999 87.798 2.168 88.054 3.448L97.91 52.6V3.96C97.91 2.424 98.934 1.39999 100.47 1.39999H110.71C112.246 1.39999 113.27 2.424 113.27 3.96V88.44C113.27 89.976 112.246 91 110.71 91H99.958Z" fill="black"/>
<path d="M120.995 91C119.459 91 118.435 89.976 118.435 88.44V3.96C118.435 2.424 119.459 1.39999 120.995 1.39999H138.915C152.099 1.39999 156.835 9.976 156.835 20.6V71.8C156.835 82.424 152.099 91 138.915 91H120.995ZM137.635 15.48H133.795V76.92H137.635C139.811 76.92 141.475 75.256 141.475 73.08V19.32C141.475 17.144 139.811 15.48 137.635 15.48Z" fill="black"/>
<path d="M180.495 0.119995C193.679 0.119995 199.695 8.696 199.695 19.32V73.08C199.695 83.704 193.679 92.28 180.495 92.28C167.311 92.28 161.295 83.704 161.295 73.08V19.32C161.295 8.696 167.311 0.119995 180.495 0.119995ZM184.335 74.36V18.04C184.335 15.864 182.671 14.2 180.495 14.2C178.319 14.2 176.655 15.864 176.655 18.04V74.36C176.655 76.536 178.319 78.2 180.495 78.2C182.671 78.2 184.335 76.536 184.335 74.36Z" fill="black"/>
<path d="M231.833 91C230.681 91 229.657 90.232 229.401 88.952L219.545 39.8V88.44C219.545 89.976 218.521 91 216.985 91H206.745C205.209 91 204.185 89.976 204.185 88.44V3.96C204.185 2.424 205.209 1.39999 206.745 1.39999H217.497C218.649 1.39999 219.673 2.168 219.929 3.448L229.785 52.6V3.96C229.785 2.424 230.809 1.39999 232.345 1.39999H242.585C244.121 1.39999 245.145 2.424 245.145 3.96V88.44C245.145 89.976 244.121 91 242.585 91H231.833Z" fill="black"/>
</svg>
