<svg width="86" height="96" viewBox="0 0 86 96" fill="none" xmlns="http://www.w3.org/2000/svg">
<path d="M79.8571 5H6.12367C2.74509 5 0 7.7835 0 11.2005V84.7995C0 88.2165 2.74509 91 6.12367 91H79.8571C83.2357 91 86 88.2165 86 84.7995V11.2005C86 7.7835 83.2357 5 79.8571 5ZM25.9919 78.7142H13.2455V37.6723H26.0112V78.7142H25.9919ZM19.6188 32.067C15.5299 32.067 12.2281 28.746 12.2281 24.6764C12.2281 20.6067 15.5299 17.2857 19.6188 17.2857C23.6884 17.2857 27.0094 20.6067 27.0094 24.6764C27.0094 28.7652 23.7076 32.067 19.6188 32.067ZM73.7719 78.7142H61.0254V58.75C61.0254 53.9893 60.9294 47.8656 54.4027 47.8656C47.7607 47.8656 46.7433 53.0487 46.7433 58.4045V78.7142H33.9969V37.6723H46.225V43.2777H46.3978C48.1062 40.0527 52.2719 36.6549 58.4723 36.6549C71.3723 36.6549 73.7719 45.1589 73.7719 56.216V78.7142Z" fill="black"/>
</svg>
