<svg width="141" height="93" viewBox="0 0 141 93" fill="none" xmlns="http://www.w3.org/2000/svg">
<rect width="3512" height="387" transform="translate(-3319 -62)" fill="white"/>
<path d="M29.7201 91C28.1841 91 27.1601 89.976 27.1601 88.44V71.416H3.35211C1.43211 71.416 0.536111 70.264 0.792111 68.472L11.4161 3.576C11.6721 2.296 12.6961 1.39999 13.9761 1.39999H22.8081C24.7281 1.39999 25.7521 2.55199 25.3681 4.34399L16.6641 57.336H27.1601V20.6C27.1601 19.064 28.1841 18.04 29.7201 18.04H39.9601C41.4961 18.04 42.5201 19.064 42.5201 20.6V57.336H45.0801C46.6161 57.336 47.5121 58.36 47.3841 59.896L46.4881 69.496C46.4881 70.648 45.5921 71.416 44.4401 71.416H42.5201V88.44C42.5201 89.976 41.4961 91 39.9601 91H29.7201Z" fill="black"/>
<path d="M70.6351 0.119995C83.8191 0.119995 89.8351 8.696 89.8351 19.32V73.08C89.8351 83.704 83.8191 92.28 70.6351 92.28C57.4511 92.28 51.4351 83.704 51.4351 73.08V19.32C51.4351 8.696 57.4511 0.119995 70.6351 0.119995ZM74.4751 74.36V18.04C74.4751 15.864 72.8111 14.2 70.6351 14.2C68.4591 14.2 66.7951 15.864 66.7951 18.04V74.36C66.7951 76.536 68.4591 78.2 70.6351 78.2C72.8111 78.2 74.4751 76.536 74.4751 74.36Z" fill="black"/>
<path d="M123.095 91C121.559 91 120.535 89.976 120.535 88.44V71.416H96.7271C94.8071 71.416 93.9111 70.264 94.1671 68.472L104.791 3.576C105.047 2.296 106.071 1.39999 107.351 1.39999H116.183C118.103 1.39999 119.127 2.55199 118.743 4.34399L110.039 57.336H120.535V20.6C120.535 19.064 121.559 18.04 123.095 18.04H133.335C134.871 18.04 135.895 19.064 135.895 20.6V57.336H138.455C139.991 57.336 140.887 58.36 140.759 59.896L139.863 69.496C139.863 70.648 138.967 71.416 137.815 71.416H135.895V88.44C135.895 89.976 134.871 91 133.335 91H123.095Z" fill="black"/>
</svg>
