<?xml version="1.0" encoding="UTF-8"?>
<svg width="746px" height="446px" viewBox="0 0 746 446" version="1.1" xmlns="http://www.w3.org/2000/svg" xmlns:xlink="http://www.w3.org/1999/xlink">
    <title>not-found</title>
    <g id="not-found" stroke="none" stroke-width="1" fill="none" fill-rule="evenodd">
        <path d="M219.572308,442 L219.572308,372.487514 L243,372.487514 L243,299.237798 L219.572308,299.237798 L219.572308,3 L82.9938462,3 L0,303.971623 L0,372.487514 L130.098462,372.487514 L130.098462,442 L219.572308,442 Z M130,300 L78,300 L130,79 L130,300 Z M373,446 C410.173104,446 438.799714,435.629836 458.879828,414.889509 C478.959943,394.149182 489,364.28311 489,325.291295 L489,325.291295 L489,127.677455 C489,86.5286458 479.457797,54.9618676 460.373391,32.9771205 C441.288984,10.9923735 412.164521,0 373,0 C334.001431,0 304.918455,10.9923735 285.751073,32.9771205 C266.583691,54.9618676 257,86.5286458 257,127.677455 L257,127.677455 L257,325.291295 C257,364.28311 267.081545,394.149182 287.244635,414.889509 C307.407725,435.629836 335.992847,446 373,446 Z M372.5,365 C365.909962,365 360.679119,361.927448 356.807471,355.782343 C352.935824,349.637238 351,342.744755 351,335.104895 L351,335.104895 L351,118.61451 C351,108.317308 352.112069,99.3072552 354.336207,91.5843531 C356.560345,83.861451 362.614943,80 372.5,80 C382.385057,80 388.439655,83.861451 390.663793,91.5843531 C392.887931,99.3072552 394,108.317308 394,118.61451 L394,118.61451 L394,335.104895 C394,342.744755 392.105364,349.637238 388.316092,355.782343 C384.52682,361.927448 379.254789,365 372.5,365 Z M722.572308,442 L722.572308,372.487514 L746,372.487514 L746,299.237798 L722.572308,299.237798 L722.572308,3 L585.993846,3 L503,303.971623 L503,372.487514 L633.098462,372.487514 L633.098462,442 L722.572308,442 Z M633,300 L581,300 L633,79 L633,300 Z" fill="#000000" fill-rule="nonzero"></path>
    </g>
</svg>