<svg width="196" height="113" viewBox="0 0 196 113" fill="none" xmlns="http://www.w3.org/2000/svg">
<path d="M0.560059 102C0.560059 100.343 1.9032 99 3.56006 99H192.21C193.867 99 195.21 100.343 195.21 102V110C195.21 111.657 193.867 113 192.21 113H3.56006C1.9032 113 0.560059 111.657 0.560059 110V102Z" fill="black"/>
<path d="M28.2081 91C27.0561 91 26.0321 90.232 25.7761 88.952L15.9201 39.8V88.44C15.9201 89.976 14.8961 91 13.3601 91H3.12006C1.58406 91 0.560059 89.976 0.560059 88.44V3.96C0.560059 2.424 1.58406 1.39999 3.12006 1.39999H13.8721C15.0241 1.39999 16.0481 2.168 16.3041 3.448L26.1601 52.6V3.96C26.1601 2.424 27.1841 1.39999 28.7201 1.39999H38.9601C40.4961 1.39999 41.5201 2.424 41.5201 3.96V88.44C41.5201 89.976 40.4961 91 38.9601 91H28.2081Z" fill="black"/>
<path d="M65.2451 0.119995C78.4291 0.119995 84.4451 8.696 84.4451 19.32V73.08C84.4451 83.704 78.4291 92.28 65.2451 92.28C52.0611 92.28 46.0451 83.704 46.0451 73.08V19.32C46.0451 8.696 52.0611 0.119995 65.2451 0.119995ZM69.0851 74.36V18.04C69.0851 15.864 67.4211 14.2 65.2451 14.2C63.0691 14.2 61.4051 15.864 61.4051 18.04V74.36C61.4051 76.536 63.0691 78.2 65.2451 78.2C67.4211 78.2 69.0851 76.536 69.0851 74.36Z" fill="black"/>
<path d="M99.1751 91C97.6391 91 96.6151 89.976 96.6151 88.44V15.48H89.1911C87.5271 15.48 86.5031 14.328 86.6311 12.664L87.3991 3.70399C87.5271 2.296 88.5511 1.39999 89.9591 1.39999H118.631C120.039 1.39999 121.063 2.296 121.191 3.70399L121.959 12.664C122.087 14.328 121.063 15.48 119.399 15.48H111.975V88.44C111.975 89.976 110.951 91 109.415 91H99.1751Z" fill="black"/>
<path d="M127.37 91C125.834 91 124.81 89.976 124.81 88.44V3.96C124.81 2.424 125.834 1.39999 127.37 1.39999H149.386C150.794 1.39999 151.818 2.296 151.946 3.70399L152.714 12.664C152.842 14.328 151.818 15.48 150.154 15.48H140.17V39.16H149.13C150.666 39.16 151.69 40.184 151.69 41.72V50.68C151.69 52.216 150.666 53.24 149.13 53.24H140.17V76.92H150.154C151.818 76.92 152.842 78.072 152.714 79.736L151.946 88.696C151.818 90.104 150.794 91 149.386 91H127.37Z" fill="black"/>
<path d="M174.73 0.119995C187.914 0.119995 193.93 8.696 193.93 19.32V30.712C193.93 32.12 193.034 33.144 191.626 33.144L181.386 34.04C179.722 34.168 178.57 33.144 178.57 31.48V18.04C178.57 15.864 176.906 14.2 174.73 14.2C172.554 14.2 170.89 15.864 170.89 18.04C170.89 37.752 195.21 52.472 195.21 72.44C195.21 83.448 188.938 92.28 175.37 92.28C161.802 92.28 155.53 83.448 155.53 72.44V58.872C155.53 57.464 156.426 56.44 157.834 56.312L168.074 55.544C169.738 55.416 170.89 56.44 170.89 58.104V73.72C170.89 76.152 172.938 78.2 175.37 78.2C177.802 78.2 179.85 76.152 179.85 73.72C179.85 55.288 155.53 43.64 155.53 19.32C155.53 8.696 161.546 0.119995 174.73 0.119995Z" fill="black"/>
</svg>
