<?xml version="1.0" encoding="UTF-8"?>
<svg width="565px" height="886px" viewBox="0 0 565 886" version="1.1" xmlns="http://www.w3.org/2000/svg" xmlns:xlink="http://www.w3.org/1999/xlink">
    <title>portrait (2024)</title>
    <g id="portrait-(2024)" stroke="none" stroke-width="1" fill="none" fill-rule="evenodd">
        <path d="M485.264928,807.702128 C480.807149,807.702128 477.19046,811.318816 477.19046,815.776596 C477.19046,818.316689 478.384809,820.705386 480.420248,822.23617 L517.024503,849.689362 C518.942189,851.119215 521.566391,851.119215 523.484077,849.689362 L560.088333,822.23617 C562.123772,820.705386 563.31812,818.316689 563.31812,815.776596 C563.31812,811.318816 559.701431,807.702128 555.243652,807.702128 L485.264928,807.702128 Z M477.19046,826.542553 L477.19046,861.531915 C477.19046,867.470013 482.018319,872.297872 487.956418,872.297872 L552.552163,872.297872 C558.490261,872.297872 563.31812,867.470013 563.31812,861.531915 L563.31812,826.542553 L526.713865,853.995745 C522.878492,856.872274 517.630088,856.872274 513.794716,853.995745 L477.19046,826.542553 Z" id="email" fill="#000000" fill-rule="nonzero"></path>
        <path d="M390.642961,801.829787 L325.19127,801.829787 C322.192182,801.829787 319.755423,804.300627 319.755423,807.333796 L319.755423,872.666204 C319.755423,875.699373 322.192182,878.170213 325.19127,878.170213 L390.642961,878.170213 C393.642049,878.170213 396.095848,875.699373 396.095848,872.666204 L396.095848,807.333796 C396.095848,804.300627 393.642049,801.829787 390.642961,801.829787 Z M342.827953,867.264438 L331.513211,867.264438 L331.513211,830.832333 L342.844993,830.832333 L342.844993,867.264438 L342.827953,867.264438 Z M337.170582,825.856573 C333.541004,825.856573 330.610077,822.908606 330.610077,819.296068 C330.610077,815.68353 333.541004,812.735562 337.170582,812.735562 C340.78312,812.735562 343.731088,815.68353 343.731088,819.296068 C343.731088,822.925646 340.80016,825.856573 337.170582,825.856573 L337.170582,825.856573 Z M385.241194,867.264438 L373.926452,867.264438 L373.926452,849.542553 C373.926452,845.316565 373.841251,839.880718 368.047558,839.880718 C362.151623,839.880718 361.248489,844.481592 361.248489,849.235828 L361.248489,867.264438 L349.933747,867.264438 L349.933747,830.832333 L360.788401,830.832333 L360.788401,835.808093 L360.941764,835.808093 C362.458348,832.945327 366.156088,829.929198 371.660096,829.929198 C383.11116,829.929198 385.241194,837.47804 385.241194,847.293237 L385.241194,867.264438 L385.241194,867.264438 Z" id="linkedin" fill="#000000" fill-rule="nonzero"></path>
        <path d="M207.056473,794.00034 C209.102797,794.00034 211.035436,794.388632 212.797549,795.109109 L212.655281,795.050508 C212.686058,795.042847 212.714559,795.043819 212.740706,795.053688 C218.311255,797.270539 222.233376,802.590981 222.233376,808.798164 C222.233376,813.730657 219.732313,818.053517 215.923877,820.769159 L226.894447,827.807661 C226.894447,830.190776 226.326024,832.075099 225.189177,834.125687 L215.525981,834.125687 C215.75335,838.337704 213.991238,848.535218 229.850249,860.33995 C235.420797,864.496545 238.66081,871.479626 238.66081,880.014502 C238.66081,880.402451 237.808175,886 207.056473,886 C176.304771,886 175.452136,880.402451 175.452136,880.014502 C175.452136,876.522962 176.020559,873.253107 176.986879,870.3712 C177.024802,870.264541 177.075414,870.166201 177.13809,870.075682 C178.641904,866.080668 181.048384,862.742649 184.262697,860.33995 C196.413315,851.3214 198.234536,843.227753 198.505228,838.03806 C198.48361,837.921578 198.473281,837.799444 198.473281,837.672648 L198.473735,836.840886 C198.475554,835.775024 198.484649,834.879416 198.530123,834.125687 L188.866926,834.125687 C187.73008,832.075099 187.161656,830.190776 187.161656,827.807661 L198.132227,820.713738 C194.32379,818.053517 191.822728,813.675236 191.822728,808.742743 C191.822728,800.595815 198.643808,793.945262 207.056473,794.00034 Z" id="chess-com" fill="#000000" fill-rule="nonzero"></path>
        <path d="M31.5603088,868.078265 C31.5603088,868.458739 31.1227638,868.763118 30.5710767,868.763118 C29.9432948,868.82019 29.5057498,868.51581 29.5057498,868.078265 C29.5057498,867.697792 29.9432948,867.393412 30.4949819,867.393412 C31.0656927,867.336341 31.5603088,867.64072 31.5603088,868.078265 Z M25.6439399,867.222199 C25.510774,867.602673 25.8912479,868.040218 26.4619587,868.15436 C26.9565748,868.344597 27.5272856,868.15436 27.6414278,867.773886 C27.7555699,867.393412 27.3941197,866.955868 26.8234089,866.784654 C26.3287929,866.651488 25.7771057,866.841725 25.6439399,867.222199 Z M34.0524127,866.898796 C33.5007256,867.031962 33.1202517,867.393412 33.1773228,867.830957 C33.2343939,868.211431 33.7290099,868.458739 34.2997208,868.325573 C34.8514079,868.192408 35.2318818,867.830957 35.1748107,867.450484 C35.1177396,867.089033 34.6040999,866.841725 34.0524127,866.898796 Z M46.5700036,794 C20.1841396,794 0,814.03195 0,840.417814 C0,861.515091 13.2785386,879.568577 32.2451618,885.922491 C34.6801946,886.360036 35.5362609,884.857164 35.5362609,883.620624 C35.5362609,882.441155 35.4791898,875.935051 35.4791898,871.940075 C35.4791898,871.940075 22.1626038,874.79363 19.3661208,866.271015 C19.3661208,866.271015 17.1974196,860.735119 14.0775338,859.308342 C14.0775338,859.308342 9.72110777,856.321622 14.3819129,856.378693 C14.3819129,856.378693 19.1188127,856.759167 21.7250588,861.286807 C25.8912479,868.629953 32.8729437,866.518323 35.593332,865.262759 C36.0308769,862.218968 37.2674171,860.107338 38.637123,858.851774 C28.002878,857.672305 17.2735144,856.131385 17.2735144,837.830592 C17.2735144,832.599076 18.7193152,829.973806 21.7631062,826.625636 C21.2684902,825.389096 19.6514762,820.290745 22.2577223,813.708547 C26.2336744,812.472007 35.3840713,818.844945 35.3840713,818.844945 C39.1888102,817.779618 43.2789044,817.227931 47.3309513,817.227931 C51.3829982,817.227931 55.4730925,817.779618 59.2778313,818.844945 C59.2778313,818.844945 68.4282283,812.452983 72.4041804,813.708547 C75.0104265,820.309769 73.3934125,825.389096 72.8987964,826.625636 C75.9425875,829.99283 77.8069095,832.618099 77.8069095,837.830592 C77.8069095,856.188457 66.6019536,857.653281 55.9677085,858.851774 C57.7178884,860.354646 59.2017365,863.2082 59.2017365,867.678768 C59.2017365,874.089753 59.1446655,882.022633 59.1446655,883.582576 C59.1446655,884.819116 60.0197554,886.321988 62.4357646,885.884443 C81.4594588,879.568577 94.3575235,861.515091 94.3575235,840.417814 C94.3575235,814.03195 72.9558675,794 46.5700036,794 Z M18.4910308,859.612722 C18.2437228,859.802958 18.3007939,860.240503 18.6241967,860.601954 C18.9285758,860.906333 19.3661208,861.039499 19.6134288,860.792191 C19.8607368,860.601954 19.8036657,860.164409 19.4802629,859.802958 C19.1758838,859.498579 18.7383388,859.365413 18.4910308,859.612722 Z M16.4364718,858.071802 C16.303306,858.31911 16.4935429,858.623489 16.8740168,858.813726 C17.1783959,859.003963 17.5588698,858.946892 17.6920357,858.68056 C17.8252015,858.433252 17.6349646,858.128873 17.2544907,857.938636 C16.8740168,857.824494 16.5696377,857.881565 16.4364718,858.071802 Z M22.6001488,864.844237 C22.2957697,865.091545 22.4099118,865.662256 22.8474568,866.023706 C23.2850018,866.461251 23.8366889,866.518323 24.0839969,866.213943 C24.331305,865.966635 24.2171628,865.395925 23.8366889,865.034474 C23.4181676,864.596929 22.8474568,864.539858 22.6001488,864.844237 Z M20.4314476,862.047754 C20.1270685,862.237991 20.1270685,862.732607 20.4314476,863.170152 C20.7358267,863.607697 21.2494665,863.797934 21.4967745,863.607697 C21.8011536,863.360389 21.8011536,862.865773 21.4967745,862.428228 C21.2304428,861.990683 20.7358267,861.800446 20.4314476,862.047754 Z" id="github" fill="#000000" fill-rule="nonzero"></path>
        <path d="M349,742 L349,658 L366.196682,658 L373.872038,698.19092 L373.872038,658 L390,658 L390,742 L373.677725,742 L365.322275,699.951106 L365.322275,742 L349,742 Z M403.221698,737.758857 C399.740549,733.598074 398,727.750133 398,720.214857 L398,680.016 C398,672.742821 399.740549,667.255257 403.221698,663.553143 C406.702848,659.851029 411.795564,658 418.5,658 C425.204436,658 430.297152,659.851029 433.778302,663.553143 C437.259451,667.255257 439,672.742821 439,680.016 L439,720.214857 C439,727.815657 437.259451,733.679979 433.778302,737.808 C430.297152,741.936021 425.204436,744 418.5,744 C411.795564,744 406.702848,741.91964 403.221698,737.758857 Z M421.111111,726.0322 C421.703707,724.720327 422,722.883733 422,720.522361 L422,679.198569 C422,677.361947 421.722225,675.869714 421.166667,674.721825 C420.611108,673.573936 419.48149,673 417.777778,673 C414.592577,673 413,675.131762 413,679.395349 L413,720.620751 C413,723.047716 413.33333,724.884311 414,726.13059 C414.66667,727.37687 415.88888,728 417.666667,728 C419.370379,728 420.518516,727.344073 421.111111,726.0322 Z M452.037234,742 L452.037234,674.135041 L442,674.135041 L442,658 L479,658 L479,674.135041 L468.962766,674.135041 L468.962766,742 L452.037234,742 Z M485,742 L485,658 L519.884507,658 L519.884507,674.232829 L502.746479,674.232829 L502.746479,690.563446 L519.174648,690.563446 L519.174648,706.405122 L502.746479,706.405122 L502.746479,725.669383 L521,725.669383 L521,742 L485,742 Z M529.064133,738.299429 C525.688027,734.499029 524,728.372614 524,719.92 L524,711.664 L540.458432,711.664 L540.458432,722.180571 C540.458432,726.374116 541.789377,728.470857 544.451306,728.470857 C545.944584,728.470857 546.98337,728.028576 547.567696,727.144 C548.152022,726.259424 548.444181,724.768772 548.444181,722.672 C548.444181,719.919986 548.11956,717.643057 547.470309,715.841143 C546.821058,714.039229 545.993275,712.532197 544.986936,711.32 C543.980597,710.107803 542.178952,708.224013 539.581948,705.668571 L532.375297,698.395429 C526.791738,692.891401 524,686.797748 524,680.114286 C524,672.906631 525.639334,667.419066 528.918052,663.651429 C532.19677,659.883791 536.984925,658 543.28266,658 C550.813973,658 556.235138,660.014837 559.546318,664.044571 C562.857499,668.074306 564.513064,674.380909 564.513064,682.964571 L547.470309,682.964571 L547.372922,677.165714 C547.372922,676.051804 547.064532,675.167241 546.447743,674.512 C545.830955,673.856759 544.97071,673.529143 543.866983,673.529143 C542.568481,673.529143 541.594619,673.88952 540.945368,674.610286 C540.296117,675.331051 539.971496,676.313899 539.971496,677.558857 C539.971496,680.310871 541.529676,683.161128 544.646081,686.109714 L554.384798,695.545143 C556.657177,697.772964 558.539977,699.886085 560.033254,701.884571 C561.526532,703.883058 562.727628,706.241891 563.63658,708.961143 C564.545531,711.680395 565,714.90741 565,718.642286 C565,726.963851 563.490514,733.270455 560.471496,737.562286 C557.452479,741.854117 552.469552,744 545.522565,744 C537.926328,744 532.440239,742.099829 529.064133,738.299429 Z M349,755 L565,755 L565,765 L349,765 Z" id="notes" fill="#000000"></path>
        <path d="M2,755 L293,755 L293,765 L2,765 Z M29.6793968,743.232143 L33.7134896,702.583705 L37.939682,743.232143 L58.2061957,743.232143 L67.4269792,658.767857 L50.7143091,658.767857 L46.1999672,712.085938 L41.6856253,658.767857 L25.9334535,658.767857 L21.1789871,712.085938 L16.5205704,658.767857 L0,658.767857 L9.07670874,743.232143 L29.6793968,743.232143 Z M89.5664645,743.232143 L89.5664645,704.695312 C91.8076272,704.695312 93.4324701,704.991257 94.4409933,705.583147 C95.4495165,706.175037 95.9537781,707.702753 95.9537781,710.166295 L95.9537781,710.166295 L95.9537781,743.232143 L112.618423,743.232143 L112.618423,711.270089 C112.618423,707.942708 112.082145,705.231213 111.009589,703.135603 C109.937032,701.039993 108.072065,699.720238 105.414686,699.176339 C108.648364,698.120536 110.849506,696.21689 112.018112,693.465402 C113.186718,690.713914 113.771021,687.034598 113.771021,682.427455 C113.771021,677.660342 113.394826,673.509115 112.642436,669.973772 C111.890045,666.43843 110.409277,663.686942 108.200131,661.719308 C105.990985,659.751674 102.725291,658.767857 98.4030487,658.767857 L98.4030487,658.767857 L72.4695951,658.767857 L72.4695951,743.232143 L89.5664645,743.232143 Z M93.744632,690.058036 L89.6625143,690.058036 L89.6625143,674.412946 L93.6005573,674.412946 C95.0092881,674.412946 95.9697864,674.924851 96.4820521,675.948661 C96.9943179,676.97247 97.2504507,679.132068 97.2504507,682.427455 C97.2504507,687.514509 96.0818445,690.058036 93.744632,690.058036 L93.744632,690.058036 Z M134.901983,743.232143 L134.901983,658.767857 L118.573513,658.767857 L118.573513,743.232143 L134.901983,743.232143 Z M165.782003,743.232143 L165.782003,674.988839 L175.81921,674.988839 L175.81921,658.767857 L138.840026,658.767857 L138.840026,674.988839 L148.877233,674.988839 L148.877233,743.232143 L165.782003,743.232143 Z M196.085724,743.232143 L196.085724,658.767857 L179.757253,658.767857 L179.757253,743.232143 L196.085724,743.232143 Z M219.329782,743.232143 L219.329782,701 L227.782167,743.232143 L244.302737,743.232143 L244.302737,658.767857 L227.974267,658.767857 L227.974267,699.22433 L220.19423,658.767857 L202.809212,658.767857 L202.809212,743.232143 L219.329782,743.232143 Z M269.227668,744 C275.566956,744 280.209365,741.376488 283.154893,736.129464 L283.154893,736.129464 L286.036387,743.232143 L292.8079,743.232143 L292.8079,694.041295 L272.157187,694.041295 L272.157187,708.63058 L276.671529,708.63058 L276.671529,720.676339 C276.671529,723.011905 276.375376,724.891555 275.783068,726.31529 C275.190761,727.739025 273.998142,728.450893 272.205212,728.450893 C270.476315,728.450893 269.315713,727.739025 268.723406,726.31529 C268.131099,724.891555 267.834945,723.043899 267.834945,720.772321 L267.834945,720.772321 L267.834945,679.835938 C267.834945,678.268229 268.147107,676.828497 268.771431,675.516741 C269.395755,674.204985 270.684423,673.549107 272.637436,673.549107 C274.20625,673.549107 275.238786,674.164993 275.735043,675.396763 C276.231301,676.628534 276.47943,678.15625 276.47943,679.979911 L276.47943,679.979911 L276.47943,687.466518 L293,687.466518 C293,681.16369 292.423701,675.820685 291.271103,671.4375 C290.118505,667.054315 288.021417,663.718936 284.979839,661.431362 C281.938261,659.143787 277.567994,658 271.869038,658 C258.037863,658 251.122275,665.886533 251.122275,681.659598 L251.122275,681.659598 L251.122275,718.084821 C251.122275,735.361607 257.157406,744 269.227668,744 Z" id="writing" fill="#000000"></path>
        <path d="M0,507.856721 L0,417.309998 L36.2608533,417.309998 L36.2608533,434.807967 L18.446655,434.807967 L18.446655,452.411347 L35.5229871,452.411347 L35.5229871,469.487679 L18.446655,469.487679 L18.446655,490.253342 L37.4203573,490.253342 L37.4203573,507.856721 L0,507.856721 Z M43.4286964,507.856721 L43.4286964,417.309998 L62.0861703,417.309998 L70.4135174,460.633284 L70.4135174,417.309998 L87.9114873,417.309998 L87.9114873,507.856721 L70.2026985,507.856721 L61.1374852,462.530655 L61.1374852,507.856721 L43.4286964,507.856721 Z M103.722906,507.856721 L103.722906,434.702558 L92.9711412,434.702558 L92.9711412,417.309998 L132.605097,417.309998 L132.605097,434.702558 L121.853333,434.702558 L121.853333,507.856721 L103.722906,507.856721 Z M137.664751,417.309998 L165.492848,417.309998 C169.920067,417.309998 173.34584,418.311377 175.77027,420.314167 C178.1947,422.316957 179.82853,425.127848 180.67181,428.746924 C181.51509,432.366 181.936723,436.986401 181.936723,442.608267 C181.936723,447.73822 181.269137,451.743739 179.933943,454.624945 C178.59875,457.506152 176.279765,459.508911 172.976919,460.633284 C175.717579,461.195471 177.70277,462.56578 178.932554,464.744253 C180.162337,466.922726 180.777219,469.874162 180.777219,473.598648 L180.5664,507.856721 L162.857611,507.856721 L162.857611,472.439144 C162.857611,469.909304 162.365705,468.293042 161.381879,467.590309 C160.398052,466.887575 158.60611,466.536214 156.005997,466.536214 L156.005997,507.856721 L137.664751,507.856721 L137.664751,417.309998 Z M160.433194,450.830205 C162.963033,450.830205 164.227934,448.089586 164.227934,442.608267 C164.227934,440.218974 164.122526,438.427031 163.911706,437.232385 C163.700886,436.037738 163.314388,435.212039 162.752202,434.755263 C162.190015,434.298486 161.381884,434.070101 160.327784,434.070101 L156.111406,434.070101 L156.111406,450.830205 L160.433194,450.830205 Z M187.945062,507.856721 L187.945062,417.309998 L224.205915,417.309998 L224.205915,434.807967 L206.391717,434.807967 L206.391717,452.411347 L223.468049,452.411347 L223.468049,469.487679 L206.391717,469.487679 L206.391717,490.253342 L225.365419,490.253342 L225.365419,507.856721 L187.945062,507.856721 Z M231.373759,417.309998 L255.301705,417.309998 C262.539858,417.309998 267.704869,419.64655 270.796896,424.319726 C273.888922,428.992902 275.434912,435.826881 275.434912,444.821866 C275.434912,453.816851 274.064602,460.598125 271.323943,465.165891 C268.583283,469.733657 263.664224,472.017506 256.566619,472.017506 L249.187957,472.017506 L249.187957,507.856721 L231.373759,507.856721 L231.373759,417.309998 Z M250.242051,455.67904 C252.420524,455.67904 254.019219,455.274974 255.038182,454.466831 C256.057145,453.658688 256.724731,452.499196 257.040961,450.988319 C257.357191,449.477443 257.515304,447.31657 257.515304,444.505638 C257.515304,440.710878 257.09367,437.97026 256.25039,436.2837 C255.407111,434.59714 253.720576,433.753873 251.190737,433.753873 L249.187957,433.753873 L249.187957,455.67904 L250.242051,455.67904 Z M281.127022,417.309998 L308.955119,417.309998 C313.382338,417.309998 316.808111,418.311377 319.232541,420.314167 C321.656971,422.316957 323.290801,425.127848 324.134081,428.746924 C324.977361,432.366 325.398994,436.986401 325.398994,442.608267 C325.398994,447.73822 324.731408,451.743739 323.396215,454.624945 C322.061022,457.506152 319.742037,459.508911 316.439191,460.633284 C319.17985,461.195471 321.165042,462.56578 322.394825,464.744253 C323.624608,466.922726 324.23949,469.874162 324.23949,473.598648 L324.028671,507.856721 L306.319883,507.856721 L306.319883,472.439144 C306.319883,469.909304 305.827977,468.293042 304.84415,467.590309 C303.860324,466.887575 302.068381,466.536214 299.468268,466.536214 L299.468268,507.856721 L281.127022,507.856721 L281.127022,417.309998 Z M303.895465,450.830205 C306.425305,450.830205 307.690206,448.089586 307.690206,442.608267 C307.690206,440.218974 307.584797,438.427031 307.373977,437.232385 C307.163157,436.037738 306.77666,435.212039 306.214473,434.755263 C305.652287,434.298486 304.844155,434.070101 303.790056,434.070101 L299.573677,434.070101 L299.573677,450.830205 L303.895465,450.830205 Z M331.407333,507.856721 L331.407333,417.309998 L367.668187,417.309998 L367.668187,434.807967 L349.853988,434.807967 L349.853988,452.411347 L366.930321,452.411347 L366.930321,469.487679 L349.853988,469.487679 L349.853988,490.253342 L368.827691,490.253342 L368.827691,507.856721 L331.407333,507.856721 Z M374.83603,507.856721 L374.83603,417.309998 L393.493504,417.309998 L401.820851,460.633284 L401.820851,417.309998 L419.318821,417.309998 L419.318821,507.856721 L401.610032,507.856721 L392.544819,462.530655 L392.544819,507.856721 L374.83603,507.856721 Z M427.329939,507.856721 L427.329939,417.309998 L463.590793,417.309998 L463.590793,434.807967 L445.776594,434.807967 L445.776594,452.411347 L462.852927,452.411347 L462.852927,469.487679 L445.776594,469.487679 L445.776594,490.253342 L464.750297,490.253342 L464.750297,507.856721 L427.329939,507.856721 Z M475.133128,502.37543 C471.514052,498.15903 469.704541,491.904798 469.704541,483.612546 L469.704541,417.309998 L487.307921,417.309998 L487.307921,482.87468 C487.307921,485.755886 487.58901,488.004599 488.151196,489.620885 C488.713383,491.237172 489.908011,492.045303 491.735118,492.045303 C493.562224,492.045303 494.756853,491.25474 495.319039,489.67359 C495.881226,488.09244 496.162315,485.826159 496.162315,482.87468 L496.162315,417.309998 L513.765694,417.309998 L513.765694,483.612546 C513.765694,491.904798 511.956183,498.15903 508.337107,502.37543 C504.718031,506.591829 499.18409,508.699997 491.735118,508.699997 C484.286146,508.699997 478.752204,506.591829 475.133128,502.37543 Z M520.722719,417.309998 L548.550815,417.309998 C552.978035,417.309998 556.403808,418.311377 558.828237,420.314167 C561.252667,422.316957 562.886497,425.127848 563.729777,428.746924 C564.573057,432.366 564.994691,436.986401 564.994691,442.608267 C564.994691,447.73822 564.327104,451.743739 562.991911,454.624945 C561.656718,457.506152 559.337733,459.508911 556.034887,460.633284 C558.775546,461.195471 560.760738,462.56578 561.990521,464.744253 C563.220304,466.922726 563.835187,469.874162 563.835187,473.598648 L563.624368,507.856721 L545.915579,507.856721 L545.915579,472.439144 C545.915579,469.909304 545.423673,468.293042 544.439846,467.590309 C543.45602,466.887575 541.664077,466.536214 539.063964,466.536214 L539.063964,507.856721 L520.722719,507.856721 L520.722719,417.309998 Z M543.491161,450.830205 C546.021001,450.830205 547.285902,448.089586 547.285902,442.608267 C547.285902,440.218974 547.180493,438.427031 546.969673,437.232385 C546.758853,436.037738 546.372356,435.212039 545.810169,434.755263 C545.247983,434.298486 544.439852,434.070101 543.385752,434.070101 L539.169374,434.070101 L539.169374,450.830205 L543.491161,450.830205 Z" id="entrepreneur" fill="#000000"></path>
        <path d="M0,554.235199 L15.9162783,554.235199 C20.0352795,554.235199 23.124484,555.372461 25.1839846,557.647018 C27.2434852,559.921575 28.2956056,563.28876 28.3403773,567.748676 L28.4746919,594.641832 C28.5194637,600.305924 27.5344999,604.56508 25.5197711,607.419425 C23.5050422,610.273771 20.1695967,611.700923 15.5133345,611.700923 L0,611.700923 L0,554.235199 Z M13.6329303,601.532366 C15.7372027,601.532366 16.7893231,600.506601 16.7893231,598.45504 L16.7893231,568.81905 C16.7893231,567.525675 16.6885881,566.555658 16.4871153,565.90897 C16.2856424,565.262282 15.916281,564.827447 15.3790199,564.604451 C14.8417589,564.381455 14.0134939,564.269959 12.8942001,564.269959 L11.6182116,564.269959 L11.6182116,601.532366 L13.6329303,601.532366 Z M33.1085451,611.700923 L33.1085451,554.235199 L56.2106536,554.235199 L56.2106536,565.340333 L44.8610712,565.340333 L44.8610712,576.512366 L55.7405526,576.512366 L55.7405526,587.349906 L44.8610712,587.349906 L44.8610712,600.52889 L56.9493839,600.52889 L56.9493839,611.700923 L33.1085451,611.700923 Z M66.0827756,611.700923 L58.9641026,554.168301 L69.9778986,554.168301 L74.208808,593.303864 L77.9696163,554.168301 L88.9834123,554.168301 L81.8647393,611.700923 L66.0827756,611.700923 Z M92.2741196,611.700923 L92.2741196,554.235199 L115.376228,554.235199 L115.376228,565.340333 L104.026646,565.340333 L104.026646,576.512366 L114.906127,576.512366 L114.906127,587.349906 L104.026646,587.349906 L104.026646,600.52889 L116.114958,600.52889 L116.114958,611.700923 L92.2741196,611.700923 Z M119.942924,611.700923 L119.942924,554.235199 L131.493978,554.235199 L131.493978,601.933757 L143.380819,601.933757 L143.380819,611.700923 L119.942924,611.700923 Z M149.760762,607.988062 C147.343087,605.156015 146.134268,601.175601 146.134268,596.046698 L146.134268,568.685253 C146.134268,563.734747 147.343087,559.999624 149.760762,557.479772 C152.178436,554.959919 155.715352,553.700012 160.371614,553.700012 C165.027876,553.700012 168.564792,554.959919 170.982466,557.479772 C173.400141,559.999624 174.60896,563.734747 174.60896,568.685253 L174.60896,596.046698 C174.60896,601.2202 173.400141,605.211764 170.982466,608.021511 C168.564792,610.831258 165.027876,612.23611 160.371614,612.23611 C155.715352,612.23611 152.178436,610.820108 149.760762,607.988062 Z M162.45349,600.328195 C162.811664,599.436212 162.990748,598.187455 162.990748,596.581885 L162.990748,568.484558 C162.990748,567.235782 162.822857,566.221166 162.487069,565.440681 C162.151281,564.660196 161.468522,564.269959 160.438771,564.269959 C158.513586,564.269959 157.551008,565.71941 157.551008,568.618355 L157.551008,596.648783 C157.551008,598.298952 157.752478,599.54771 158.155423,600.395094 C158.558369,601.242478 159.297092,601.666163 160.371614,601.666163 C161.401364,601.666163 162.095316,601.220178 162.45349,600.328195 Z M179.242813,554.235199 L194.487518,554.235199 C199.099009,554.235199 202.389683,555.718099 204.35964,558.683943 C206.329597,561.649787 207.314561,565.986989 207.314561,571.695681 C207.314561,577.404373 206.441525,581.708127 204.695427,584.607072 C202.949329,587.506017 199.815353,588.955468 195.293406,588.955468 L190.592395,588.955468 L190.592395,611.700923 L179.242813,611.700923 L179.242813,554.235199 Z M191.263968,578.586216 C192.651893,578.586216 193.670435,578.329775 194.319625,577.816885 C194.968816,577.303994 195.394141,576.568119 195.595614,575.609237 C195.797087,574.650356 195.897822,573.278952 195.897822,571.494986 C195.897822,569.086632 195.629195,567.347291 195.091934,566.276911 C194.554673,565.206531 193.480167,564.671349 191.868384,564.671349 L190.592395,564.671349 L190.592395,578.586216 L191.263968,578.586216 Z M210.941055,611.700923 L210.941055,554.235199 L234.043164,554.235199 L234.043164,565.340333 L222.693581,565.340333 L222.693581,576.512366 L233.573063,576.512366 L233.573063,587.349906 L222.693581,587.349906 L222.693581,600.52889 L234.781894,600.52889 L234.781894,611.700923 L210.941055,611.700923 Z M238.609859,554.235199 L256.339385,554.235199 C259.160005,554.235199 261.342595,554.870728 262.887221,556.141804 C264.431846,557.41288 265.472774,559.196819 266.010035,561.493676 C266.547296,563.790532 266.815922,566.722882 266.815922,570.290815 C266.815922,573.546553 266.390597,576.088667 265.539934,577.917232 C264.68927,579.745797 263.211825,581.016854 261.107552,581.730441 C262.853651,582.087234 264.118434,582.956904 264.901939,584.339478 C265.685445,585.722052 266.077192,587.595188 266.077192,589.958944 L265.942877,611.700923 L254.660452,611.700923 L254.660452,589.223061 C254.660452,587.617492 254.347055,586.591727 253.72025,586.145735 C253.093446,585.699743 251.951783,585.476751 250.295228,585.476751 L250.295228,611.700923 L238.609859,611.700923 L238.609859,554.235199 Z M253.115835,575.50889 C254.727618,575.50889 255.533497,573.769549 255.533497,570.290815 C255.533497,568.774444 255.46634,567.637182 255.332025,566.878997 C255.19771,566.120811 254.951469,565.596779 254.593295,565.306884 C254.235121,565.01699 253.720254,564.872045 253.048677,564.872045 L250.362386,564.872045 L250.362386,575.50889 L253.115835,575.50889 Z M287.634683,608.690495 C285.843813,606.237541 284.948391,603.04875 284.948391,599.124024 C284.948391,594.753307 285.575186,591.241176 286.828795,588.587527 C288.082404,585.933877 290.052332,583.603606 292.738637,581.596644 C290.544821,577.315125 289.44793,573.613451 289.44793,570.49151 C289.44793,567.235772 290.511243,564.682508 292.637901,562.831643 C294.764559,560.980779 297.506788,560.05536 300.864669,560.05536 C304.177779,560.05536 306.897622,560.93618 309.02428,562.697847 C311.150939,564.459513 312.214252,566.92358 312.214252,570.09012 C312.214252,574.728432 309.639915,579.076784 304.491163,583.135307 L306.573039,588.01889 C307.826648,584.718553 309.707034,582.15414 312.214252,580.325574 L316.780948,587.416805 C314.139414,589.468366 311.990402,592.857851 310.333848,597.585361 L316.176532,611.700923 L305.028422,611.700923 L303.81959,608.556698 C302.879383,609.671677 301.681757,610.585946 300.226675,611.299532 C298.771593,612.013119 297.193413,612.369907 295.492086,612.369907 C292.044661,612.369907 289.425553,611.143449 287.634683,608.690495 Z M302.073501,574.839906 C302.521218,574.349315 302.924158,573.646889 303.282332,572.732606 C303.640506,571.818324 303.81959,570.937504 303.81959,570.09012 C303.81959,568.752145 303.17041,568.083168 301.872029,568.083168 C301.334768,568.083168 300.909443,568.272711 300.59604,568.651804 C300.282638,569.030897 300.125939,569.510331 300.125939,570.09012 C300.125939,571.249698 300.596036,573.033637 301.536242,575.441991 L302.073501,574.839906 Z M299.454366,603.03758 C300.036399,602.390893 300.416953,601.643868 300.59604,600.796484 L296.63376,591.296912 L296.230816,591.898997 C295.872642,592.434187 295.58163,593.281558 295.357771,594.441136 C295.133913,595.600714 295.021985,596.737976 295.021985,597.852955 L295.021985,598.187447 C295.021985,599.926814 295.156298,601.331666 295.424929,602.402046 C295.693559,603.472425 296.320354,604.007607 297.305333,604.007607 C298.155996,604.007607 298.872333,603.684268 299.454366,603.03758 Z M335.987933,554.235199 L351.904212,554.235199 C356.023213,554.235199 359.112417,555.372461 361.171918,557.647018 C363.231418,559.921575 364.283539,563.28876 364.328311,567.748676 L364.462625,594.641832 C364.507397,600.305924 363.522433,604.56508 361.507704,607.419425 C359.492975,610.273771 356.15753,611.700923 351.501268,611.700923 L335.987933,611.700923 L335.987933,554.235199 Z M349.620864,601.532366 C351.725136,601.532366 352.777256,600.506601 352.777256,598.45504 L352.777256,568.81905 C352.777256,567.525675 352.676521,566.555658 352.475049,565.90897 C352.273576,565.262282 351.904214,564.827447 351.366953,564.604451 C350.829692,564.381455 350.001427,564.269959 348.882133,564.269959 L347.606145,564.269959 L347.606145,601.532366 L349.620864,601.532366 Z M369.096478,611.700923 L369.096478,554.235199 L392.198587,554.235199 L392.198587,565.340333 L380.849005,565.340333 L380.849005,576.512366 L391.728486,576.512366 L391.728486,587.349906 L380.849005,587.349906 L380.849005,600.52889 L392.937317,600.52889 L392.937317,611.700923 L369.096478,611.700923 Z M399.115788,608.356003 C396.787657,605.769252 395.623609,601.599294 395.623609,595.846003 L395.623609,590.226537 L406.973191,590.226537 L406.973191,597.384666 C406.973191,600.239012 407.890998,601.666163 409.72664,601.666163 C410.75639,601.666163 411.472728,601.365123 411.875674,600.763035 C412.278619,600.160946 412.480089,599.146331 412.480089,597.719158 C412.480089,595.845993 412.256234,594.296196 411.808516,593.069719 C411.360799,591.843242 410.789967,590.817477 410.096005,589.992393 C409.402043,589.167309 408.159646,587.885102 406.368776,586.145735 L401.399136,581.195254 C397.548765,577.448925 395.623609,573.301265 395.623609,568.752152 C395.623609,563.846245 396.754079,560.111121 399.015052,557.54667 C401.276026,554.982219 404.577893,553.700012 408.920753,553.700012 C414.114276,553.700012 417.852661,555.071416 420.13602,557.814264 C422.41938,560.557112 423.561042,564.849716 423.561042,570.692205 L411.808516,570.692205 L411.741359,566.7452 C411.741359,565.987014 411.528696,565.384935 411.103365,564.938943 C410.678033,564.492951 410.084816,564.269959 409.323696,564.269959 C408.428261,564.269959 407.756695,564.515251 407.308978,565.005841 C406.86126,565.496432 406.637405,566.165409 406.637405,567.012793 C406.637405,568.885958 407.711911,570.825992 409.860955,572.832954 L416.576684,579.2552 C418.143695,580.771571 419.442057,582.209872 420.471807,583.570147 C421.501557,584.930421 422.329822,586.535966 422.956627,588.386831 C423.583431,590.237696 423.896829,592.434172 423.896829,594.976323 C423.896829,600.640416 422.855901,604.93302 420.774015,607.854265 C418.692128,610.77551 415.255948,612.23611 410.46537,612.23611 C405.227075,612.23611 401.443919,610.942754 399.115788,608.356003 Z M427.187536,611.700923 L427.187536,554.235199 L438.335647,554.235199 L438.335647,611.700923 L427.187536,611.700923 Z M445.555056,607.854265 C443.517941,604.93302 442.499399,600.506621 442.499399,594.574933 L442.499399,569.822526 C442.499399,564.515227 443.685832,560.501363 446.058735,557.780814 C448.431638,555.060266 451.968554,553.700012 456.669587,553.700012 C460.475186,553.700012 463.430078,554.458186 465.53435,555.974558 C467.638622,557.490929 469.093683,559.698554 469.899574,562.597499 C470.705466,565.496444 471.108405,569.220418 471.108405,573.769531 L459.82598,573.769531 L459.82598,568.618355 C459.82598,567.235781 459.635703,566.165417 459.255143,565.407232 C458.874583,564.649046 458.191824,564.269959 457.206846,564.269959 C455.01303,564.269959 453.916139,565.697111 453.916139,568.551456 L453.916139,596.38119 C453.916139,598.120557 454.139994,599.436212 454.587711,600.328195 C455.035429,601.220178 455.818923,601.666163 456.938217,601.666163 C458.05751,601.666163 458.841004,601.220178 459.288722,600.328195 C459.736439,599.436212 459.960295,598.120557 459.960295,596.38119 L459.960295,588.152687 L456.871059,588.152687 L456.871059,578.251724 L470.974091,578.251724 L470.974091,611.700923 L466.340238,611.700923 L464.392676,606.884238 C462.333176,610.452171 459.154429,612.23611 454.856341,612.23611 C450.692568,612.23611 447.59217,610.77551 445.555056,607.854265 Z M475.540787,611.700923 L475.540787,554.235199 L487.427627,554.235199 L492.733053,581.730441 L492.733053,554.235199 L503.881164,554.235199 L503.881164,611.700923 L492.598739,611.700923 L486.823212,582.934612 L486.823212,611.700923 L475.540787,611.700923 Z M508.985118,611.700923 L508.985118,554.235199 L532.087227,554.235199 L532.087227,565.340333 L520.737644,565.340333 L520.737644,576.512366 L531.617126,576.512366 L531.617126,587.349906 L520.737644,587.349906 L520.737644,600.52889 L532.825957,600.52889 L532.825957,611.700923 L508.985118,611.700923 Z M536.653923,554.235199 L554.383448,554.235199 C557.204068,554.235199 559.386658,554.870728 560.931284,556.141804 C562.475909,557.41288 563.516837,559.196819 564.054098,561.493676 C564.591359,563.790532 564.859985,566.722882 564.859985,570.290815 C564.859985,573.546553 564.43466,576.088667 563.583997,577.917232 C562.733334,579.745797 561.255888,581.016854 559.151616,581.730441 C560.897714,582.087234 562.162497,582.956904 562.946003,584.339478 C563.729508,585.722052 564.121255,587.595188 564.121255,589.958944 L563.986941,611.700923 L552.704515,611.700923 L552.704515,589.223061 C552.704515,587.617492 552.391118,586.591727 551.764313,586.145735 C551.137509,585.699743 549.995846,585.476751 548.339291,585.476751 L548.339291,611.700923 L536.653923,611.700923 L536.653923,554.235199 Z M551.159898,575.50889 C552.771681,575.50889 553.57756,573.769549 553.57756,570.290815 C553.57756,568.774444 553.510404,567.637182 553.376088,566.878997 C553.241773,566.120811 552.995532,565.596779 552.637358,565.306884 C552.279184,565.01699 551.764317,564.872045 551.09274,564.872045 L548.406449,564.872045 L548.406449,575.50889 L551.159898,575.50889 Z" id="developer-and-designer" fill="#0E1B23"></path>
        <path d="M8.88989066,362.39386 C2.96326725,355.783396 0,345.127031 0,330.424446 L0,316.063853 L28.8921446,316.063853 L28.8921446,334.356513 C28.8921446,341.650818 31.2285669,345.297917 35.9014815,345.297917 C38.5228726,345.297917 40.3464217,344.528607 41.3721834,342.989964 C42.3979452,341.451322 42.9108184,338.858463 42.9108184,335.21131 C42.9108184,330.424422 42.3409593,326.463901 41.201224,323.329629 C40.0614887,320.195357 38.6083481,317.574005 36.8417584,315.465495 C35.0751687,313.356985 31.9124508,310.080295 27.3535097,305.635328 L14.7025115,292.984329 C4.90078815,283.410553 0,272.811174 0,261.185874 C0,248.648786 2.87778839,239.103647 8.6334515,232.550169 C14.3891146,225.996691 22.7945362,222.720001 33.8499683,222.720001 C47.0708974,222.720001 56.5875442,226.224635 62.400194,233.234007 C68.2128439,240.243378 71.1191253,251.213166 71.1191253,266.143698 L41.201224,266.143698 L41.0302646,256.057091 C41.0302646,254.119541 40.4888984,252.580922 39.4061499,251.441186 C38.3234014,250.301451 36.8132748,249.731592 34.8757249,249.731592 C32.5962543,249.731592 30.8866771,250.358437 29.7469418,251.612146 C28.6072065,252.865855 28.0373475,254.575432 28.0373475,256.740929 C28.0373475,261.527817 30.7726711,266.485591 36.2434004,271.6144 L53.3393439,288.026506 C57.3284174,291.901606 60.6336001,295.577197 63.2549912,299.053389 C65.8763823,302.529582 67.984861,306.632567 69.5804903,311.362469 C71.1761197,316.09237 71.9739224,321.705482 71.9739224,328.201973 C71.9739224,342.676611 69.3240777,353.646398 64.0243087,361.111664 C58.7245397,368.57693 49.9772027,372.309507 37.7820353,372.309507 C24.4471326,372.309507 14.8165141,369.004325 8.88989066,362.39386 Z M90.1811023,362.222901 C83.7415981,355.498463 80.5218942,346.266745 80.5218942,334.527472 L80.5218942,266.827536 C80.5218942,252.238924 83.4281756,241.240644 89.2408254,233.832365 C95.0534753,226.424085 104.171221,222.720001 116.594335,222.720001 C127.42182,222.720001 136.140664,225.683268 142.751129,231.609892 C149.361593,237.536515 152.666776,246.084402 152.666776,257.253807 L152.666776,282.555804 L123.432713,282.555804 L123.432713,260.843955 C123.432713,256.626935 122.919839,253.720654 121.894078,252.125024 C120.868316,250.529395 119.101753,249.731592 116.594335,249.731592 C113.972944,249.731592 112.177888,250.643367 111.209113,252.466943 C110.240338,254.290519 109.755958,256.968857 109.755958,260.502037 L109.755958,334.185553 C109.755958,338.060653 110.325817,340.881456 111.465552,342.648045 C112.605287,344.414635 114.314865,345.297917 116.594335,345.297917 C121.153276,345.297917 123.432713,341.593833 123.432713,334.185553 L123.432713,307.686841 L153.008695,307.686841 L153.008695,335.382269 C153.008695,360.000551 140.642753,372.309507 115.910497,372.309507 C105.196986,372.309507 96.6206066,368.947339 90.1811023,362.222901 Z M162.753383,370.941832 L162.753383,224.087677 L191.987446,224.087677 L191.987446,276.572223 L205.835161,276.572223 L205.835161,224.087677 L235.069224,224.087677 L235.069224,370.941832 L205.835161,370.941832 L205.835161,304.267652 L191.987446,304.267652 L191.987446,370.941832 L162.753383,370.941832 Z M248.062141,224.087677 L293.195432,224.087677 C300.375764,224.087677 305.931891,225.711775 309.863977,228.960021 C313.796064,232.208266 316.445909,236.767139 317.813591,242.636775 C319.181273,248.506412 319.865104,256.000059 319.865104,265.117941 C319.865104,273.438009 318.782372,279.934402 316.616875,284.607317 C314.451378,289.280232 310.690308,292.528428 305.333552,294.352005 C309.77852,295.263793 312.998224,297.486243 314.99276,301.019423 C316.987297,304.552602 317.98455,309.339418 317.98455,315.380015 L317.642632,370.941832 L288.921446,370.941832 L288.921446,313.499462 C288.921446,309.396415 288.123644,306.775063 286.528014,305.635328 C284.932385,304.495592 282.026104,303.925733 277.809083,303.925733 L277.809083,370.941832 L248.062141,370.941832 L248.062141,224.087677 Z M284.989379,278.452777 C289.092426,278.452777 291.143919,274.007876 291.143919,265.117941 C291.143919,261.242841 290.972961,258.33656 290.631041,256.39901 C290.28912,254.46146 289.662275,253.122291 288.750487,252.381463 C287.838699,251.640635 286.528023,251.270227 284.81842,251.270227 L277.980042,251.270227 L277.980042,278.452777 L284.989379,278.452777 Z M337.644886,361.453583 C331.490315,354.216264 328.413076,344.04428 328.413076,330.937324 L328.413076,261.014915 C328.413076,248.363853 331.490315,238.818714 337.644886,232.379209 C343.799456,225.939705 352.80323,222.720001 364.656476,222.720001 C376.509723,222.720001 385.513497,225.939705 391.668067,232.379209 C397.822638,238.818714 400.899877,248.363853 400.899877,261.014915 L400.899877,330.937324 C400.899877,344.158253 397.822638,354.358731 391.668067,361.539063 C385.513497,368.719395 376.509723,372.309507 364.656476,372.309507 C352.80323,372.309507 343.799456,368.690902 337.644886,361.453583 Z M369.956219,341.878728 C370.868007,339.599257 371.323894,336.408046 371.323894,332.305 L371.323894,260.502037 C371.323894,257.310778 370.8965,254.717919 370.041699,252.723382 C369.186897,250.728845 367.448827,249.731592 364.827436,249.731592 C359.926574,249.731592 357.47618,253.435676 357.47618,260.843955 L357.47618,332.475959 C357.47618,336.692979 357.989053,339.88419 359.014815,342.049687 C360.040577,344.215184 361.921112,345.297917 364.656476,345.297917 C367.277867,345.297917 369.044431,344.158198 369.956219,341.878728 Z M412.696078,224.087677 L451.50387,224.087677 C463.243143,224.087677 471.620072,227.87724 476.634907,235.456479 C481.649742,243.035719 484.157122,254.119478 484.157122,268.708089 C484.157122,283.296701 481.934671,294.294981 477.489704,301.703261 C473.044736,309.11154 465.066709,312.815624 453.555383,312.815624 L441.588222,312.815624 L441.588222,370.941832 L412.696078,370.941832 L412.696078,224.087677 Z M443.297817,286.316911 C446.830996,286.316911 449.423855,285.661573 451.076471,284.350878 C452.729087,283.040182 453.81182,281.159647 454.3247,278.709216 C454.837581,276.258786 455.094018,272.754152 455.094018,268.195211 C455.094018,262.040641 454.410187,257.59574 453.042505,254.860375 C451.674822,252.12501 448.939499,250.757349 444.836452,250.757349 L441.588222,250.757349 L441.588222,286.316911 L443.297817,286.316911 Z M493.388931,224.087677 L532.196723,224.087677 C543.935997,224.087677 552.312925,227.87724 557.32776,235.456479 C562.342596,243.035719 564.849976,254.119478 564.849976,268.708089 C564.849976,283.296701 562.627525,294.294981 558.182558,301.703261 C553.73759,309.11154 545.759563,312.815624 534.248237,312.815624 L522.281076,312.815624 L522.281076,370.941832 L493.388931,370.941832 L493.388931,224.087677 Z M523.99067,286.316911 C527.52385,286.316911 530.116709,285.661573 531.769325,284.350878 C533.421941,283.040182 534.504673,281.159647 535.017554,278.709216 C535.530435,276.258786 535.786872,272.754152 535.786872,268.195211 C535.786872,262.040641 535.103041,257.59574 533.735358,254.860375 C532.367676,252.12501 529.632352,250.757349 525.529305,250.757349 L522.281076,250.757349 L522.281076,286.316911 L523.99067,286.316911 Z" id="schropp" fill="#000000"></path>
        <path d="M-4.54747351e-13,176.093601 L-4.54747351e-13,1.62485445 L34.9343706,1.62485445 L34.9343706,146.440007 L70.8842752,146.440007 L70.8842752,176.093601 L-4.54747351e-13,176.093601 Z M75.9619454,176.093601 L92.8198102,1.62485445 L151.923891,1.62485445 L168.578649,176.093601 L135.472239,176.093601 L133.034958,147.861755 L111.91185,147.861755 L109.880782,176.093601 L75.9619454,176.093601 Z M114.552238,120.036122 L130.394569,120.036122 L122.676511,31.2784481 L121.051656,31.2784481 L114.552238,120.036122 Z M179.140203,176.093601 L179.140203,1.62485445 L215.090107,1.62485445 L231.135545,85.1017516 L231.135545,1.62485445 L264.851275,1.62485445 L264.851275,176.093601 L230.729331,176.093601 L213.262146,88.7576741 L213.262146,176.093601 L179.140203,176.093601 Z M280.287392,1.62485445 L328.423705,1.62485445 C340.880985,1.62485445 350.223804,5.07763562 356.452444,11.9833015 C362.681084,18.8889675 365.863059,29.1119078 365.998464,42.6524292 L366.404678,124.301365 C366.540083,141.497827 363.561213,154.428831 357.467978,163.094765 C351.374744,171.760699 341.287206,176.093601 327.205064,176.093601 L280.287392,176.093601 L280.287392,1.62485445 Z M321.518074,145.221366 C327.882119,145.221366 331.064093,142.107093 331.064093,135.878453 L331.064093,45.9021381 C331.064093,41.9753869 330.759436,39.0303677 330.150113,37.0669921 C329.540789,35.1036164 328.423713,33.7834354 326.79885,33.1064093 C325.173988,32.4293833 322.669029,32.0908753 319.283899,32.0908753 L315.424869,32.0908753 L315.424869,145.221366 L321.518074,145.221366 Z M389.965067,164.821173 C382.653186,156.222942 378.9973,144.138208 378.9973,128.566608 L378.9973,45.4959245 C378.9973,30.4659457 382.653186,19.1259291 389.965067,11.4755345 C397.276949,3.82513992 407.9738,-3.12638804e-13 422.055942,-3.12638804e-13 C436.138085,-3.12638804e-13 446.834936,3.82513992 454.146818,11.4755345 C461.458699,19.1259291 465.114585,30.4659457 465.114585,45.4959245 L465.114585,128.566608 C465.114585,144.273613 461.458699,156.392198 454.146818,164.922726 C446.834936,173.453255 436.138085,177.718455 422.055942,177.718455 C407.9738,177.718455 397.276949,173.419404 389.965067,164.821173 Z M428.352253,141.565444 C429.435495,138.857339 429.977108,135.06605 429.977108,130.191463 L429.977108,44.8866041 C429.977108,41.0952581 429.469346,38.0148357 428.453807,35.6452444 C427.438268,33.2756532 425.373369,32.0908753 422.259049,32.0908753 C416.436625,32.0908753 413.525457,36.4914788 413.525457,45.2928177 L413.525457,130.394569 C413.525457,135.404562 414.134771,139.195851 415.353418,141.76855 C416.572065,144.341249 418.806217,145.62758 422.055942,145.62758 C425.170262,145.62758 427.269012,144.273548 428.352253,141.565444 Z M479.128955,176.093601 L479.128955,1.62485445 L515.078859,1.62485445 L531.124297,85.1017516 L531.124297,1.62485445 L564.840027,1.62485445 L564.840027,176.093601 L530.718083,176.093601 L513.250898,88.7576741 L513.250898,176.093601 L479.128955,176.093601 Z" id="landon" fill="#000000"></path>
    </g>
</svg>