<?xml version="1.0" encoding="UTF-8"?>
<svg width="565px" height="855px" viewBox="0 0 565 855" version="1.1" xmlns="http://www.w3.org/2000/svg" xmlns:xlink="http://www.w3.org/1999/xlink">
    <title>portrait</title>
    <g id="portrait" stroke="none" stroke-width="1" fill="none" fill-rule="evenodd">
        <path d="M-3.83693077e-13,176.093601 L-3.83693077e-13,1.62485445 L34.9343706,1.62485445 L34.9343706,146.440007 L70.8842752,146.440007 L70.8842752,176.093601 L-3.83693077e-13,176.093601 Z M75.9619454,176.093601 L92.8198102,1.62485445 L151.923891,1.62485445 L168.578649,176.093601 L135.472239,176.093601 L133.034958,147.861755 L111.91185,147.861755 L109.880782,176.093601 L75.9619454,176.093601 Z M114.552238,120.036122 L130.394569,120.036122 L122.676511,31.2784481 L121.051656,31.2784481 L114.552238,120.036122 Z M179.140203,176.093601 L179.140203,1.62485445 L215.090107,1.62485445 L231.135545,85.1017516 L231.135545,1.62485445 L264.851275,1.62485445 L264.851275,176.093601 L230.729331,176.093601 L213.262146,88.7576741 L213.262146,176.093601 L179.140203,176.093601 Z M280.287392,1.62485445 L328.423705,1.62485445 C340.880985,1.62485445 350.223804,5.07763562 356.452444,11.9833015 C362.681084,18.8889675 365.863059,29.1119078 365.998464,42.6524292 L366.404678,124.301365 C366.540083,141.497827 363.561213,154.428831 357.467978,163.094765 C351.374744,171.760699 341.287206,176.093601 327.205064,176.093601 L280.287392,176.093601 L280.287392,1.62485445 Z M321.518074,145.221366 C327.882119,145.221366 331.064093,142.107093 331.064093,135.878453 L331.064093,45.9021381 C331.064093,41.9753869 330.759436,39.0303677 330.150113,37.0669921 C329.540789,35.1036164 328.423713,33.7834354 326.79885,33.1064093 C325.173988,32.4293833 322.669029,32.0908753 319.283899,32.0908753 L315.424869,32.0908753 L315.424869,145.221366 L321.518074,145.221366 Z M389.965067,164.821173 C382.653186,156.222942 378.9973,144.138208 378.9973,128.566608 L378.9973,45.4959245 C378.9973,30.4659457 382.653186,19.1259291 389.965067,11.4755345 C397.276949,3.82513992 407.9738,0 422.055942,0 C436.138085,0 446.834936,3.82513992 454.146818,11.4755345 C461.458699,19.1259291 465.114585,30.4659457 465.114585,45.4959245 L465.114585,128.566608 C465.114585,144.273613 461.458699,156.392198 454.146818,164.922726 C446.834936,173.453255 436.138085,177.718455 422.055942,177.718455 C407.9738,177.718455 397.276949,173.419404 389.965067,164.821173 Z M428.352253,141.565444 C429.435495,138.857339 429.977108,135.06605 429.977108,130.191463 L429.977108,44.8866041 C429.977108,41.0952581 429.469346,38.0148357 428.453807,35.6452444 C427.438268,33.2756532 425.373369,32.0908753 422.259049,32.0908753 C416.436625,32.0908753 413.525457,36.4914788 413.525457,45.2928177 L413.525457,130.394569 C413.525457,135.404562 414.134771,139.195851 415.353418,141.76855 C416.572065,144.341249 418.806217,145.62758 422.055942,145.62758 C425.170262,145.62758 427.269012,144.273548 428.352253,141.565444 Z M479.128955,176.093601 L479.128955,1.62485445 L515.078859,1.62485445 L531.124297,85.1017516 L531.124297,1.62485445 L564.840027,1.62485445 L564.840027,176.093601 L530.718083,176.093601 L513.250898,88.7576741 L513.250898,176.093601 L479.128955,176.093601 Z" id="landon" fill="#000000"></path>
        <path d="M8.88989066,362.39386 C2.96326725,355.783396 0,345.127031 0,330.424446 L0,316.063853 L28.8921446,316.063853 L28.8921446,334.356513 C28.8921446,341.650818 31.2285669,345.297917 35.9014815,345.297917 C38.5228726,345.297917 40.3464217,344.528607 41.3721834,342.989964 C42.3979452,341.451322 42.9108184,338.858463 42.9108184,335.21131 C42.9108184,330.424422 42.3409593,326.463901 41.201224,323.329629 C40.0614887,320.195357 38.6083481,317.574005 36.8417584,315.465495 C35.0751687,313.356985 31.9124508,310.080295 27.3535097,305.635328 L14.7025115,292.984329 C4.90078815,283.410553 0,272.811174 0,261.185874 C0,248.648786 2.87778839,239.103647 8.6334515,232.550169 C14.3891146,225.996691 22.7945362,222.720001 33.8499683,222.720001 C47.0708974,222.720001 56.5875442,226.224635 62.400194,233.234007 C68.2128439,240.243378 71.1191253,251.213166 71.1191253,266.143698 L41.201224,266.143698 L41.0302646,256.057091 C41.0302646,254.119541 40.4888984,252.580922 39.4061499,251.441186 C38.3234014,250.301451 36.8132748,249.731592 34.8757249,249.731592 C32.5962543,249.731592 30.8866771,250.358437 29.7469418,251.612146 C28.6072065,252.865855 28.0373475,254.575432 28.0373475,256.740929 C28.0373475,261.527817 30.7726711,266.485591 36.2434004,271.6144 L53.3393439,288.026506 C57.3284174,291.901606 60.6336001,295.577197 63.2549912,299.053389 C65.8763823,302.529582 67.984861,306.632567 69.5804903,311.362469 C71.1761197,316.09237 71.9739224,321.705482 71.9739224,328.201973 C71.9739224,342.676611 69.3240777,353.646398 64.0243087,361.111664 C58.7245397,368.57693 49.9772027,372.309507 37.7820353,372.309507 C24.4471326,372.309507 14.8165141,369.004325 8.88989066,362.39386 Z M90.1811023,362.222901 C83.7415981,355.498463 80.5218942,346.266745 80.5218942,334.527472 L80.5218942,266.827536 C80.5218942,252.238924 83.4281756,241.240644 89.2408254,233.832365 C95.0534753,226.424085 104.171221,222.720001 116.594335,222.720001 C127.42182,222.720001 136.140664,225.683268 142.751129,231.609892 C149.361593,237.536515 152.666776,246.084402 152.666776,257.253807 L152.666776,282.555804 L123.432713,282.555804 L123.432713,260.843955 C123.432713,256.626935 122.919839,253.720654 121.894078,252.125024 C120.868316,250.529395 119.101753,249.731592 116.594335,249.731592 C113.972944,249.731592 112.177888,250.643367 111.209113,252.466943 C110.240338,254.290519 109.755958,256.968857 109.755958,260.502037 L109.755958,334.185553 C109.755958,338.060653 110.325817,340.881456 111.465552,342.648045 C112.605287,344.414635 114.314865,345.297917 116.594335,345.297917 C121.153276,345.297917 123.432713,341.593833 123.432713,334.185553 L123.432713,307.686841 L153.008695,307.686841 L153.008695,335.382269 C153.008695,360.000551 140.642753,372.309507 115.910497,372.309507 C105.196986,372.309507 96.6206066,368.947339 90.1811023,362.222901 Z M162.753383,370.941832 L162.753383,224.087677 L191.987446,224.087677 L191.987446,276.572223 L205.835161,276.572223 L205.835161,224.087677 L235.069224,224.087677 L235.069224,370.941832 L205.835161,370.941832 L205.835161,304.267652 L191.987446,304.267652 L191.987446,370.941832 L162.753383,370.941832 Z M248.062141,224.087677 L293.195432,224.087677 C300.375764,224.087677 305.931891,225.711775 309.863977,228.960021 C313.796064,232.208266 316.445909,236.767139 317.813591,242.636775 C319.181273,248.506412 319.865104,256.000059 319.865104,265.117941 C319.865104,273.438009 318.782372,279.934402 316.616875,284.607317 C314.451378,289.280232 310.690308,292.528428 305.333552,294.352005 C309.77852,295.263793 312.998224,297.486243 314.99276,301.019423 C316.987297,304.552602 317.98455,309.339418 317.98455,315.380015 L317.642632,370.941832 L288.921446,370.941832 L288.921446,313.499462 C288.921446,309.396415 288.123644,306.775063 286.528014,305.635328 C284.932385,304.495592 282.026104,303.925733 277.809083,303.925733 L277.809083,370.941832 L248.062141,370.941832 L248.062141,224.087677 Z M284.989379,278.452777 C289.092426,278.452777 291.143919,274.007876 291.143919,265.117941 C291.143919,261.242841 290.972961,258.33656 290.631041,256.39901 C290.28912,254.46146 289.662275,253.122291 288.750487,252.381463 C287.838699,251.640635 286.528023,251.270227 284.81842,251.270227 L277.980042,251.270227 L277.980042,278.452777 L284.989379,278.452777 Z M337.644886,361.453583 C331.490315,354.216264 328.413076,344.04428 328.413076,330.937324 L328.413076,261.014915 C328.413076,248.363853 331.490315,238.818714 337.644886,232.379209 C343.799456,225.939705 352.80323,222.720001 364.656476,222.720001 C376.509723,222.720001 385.513497,225.939705 391.668067,232.379209 C397.822638,238.818714 400.899877,248.363853 400.899877,261.014915 L400.899877,330.937324 C400.899877,344.158253 397.822638,354.358731 391.668067,361.539063 C385.513497,368.719395 376.509723,372.309507 364.656476,372.309507 C352.80323,372.309507 343.799456,368.690902 337.644886,361.453583 Z M369.956219,341.878728 C370.868007,339.599257 371.323894,336.408046 371.323894,332.305 L371.323894,260.502037 C371.323894,257.310778 370.8965,254.717919 370.041699,252.723382 C369.186897,250.728845 367.448827,249.731592 364.827436,249.731592 C359.926574,249.731592 357.47618,253.435676 357.47618,260.843955 L357.47618,332.475959 C357.47618,336.692979 357.989053,339.88419 359.014815,342.049687 C360.040577,344.215184 361.921112,345.297917 364.656476,345.297917 C367.277867,345.297917 369.044431,344.158198 369.956219,341.878728 Z M412.696078,224.087677 L451.50387,224.087677 C463.243143,224.087677 471.620072,227.87724 476.634907,235.456479 C481.649742,243.035719 484.157122,254.119478 484.157122,268.708089 C484.157122,283.296701 481.934671,294.294981 477.489704,301.703261 C473.044736,309.11154 465.066709,312.815624 453.555383,312.815624 L441.588222,312.815624 L441.588222,370.941832 L412.696078,370.941832 L412.696078,224.087677 Z M443.297817,286.316911 C446.830996,286.316911 449.423855,285.661573 451.076471,284.350878 C452.729087,283.040182 453.81182,281.159647 454.3247,278.709216 C454.837581,276.258786 455.094018,272.754152 455.094018,268.195211 C455.094018,262.040641 454.410187,257.59574 453.042505,254.860375 C451.674822,252.12501 448.939499,250.757349 444.836452,250.757349 L441.588222,250.757349 L441.588222,286.316911 L443.297817,286.316911 Z M493.388931,224.087677 L532.196723,224.087677 C543.935997,224.087677 552.312925,227.87724 557.32776,235.456479 C562.342596,243.035719 564.849976,254.119478 564.849976,268.708089 C564.849976,283.296701 562.627525,294.294981 558.182558,301.703261 C553.73759,309.11154 545.759563,312.815624 534.248237,312.815624 L522.281076,312.815624 L522.281076,370.941832 L493.388931,370.941832 L493.388931,224.087677 Z M523.99067,286.316911 C527.52385,286.316911 530.116709,285.661573 531.769325,284.350878 C533.421941,283.040182 534.504673,281.159647 535.017554,278.709216 C535.530435,276.258786 535.786872,272.754152 535.786872,268.195211 C535.786872,262.040641 535.103041,257.59574 533.735358,254.860375 C532.367676,252.12501 529.632352,250.757349 525.529305,250.757349 L522.281076,250.757349 L522.281076,286.316911 L523.99067,286.316911 Z" id="schropp" fill="#000000"></path>
        <path d="M0,554.235199 L15.9162783,554.235199 C20.0352795,554.235199 23.124484,555.372461 25.1839846,557.647018 C27.2434852,559.921575 28.2956056,563.28876 28.3403773,567.748676 L28.4746919,594.641832 C28.5194637,600.305924 27.5344999,604.56508 25.5197711,607.419425 C23.5050422,610.273771 20.1695967,611.700923 15.5133345,611.700923 L0,611.700923 L0,554.235199 Z M13.6329303,601.532366 C15.7372027,601.532366 16.7893231,600.506601 16.7893231,598.45504 L16.7893231,568.81905 C16.7893231,567.525675 16.6885881,566.555658 16.4871153,565.90897 C16.2856424,565.262282 15.916281,564.827447 15.3790199,564.604451 C14.8417589,564.381455 14.0134939,564.269959 12.8942001,564.269959 L11.6182116,564.269959 L11.6182116,601.532366 L13.6329303,601.532366 Z M33.1085451,611.700923 L33.1085451,554.235199 L56.2106536,554.235199 L56.2106536,565.340333 L44.8610712,565.340333 L44.8610712,576.512366 L55.7405526,576.512366 L55.7405526,587.349906 L44.8610712,587.349906 L44.8610712,600.52889 L56.9493839,600.52889 L56.9493839,611.700923 L33.1085451,611.700923 Z M66.0827756,611.700923 L58.9641026,554.168301 L69.9778986,554.168301 L74.208808,593.303864 L77.9696163,554.168301 L88.9834123,554.168301 L81.8647393,611.700923 L66.0827756,611.700923 Z M92.2741196,611.700923 L92.2741196,554.235199 L115.376228,554.235199 L115.376228,565.340333 L104.026646,565.340333 L104.026646,576.512366 L114.906127,576.512366 L114.906127,587.349906 L104.026646,587.349906 L104.026646,600.52889 L116.114958,600.52889 L116.114958,611.700923 L92.2741196,611.700923 Z M119.942924,611.700923 L119.942924,554.235199 L131.493978,554.235199 L131.493978,601.933757 L143.380819,601.933757 L143.380819,611.700923 L119.942924,611.700923 Z M149.760762,607.988062 C147.343087,605.156015 146.134268,601.175601 146.134268,596.046698 L146.134268,568.685253 C146.134268,563.734747 147.343087,559.999624 149.760762,557.479772 C152.178436,554.959919 155.715352,553.700012 160.371614,553.700012 C165.027876,553.700012 168.564792,554.959919 170.982466,557.479772 C173.400141,559.999624 174.60896,563.734747 174.60896,568.685253 L174.60896,596.046698 C174.60896,601.2202 173.400141,605.211764 170.982466,608.021511 C168.564792,610.831258 165.027876,612.23611 160.371614,612.23611 C155.715352,612.23611 152.178436,610.820108 149.760762,607.988062 Z M162.45349,600.328195 C162.811664,599.436212 162.990748,598.187455 162.990748,596.581885 L162.990748,568.484558 C162.990748,567.235782 162.822857,566.221166 162.487069,565.440681 C162.151281,564.660196 161.468522,564.269959 160.438771,564.269959 C158.513586,564.269959 157.551008,565.71941 157.551008,568.618355 L157.551008,596.648783 C157.551008,598.298952 157.752478,599.54771 158.155423,600.395094 C158.558369,601.242478 159.297092,601.666163 160.371614,601.666163 C161.401364,601.666163 162.095316,601.220178 162.45349,600.328195 Z M179.242813,554.235199 L194.487518,554.235199 C199.099009,554.235199 202.389683,555.718099 204.35964,558.683943 C206.329597,561.649787 207.314561,565.986989 207.314561,571.695681 C207.314561,577.404373 206.441525,581.708127 204.695427,584.607072 C202.949329,587.506017 199.815353,588.955468 195.293406,588.955468 L190.592395,588.955468 L190.592395,611.700923 L179.242813,611.700923 L179.242813,554.235199 Z M191.263968,578.586216 C192.651893,578.586216 193.670435,578.329775 194.319625,577.816885 C194.968816,577.303994 195.394141,576.568119 195.595614,575.609237 C195.797087,574.650356 195.897822,573.278952 195.897822,571.494986 C195.897822,569.086632 195.629195,567.347291 195.091934,566.276911 C194.554673,565.206531 193.480167,564.671349 191.868384,564.671349 L190.592395,564.671349 L190.592395,578.586216 L191.263968,578.586216 Z M210.941055,611.700923 L210.941055,554.235199 L234.043164,554.235199 L234.043164,565.340333 L222.693581,565.340333 L222.693581,576.512366 L233.573063,576.512366 L233.573063,587.349906 L222.693581,587.349906 L222.693581,600.52889 L234.781894,600.52889 L234.781894,611.700923 L210.941055,611.700923 Z M238.609859,554.235199 L256.339385,554.235199 C259.160005,554.235199 261.342595,554.870728 262.887221,556.141804 C264.431846,557.41288 265.472774,559.196819 266.010035,561.493676 C266.547296,563.790532 266.815922,566.722882 266.815922,570.290815 C266.815922,573.546553 266.390597,576.088667 265.539934,577.917232 C264.68927,579.745797 263.211825,581.016854 261.107552,581.730441 C262.853651,582.087234 264.118434,582.956904 264.901939,584.339478 C265.685445,585.722052 266.077192,587.595188 266.077192,589.958944 L265.942877,611.700923 L254.660452,611.700923 L254.660452,589.223061 C254.660452,587.617492 254.347055,586.591727 253.72025,586.145735 C253.093446,585.699743 251.951783,585.476751 250.295228,585.476751 L250.295228,611.700923 L238.609859,611.700923 L238.609859,554.235199 Z M253.115835,575.50889 C254.727618,575.50889 255.533497,573.769549 255.533497,570.290815 C255.533497,568.774444 255.46634,567.637182 255.332025,566.878997 C255.19771,566.120811 254.951469,565.596779 254.593295,565.306884 C254.235121,565.01699 253.720254,564.872045 253.048677,564.872045 L250.362386,564.872045 L250.362386,575.50889 L253.115835,575.50889 Z M287.634683,608.690495 C285.843813,606.237541 284.948391,603.04875 284.948391,599.124024 C284.948391,594.753307 285.575186,591.241176 286.828795,588.587527 C288.082404,585.933877 290.052332,583.603606 292.738637,581.596644 C290.544821,577.315125 289.44793,573.613451 289.44793,570.49151 C289.44793,567.235772 290.511243,564.682508 292.637901,562.831643 C294.764559,560.980779 297.506788,560.05536 300.864669,560.05536 C304.177779,560.05536 306.897622,560.93618 309.02428,562.697847 C311.150939,564.459513 312.214252,566.92358 312.214252,570.09012 C312.214252,574.728432 309.639915,579.076784 304.491163,583.135307 L306.573039,588.01889 C307.826648,584.718553 309.707034,582.15414 312.214252,580.325574 L316.780948,587.416805 C314.139414,589.468366 311.990402,592.857851 310.333848,597.585361 L316.176532,611.700923 L305.028422,611.700923 L303.81959,608.556698 C302.879383,609.671677 301.681757,610.585946 300.226675,611.299532 C298.771593,612.013119 297.193413,612.369907 295.492086,612.369907 C292.044661,612.369907 289.425553,611.143449 287.634683,608.690495 Z M302.073501,574.839906 C302.521218,574.349315 302.924158,573.646889 303.282332,572.732606 C303.640506,571.818324 303.81959,570.937504 303.81959,570.09012 C303.81959,568.752145 303.17041,568.083168 301.872029,568.083168 C301.334768,568.083168 300.909443,568.272711 300.59604,568.651804 C300.282638,569.030897 300.125939,569.510331 300.125939,570.09012 C300.125939,571.249698 300.596036,573.033637 301.536242,575.441991 L302.073501,574.839906 Z M299.454366,603.03758 C300.036399,602.390893 300.416953,601.643868 300.59604,600.796484 L296.63376,591.296912 L296.230816,591.898997 C295.872642,592.434187 295.58163,593.281558 295.357771,594.441136 C295.133913,595.600714 295.021985,596.737976 295.021985,597.852955 L295.021985,598.187447 C295.021985,599.926814 295.156298,601.331666 295.424929,602.402046 C295.693559,603.472425 296.320354,604.007607 297.305333,604.007607 C298.155996,604.007607 298.872333,603.684268 299.454366,603.03758 Z M335.987933,554.235199 L351.904212,554.235199 C356.023213,554.235199 359.112417,555.372461 361.171918,557.647018 C363.231418,559.921575 364.283539,563.28876 364.328311,567.748676 L364.462625,594.641832 C364.507397,600.305924 363.522433,604.56508 361.507704,607.419425 C359.492975,610.273771 356.15753,611.700923 351.501268,611.700923 L335.987933,611.700923 L335.987933,554.235199 Z M349.620864,601.532366 C351.725136,601.532366 352.777256,600.506601 352.777256,598.45504 L352.777256,568.81905 C352.777256,567.525675 352.676521,566.555658 352.475049,565.90897 C352.273576,565.262282 351.904214,564.827447 351.366953,564.604451 C350.829692,564.381455 350.001427,564.269959 348.882133,564.269959 L347.606145,564.269959 L347.606145,601.532366 L349.620864,601.532366 Z M369.096478,611.700923 L369.096478,554.235199 L392.198587,554.235199 L392.198587,565.340333 L380.849005,565.340333 L380.849005,576.512366 L391.728486,576.512366 L391.728486,587.349906 L380.849005,587.349906 L380.849005,600.52889 L392.937317,600.52889 L392.937317,611.700923 L369.096478,611.700923 Z M399.115788,608.356003 C396.787657,605.769252 395.623609,601.599294 395.623609,595.846003 L395.623609,590.226537 L406.973191,590.226537 L406.973191,597.384666 C406.973191,600.239012 407.890998,601.666163 409.72664,601.666163 C410.75639,601.666163 411.472728,601.365123 411.875674,600.763035 C412.278619,600.160946 412.480089,599.146331 412.480089,597.719158 C412.480089,595.845993 412.256234,594.296196 411.808516,593.069719 C411.360799,591.843242 410.789967,590.817477 410.096005,589.992393 C409.402043,589.167309 408.159646,587.885102 406.368776,586.145735 L401.399136,581.195254 C397.548765,577.448925 395.623609,573.301265 395.623609,568.752152 C395.623609,563.846245 396.754079,560.111121 399.015052,557.54667 C401.276026,554.982219 404.577893,553.700012 408.920753,553.700012 C414.114276,553.700012 417.852661,555.071416 420.13602,557.814264 C422.41938,560.557112 423.561042,564.849716 423.561042,570.692205 L411.808516,570.692205 L411.741359,566.7452 C411.741359,565.987014 411.528696,565.384935 411.103365,564.938943 C410.678033,564.492951 410.084816,564.269959 409.323696,564.269959 C408.428261,564.269959 407.756695,564.515251 407.308978,565.005841 C406.86126,565.496432 406.637405,566.165409 406.637405,567.012793 C406.637405,568.885958 407.711911,570.825992 409.860955,572.832954 L416.576684,579.2552 C418.143695,580.771571 419.442057,582.209872 420.471807,583.570147 C421.501557,584.930421 422.329822,586.535966 422.956627,588.386831 C423.583431,590.237696 423.896829,592.434172 423.896829,594.976323 C423.896829,600.640416 422.855901,604.93302 420.774015,607.854265 C418.692128,610.77551 415.255948,612.23611 410.46537,612.23611 C405.227075,612.23611 401.443919,610.942754 399.115788,608.356003 Z M427.187536,611.700923 L427.187536,554.235199 L438.335647,554.235199 L438.335647,611.700923 L427.187536,611.700923 Z M445.555056,607.854265 C443.517941,604.93302 442.499399,600.506621 442.499399,594.574933 L442.499399,569.822526 C442.499399,564.515227 443.685832,560.501363 446.058735,557.780814 C448.431638,555.060266 451.968554,553.700012 456.669587,553.700012 C460.475186,553.700012 463.430078,554.458186 465.53435,555.974558 C467.638622,557.490929 469.093683,559.698554 469.899574,562.597499 C470.705466,565.496444 471.108405,569.220418 471.108405,573.769531 L459.82598,573.769531 L459.82598,568.618355 C459.82598,567.235781 459.635703,566.165417 459.255143,565.407232 C458.874583,564.649046 458.191824,564.269959 457.206846,564.269959 C455.01303,564.269959 453.916139,565.697111 453.916139,568.551456 L453.916139,596.38119 C453.916139,598.120557 454.139994,599.436212 454.587711,600.328195 C455.035429,601.220178 455.818923,601.666163 456.938217,601.666163 C458.05751,601.666163 458.841004,601.220178 459.288722,600.328195 C459.736439,599.436212 459.960295,598.120557 459.960295,596.38119 L459.960295,588.152687 L456.871059,588.152687 L456.871059,578.251724 L470.974091,578.251724 L470.974091,611.700923 L466.340238,611.700923 L464.392676,606.884238 C462.333176,610.452171 459.154429,612.23611 454.856341,612.23611 C450.692568,612.23611 447.59217,610.77551 445.555056,607.854265 Z M475.540787,611.700923 L475.540787,554.235199 L487.427627,554.235199 L492.733053,581.730441 L492.733053,554.235199 L503.881164,554.235199 L503.881164,611.700923 L492.598739,611.700923 L486.823212,582.934612 L486.823212,611.700923 L475.540787,611.700923 Z M508.985118,611.700923 L508.985118,554.235199 L532.087227,554.235199 L532.087227,565.340333 L520.737644,565.340333 L520.737644,576.512366 L531.617126,576.512366 L531.617126,587.349906 L520.737644,587.349906 L520.737644,600.52889 L532.825957,600.52889 L532.825957,611.700923 L508.985118,611.700923 Z M536.653923,554.235199 L554.383448,554.235199 C557.204068,554.235199 559.386658,554.870728 560.931284,556.141804 C562.475909,557.41288 563.516837,559.196819 564.054098,561.493676 C564.591359,563.790532 564.859985,566.722882 564.859985,570.290815 C564.859985,573.546553 564.43466,576.088667 563.583997,577.917232 C562.733334,579.745797 561.255888,581.016854 559.151616,581.730441 C560.897714,582.087234 562.162497,582.956904 562.946003,584.339478 C563.729508,585.722052 564.121255,587.595188 564.121255,589.958944 L563.986941,611.700923 L552.704515,611.700923 L552.704515,589.223061 C552.704515,587.617492 552.391118,586.591727 551.764313,586.145735 C551.137509,585.699743 549.995846,585.476751 548.339291,585.476751 L548.339291,611.700923 L536.653923,611.700923 L536.653923,554.235199 Z M551.159898,575.50889 C552.771681,575.50889 553.57756,573.769549 553.57756,570.290815 C553.57756,568.774444 553.510404,567.637182 553.376088,566.878997 C553.241773,566.120811 552.995532,565.596779 552.637358,565.306884 C552.279184,565.01699 551.764317,564.872045 551.09274,564.872045 L548.406449,564.872045 L548.406449,575.50889 L551.159898,575.50889 Z" id="developer-and-designer" fill="#0E1B23"></path>
        <path d="M511.444544,837 L497.139478,837 L497.139478,790.933259 L511.444544,790.933259 L511.444544,837 L511.444544,837 Z M504.284312,784.64933 C499.711002,784.64933 496,780.860491 496,776.286161 C496,771.71183 499.711002,768 504.284312,768 C508.857621,768 512.568623,771.71183 512.568623,776.286161 C512.568623,780.860491 508.857621,784.64933 504.284312,784.64933 Z M564.984602,837 L550.710333,837 L550.710333,814.575 C550.710333,809.23058 550.602544,802.376786 543.27293,802.376786 C535.835528,802.376786 534.69605,808.183259 534.69605,814.189955 L534.69605,837 L520.406383,837 L520.406383,790.933259 L534.126311,790.933259 L534.126311,797.217188 L534.32649,797.217188 C536.235885,793.597768 540.901584,789.778125 547.861638,789.778125 C562.336086,789.778125 565,799.31183 565,811.694866 L565,837 L564.984602,837 Z" id="linkedin" fill="#000000" fill-rule="nonzero"></path>
        <path d="M319,796.459 L319,831.998518 C319,833.656191 317.660701,835 315.994568,835 L251.005432,835 C249.345578,835 248,833.662344 248,831.998518 L248,796.469 L282.246045,818.122711 C283.073372,818.645799 284.126113,818.644345 284.952008,818.118973 L319,796.459 Z M315.994568,783 C317.654422,783 319,784.337656 319,786.001482 L319,790.426 L283.591961,812.951103 L248,790.447 L248,786.001482 C248,784.343809 249.339299,783 251.005432,783 L315.994568,783 Z" id="email" fill="#000000"></path>
        <path d="M63.7017766,795.205469 C63.7468274,795.828906 63.7468274,796.452344 63.7468274,797.075781 C63.7468274,816.090625 49.1053299,838 22.3451777,838 C14.1008883,838 6.44225888,835.639844 0,831.542969 C1.1713198,831.676563 2.29758883,831.721094 3.51395939,831.721094 C10.3166244,831.721094 16.5786802,829.45 21.5793147,825.575781 C15.1821066,825.442188 9.82106599,821.300781 7.97398477,815.600781 C8.875,815.734375 9.77601523,815.823438 10.7220812,815.823438 C12.0285533,815.823438 13.3350254,815.645313 14.5513959,815.333594 C7.88388325,813.997656 2.88324873,808.208594 2.88324873,801.217188 L2.88324873,801.039063 C4.82043147,802.107813 7.07296954,802.775781 9.4606599,802.864844 C5.54124365,800.282031 2.97335025,795.873438 2.97335025,790.885938 C2.97335025,788.214063 3.69416244,785.764844 4.95558376,783.627344 C12.1186548,792.355469 22.8857868,798.055469 34.9593909,798.678906 C34.7341371,797.610156 34.5989848,796.496875 34.5989848,795.383594 C34.5989848,787.457031 41.0862944,781 49.1503807,781 C53.3401015,781 57.1243655,782.736719 59.7823604,785.542188 C63.071066,784.91875 66.2246193,783.716406 69.0177665,782.06875 C67.9365482,785.408594 65.6389594,788.214063 62.6205584,789.995313 C65.5488579,789.683594 68.3870558,788.882031 71,787.76875 C69.0177665,790.61875 66.5399746,793.157031 63.7017766,795.205469 L63.7017766,795.205469 Z" id="twitter" fill="#000000" fill-rule="nonzero"></path>
        <path d="M159.535484,773 C139.401613,773 124,788.45944 124,808.822443 C124,825.104038 134.132258,839.036619 148.604839,843.940183 C150.462903,844.277854 151.116129,843.118029 151.116129,842.163742 C151.116129,841.2535 151.072581,836.232485 151.072581,833.149406 C151.072581,833.149406 140.91129,835.351605 138.777419,828.77437 C138.777419,828.77437 137.122581,824.502103 134.741935,823.401003 C134.741935,823.401003 131.417742,821.096035 134.974194,821.140079 C134.974194,821.140079 138.58871,821.433705 140.577419,824.927862 C143.756452,830.594855 149.083871,828.965227 151.159677,827.996259 C151.493548,825.647247 152.437097,824.017619 153.482258,823.048651 C145.367742,822.138409 137.180645,820.949221 137.180645,806.825783 C137.180645,802.788417 138.283871,800.762394 140.606452,798.17848 C140.229032,797.224193 138.995161,793.289597 140.983871,788.209857 C144.017742,787.255571 151,792.173816 151,792.173816 C153.903226,791.351662 157.024194,790.925903 160.116129,790.925903 C163.208065,790.925903 166.329032,791.351662 169.232258,792.173816 C169.232258,792.173816 176.214516,787.240889 179.248387,788.209857 C181.237097,793.304278 180.003226,797.224193 179.625806,798.17848 C181.948387,800.777075 183.370968,802.803098 183.370968,806.825783 C183.370968,820.993265 174.820968,822.123728 166.706452,823.048651 C168.041935,824.208476 169.174194,826.410676 169.174194,829.860788 C169.174194,834.808396 169.130645,840.930511 169.130645,842.13438 C169.130645,843.088666 169.798387,844.248491 171.641935,843.91082 C186.158065,839.036619 196,825.104038 196,808.822443 C196,788.45944 179.669355,773 159.535484,773 Z" id="github" fill="#000000" fill-rule="nonzero"></path>
        <path d="M441.527532,794.918253 C441.573922,794.954055 441.645567,795.014354 441.716247,795.077794 C441.764355,795.121144 441.870762,795.228859 441.870762,795.228859 C441.931328,795.288679 441.991416,795.353932 442.079814,795.45584 C442.258721,795.684609 442.310083,795.758821 442.379432,795.865841 C442.527627,796.112053 442.571118,796.197285 442.616192,796.293943 C442.740006,796.575657 442.762531,796.640668 442.80546,796.772704 C442.89303,797.06775 442.912254,797.162471 442.935754,797.297741 C442.98808,797.638695 443,797.805426 443,797.971722 L443,819.02716 C443,819.192829 442.988204,819.358477 442.962955,819.55639 C442.911483,819.840847 442.892922,819.932604 442.866895,820.029686 C442.809035,820.215533 442.798462,820.247735 442.798462,820.247735 C442.753483,820.383049 442.731908,820.443323 442.703895,820.513067 C442.574051,820.795758 442.531303,820.880038 442.472953,820.981993 C442.314116,821.234787 442.260269,821.312414 442.219104,821.365416 C442.175932,821.425443 442.144434,821.465024 442.062388,821.564048 C441.989393,821.647715 441.93038,821.711869 441.877547,821.763524 C441.796805,821.846399 441.760311,821.882354 441.718042,821.91969 C441.649775,821.981523 441.578391,822.041672 441.496117,822.106867 C441.41064,822.17336 441.370257,822.203737 441.290665,822.258517 C441.305102,822.251483 409.67218,843.34135 409.67218,843.34135 C409.023912,843.773043 408.268376,844 407.500112,844 C406.731073,844 405.974981,843.772991 405.326964,843.341078 L373.748836,822.288961 C373.613468,822.192411 373.570436,822.159291 373.503683,822.106188 C373.42366,822.043709 373.348328,821.980232 373.296114,821.931673 C373.243775,821.886051 373.129929,821.771597 373.129929,821.771597 C373.065869,821.708329 373.002733,821.639146 372.930354,821.554578 C372.871624,821.48544 372.827076,821.429936 372.790842,821.379289 C372.73052,821.298551 372.675051,821.218512 372.633453,821.152219 C372.596873,821.096531 372.561683,821.040282 372.510805,820.954147 C372.467261,820.875392 372.427139,820.79629 372.385378,820.708665 C372.337112,820.609019 372.31763,820.566836 372.293077,820.505591 C372.258422,820.418954 372.236259,820.354448 372.197285,820.234113 C372.109762,819.942509 372.096316,819.876488 372.071618,819.741784 C372.01222,819.368203 372,819.197646 372,819.02716 L372,797.971722 C372,797.801619 372.012326,797.63119 372.034962,797.464098 C372.096316,797.122171 372.109762,797.05615 372.138119,796.949605 C372.235083,796.647299 372.259571,796.576466 372.29446,796.491417 C372.321399,796.424828 372.343436,796.377199 372.382786,796.295872 C372.429332,796.197537 372.471079,796.115721 372.518775,796.03262 C372.674821,795.780664 372.730974,795.699637 372.792825,795.617172 C372.837533,795.557766 372.882873,795.500665 372.931205,795.443528 C372.998379,795.364672 373.064009,795.292913 373.123938,795.233612 C373.206862,795.14913 373.24538,795.111697 373.281629,795.080099 C373.352665,795.015574 373.426983,794.953026 373.473138,794.918029 C373.577213,794.834649 373.616895,794.804074 373.711755,794.738677 C373.693674,794.748329 405.326966,773.658028 405.326966,773.658028 C406.643025,772.780658 408.356305,772.780658 409.672362,773.658027 L441.253267,794.711828 C441.492017,794.889472 441.492017,794.889472 441.527532,794.918253 Z M440.163897,820.738444 L440.168403,820.734878 C440.167373,820.735665 440.165824,820.736903 440.163897,820.738444 Z M440.162292,796.259559 C440.164303,796.261188 440.165758,796.262367 440.167552,796.26374 C440.167168,796.263431 440.162292,796.259559 440.162292,796.259559 Z M411.416855,795.809979 L423.34341,803.78798 L432.029859,797.976916 L411.416855,784.235947 L411.416855,795.809979 Z M382.969526,797.976886 L391.656777,803.787986 L403.582698,795.809994 L403.582698,784.235937 L382.969526,797.976886 Z M379.833486,811.695637 L384.611545,808.499588 L379.833486,805.303827 L379.833486,811.695637 Z M404.530342,833.585936 L404.530118,834.533353 L404.530342,833.585936 Z M403.582922,821.189387 L391.656972,813.212825 L382.969907,819.02212 L403.582922,832.763294 L403.582922,821.189387 Z M416.29824,808.499566 L407.499871,802.614405 L398.700941,808.499566 L407.499871,814.384913 L416.29824,808.499566 Z M432.029697,819.022086 L423.343438,813.212831 L411.416855,821.189401 L411.416855,832.763145 L432.029697,819.022086 Z M435.165844,805.303752 L430.388724,808.499365 L435.165844,811.695265 L435.165844,805.303752 Z" id="codepen" fill="#272727" fill-rule="nonzero"></path>
        <path d="M0,507.856721 L0,417.309998 L36.2608533,417.309998 L36.2608533,434.807967 L18.446655,434.807967 L18.446655,452.411347 L35.5229871,452.411347 L35.5229871,469.487679 L18.446655,469.487679 L18.446655,490.253342 L37.4203573,490.253342 L37.4203573,507.856721 L0,507.856721 Z M43.4286964,507.856721 L43.4286964,417.309998 L62.0861703,417.309998 L70.4135174,460.633284 L70.4135174,417.309998 L87.9114873,417.309998 L87.9114873,507.856721 L70.2026985,507.856721 L61.1374852,462.530655 L61.1374852,507.856721 L43.4286964,507.856721 Z M103.722906,507.856721 L103.722906,434.702558 L92.9711412,434.702558 L92.9711412,417.309998 L132.605097,417.309998 L132.605097,434.702558 L121.853333,434.702558 L121.853333,507.856721 L103.722906,507.856721 Z M137.664751,417.309998 L165.492848,417.309998 C169.920067,417.309998 173.34584,418.311377 175.77027,420.314167 C178.1947,422.316957 179.82853,425.127848 180.67181,428.746924 C181.51509,432.366 181.936723,436.986401 181.936723,442.608267 C181.936723,447.73822 181.269137,451.743739 179.933943,454.624945 C178.59875,457.506152 176.279765,459.508911 172.976919,460.633284 C175.717579,461.195471 177.70277,462.56578 178.932554,464.744253 C180.162337,466.922726 180.777219,469.874162 180.777219,473.598648 L180.5664,507.856721 L162.857611,507.856721 L162.857611,472.439144 C162.857611,469.909304 162.365705,468.293042 161.381879,467.590309 C160.398052,466.887575 158.60611,466.536214 156.005997,466.536214 L156.005997,507.856721 L137.664751,507.856721 L137.664751,417.309998 Z M160.433194,450.830205 C162.963033,450.830205 164.227934,448.089586 164.227934,442.608267 C164.227934,440.218974 164.122526,438.427031 163.911706,437.232385 C163.700886,436.037738 163.314388,435.212039 162.752202,434.755263 C162.190015,434.298486 161.381884,434.070101 160.327784,434.070101 L156.111406,434.070101 L156.111406,450.830205 L160.433194,450.830205 Z M187.945062,507.856721 L187.945062,417.309998 L224.205915,417.309998 L224.205915,434.807967 L206.391717,434.807967 L206.391717,452.411347 L223.468049,452.411347 L223.468049,469.487679 L206.391717,469.487679 L206.391717,490.253342 L225.365419,490.253342 L225.365419,507.856721 L187.945062,507.856721 Z M231.373759,417.309998 L255.301705,417.309998 C262.539858,417.309998 267.704869,419.64655 270.796896,424.319726 C273.888922,428.992902 275.434912,435.826881 275.434912,444.821866 C275.434912,453.816851 274.064602,460.598125 271.323943,465.165891 C268.583283,469.733657 263.664224,472.017506 256.566619,472.017506 L249.187957,472.017506 L249.187957,507.856721 L231.373759,507.856721 L231.373759,417.309998 Z M250.242051,455.67904 C252.420524,455.67904 254.019219,455.274974 255.038182,454.466831 C256.057145,453.658688 256.724731,452.499196 257.040961,450.988319 C257.357191,449.477443 257.515304,447.31657 257.515304,444.505638 C257.515304,440.710878 257.09367,437.97026 256.25039,436.2837 C255.407111,434.59714 253.720576,433.753873 251.190737,433.753873 L249.187957,433.753873 L249.187957,455.67904 L250.242051,455.67904 Z M281.127022,417.309998 L308.955119,417.309998 C313.382338,417.309998 316.808111,418.311377 319.232541,420.314167 C321.656971,422.316957 323.290801,425.127848 324.134081,428.746924 C324.977361,432.366 325.398994,436.986401 325.398994,442.608267 C325.398994,447.73822 324.731408,451.743739 323.396215,454.624945 C322.061022,457.506152 319.742037,459.508911 316.439191,460.633284 C319.17985,461.195471 321.165042,462.56578 322.394825,464.744253 C323.624608,466.922726 324.23949,469.874162 324.23949,473.598648 L324.028671,507.856721 L306.319883,507.856721 L306.319883,472.439144 C306.319883,469.909304 305.827977,468.293042 304.84415,467.590309 C303.860324,466.887575 302.068381,466.536214 299.468268,466.536214 L299.468268,507.856721 L281.127022,507.856721 L281.127022,417.309998 Z M303.895465,450.830205 C306.425305,450.830205 307.690206,448.089586 307.690206,442.608267 C307.690206,440.218974 307.584797,438.427031 307.373977,437.232385 C307.163157,436.037738 306.77666,435.212039 306.214473,434.755263 C305.652287,434.298486 304.844155,434.070101 303.790056,434.070101 L299.573677,434.070101 L299.573677,450.830205 L303.895465,450.830205 Z M331.407333,507.856721 L331.407333,417.309998 L367.668187,417.309998 L367.668187,434.807967 L349.853988,434.807967 L349.853988,452.411347 L366.930321,452.411347 L366.930321,469.487679 L349.853988,469.487679 L349.853988,490.253342 L368.827691,490.253342 L368.827691,507.856721 L331.407333,507.856721 Z M374.83603,507.856721 L374.83603,417.309998 L393.493504,417.309998 L401.820851,460.633284 L401.820851,417.309998 L419.318821,417.309998 L419.318821,507.856721 L401.610032,507.856721 L392.544819,462.530655 L392.544819,507.856721 L374.83603,507.856721 Z M427.329939,507.856721 L427.329939,417.309998 L463.590793,417.309998 L463.590793,434.807967 L445.776594,434.807967 L445.776594,452.411347 L462.852927,452.411347 L462.852927,469.487679 L445.776594,469.487679 L445.776594,490.253342 L464.750297,490.253342 L464.750297,507.856721 L427.329939,507.856721 Z M475.133128,502.37543 C471.514052,498.15903 469.704541,491.904798 469.704541,483.612546 L469.704541,417.309998 L487.307921,417.309998 L487.307921,482.87468 C487.307921,485.755886 487.58901,488.004599 488.151196,489.620885 C488.713383,491.237172 489.908011,492.045303 491.735118,492.045303 C493.562224,492.045303 494.756853,491.25474 495.319039,489.67359 C495.881226,488.09244 496.162315,485.826159 496.162315,482.87468 L496.162315,417.309998 L513.765694,417.309998 L513.765694,483.612546 C513.765694,491.904798 511.956183,498.15903 508.337107,502.37543 C504.718031,506.591829 499.18409,508.699997 491.735118,508.699997 C484.286146,508.699997 478.752204,506.591829 475.133128,502.37543 Z M520.722719,417.309998 L548.550815,417.309998 C552.978035,417.309998 556.403808,418.311377 558.828237,420.314167 C561.252667,422.316957 562.886497,425.127848 563.729777,428.746924 C564.573057,432.366 564.994691,436.986401 564.994691,442.608267 C564.994691,447.73822 564.327104,451.743739 562.991911,454.624945 C561.656718,457.506152 559.337733,459.508911 556.034887,460.633284 C558.775546,461.195471 560.760738,462.56578 561.990521,464.744253 C563.220304,466.922726 563.835187,469.874162 563.835187,473.598648 L563.624368,507.856721 L545.915579,507.856721 L545.915579,472.439144 C545.915579,469.909304 545.423673,468.293042 544.439846,467.590309 C543.45602,466.887575 541.664077,466.536214 539.063964,466.536214 L539.063964,507.856721 L520.722719,507.856721 L520.722719,417.309998 Z M543.491161,450.830205 C546.021001,450.830205 547.285902,448.089586 547.285902,442.608267 C547.285902,440.218974 547.180493,438.427031 546.969673,437.232385 C546.758853,436.037738 546.372356,435.212039 545.810169,434.755263 C545.247983,434.298486 544.439852,434.070101 543.385752,434.070101 L539.169374,434.070101 L539.169374,450.830205 L543.491161,450.830205 Z" id="entrepreneur" fill="#000000"></path>
        <path d="M411.210566,718.017917 L411.210566,658.239228 L423.525562,658.239228 L429.022085,686.841139 L429.022085,658.239228 L440.571742,658.239228 L440.571742,718.017917 L428.882933,718.017917 L422.899376,688.093777 L422.899376,718.017917 L411.210566,718.017917 Z M449.12962,714.155615 C446.624863,711.20958 445.372503,707.068956 445.372503,701.733617 L445.372503,673.270889 C445.372503,668.121128 446.624863,664.235668 449.12962,661.614393 C451.634377,658.993118 455.298689,657.6825 460.122667,657.6825 C464.946644,657.6825 468.610956,658.993118 471.115713,661.614393 C473.620471,664.235668 474.87283,668.121128 474.87283,673.270889 L474.87283,701.733617 C474.87283,707.11535 473.620471,711.267573 471.115713,714.19041 C468.610956,717.113248 464.946644,718.574645 460.122667,718.574645 C455.298689,718.574645 451.634377,717.10165 449.12962,714.155615 Z M462.27953,706.187443 C462.650605,705.259558 462.83614,703.960538 462.83614,702.290346 L462.83614,673.062116 C462.83614,671.763077 462.662201,670.707624 462.314318,669.895724 C461.966435,669.083825 461.259084,668.677882 460.192243,668.677882 C458.197714,668.677882 457.200464,670.185672 457.200464,673.201298 L457.200464,702.359937 C457.200464,704.076524 457.409191,705.375543 457.82665,706.257034 C458.24411,707.138525 459.009441,707.579263 460.122667,707.579263 C461.189508,707.579263 461.908455,707.115328 462.27953,706.187443 Z M484.822233,718.017917 L484.822233,669.721747 L477.725456,669.721747 L477.725456,658.239228 L503.886125,658.239228 L503.886125,669.721747 L496.789348,669.721747 L496.789348,718.017917 L484.822233,718.017917 Z M507.225784,718.017917 L507.225784,658.239228 L531.160012,658.239228 L531.160012,669.791338 L519.401627,669.791338 L519.401627,681.413039 L530.672979,681.413039 L530.672979,692.686784 L519.401627,692.686784 L519.401627,706.396216 L531.925351,706.396216 L531.925351,718.017917 L507.225784,718.017917 Z M563.789434,727.298629 L563.789434,733.6825 L411,733.6825 L411,727.298629 L563.789434,727.298629 Z M548.484497,657.6825 C553.865087,657.6825 557.738126,659.109102 560.10373,661.962348 C562.469334,664.815594 563.652119,669.280973 563.652119,675.35862 L551.476276,675.35862 L551.4067,671.252749 C551.4067,670.464047 551.186377,669.837734 550.745725,669.373792 C550.305074,668.909849 549.69049,668.677882 548.901955,668.677882 C547.974267,668.677882 547.278511,668.933046 546.814668,669.443383 C546.350824,669.95372 546.118905,670.649623 546.118905,671.531114 C546.118905,673.479672 547.232114,675.497791 549.458565,677.585532 L556.416189,684.266271 C558.039643,685.843675 559.38477,687.339867 560.451612,688.754892 C561.518453,690.169916 562.376551,691.840084 563.025933,693.765445 C563.675314,695.690807 564,697.975689 564,700.620161 C564,706.51223 562.921579,710.97761 560.764705,714.016433 C558.60783,717.055256 555.047881,718.574645 550.084751,718.574645 C544.657777,718.574645 540.738354,717.229232 538.326366,714.538366 C535.914377,711.847499 534.708401,707.509702 534.708401,701.524844 L534.708401,695.679198 L546.466786,695.679198 L546.466786,703.125438 C546.466786,706.09467 547.417652,707.579263 549.319412,707.579263 C550.386253,707.579263 551.128393,707.266107 551.545852,706.639784 C551.963312,706.013462 552.172038,704.958009 552.172038,703.473393 C552.172038,701.524835 551.94012,699.912659 551.476276,698.636817 C551.012432,697.360975 550.42104,696.293923 549.702082,695.43563 C548.983124,694.577336 547.695976,693.243522 545.8406,691.434146 L540.691958,686.28441 C536.7029,682.387294 534.708401,678.072693 534.708401,673.34048 C534.708401,668.237113 535.879589,664.351653 538.222001,661.683984 C540.564413,659.016315 543.985211,657.6825 548.484497,657.6825 Z" id="notes" fill="#000000"></path>
        <path d="M244.105379,658.239101 L260.331063,658.239101 C264.695075,658.239101 267.863578,659.30591 269.836668,661.439558 C271.809759,663.573207 272.796289,667.05193 272.796289,671.875831 L272.796289,674.519687 C272.796289,680.224878 270.753591,683.634026 266.668133,684.747234 C269.175119,685.396605 270.939267,686.904052 271.960631,689.269619 C272.981996,691.635186 273.49267,694.766036 273.49267,698.662264 C273.49267,705.016826 272.540959,709.82906 270.637507,713.099108 C268.734055,716.369157 265.298608,718.004156 260.331063,718.004156 L244.105379,718.004156 L244.105379,658.239101 Z M258.241919,680.711875 C259.263284,680.711875 259.959658,680.329216 260.331063,679.563885 C260.702469,678.798555 260.888168,677.720151 260.888168,676.328641 L260.888168,670.345178 C260.888168,668.397064 260.029307,667.423021 258.311558,667.423021 L255.804585,667.423021 L255.804585,680.711875 L258.241919,680.711875 Z M261.654188,703.045499 L261.654188,695.600957 C261.654188,693.791995 261.387244,692.423697 260.853349,691.496024 C260.319454,690.56835 259.379349,690.104521 258.033005,690.104521 L255.804585,690.104521 L255.804585,707.428733 L256.988433,707.498308 C260.098952,707.498308 261.654188,706.014053 261.654188,703.045499 Z M280.735036,714.142735 C278.228051,711.197373 276.974577,707.057692 276.974577,701.723571 L276.974577,673.267334 C276.974577,668.118747 278.228051,664.234173 280.735036,661.613496 C283.242021,658.992819 286.909593,657.6825 291.737861,657.6825 C296.566129,657.6825 300.2337,658.992819 302.740686,661.613496 C305.247671,664.234173 306.501145,668.118747 306.501145,673.267334 L306.501145,701.723571 C306.501145,707.104076 305.247671,711.255352 302.740686,714.177523 C300.2337,717.099694 296.566129,718.560757 291.737861,718.560757 C286.909593,718.560757 283.242021,717.088098 280.735036,714.142735 Z M293.896643,706.176381 C294.268048,705.248707 294.453748,703.949984 294.453748,702.280172 L294.453748,673.058608 C294.453748,671.759866 294.279654,670.704653 293.931462,669.892939 C293.58327,669.081225 292.875289,668.675374 291.807499,668.675374 C289.811196,668.675374 288.813059,670.18282 288.813059,673.197759 L288.813059,702.349747 C288.813059,704.065943 289.021972,705.364666 289.439802,706.245956 C289.857633,707.127245 290.623645,707.567884 291.737861,707.567884 C292.805651,707.567884 293.525238,707.104054 293.896643,706.176381 Z M314.579168,714.142735 C312.072183,711.197373 310.818709,707.057692 310.818709,701.723571 L310.818709,673.267334 C310.818709,668.118747 312.072183,664.234173 314.579168,661.613496 C317.086153,658.992819 320.753725,657.6825 325.581993,657.6825 C330.410261,657.6825 334.077832,658.992819 336.584818,661.613496 C339.091803,664.234173 340.345277,668.118747 340.345277,673.267334 L340.345277,701.723571 C340.345277,707.104076 339.091803,711.255352 336.584818,714.177523 C334.077832,717.099694 330.410261,718.560757 325.581993,718.560757 C320.753725,718.560757 317.086153,717.088098 314.579168,714.142735 Z M327.740775,706.176381 C328.11218,705.248707 328.29788,703.949984 328.29788,702.280172 L328.29788,673.058608 C328.29788,671.759866 328.123786,670.704653 327.775594,669.892939 C327.427401,669.081225 326.719421,668.675374 325.651631,668.675374 C323.655328,668.675374 322.657191,670.18282 322.657191,673.197759 L322.657191,702.349747 C322.657191,704.065943 322.866104,705.364666 323.283934,706.245956 C323.701765,707.127245 324.467777,707.567884 325.581993,707.567884 C326.649783,707.567884 327.36937,707.104054 327.740775,706.176381 Z M375.894621,727.299969 L375.894621,733.6825 L244,733.6825 L244,727.299969 L375.894621,727.299969 Z M356.98879,658.239101 L356.98879,682.172953 L362.559841,658.239101 L374.607237,658.239101 L367.921977,685.582136 L376,718.004156 L363.604413,718.004156 L357.058428,689.060893 L357.058428,718.004156 L345.150308,718.004156 L345.150308,658.239101 L356.98879,658.239101 Z" id="book" fill="#000000"></path>
        <path d="M207.752053,727.3207 L207.752053,733.6825 L1.4597905,733.6825 L1.4597905,727.3207 L207.752053,727.3207 Z M192.99918,657.6825 C197.044856,657.6825 200.147298,658.491464 202.306507,660.109393 C204.465716,661.727321 205.954434,664.086328 206.77266,667.186415 C207.590887,670.286501 208,674.065439 208,678.523228 L208,678.523228 L196.272087,678.523228 L196.272087,673.228189 L196.266802,672.847524 C196.235096,671.724364 196.060711,670.770748 195.743649,669.986675 C195.391357,669.115483 194.658362,668.679887 193.544665,668.679887 C192.158225,668.679887 191.243403,669.143769 190.800197,670.071532 C190.356991,670.999295 190.135388,672.017572 190.135388,673.126362 L190.135388,673.126362 L190.135388,702.079359 L190.139768,702.474767 C190.171887,703.901689 190.380666,705.076675 190.766104,705.999724 C191.186581,707.006687 192.01049,707.510168 193.23783,707.510168 C194.510627,707.510168 195.357264,707.006687 195.777741,705.999724 C196.198219,704.992762 196.408458,703.663345 196.408458,702.011474 L196.408458,702.011474 L196.408458,693.491893 L193.203737,693.491893 L193.203737,683.173357 L207.863629,683.173357 L207.863629,717.964474 L203.056548,717.964474 L201.010982,712.940976 L200.833941,713.245936 C198.735938,716.753682 195.499317,718.507555 191.124078,718.507555 C182.555428,718.507555 178.271103,712.397896 178.271103,700.178576 L178.271103,700.178576 L178.271103,674.416179 L178.273293,674.010529 C178.391574,663.125176 183.300203,657.6825 192.99918,657.6825 Z M11.7279135,658.225581 L15.0349123,695.935757 L18.4100967,658.225581 L29.5925258,658.225581 L32.7972464,695.935757 L36.0019669,658.225581 L47.8662514,658.225581 L41.3204393,717.964474 L26.9332896,717.964474 L23.9331257,689.215132 L21.0693329,717.964474 L6.44353385,717.964474 L0,658.225581 L11.7279135,658.225581 Z M69.8560892,658.225581 L70.2520551,658.229527 C73.1246128,658.287402 75.3109326,658.981909 76.8110146,660.313048 C78.3792821,661.704693 79.4304759,663.650732 79.964596,666.151167 C80.4987161,668.651602 80.7657761,671.587633 80.7657761,674.959259 C80.7657761,678.217745 80.3509807,680.820007 79.5213899,682.766047 C78.6917992,684.712086 77.1292138,686.058474 74.8336338,686.805211 C76.7201005,687.189893 78.0440365,688.123313 78.8054417,689.605471 C79.566847,691.087629 79.9475496,693.005384 79.9475496,695.358734 L79.9475496,695.358734 L79.9475496,717.964474 L68.1173578,717.964474 L68.1173578,694.578055 L68.1140432,694.293786 C68.0764781,692.717658 67.7196088,691.731909 67.0434355,691.336541 C66.3274873,690.917917 65.1740152,690.708604 63.5830192,690.708604 L63.5830192,690.708604 L63.5830192,717.964474 L51.4459925,717.964474 L51.4459925,658.225581 L69.8560892,658.225581 Z M95.7665956,658.225581 L95.7665956,717.964474 L84.1750533,717.964474 L84.1750533,658.225581 L95.7665956,658.225581 Z M124.813637,658.225581 L124.813637,669.698164 L117.688248,669.698164 L117.688248,717.964474 L105.687592,717.964474 L105.687592,669.698164 L98.5622029,669.698164 L98.5622029,658.225581 L124.813637,658.225581 Z M139.200787,658.225581 L139.200787,717.964474 L127.609244,717.964474 L127.609244,658.225581 L139.200787,658.225581 Z M156.315358,658.225581 L161.838387,686.839153 L161.838387,658.225581 L173.42993,658.225581 L173.42993,717.964474 L161.702016,717.964474 L155.701688,688.095028 L155.701688,717.964474 L143.973775,717.964474 L143.973775,658.225581 L156.315358,658.225581 Z M66.446812,669.290853 L63.6512047,669.290853 L63.6512047,680.356125 L66.5490903,680.356125 C68.2082719,680.356125 69.0378626,678.55717 69.0378626,674.959259 C69.0378626,672.628538 68.8560345,671.101123 68.4923783,670.377015 C68.1287221,669.652907 67.4468666,669.290853 66.446812,669.290853 L66.446812,669.290853 Z" id="writing" fill="#000000"></path>
    </g>
</svg>