<svg width="297" height="94" viewBox="0 0 297 94" fill="none" xmlns="http://www.w3.org/2000/svg">
<rect width="3318" height="387" transform="translate(-351 -62)" fill="white"/>
<path d="M19.48 0.119995C32.664 0.119995 38.68 8.696 38.68 19.32V30.712C38.68 32.12 37.784 33.144 36.376 33.144L26.136 34.04C24.472 34.168 23.32 33.144 23.32 31.48V18.04C23.32 15.864 21.656 14.2 19.48 14.2C17.304 14.2 15.64 15.864 15.64 18.04C15.64 37.752 39.96 52.472 39.96 72.44C39.96 83.448 33.688 92.28 20.12 92.28C6.552 92.28 0.279999 83.448 0.279999 72.44V58.872C0.279999 57.464 1.176 56.44 2.584 56.312L12.824 55.544C14.488 55.416 15.64 56.44 15.64 58.104V73.72C15.64 76.152 17.688 78.2 20.12 78.2C22.552 78.2 24.6 76.152 24.6 73.72C24.6 55.288 0.279999 43.64 0.279999 19.32C0.279999 8.696 6.296 0.119995 19.48 0.119995Z" fill="black"/>
<path d="M81.57 19.32V41.336C81.57 42.744 80.674 43.768 79.266 43.768L69.026 44.664C67.362 44.792 66.21 43.768 66.21 42.104V18.04C66.21 15.864 64.546 14.2 62.37 14.2C60.194 14.2 58.53 15.864 58.53 18.04V74.36C58.53 76.536 60.194 78.2 62.37 78.2C64.546 78.2 66.21 76.536 66.21 74.36V57.72C66.21 56.184 67.234 55.16 68.77 55.16H79.01C80.546 55.16 81.57 56.184 81.57 57.72V73.08C81.57 83.704 75.554 92.28 62.37 92.28C49.186 92.28 43.17 83.704 43.17 73.08V19.32C43.17 8.696 49.186 0.119995 62.37 0.119995C75.554 0.119995 81.57 8.696 81.57 19.32Z" fill="black"/>
<path d="M111.66 91C110.124 91 109.1 89.976 109.1 88.44V61.176H101.42V88.44C101.42 89.976 100.396 91 98.86 91H88.62C87.084 91 86.06 89.976 86.06 88.44V3.96C86.06 2.424 87.084 1.39999 88.62 1.39999H98.86C100.396 1.39999 101.42 2.424 101.42 3.96V47.096H109.1V3.96C109.1 2.424 110.124 1.39999 111.66 1.39999H121.9C123.436 1.39999 124.46 2.424 124.46 3.96V88.44C124.46 89.976 123.436 91 121.9 91H111.66Z" fill="black"/>
<path d="M132.12 91C130.584 91 129.56 89.976 129.56 88.44V3.96C129.56 2.424 130.584 1.39999 132.12 1.39999H151.32C164.504 1.39999 167.96 9.976 167.96 20.6V34.808C167.96 41.848 165.912 46.968 160.536 49.528C163.352 51.064 164.76 54.008 165.4 59.128L168.856 88.184C169.112 89.848 168.088 91 166.296 91H156.184C154.776 91 153.752 90.104 153.624 88.696L150.04 57.848C149.784 55.672 148.376 54.008 146.2 54.008H144.92V88.44C144.92 89.976 143.896 91 142.36 91H132.12ZM148.76 15.48H144.92V39.928H148.76C150.936 39.928 152.6 38.264 152.6 36.088V19.32C152.6 17.144 150.936 15.48 148.76 15.48Z" fill="black"/>
<path d="M191.62 0.119995C204.804 0.119995 210.82 8.696 210.82 19.32V73.08C210.82 83.704 204.804 92.28 191.62 92.28C178.436 92.28 172.42 83.704 172.42 73.08V19.32C172.42 8.696 178.436 0.119995 191.62 0.119995ZM195.46 74.36V18.04C195.46 15.864 193.796 14.2 191.62 14.2C189.444 14.2 187.78 15.864 187.78 18.04V74.36C187.78 76.536 189.444 78.2 191.62 78.2C193.796 78.2 195.46 76.536 195.46 74.36Z" fill="black"/>
<path d="M217.87 91C216.334 91 215.31 89.976 215.31 88.44V3.96C215.31 2.424 216.334 1.39999 217.87 1.39999H237.07C250.254 1.39999 253.71 9.976 253.71 20.6V50.168C253.71 60.792 250.254 69.368 237.07 69.368H230.67V88.44C230.67 89.976 229.646 91 228.11 91H217.87ZM234.51 15.48H230.67V55.288H234.51C236.686 55.288 238.35 53.624 238.35 51.448V19.32C238.35 17.144 236.686 15.48 234.51 15.48Z" fill="black"/>
<path d="M260.745 91C259.209 91 258.185 89.976 258.185 88.44V3.96C258.185 2.424 259.209 1.39999 260.745 1.39999H279.945C293.129 1.39999 296.585 9.976 296.585 20.6V50.168C296.585 60.792 293.129 69.368 279.945 69.368H273.545V88.44C273.545 89.976 272.521 91 270.985 91H260.745ZM277.385 15.48H273.545V55.288H277.385C279.561 55.288 281.225 53.624 281.225 51.448V19.32C281.225 17.144 279.561 15.48 277.385 15.48Z" fill="black"/>
</svg>
