<svg width="87" height="113" viewBox="0 0 87 113" fill="none" xmlns="http://www.w3.org/2000/svg">
<rect width="3318" height="387" transform="translate(-3180 -62)" fill="white"/>
<path d="M0.25 102C0.25 100.343 1.59315 99 3.25 99H83.85C85.5069 99 86.85 100.343 86.85 102V110C86.85 111.657 85.5069 113 83.85 113H3.25C1.59314 113 0.25 111.657 0.25 110V102Z" fill="black"/>
<path d="M12.8001 91C11.2641 91 10.2401 89.976 10.2401 88.44V15.48H2.81612C1.15212 15.48 0.128117 14.328 0.256117 12.664L1.02412 3.70403C1.15212 2.29603 2.17612 1.40002 3.58412 1.40002H32.2561C33.6641 1.40002 34.6881 2.29603 34.8161 3.70403L35.5841 12.664C35.7121 14.328 34.6881 15.48 33.0241 15.48H25.6001V88.44C25.6001 89.976 24.5761 91 23.0401 91H12.8001Z" fill="black"/>
<path d="M40.9951 91C39.4591 91 38.4351 89.976 38.4351 88.44V3.96003C38.4351 2.42403 39.4591 1.40002 40.9951 1.40002H51.2351C52.7711 1.40002 53.7951 2.42403 53.7951 3.96003V88.44C53.7951 89.976 52.7711 91 51.2351 91H40.9951Z" fill="black"/>
<path d="M61.4951 91C59.9591 91 58.9351 89.976 58.9351 88.44V3.96003C58.9351 2.42403 59.9591 1.40002 61.4951 1.40002H71.7351C73.2711 1.40002 74.2951 2.42403 74.2951 3.96003V76.92H84.2791C85.9431 76.92 86.9671 78.072 86.8391 79.736L86.0711 88.696C85.9431 90.104 84.9191 91 83.5111 91H61.4951Z" fill="black"/>
</svg>
