<svg width="272" height="113" viewBox="0 0 272 113" fill="none" xmlns="http://www.w3.org/2000/svg">
<rect width="3318" height="387" transform="translate(-2607 -62)" fill="white"/>
<path d="M0.560059 102C0.560059 100.343 1.9032 99 3.56006 99H268.32C269.977 99 271.32 100.343 271.32 102V110C271.32 111.657 269.977 113 268.32 113H3.56005C1.9032 113 0.560059 111.657 0.560059 110V102Z" fill="black"/>
<path d="M62.0001 73.08C62.0001 83.704 58.1601 92.28 45.8721 92.28C37.0401 92.28 33.0721 87.928 31.2801 83.448C29.4881 87.928 25.5201 92.28 16.8161 92.28C4.40006 92.28 0.560059 83.704 0.560059 73.08V3.96C0.560059 2.424 1.58406 1.39999 3.12006 1.39999H13.3601C14.8961 1.39999 15.9201 2.424 15.9201 3.96V74.36C15.9201 76.536 17.5841 78.2 19.7601 78.2C21.9361 78.2 23.6001 76.536 23.6001 74.36V3.96C23.6001 2.424 24.6241 1.39999 26.1601 1.39999H36.4001C37.9361 1.39999 38.9601 2.424 38.9601 3.96V74.36C38.9601 76.536 40.6241 78.2 42.8001 78.2C44.9761 78.2 46.6401 76.536 46.6401 74.36V3.96C46.6401 2.424 47.6641 1.39999 49.2001 1.39999H59.4401C60.9761 1.39999 62.0001 2.424 62.0001 3.96V73.08Z" fill="black"/>
<path d="M69.6201 91C68.0841 91 67.0601 89.976 67.0601 88.44V3.96C67.0601 2.424 68.0841 1.39999 69.6201 1.39999H88.8201C102.004 1.39999 105.46 9.976 105.46 20.6V34.808C105.46 41.848 103.412 46.968 98.0361 49.528C100.852 51.064 102.26 54.008 102.9 59.128L106.356 88.184C106.612 89.848 105.588 91 103.796 91H93.6841C92.2761 91 91.2521 90.104 91.1241 88.696L87.5401 57.848C87.2841 55.672 85.8761 54.008 83.7001 54.008H82.4201V88.44C82.4201 89.976 81.3961 91 79.8601 91H69.6201ZM86.2601 15.48H82.4201V39.928H86.2601C88.4361 39.928 90.1001 38.264 90.1001 36.088V19.32C90.1001 17.144 88.4361 15.48 86.2601 15.48Z" fill="black"/>
<path d="M113.12 91C111.584 91 110.56 89.976 110.56 88.44V3.96C110.56 2.424 111.584 1.39999 113.12 1.39999H123.36C124.896 1.39999 125.92 2.424 125.92 3.96V88.44C125.92 89.976 124.896 91 123.36 91H113.12Z" fill="black"/>
<path d="M141.3 91C139.764 91 138.74 89.976 138.74 88.44V15.48H131.316C129.652 15.48 128.628 14.328 128.756 12.664L129.524 3.70399C129.652 2.296 130.676 1.39999 132.084 1.39999H160.756C162.164 1.39999 163.188 2.296 163.316 3.70399L164.084 12.664C164.212 14.328 163.188 15.48 161.524 15.48H154.1V88.44C154.1 89.976 153.076 91 151.54 91H141.3Z" fill="black"/>
<path d="M169.495 91C167.959 91 166.935 89.976 166.935 88.44V3.96C166.935 2.424 167.959 1.39999 169.495 1.39999H179.735C181.271 1.39999 182.295 2.424 182.295 3.96V88.44C182.295 89.976 181.271 91 179.735 91H169.495Z" fill="black"/>
<path d="M215.083 91C213.931 91 212.907 90.232 212.651 88.952L202.795 39.8V88.44C202.795 89.976 201.771 91 200.235 91H189.995C188.459 91 187.435 89.976 187.435 88.44V3.96C187.435 2.424 188.459 1.39999 189.995 1.39999H200.747C201.899 1.39999 202.923 2.168 203.179 3.448L213.035 52.6V3.96C213.035 2.424 214.059 1.39999 215.595 1.39999H225.835C227.371 1.39999 228.395 2.424 228.395 3.96V88.44C228.395 89.976 227.371 91 225.835 91H215.083Z" fill="black"/>
<path d="M271.32 19.32V28.408C271.32 29.816 270.424 30.84 269.016 30.84L258.776 31.736C257.112 31.864 255.96 30.84 255.96 29.176V18.04C255.96 15.864 254.296 14.2 252.12 14.2C249.944 14.2 248.28 15.864 248.28 18.04V74.36C248.28 76.536 249.944 78.2 252.12 78.2C254.296 78.2 255.96 76.536 255.96 74.36V50.68H254.04C252.888 50.68 252.248 49.912 252.248 48.76L253.144 38.904C253.272 37.496 254.296 36.6 255.704 36.6H268.76C270.296 36.6 271.32 37.624 271.32 39.16V88.44C271.32 89.976 270.296 91 268.76 91H260.696C259.416 91 258.392 90.104 258.136 88.824L257.496 84.088C255.448 88.312 251.864 92.28 245.208 92.28C234.2 92.28 232.92 83.704 232.92 73.08V19.32C232.92 8.696 238.936 0.119995 252.12 0.119995C265.304 0.119995 271.32 8.696 271.32 19.32Z" fill="black"/>
</svg>
